  0
SECTION
  2
HEADER
  9
$ACADVER
  1
AC1032
  9
$ACADMAINTVER
 90
4
  9
$DWGCODEPAGE
  3
ANSI_1252
  9
$LASTSAVEDBY
  1
ezdxf
  9
$REQUIREDVERSIONS
160
0
  9
$INSBASE
 10
0.0
 20
0.0
 30
0.0
  9
$EXTMIN
 10
1e+20
 20
1e+20
 30
1e+20
  9
$EXTMAX
 10
-1e+20
 20
-1e+20
 30
-1e+20
  9
$LIMMIN
 10
0.0
 20
0.0
  9
$LIMMAX
 10
420.0
 20
297.0
  9
$ORTHOMODE
 70
0
  9
$REGENMODE
 70
1
  9
$FILLMODE
 70
1
  9
$QTEXTMODE
 70
0
  9
$MIRRTEXT
 70
1
  9
$LTSCALE
 40
1.0
  9
$ATTMODE
 70
1
  9
$TEXTSIZE
 40
2.5
  9
$TRACEWID
 40
1.0
  9
$TEXTSTYLE
  7
OpenSans
  9
$CLAYER
  8
0
  9
$CELTYPE
  6
ByLayer
  9
$CECOLOR
 62
256
  9
$CELTSCALE
 40
1.0
  9
$DISPSILH
 70
0
  9
$DIMSCALE
 40
1.0
  9
$DIMASZ
 40
0.175
  9
$DIMEXO
 40
0.125
  9
$DIMDLI
 40
3.75
  9
$DIMRND
 40
0.0
  9
$DIMDLE
 40
0.0
  9
$DIMEXE
 40
0.375
  9
$DIMTP
 40
0.0
  9
$DIMTM
 40
0.0
  9
$DIMTXT
 40
0.25
  9
$DIMCEN
 40
2.5
  9
$DIMTSZ
 40
0.0
  9
$DIMTOL
 70
0
  9
$DIMLIM
 70
0
  9
$DIMTIH
 70
0
  9
$DIMTOH
 70
0
  9
$DIMSE1
 70
0
  9
$DIMSE2
 70
0
  9
$DIMTAD
 70
1
  9
$DIMZIN
 70
12
  9
$DIMBLK
  1
ARCHTICK
  9
$DIMASO
 70
1
  9
$DIMSHO
 70
1
  9
$DIMPOST
  1

  9
$DIMAPOST
  1

  9
$DIMALT
 70
0
  9
$DIMALTD
 70
3
  9
$DIMALTF
 40
0.03937007874
  9
$DIMLFAC
 40
100.0
  9
$DIMTOFL
 70
1
  9
$DIMTVP
 40
0.0
  9
$DIMTIX
 70
0
  9
$DIMSOXD
 70
0
  9
$DIMSAH
 70
0
  9
$DIMBLK1
  1

  9
$DIMBLK2
  1

  9
$DIMSTYLE
  2
EZDXF
  9
$DIMCLRD
 70
0
  9
$DIMCLRE
 70
0
  9
$DIMCLRT
 70
0
  9
$DIMTFAC
 40
0.5
  9
$DIMGAP
 40
0.1
  9
$DIMJUST
 70
0
  9
$DIMSD1
 70
0
  9
$DIMSD2
 70
0
  9
$DIMTOLJ
 70
0
  9
$DIMTZIN
 70
8
  9
$DIMALTZ
 70
0
  9
$DIMALTTZ
 70
0
  9
$DIMUPT
 70
1
  9
$DIMDEC
 70
2
  9
$DIMTDEC
 70
2
  9
$DIMALTU
 70
2
  9
$DIMALTTD
 70
3
  9
$DIMTXSTY
  7
OpenSansCondensed-Light
  9
$DIMAUNIT
 70
0
  9
$DIMADEC
 70
2
  9
$DIMALTRND
 40
0.0
  9
$DIMAZIN
 70
3
  9
$DIMDSEP
 70
46
  9
$DIMATFIT
 70
3
  9
$DIMFRAC
 70
0
  9
$DIMLDRBLK
  1

  9
$DIMLUNIT
 70
2
  9
$DIMLWD
 70
-2
  9
$DIMLWE
 70
-2
  9
$DIMTMOVE
 70
2
  9
$DIMFXL
 40
1.0
  9
$DIMFXLON
 70
0
  9
$DIMJOGANG
 40
0.785398163397
  9
$DIMTFILL
 70
0
  9
$DIMTFILLCLR
 70
0
  9
$DIMARCSYM
 70
0
  9
$DIMLTYPE
  6

  9
$DIMLTEX1
  6

  9
$DIMLTEX2
  6

  9
$DIMTXTDIRECTION
 70
0
  9
$LUNITS
 70
2
  9
$LUPREC
 70
4
  9
$SKETCHINC
 40
1.0
  9
$FILLETRAD
 40
10.0
  9
$AUNITS
 70
0
  9
$AUPREC
 70
2
  9
$MENU
  1
.
  9
$ELEVATION
 40
0.0
  9
$PELEVATION
 40
0.0
  9
$THICKNESS
 40
0.0
  9
$LIMCHECK
 70
0
  9
$CHAMFERA
 40
0.0
  9
$CHAMFERB
 40
0.0
  9
$CHAMFERC
 40
0.0
  9
$CHAMFERD
 40
0.0
  9
$SKPOLY
 70
0
  9
$TDCREATE
 40
2461252.847037037
  9
$TDUCREATE
 40
2458532.153996898
  9
$TDUPDATE
 40
2461252.847037037
  9
$TDUUPDATE
 40
2458532.1544311
  9
$TDINDWG
 40
0.0
  9
$TDUSRTIMER
 40
0.0
  9
$USRTIMER
 70
1
  9
$ANGBASE
 50
0.0
  9
$ANGDIR
 70
0
  9
$PDMODE
 70
0
  9
$PDSIZE
 40
0.0
  9
$PLINEWID
 40
0.0
  9
$SPLFRAME
 70
0
  9
$SPLINETYPE
 70
6
  9
$SPLINESEGS
 70
8
  9
$HANDSEED
  5
324
  9
$SURFTAB1
 70
6
  9
$SURFTAB2
 70
6
  9
$SURFTYPE
 70
6
  9
$SURFU
 70
6
  9
$SURFV
 70
6
  9
$UCSBASE
  2

  9
$UCSNAME
  2

  9
$UCSORG
 10
0.0
 20
0.0
 30
0.0
  9
$UCSXDIR
 10
1.0
 20
0.0
 30
0.0
  9
$UCSYDIR
 10
0.0
 20
1.0
 30
0.0
  9
$UCSORTHOREF
  2

  9
$UCSORTHOVIEW
 70
0
  9
$UCSORGTOP
 10
0.0
 20
0.0
 30
0.0
  9
$UCSORGBOTTOM
 10
0.0
 20
0.0
 30
0.0
  9
$UCSORGLEFT
 10
0.0
 20
0.0
 30
0.0
  9
$UCSORGRIGHT
 10
0.0
 20
0.0
 30
0.0
  9
$UCSORGFRONT
 10
0.0
 20
0.0
 30
0.0
  9
$UCSORGBACK
 10
0.0
 20
0.0
 30
0.0
  9
$PUCSBASE
  2

  9
$PUCSNAME
  2

  9
$PUCSORG
 10
0.0
 20
0.0
 30
0.0
  9
$PUCSXDIR
 10
1.0
 20
0.0
 30
0.0
  9
$PUCSYDIR
 10
0.0
 20
1.0
 30
0.0
  9
$PUCSORTHOREF
  2

  9
$PUCSORTHOVIEW
 70
0
  9
$PUCSORGTOP
 10
0.0
 20
0.0
 30
0.0
  9
$PUCSORGBOTTOM
 10
0.0
 20
0.0
 30
0.0
  9
$PUCSORGLEFT
 10
0.0
 20
0.0
 30
0.0
  9
$PUCSORGRIGHT
 10
0.0
 20
0.0
 30
0.0
  9
$PUCSORGFRONT
 10
0.0
 20
0.0
 30
0.0
  9
$PUCSORGBACK
 10
0.0
 20
0.0
 30
0.0
  9
$USERI1
 70
0
  9
$USERI2
 70
0
  9
$USERI3
 70
0
  9
$USERI4
 70
0
  9
$USERI5
 70
0
  9
$USERR1
 40
0.0
  9
$USERR2
 40
0.0
  9
$USERR3
 40
0.0
  9
$USERR4
 40
0.0
  9
$USERR5
 40
0.0
  9
$WORLDVIEW
 70
1
  9
$SHADEDGE
 70
3
  9
$SHADEDIF
 70
70
  9
$TILEMODE
 70
1
  9
$MAXACTVP
 70
64
  9
$PINSBASE
 10
0.0
 20
0.0
 30
0.0
  9
$PLIMCHECK
 70
0
  9
$PEXTMIN
 10
1e+20
 20
1e+20
 30
1e+20
  9
$PEXTMAX
 10
-1e+20
 20
-1e+20
 30
-1e+20
  9
$PLIMMIN
 10
0.0
 20
0.0
  9
$PLIMMAX
 10
420.0
 20
297.0
  9
$UNITMODE
 70
0
  9
$VISRETAIN
 70
1
  9
$PLINEGEN
 70
0
  9
$PSLTSCALE
 70
1
  9
$TREEDEPTH
 70
3020
  9
$CMLSTYLE
  2
Standard
  9
$CMLJUST
 70
0
  9
$CMLSCALE
 40
20.0
  9
$PROXYGRAPHICS
 70
1
  9
$MEASUREMENT
 70
1
  9
$CELWEIGHT
370
-1
  9
$ENDCAPS
280
0
  9
$JOINSTYLE
280
0
  9
$LWDISPLAY
290
0
  9
$INSUNITS
 70
1
  9
$HYPERLINKBASE
  1

  9
$STYLESHEET
  1

  9
$XEDIT
290
1
  9
$CEPSNTYPE
380
0
  9
$PSTYLEMODE
290
1
  9
$FINGERPRINTGUID
  2
{97265745-8429-4EB7-A71C-BBC84712F403}
  9
$VERSIONGUID
  2
{ED2FBDA2-D46F-4320-A3C4-A6D00C57C61F}
  9
$EXTNAMES
290
1
  9
$PSVPSCALE
 40
0.0
  9
$OLESTARTUP
290
0
  9
$SORTENTS
280
127
  9
$INDEXCTL
280
0
  9
$HIDETEXT
280
1
  9
$XCLIPFRAME
280
1
  9
$HALOGAP
280
0
  9
$OBSCOLOR
 70
257
  9
$OBSLTYPE
280
0
  9
$INTERSECTIONDISPLAY
280
0
  9
$INTERSECTIONCOLOR
 70
257
  9
$DIMASSOC
280
2
  9
$PROJECTNAME
  1

  9
$CAMERADISPLAY
290
0
  9
$LENSLENGTH
 40
50.0
  9
$CAMERAHEIGHT
 40
0.0
  9
$STEPSPERSEC
 40
24.0
  9
$STEPSIZE
 40
100.0
  9
$3DDWFPREC
 40
2.0
  9
$PSOLWIDTH
 40
0.005
  9
$PSOLHEIGHT
 40
0.08
  9
$LOFTANG1
 40
1.570796326795
  9
$LOFTANG2
 40
1.570796326795
  9
$LOFTMAG1
 40
0.0
  9
$LOFTMAG2
 40
0.0
  9
$LOFTPARAM
 70
7
  9
$LOFTNORMALS
280
1
  9
$LATITUDE
 40
37.795
  9
$LONGITUDE
 40
-122.394
  9
$NORTHDIRECTION
 40
0.0
  9
$TIMEZONE
 70
-8000
  9
$LIGHTGLYPHDISPLAY
280
1
  9
$TILEMODELIGHTSYNCH
280
1
  9
$CMATERIAL
347
20
  9
$SOLIDHIST
280
0
  9
$SHOWHIST
280
1
  9
$DWFFRAME
280
2
  9
$DGNFRAME
280
2
  9
$REALWORLDSCALE
290
1
  9
$INTERFERECOLOR
 62
256
  9
$CSHADOW
280
0
  9
$SHADOWPLANELOCATION
 40
0.0
  0
ENDSEC
  0
SECTION
  2
CLASSES
  0
CLASS
  1
ACDBDICTIONARYWDFLT
  2
AcDbDictionaryWithDefault
  3
ObjectDBX Classes
 90
0
 91
0
280
0
281
0
  0
CLASS
  1
SUN
  2
AcDbSun
  3
SCENEOE
 90
1153
 91
0
280
0
281
0
  0
CLASS
  1
VISUALSTYLE
  2
AcDbVisualStyle
  3
ObjectDBX Classes
 90
4095
 91
0
280
0
281
0
  0
CLASS
  1
MATERIAL
  2
AcDbMaterial
  3
ObjectDBX Classes
 90
1153
 91
0
280
0
281
0
  0
CLASS
  1
SCALE
  2
AcDbScale
  3
ObjectDBX Classes
 90
1153
 91
0
280
0
281
0
  0
CLASS
  1
TABLESTYLE
  2
AcDbTableStyle
  3
ObjectDBX Classes
 90
4095
 91
0
280
0
281
0
  0
CLASS
  1
MLEADERSTYLE
  2
AcDbMLeaderStyle
  3
ACDB_MLEADERSTYLE_CLASS
 90
4095
 91
0
280
0
281
0
  0
CLASS
  1
DICTIONARYVAR
  2
AcDbDictionaryVar
  3
ObjectDBX Classes
 90
0
 91
0
280
0
281
0
  0
CLASS
  1
CELLSTYLEMAP
  2
AcDbCellStyleMap
  3
ObjectDBX Classes
 90
1152
 91
0
280
0
281
0
  0
CLASS
  1
MENTALRAYRENDERSETTINGS
  2
AcDbMentalRayRenderSettings
  3
SCENEOE
 90
1024
 91
0
280
0
281
0
  0
CLASS
  1
ACDBDETAILVIEWSTYLE
  2
AcDbDetailViewStyle
  3
ObjectDBX Classes
 90
1025
 91
0
280
0
281
0
  0
CLASS
  1
ACDBSECTIONVIEWSTYLE
  2
AcDbSectionViewStyle
  3
ObjectDBX Classes
 90
1025
 91
0
280
0
281
0
  0
CLASS
  1
RASTERVARIABLES
  2
AcDbRasterVariables
  3
ISM
 90
0
 91
0
280
0
281
0
  0
CLASS
  1
ACDBPLACEHOLDER
  2
AcDbPlaceHolder
  3
ObjectDBX Classes
 90
0
 91
0
280
0
281
0
  0
CLASS
  1
LAYOUT
  2
AcDbLayout
  3
ObjectDBX Classes
 90
0
 91
0
280
0
281
0
  0
ENDSEC
  0
SECTION
  2
TABLES
  0
TABLE
  2
VPORT
  5
8
330
0
100
AcDbSymbolTable
 70
1
  0
VPORT
  5
23
330
8
100
AcDbSymbolTableRecord
100
AcDbViewportTableRecord
  2
*Active
 70
0
 10
0.0
 20
0.0
 11
1.0
 21
1.0
 12
0.0
 22
0.0
 13
0.0
 23
0.0
 14
0.5
 24
0.5
 15
0.5
 25
0.5
 16
0.0
 26
0.0
 36
1.0
 17
0.0
 27
0.0
 37
0.0
 40
1000.0
 41
1.34
 42
50.0
 43
0.0
 44
0.0
 50
0.0
 51
0.0
 71
0
 72
1000
 73
1
 74
3
 75
0
 76
0
 77
0
 78
0
281
0
 65
0
146
0.0
  0
ENDTAB
  0
TABLE
  2
LTYPE
  5
2
330
0
100
AcDbSymbolTable
 70
21
  0
LTYPE
  5
24
330
2
100
AcDbSymbolTableRecord
100
AcDbLinetypeTableRecord
  2
ByBlock
 70
0
  3

 72
65
 73
0
 40
0.0
  0
LTYPE
  5
25
330
2
100
AcDbSymbolTableRecord
100
AcDbLinetypeTableRecord
  2
ByLayer
 70
0
  3

 72
65
 73
0
 40
0.0
  0
LTYPE
  5
26
330
2
100
AcDbSymbolTableRecord
100
AcDbLinetypeTableRecord
  2
Continuous
 70
0
  3

 72
65
 73
0
 40
0.0
  0
LTYPE
  5
2F
330
2
100
AcDbSymbolTableRecord
100
AcDbLinetypeTableRecord
  2
CENTER
 70
0
  3
Center ____ _ ____ _ ____ _ ____ _ ____ _ ____
 72
65
 73
4
 40
5.08
 49
3.175
 74
0
 49
-0.635
 74
0
 49
0.635
 74
0
 49
-0.635
 74
0
  0
LTYPE
  5
30
330
2
100
AcDbSymbolTableRecord
100
AcDbLinetypeTableRecord
  2
CENTERX2
 70
0
  3
Center (2x) ________  __  ________  __  ________
 72
65
 73
4
 40
8.89
 49
6.35
 74
0
 49
-0.635
 74
0
 49
1.27
 74
0
 49
-0.635
 74
0
  0
LTYPE
  5
31
330
2
100
AcDbSymbolTableRecord
100
AcDbLinetypeTableRecord
  2
CENTER2
 70
0
  3
Center (.5x) ____ _ ____ _ ____ _ ____ _ ____
 72
65
 73
4
 40
2.54
 49
1.587
 74
0
 49
-0.318
 74
0
 49
0.318
 74
0
 49
-0.318
 74
0
  0
LTYPE
  5
32
330
2
100
AcDbSymbolTableRecord
100
AcDbLinetypeTableRecord
  2
DASHED
 70
0
  3
Dashed __ __ __ __ __ __ __ __ __ __ __ __ __ _
 72
65
 73
2
 40
1.524
 49
1.27
 74
0
 49
-0.254
 74
0
  0
LTYPE
  5
33
330
2
100
AcDbSymbolTableRecord
100
AcDbLinetypeTableRecord
  2
DASHEDX2
 70
0
  3
Dashed (2x) ____  ____  ____  ____  ____  ____
 72
65
 73
2
 40
3.048
 49
2.54
 74
0
 49
-0.508
 74
0
  0
LTYPE
  5
34
330
2
100
AcDbSymbolTableRecord
100
AcDbLinetypeTableRecord
  2
DASHED2
 70
0
  3
Dashed (.5x) _ _ _ _ _ _ _ _ _ _ _ _ _ _
 72
65
 73
2
 40
0.762
 49
0.635
 74
0
 49
-0.127
 74
0
  0
LTYPE
  5
35
330
2
100
AcDbSymbolTableRecord
100
AcDbLinetypeTableRecord
  2
PHANTOM
 70
0
  3
Phantom ______  __  __  ______  __  __  ______
 72
65
 73
6
 40
6.35
 49
3.175
 74
0
 49
-0.635
 74
0
 49
0.635
 74
0
 49
-0.635
 74
0
 49
0.635
 74
0
 49
-0.635
 74
0
  0
LTYPE
  5
36
330
2
100
AcDbSymbolTableRecord
100
AcDbLinetypeTableRecord
  2
PHANTOMX2
 70
0
  3
Phantom (2x)____________    ____    ____    ____________
 72
65
 73
6
 40
10.795
 49
6.35
 74
0
 49
-0.635
 74
0
 49
1.27
 74
0
 49
-0.635
 74
0
 49
1.27
 74
0
 49
-0.635
 74
0
  0
LTYPE
  5
37
330
2
100
AcDbSymbolTableRecord
100
AcDbLinetypeTableRecord
  2
PHANTOM2
 70
0
  3
Phantom (.5x) ___ _ _ ___ _ _ ___ _ _ ___ _ _ ___
 72
65
 73
6
 40
3.175
 49
1.587
 74
0
 49
-0.318
 74
0
 49
0.318
 74
0
 49
-0.318
 74
0
 49
0.318
 74
0
 49
-0.318
 74
0
  0
LTYPE
  5
38
330
2
100
AcDbSymbolTableRecord
100
AcDbLinetypeTableRecord
  2
DASHDOT
 70
0
  3
Dash dot __ . __ . __ . __ . __ . __ . __ . __
 72
65
 73
4
 40
3.556
 49
2.54
 74
0
 49
-0.508
 74
0
 49
0.0
 74
0
 49
-0.508
 74
0
  0
LTYPE
  5
39
330
2
100
AcDbSymbolTableRecord
100
AcDbLinetypeTableRecord
  2
DASHDOTX2
 70
0
  3
Dash dot (2x) ____  .  ____  .  ____  .  ____
 72
65
 73
4
 40
6.096
 49
5.08
 74
0
 49
-0.508
 74
0
 49
0.0
 74
0
 49
-0.508
 74
0
  0
LTYPE
  5
3A
330
2
100
AcDbSymbolTableRecord
100
AcDbLinetypeTableRecord
  2
DASHDOT2
 70
0
  3
Dash dot (.5x) _ . _ . _ . _ . _ . _ . _ . _
 72
65
 73
4
 40
1.778
 49
1.27
 74
0
 49
-0.254
 74
0
 49
0.0
 74
0
 49
-0.254
 74
0
  0
LTYPE
  5
3B
330
2
100
AcDbSymbolTableRecord
100
AcDbLinetypeTableRecord
  2
DOT
 70
0
  3
Dot .  .  .  .  .  .  .  .  .  .  .  .  .  .  .  .
 72
65
 73
2
 40
0.508
 49
0.0
 74
0
 49
-0.508
 74
0
  0
LTYPE
  5
3C
330
2
100
AcDbSymbolTableRecord
100
AcDbLinetypeTableRecord
  2
DOTX2
 70
0
  3
Dot (2x) .    .    .    .    .    .    .    . 
 72
65
 73
2
 40
1.016
 49
0.0
 74
0
 49
-1.016
 74
0
  0
LTYPE
  5
3D
330
2
100
AcDbSymbolTableRecord
100
AcDbLinetypeTableRecord
  2
DOT2
 70
0
  3
Dot (.5) . . . . . . . . . . . . . . . . . . . 
 72
65
 73
2
 40
0.254
 49
0.0
 74
0
 49
-0.254
 74
0
  0
LTYPE
  5
3E
330
2
100
AcDbSymbolTableRecord
100
AcDbLinetypeTableRecord
  2
DIVIDE
 70
0
  3
Divide __ . . __ . . __ . . __ . . __ . . __
 72
65
 73
6
 40
4.064
 49
2.54
 74
0
 49
-0.508
 74
0
 49
0.0
 74
0
 49
-0.508
 74
0
 49
0.0
 74
0
 49
-0.508
 74
0
  0
LTYPE
  5
3F
330
2
100
AcDbSymbolTableRecord
100
AcDbLinetypeTableRecord
  2
DIVIDEX2
 70
0
  3
Divide (2x) ____  . .  ____  . .  ____  . .  ____
 72
65
 73
6
 40
6.604
 49
5.08
 74
0
 49
-0.508
 74
0
 49
0.0
 74
0
 49
-0.508
 74
0
 49
0.0
 74
0
 49
-0.508
 74
0
  0
LTYPE
  5
40
330
2
100
AcDbSymbolTableRecord
100
AcDbLinetypeTableRecord
  2
DIVIDE2
 70
0
  3
Divide(.5x) _ . _ . _ . _ . _ . _ . _ . _
 72
65
 73
6
 40
2.032
 49
1.27
 74
0
 49
-0.254
 74
0
 49
0.0
 74
0
 49
-0.254
 74
0
 49
0.0
 74
0
 49
-0.254
 74
0
  0
ENDTAB
  0
TABLE
  2
LAYER
  5
1
330
0
100
AcDbSymbolTable
 70
2
  0
LAYER
  5
27
330
1
100
AcDbSymbolTableRecord
100
AcDbLayerTableRecord
  2
0
 70
0
 62
7
  6
Continuous
370
-3
390
13
347
21
  0
LAYER
  5
28
330
1
100
AcDbSymbolTableRecord
100
AcDbLayerTableRecord
  2
Defpoints
 70
0
 62
7
  6
Continuous
290
0
370
-3
390
13
347
21
  0
ENDTAB
  0
TABLE
  2
STYLE
  5
5
330
0
100
AcDbSymbolTable
 70
26
  0
STYLE
  5
29
330
5
100
AcDbSymbolTableRecord
100
AcDbTextStyleTableRecord
  2
Standard
 70
0
 40
0.0
 41
1.0
 50
0.0
 71
0
 42
2.5
  3
txt
  4

  0
STYLE
  5
41
330
5
100
AcDbSymbolTableRecord
100
AcDbTextStyleTableRecord
  2
OpenSans-Light
 70
0
 40
0.0
 41
1.0
 50
0.0
 71
0
 42
2.5
  3
OpenSans-Light.ttf
  4

  0
STYLE
  5
42
330
5
100
AcDbSymbolTableRecord
100
AcDbTextStyleTableRecord
  2
OpenSans-Light-Italic
 70
0
 40
0.0
 41
1.0
 50
0.0
 71
0
 42
2.5
  3
OpenSans-LightItalic.ttf
  4

  0
STYLE
  5
43
330
5
100
AcDbSymbolTableRecord
100
AcDbTextStyleTableRecord
  2
OpenSans
 70
0
 40
0.0
 41
1.0
 50
0.0
 71
0
 42
2.5
  3
OpenSans-Regular.ttf
  4

  0
STYLE
  5
44
330
5
100
AcDbSymbolTableRecord
100
AcDbTextStyleTableRecord
  2
OpenSans-Italic
 70
0
 40
0.0
 41
1.0
 50
0.0
 71
0
 42
2.5
  3
OpenSans-Italic.ttf
  4

  0
STYLE
  5
45
330
5
100
AcDbSymbolTableRecord
100
AcDbTextStyleTableRecord
  2
OpenSans-SemiBold
 70
0
 40
0.0
 41
1.0
 50
0.0
 71
0
 42
2.5
  3
OpenSans-SemiBold.ttf
  4

  0
STYLE
  5
46
330
5
100
AcDbSymbolTableRecord
100
AcDbTextStyleTableRecord
  2
OpenSans-SemiBoldItalic
 70
0
 40
0.0
 41
1.0
 50
0.0
 71
0
 42
2.5
  3
OpenSans-SemiBoldItalic.ttf
  4

  0
STYLE
  5
47
330
5
100
AcDbSymbolTableRecord
100
AcDbTextStyleTableRecord
  2
OpenSans-Bold
 70
0
 40
0.0
 41
1.0
 50
0.0
 71
0
 42
2.5
  3
OpenSans-Bold.ttf
  4

  0
STYLE
  5
48
330
5
100
AcDbSymbolTableRecord
100
AcDbTextStyleTableRecord
  2
OpenSans-BoldItalic
 70
0
 40
0.0
 41
1.0
 50
0.0
 71
0
 42
2.5
  3
OpenSans-BoldItalic.ttf
  4

  0
STYLE
  5
49
330
5
100
AcDbSymbolTableRecord
100
AcDbTextStyleTableRecord
  2
OpenSans-ExtraBold
 70
0
 40
0.0
 41
1.0
 50
0.0
 71
0
 42
2.5
  3
OpenSans-ExtraBold.ttf
  4

  0
STYLE
  5
4A
330
5
100
AcDbSymbolTableRecord
100
AcDbTextStyleTableRecord
  2
OpenSans-ExtraBoldItalic
 70
0
 40
0.0
 41
1.0
 50
0.0
 71
0
 42
2.5
  3
OpenSans-ExtraBoldItalic.ttf
  4

  0
STYLE
  5
4B
330
5
100
AcDbSymbolTableRecord
100
AcDbTextStyleTableRecord
  2
OpenSansCondensed-Bold
 70
0
 40
0.0
 41
1.0
 50
0.0
 71
0
 42
2.5
  3
OpenSansCondensed-Bold.ttf
  4

  0
STYLE
  5
4C
330
5
100
AcDbSymbolTableRecord
100
AcDbTextStyleTableRecord
  2
OpenSansCondensed-Light
 70
0
 40
0.0
 41
1.0
 50
0.0
 71
0
 42
2.5
  3
OpenSansCondensed-Light.ttf
  4

  0
STYLE
  5
4D
330
5
100
AcDbSymbolTableRecord
100
AcDbTextStyleTableRecord
  2
OpenSansCondensed-Italic
 70
0
 40
0.0
 41
1.0
 50
0.0
 71
0
 42
2.5
  3
OpenSansCondensed-LightItalic.ttf
  4

  0
STYLE
  5
4E
330
5
100
AcDbSymbolTableRecord
100
AcDbTextStyleTableRecord
  2
LiberationSans
 70
0
 40
0.0
 41
1.0
 50
0.0
 71
0
 42
2.5
  3
LiberationSans-Regular.ttf
  4

  0
STYLE
  5
4F
330
5
100
AcDbSymbolTableRecord
100
AcDbTextStyleTableRecord
  2
LiberationSans-Bold
 70
0
 40
0.0
 41
1.0
 50
0.0
 71
0
 42
2.5
  3
LiberationSans-Bold.ttf
  4

  0
STYLE
  5
50
330
5
100
AcDbSymbolTableRecord
100
AcDbTextStyleTableRecord
  2
LiberationSans-BoldItalic
 70
0
 40
0.0
 41
1.0
 50
0.0
 71
0
 42
2.5
  3
LiberationSans-BoldItalic.ttf
  4

  0
STYLE
  5
51
330
5
100
AcDbSymbolTableRecord
100
AcDbTextStyleTableRecord
  2
LiberationSans-Italic
 70
0
 40
0.0
 41
1.0
 50
0.0
 71
0
 42
2.5
  3
LiberationSans-Italic.ttf
  4

  0
STYLE
  5
52
330
5
100
AcDbSymbolTableRecord
100
AcDbTextStyleTableRecord
  2
LiberationSerif
 70
0
 40
0.0
 41
1.0
 50
0.0
 71
0
 42
2.5
  3
LiberationSerif-Regular.ttf
  4

  0
STYLE
  5
53
330
5
100
AcDbSymbolTableRecord
100
AcDbTextStyleTableRecord
  2
LiberationSerif-Bold
 70
0
 40
0.0
 41
1.0
 50
0.0
 71
0
 42
2.5
  3
LiberationSerif-Bold.ttf
  4

  0
STYLE
  5
54
330
5
100
AcDbSymbolTableRecord
100
AcDbTextStyleTableRecord
  2
LiberationSerif-BoldItalic
 70
0
 40
0.0
 41
1.0
 50
0.0
 71
0
 42
2.5
  3
LiberationSerif-BoldItalic.ttf
  4

  0
STYLE
  5
55
330
5
100
AcDbSymbolTableRecord
100
AcDbTextStyleTableRecord
  2
LiberationSerif-Italic
 70
0
 40
0.0
 41
1.0
 50
0.0
 71
0
 42
2.5
  3
LiberationSerif-Italic.ttf
  4

  0
STYLE
  5
56
330
5
100
AcDbSymbolTableRecord
100
AcDbTextStyleTableRecord
  2
LiberationMono
 70
0
 40
0.0
 41
1.0
 50
0.0
 71
0
 42
2.5
  3
LiberationMono-Regular.ttf
  4

  0
STYLE
  5
57
330
5
100
AcDbSymbolTableRecord
100
AcDbTextStyleTableRecord
  2
LiberationMono-Bold
 70
0
 40
0.0
 41
1.0
 50
0.0
 71
0
 42
2.5
  3
LiberationMono-Bold.ttf
  4

  0
STYLE
  5
58
330
5
100
AcDbSymbolTableRecord
100
AcDbTextStyleTableRecord
  2
LiberationMono-BoldItalic
 70
0
 40
0.0
 41
1.0
 50
0.0
 71
0
 42
2.5
  3
LiberationMono-BoldItalic.ttf
  4

  0
STYLE
  5
59
330
5
100
AcDbSymbolTableRecord
100
AcDbTextStyleTableRecord
  2
LiberationMono-Italic
 70
0
 40
0.0
 41
1.0
 50
0.0
 71
0
 42
2.5
  3
LiberationMono-Italic.ttf
  4

  0
ENDTAB
  0
TABLE
  2
VIEW
  5
7
330
0
100
AcDbSymbolTable
 70
0
  0
ENDTAB
  0
TABLE
  2
UCS
  5
6
330
0
100
AcDbSymbolTable
 70
0
  0
ENDTAB
  0
TABLE
  2
APPID
  5
3
330
0
100
AcDbSymbolTable
 70
3
  0
APPID
  5
2A
330
3
100
AcDbSymbolTableRecord
100
AcDbRegAppTableRecord
  2
ACAD
 70
0
  0
APPID
  5
2FD
330
3
100
AcDbSymbolTableRecord
100
AcDbRegAppTableRecord
  2
HATCHBACKGROUNDCOLOR
 70
0
  0
APPID
  5
2FE
330
3
100
AcDbSymbolTableRecord
100
AcDbRegAppTableRecord
  2
EZDXF
 70
0
  0
ENDTAB
  0
TABLE
  2
DIMSTYLE
  5
4
330
0
100
AcDbSymbolTable
 70
12
100
AcDbDimStyleTable
  0
DIMSTYLE
105
2B
330
4
100
AcDbSymbolTableRecord
100
AcDbDimStyleTableRecord
  2
Standard
 70
0
 40
1.0
 41
2.5
 42
0.625
 43
3.75
 44
1.25
 45
0.0
 46
0.0
 47
0.0
 48
0.0
 49
2.5
140
2.5
141
2.5
142
0.0
143
0.03937007874
144
1.0
145
0.0
146
1.0
147
0.625
148
0.0
 69
0
 70
0
 71
0
 72
0
 73
0
 74
0
 75
0
 76
0
 77
1
 78
8
 79
3
170
0
171
3
172
1
173
0
174
0
175
0
176
0
177
0
178
0
179
2
271
2
272
2
273
2
274
3
275
0
276
0
277
2
278
44
279
0
280
0
281
0
282
0
283
0
284
8
285
0
286
0
288
0
289
3
290
0
371
-2
372
-2
  0
DIMSTYLE
105
73
330
4
100
AcDbSymbolTableRecord
100
AcDbDimStyleTableRecord
  2
EZDXF
 70
0
 40
1.0
 41
0.175
 42
0.125
 43
3.75
 44
0.375
 45
0.0
 46
0.0
 47
0.0
 48
0.0
 49
2.5
140
0.25
141
2.5
142
0.0
143
0.03937007874
144
100.0
145
0.0
146
0.5
147
0.1
148
0.0
 69
0
 70
0
 71
0
 72
0
 73
0
 74
0
 75
0
 76
0
 77
1
 78
12
 79
3
170
0
171
3
172
1
173
0
174
0
175
0
176
0
177
0
178
0
179
2
271
2
272
2
273
2
274
3
275
0
276
0
277
2
278
46
279
2
280
0
281
0
282
0
283
0
284
8
285
0
286
0
288
1
289
3
290
0
340
4C
342
74
371
-2
372
-2
  0
DIMSTYLE
105
7C
330
4
100
AcDbSymbolTableRecord
100
AcDbDimStyleTableRecord
  2
EZ_M_100_H25_CM
 70
0
 40
1.0
 41
0.25
 42
0.125
 43
3.75
 44
0.375
 45
0.0
 46
0.0
 47
0.0
 48
0.0
 49
2.5
140
0.25
141
2.5
142
0.125
143
0.03937007874
144
100.0
145
0.0
146
0.5
147
0.1
148
0.0
 69
0
 70
0
 71
0
 72
0
 73
0
 74
0
 75
0
 76
0
 77
1
 78
12
 79
3
170
0
171
3
172
1
173
0
174
0
175
0
176
0
177
0
178
0
179
2
271
2
272
2
273
2
274
3
275
0
276
0
277
2
278
46
279
2
280
0
281
0
282
0
283
0
284
8
285
0
286
0
288
1
289
3
290
0
340
4C
371
-2
372
-2
  0
DIMSTYLE
105
7D
330
4
100
AcDbSymbolTableRecord
100
AcDbDimStyleTableRecord
  2
EZ_M_50_H25_CM
 70
0
 40
1.0
 41
0.125
 42
0.0625
 43
3.75
 44
0.1875
 45
0.0
 46
0.0
 47
0.0
 48
0.0
 49
2.5
140
0.125
141
2.5
142
0.0625
143
0.03937007874
144
100.0
145
0.0
146
0.5
147
0.05
148
0.0
 69
0
 70
0
 71
0
 72
0
 73
0
 74
0
 75
0
 76
0
 77
1
 78
12
 79
3
170
0
171
3
172
1
173
0
174
0
175
0
176
0
177
0
178
0
179
2
271
2
272
2
273
2
274
3
275
0
276
0
277
2
278
46
279
2
280
0
281
0
282
0
283
0
284
8
285
0
286
0
288
1
289
3
290
0
340
4C
371
-2
372
-2
  0
DIMSTYLE
105
7E
330
4
100
AcDbSymbolTableRecord
100
AcDbDimStyleTableRecord
  2
EZ_M_25_H25_CM
 70
0
 40
1.0
 41
0.0625
 42
0.03125
 43
3.75
 44
0.09375
 45
0.0
 46
0.0
 47
0.0
 48
0.0
 49
2.5
140
0.0625
141
2.5
142
0.03125
143
0.03937007874
144
100.0
145
0.0
146
0.5
147
0.025
148
0.0
 69
0
 70
0
 71
0
 72
0
 73
0
 74
0
 75
0
 76
0
 77
1
 78
12
 79
3
170
0
171
3
172
1
173
0
174
0
175
0
176
0
177
0
178
0
179
2
271
2
272
2
273
2
274
3
275
0
276
0
277
2
278
46
279
2
280
0
281
0
282
0
283
0
284
8
285
0
286
0
288
1
289
3
290
0
340
4C
371
-2
372
-2
  0
DIMSTYLE
105
7F
330
4
100
AcDbSymbolTableRecord
100
AcDbDimStyleTableRecord
  2
EZ_M_20_H25_CM
 70
0
 40
1.0
 41
0.05
 42
0.025
 43
3.75
 44
0.07500000000000001
 45
0.0
 46
0.0
 47
0.0
 48
0.0
 49
2.5
140
0.05
141
2.5
142
0.025
143
0.03937007874
144
100.0
145
0.0
146
0.5
147
0.020000000000000004
148
0.0
 69
0
 70
0
 71
0
 72
0
 73
0
 74
0
 75
0
 76
0
 77
1
 78
12
 79
3
170
0
171
3
172
1
173
0
174
0
175
0
176
0
177
0
178
0
179
2
271
2
272
2
273
2
274
3
275
0
276
0
277
2
278
46
279
2
280
0
281
0
282
0
283
0
284
8
285
0
286
0
288
1
289
3
290
0
340
4C
371
-2
372
-2
  0
DIMSTYLE
105
80
330
4
100
AcDbSymbolTableRecord
100
AcDbDimStyleTableRecord
  2
EZ_M_10_H25_CM
 70
0
 40
1.0
 41
0.025
 42
0.0125
 43
3.75
 44
0.037500000000000006
 45
0.0
 46
0.0
 47
0.0
 48
0.0
 49
2.5
140
0.025
141
2.5
142
0.0125
143
0.03937007874
144
100.0
145
0.0
146
0.5
147
0.010000000000000002
148
0.0
 69
0
 70
0
 71
0
 72
0
 73
0
 74
0
 75
0
 76
0
 77
1
 78
12
 79
3
170
0
171
3
172
1
173
0
174
0
175
0
176
0
177
0
178
0
179
2
271
2
272
2
273
2
274
3
275
0
276
0
277
2
278
46
279
2
280
0
281
0
282
0
283
0
284
8
285
0
286
0
288
1
289
3
290
0
340
4C
371
-2
372
-2
  0
DIMSTYLE
105
81
330
4
100
AcDbSymbolTableRecord
100
AcDbDimStyleTableRecord
  2
EZ_M_5_H25_CM
 70
0
 40
1.0
 41
0.0125
 42
0.00625
 43
3.75
 44
0.018750000000000003
 45
0.0
 46
0.0
 47
0.0
 48
0.0
 49
2.5
140
0.0125
141
2.5
142
0.00625
143
0.03937007874
144
100.0
145
0.0
146
0.5
147
0.005000000000000001
148
0.0
 69
0
 70
0
 71
0
 72
0
 73
0
 74
0
 75
0
 76
0
 77
1
 78
12
 79
3
170
0
171
3
172
1
173
0
174
0
175
0
176
0
177
0
178
0
179
2
271
2
272
2
273
2
274
3
275
0
276
0
277
2
278
46
279
2
280
0
281
0
282
0
283
0
284
8
285
0
286
0
288
1
289
3
290
0
340
4C
371
-2
372
-2
  0
DIMSTYLE
105
82
330
4
100
AcDbSymbolTableRecord
100
AcDbDimStyleTableRecord
  2
EZ_M_1_H25_CM
 70
0
 40
1.0
 41
0.0025
 42
0.00125
 43
3.75
 44
0.00375
 45
0.0
 46
0.0
 47
0.0
 48
0.0
 49
2.5
140
0.0025
141
2.5
142
0.00125
143
0.03937007874
144
100.0
145
0.0
146
0.5
147
0.001
148
0.0
 69
0
 70
0
 71
0
 72
0
 73
0
 74
0
 75
0
 76
0
 77
1
 78
12
 79
3
170
0
171
3
172
1
173
0
174
0
175
0
176
0
177
0
178
0
179
2
271
2
272
2
273
2
274
3
275
0
276
0
277
2
278
46
279
2
280
0
281
0
282
0
283
0
284
8
285
0
286
0
288
1
289
3
290
0
340
4C
371
-2
372
-2
  0
DIMSTYLE
105
83
330
4
100
AcDbSymbolTableRecord
100
AcDbDimStyleTableRecord
  2
EZ_RADIUS
 70
0
 40
1.0
 41
0.25
 42
0.125
 43
3.75
 44
0.375
 45
0.0
 46
0.0
 47
0.0
 48
0.0
 49
2.5
140
0.25
141
0.0
142
0.0
143
0.03937007874
144
100.0
145
0.0
146
0.5
147
0.1
148
0.0
 69
0
 70
0
 71
0
 72
0
 73
0
 74
0
 75
0
 76
0
 77
1
 78
12
 79
3
170
0
171
3
172
0
173
0
174
0
175
0
176
0
177
0
178
0
179
2
271
2
272
2
273
2
274
3
275
0
276
0
277
2
278
46
279
1
280
0
281
0
282
0
283
0
284
8
285
0
286
0
288
1
289
3
290
0
340
4C
342
84
371
-2
372
-2
  0
DIMSTYLE
105
88
330
4
100
AcDbSymbolTableRecord
100
AcDbDimStyleTableRecord
  2
EZ_RADIUS_INSIDE
 70
0
 40
1.0
 41
0.25
 42
0.125
 43
3.75
 44
0.375
 45
0.0
 46
0.0
 47
0.0
 48
0.0
 49
2.5
140
0.25
141
0.0
142
0.0
143
0.03937007874
144
100.0
145
0.0
146
0.5
147
0.1
148
0.0
 69
0
 70
0
 71
0
 72
0
 73
0
 74
0
 75
0
 76
0
 77
0
 78
12
 79
3
170
0
171
3
172
0
173
0
174
1
175
0
176
0
177
0
178
0
179
2
271
2
272
2
273
2
274
3
275
0
276
0
277
2
278
46
279
0
280
0
281
0
282
0
283
0
284
8
285
0
286
0
288
1
289
0
290
0
340
4C
342
84
371
-2
372
-2
  0
DIMSTYLE
105
89
330
4
100
AcDbSymbolTableRecord
100
AcDbDimStyleTableRecord
  2
EZ_CURVED
 70
0
 40
1.0
 41
0.25
 42
0.125
 43
3.75
 44
0.375
 45
0.0
 46
0.0
 47
0.0
 48
0.0
 49
2.5
140
0.25
141
2.5
142
0.0
143
0.03937007874
144
100.0
145
0.0
146
0.5
147
0.1
148
0.0
 69
0
 70
0
 71
0
 72
0
 73
0
 74
0
 75
0
 76
0
 77
1
 78
12
 79
2
 90
2
170
0
171
3
172
1
173
0
174
0
175
0
176
0
177
0
178
0
179
2
271
2
272
2
273
2
274
3
275
0
276
0
277
2
278
46
279
2
280
0
281
0
282
0
283
0
284
8
285
0
286
0
288
1
289
3
290
0
340
4C
371
-2
372
-2
  0
ENDTAB
  0
TABLE
  2
BLOCK_RECORD
  5
9
330
0
100
AcDbSymbolTable
 70
5
  0
BLOCK_RECORD
  5
17
330
9
100
AcDbSymbolTableRecord
100
AcDbBlockTableRecord
  2
*Model_Space
340
1A
 70
0
280
1
281
0
  0
BLOCK_RECORD
  5
1B
330
9
100
AcDbSymbolTableRecord
100
AcDbBlockTableRecord
  2
*Paper_Space
340
1E
 70
0
280
1
281
0
  0
BLOCK_RECORD
  5
74
330
9
100
AcDbSymbolTableRecord
100
AcDbBlockTableRecord
  2
_ARCHTICK
340
0
 70
0
280
1
281
0
  0
BLOCK_RECORD
  5
78
330
9
100
AcDbSymbolTableRecord
100
AcDbBlockTableRecord
  2
_CLOSEDFILLED
340
0
 70
0
280
1
281
0
  0
BLOCK_RECORD
  5
84
330
9
100
AcDbSymbolTableRecord
100
AcDbBlockTableRecord
  2
_CLOSEDBLANK
340
0
 70
0
280
1
281
0
  0
ENDTAB
  0
ENDSEC
  0
SECTION
  2
BLOCKS
  0
BLOCK
  5
18
330
17
100
AcDbEntity
  8
0
100
AcDbBlockBegin
  2
*Model_Space
 70
0
 10
0.0
 20
0.0
 30
0.0
  3
*Model_Space
  1

  0
ENDBLK
  5
19
330
17
100
AcDbEntity
  8
0
100
AcDbBlockEnd
  0
BLOCK
  5
1C
330
1B
100
AcDbEntity
  8
0
100
AcDbBlockBegin
  2
*Paper_Space
 70
0
 10
0.0
 20
0.0
 30
0.0
  3
*Paper_Space
  1

  0
ENDBLK
  5
1D
330
1B
100
AcDbEntity
  8
0
100
AcDbBlockEnd
  0
BLOCK
  5
75
330
74
100
AcDbEntity
  8
0
100
AcDbBlockBegin
  2
_ARCHTICK
 70
0
 10
0.0
 20
0.0
 30
0.0
  3
_ARCHTICK
  1

  0
LWPOLYLINE
  5
77
330
74
100
AcDbEntity
  8
0
  6
BYBLOCK
 62
0
100
AcDbPolyline
 90
2
 70
0
 43
0.15
 10
-0.5
 20
-0.5
 10
0.5
 20
0.5
  0
ENDBLK
  5
76
330
74
100
AcDbEntity
  8
0
100
AcDbBlockEnd
  0
BLOCK
  5
79
330
78
100
AcDbEntity
  8
0
100
AcDbBlockBegin
  2
_CLOSEDFILLED
 70
0
 10
0.0
 20
0.0
 30
0.0
  3
_CLOSEDFILLED
  1

  0
SOLID
  5
7B
330
78
100
AcDbEntity
  8
0
  6
BYBLOCK
 62
0
100
AcDbTrace
 10
-1.0
 20
0.16439898372402537
 30
0.0
 11
0.0
 21
0.0
 31
0.0
 12
-1.0
 22
-0.16439898372402537
 32
0.0
 13
-1.0
 23
-0.16439898372402537
 33
0.0
  0
ENDBLK
  5
7A
330
78
100
AcDbEntity
  8
0
100
AcDbBlockEnd
  0
BLOCK
  5
85
330
84
100
AcDbEntity
  8
0
100
AcDbBlockBegin
  2
_CLOSEDBLANK
 70
0
 10
0.0
 20
0.0
 30
0.0
  3
_CLOSEDBLANK
  1

  0
LWPOLYLINE
  5
87
330
84
100
AcDbEntity
  8
0
  6
BYBLOCK
 62
0
100
AcDbPolyline
 90
3
 70
1
 10
-1.0
 20
0.16439898372402537
 10
0.0
 20
0.0
 10
-1.0
 20
-0.16439898372402537
  0
ENDBLK
  5
86
330
84
100
AcDbEntity
  8
0
100
AcDbBlockEnd
  0
ENDSEC
  0
SECTION
  2
ENTITIES
  0
LWPOLYLINE
  5
8A
330
17
100
AcDbEntity
  8
0
100
AcDbPolyline
 90
4
 70
1
 10
22.26092438191924
 20
12.40916721204821
 10
1022.260924381919
 20
12.40916721204821
 10
1022.260924381919
 20
1512.409167212048
 10
22.26092438191924
 20
1512.409167212048
  0
LWPOLYLINE
  5
8B
330
17
100
AcDbEntity
  8
0
100
AcDbPolyline
 90
4
 70
1
 10
32.26092438191924
 20
22.40916721204821
 10
1012.260924381919
 20
22.40916721204821
 10
1012.260924381919
 20
1502.409167212048
 10
32.26092438191924
 20
1502.409167212048
  0
LINE
  5
8C
330
17
100
AcDbEntity
  8
0
100
AcDbLine
 10
52.26092438191924
 20
1330.644484996188
 30
0.0
 11
52.26092438191924
 21
1206.957959683953
 31
0.0
  0
LINE
  5
8D
330
17
100
AcDbEntity
  8
0
100
AcDbLine
 10
992.2590756180807
 20
1330.644484996188
 30
0.0
 11
992.2590756180807
 21
1206.957959683953
 31
0.0
  0
LINE
  5
8E
330
17
100
AcDbEntity
  8
0
100
AcDbLine
 10
62.26092438191924
 20
1287.884542755006
 30
0.0
 11
62.26092438191924
 21
1206.957959683953
 31
0.0
  0
LINE
  5
8F
330
17
100
AcDbEntity
  8
0
100
AcDbLine
 10
982.2590756180807
 20
1287.884542755006
 30
0.0
 11
982.2590756180807
 21
1206.957959683953
 31
0.0
  0
LINE
  5
90
330
17
100
AcDbEntity
  8
0
100
AcDbLine
 10
52.26092438191924
 20
1166.9719731226353
 30
0.0
 11
52.26092438191741
 21
772.1822859977696
 31
0.0
  0
LINE
  5
91
330
17
100
AcDbEntity
  8
0
100
AcDbLine
 10
992.2596918726936
 20
1166.957959683953
 30
0.0
 11
992.2590756180825
 21
772.1822859977696
 31
0.0
  0
LINE
  5
92
330
17
100
AcDbEntity
  8
0
100
AcDbLine
 10
62.26092438191924
 20
1166.957959683953
 30
0.0
 11
62.26092438191741
 21
931.0338545246994
 31
0.0
  0
LINE
  5
93
330
17
100
AcDbEntity
  8
0
100
AcDbLine
 10
982.2590756180807
 20
1166.957959683953
 30
0.0
 11
982.2590756180825
 21
931.0338545246994
 31
0.0
  0
ARC
  5
94
330
17
100
AcDbEntity
  8
0
100
AcDbCircle
 10
72.26091947250704
 20
1166.9579596839535
 30
0.0
 40
20.0
100
AcDbArc
 50
89.99998593557007
 51
179.95985445206858
  0
ARC
  5
95
330
17
100
AcDbEntity
  8
0
100
AcDbCircle
 10
972.2596918726936
 20
1166.9579596934473
 30
0.0
 40
20.0
100
AcDbArc
 50
359.99999997280105
 51
90.00176543942138
  0
ARC
  5
96
330
17
100
AcDbEntity
  8
0
100
AcDbCircle
 10
72.26092438191924
 20
1166.957959683953
 30
0.0
 40
10.0
100
AcDbArc
 50
90.0
 51
180.0
  0
ARC
  5
97
330
17
100
AcDbEntity
  8
0
100
AcDbCircle
 10
972.2590756180807
 20
1166.957959683953
 30
0.0
 40
10.0
100
AcDbArc
 50
0.0
 51
90.0
  0
ARC
  5
98
330
17
100
AcDbEntity
  8
0
100
AcDbCircle
 10
72.26092438191924
 20
1206.957959683953
 30
0.0
 40
20.0
100
AcDbArc
 50
180.0
 51
270.0
  0
ARC
  5
99
330
17
100
AcDbEntity
  8
0
100
AcDbCircle
 10
972.2590756180807
 20
1206.957959683953
 30
0.0
 40
20.0
100
AcDbArc
 50
-90.0
 51
0.0
  0
ARC
  5
9A
330
17
100
AcDbEntity
  8
0
100
AcDbCircle
 10
72.26092438191924
 20
1206.957959683953
 30
0.0
 40
10.0
100
AcDbArc
 50
180.0
 51
270.0
  0
ARC
  5
9B
330
17
100
AcDbEntity
  8
0
100
AcDbCircle
 10
972.2590756180807
 20
1206.957959683953
 30
0.0
 40
10.0
100
AcDbArc
 50
-90.0
 51
0.0
  0
LINE
  5
9C
330
17
100
AcDbEntity
  8
0
100
AcDbLine
 10
72.26092438191924
 20
1186.957959683953
 30
0.0
 11
101.3340908708764
 21
1186.957959683953
 31
0.0
  0
LINE
  5
9D
330
17
100
AcDbEntity
  8
0
100
AcDbLine
 10
972.2590756180807
 20
1186.957959683953
 30
0.0
 11
943.1859091291236
 21
1186.957959683953
 31
0.0
  0
LINE
  5
9E
330
17
100
AcDbEntity
  8
0
100
AcDbLine
 10
72.26092438191924
 20
1176.957959683953
 30
0.0
 11
105.1537509833783
 21
1176.957959683953
 31
0.0
  0
LINE
  5
9F
330
17
100
AcDbEntity
  8
0
100
AcDbLine
 10
972.2590756180807
 20
1176.957959683953
 30
0.0
 11
939.3662490166216
 21
1176.957959683953
 31
0.0
  0
LINE
  5
A0
330
17
100
AcDbEntity
  8
0
100
AcDbLine
 10
72.26092438191924
 20
1196.957959683953
 30
0.0
 11
105.1537509833783
 21
1196.957959683953
 31
0.0
  0
LINE
  5
A1
330
17
100
AcDbEntity
  8
0
100
AcDbLine
 10
972.2590756180807
 20
1196.957959683953
 30
0.0
 11
939.3662490166216
 21
1196.957959683953
 31
0.0
  0
LWPOLYLINE
  5
A2
330
17
100
AcDbEntity
  8
0
100
AcDbPolyline
 90
4
 70
0
 10
52.26092438191924
 20
1167.0
 10
52.26092438191924
 20
42.40916721204843
 10
992.2609243819193
 20
42.40916721204798
 10
992.2609243819193
 20
1166.957959683953
  0
LINE
  5
A3
330
17
100
AcDbEntity
  8
0
100
AcDbLine
 10
522.26
 20
1482.4091672121976
 30
0.0
 11
357.2597375993451
 21
1482.409167212048
 31
0.0
  0
LINE
  5
A4
330
17
100
AcDbEntity
  8
0
100
AcDbLine
 10
522.26
 20
1482.4091672121976
 30
0.0
 11
687.2602624006549
 21
1482.409167212048
 31
0.0
  0
LINE
  5
A5
330
17
100
AcDbEntity
  8
0
100
AcDbLine
 10
478.9986414475647
 20
1472.409167212048
 30
0.0
 11
357.2597375993451
 21
1472.409167212048
 31
0.0
  0
LINE
  5
A6
330
17
100
AcDbEntity
  8
0
100
AcDbLine
 10
565.5213585524352
 20
1472.409167212048
 30
0.0
 11
687.2602624006549
 21
1472.409167212048
 31
0.0
  0
LINE
  5
A7
330
17
100
AcDbEntity
  8
0
100
AcDbLine
 10
317.259457363833
 20
1482.409167212048
 30
0.0
 11
204.0256065977724
 21
1482.409167212048
 31
0.0
  0
LINE
  5
A8
330
17
100
AcDbEntity
  8
0
100
AcDbLine
 10
727.260542636167
 20
1482.409167212048
 30
0.0
 11
840.4943934022276
 21
1482.409167212048
 31
0.0
  0
LINE
  5
A9
330
17
100
AcDbEntity
  8
0
100
AcDbLine
 10
317.259457363833
 20
1472.409167212048
 30
0.0
 11
246.7855488389582
 21
1472.409167212048
 31
0.0
  0
LINE
  5
AA
330
17
100
AcDbEntity
  8
0
100
AcDbLine
 10
727.260542636167
 20
1472.409167212048
 30
0.0
 11
797.7344511610418
 21
1472.409167212048
 31
0.0
  0
ARC
  5
AB
330
17
100
AcDbEntity
  8
0
100
AcDbCircle
 10
317.25951963856124
 20
1462.409167212145
 30
0.0
 40
20.0
100
AcDbArc
 50
359.9285099177521
 51
90.00017840395492
  0
ARC
  5
AC
330
17
100
AcDbEntity
  8
0
100
AcDbCircle
 10
727.2604803614389
 20
1462.409167212145
 30
0.0
 40
20.0
100
AcDbArc
 50
89.99982159604558
 51
180.07149008224792
  0
ARC
  5
AD
330
17
100
AcDbEntity
  8
0
100
AcDbCircle
 10
317.259457363833
 20
1462.409167212048
 30
0.0
 40
10.0
100
AcDbArc
 50
359.7855293088947
 51
90.0
  0
ARC
  5
AE
330
17
100
AcDbEntity
  8
0
100
AcDbCircle
 10
727.260542636167
 20
1462.409167212048
 30
0.0
 40
10.0
100
AcDbArc
 50
90.0
 51
-179.7855293088947
  0
ARC
  5
AF
330
17
100
AcDbEntity
  8
0
100
AcDbCircle
 10
357.2594885015952
 20
1462.4091672135992
 30
0.0
 40
20.0
100
AcDbArc
 50
89.99928638751213
 51
180.07149008641412
  0
ARC
  5
B0
330
17
100
AcDbEntity
  8
0
100
AcDbCircle
 10
687.2605114984049
 20
1462.4091672135992
 30
0.0
 40
20.0
100
AcDbArc
 50
359.92850991358586
 51
90.00071361248789
  0
ARC
  5
B1
330
17
100
AcDbEntity
  8
0
100
AcDbCircle
 10
357.2594573648
 20
1462.4091672159745
 30
0.0
 40
10.0
100
AcDbArc
 50
89.99839437432915
 51
180.21447071360708
  0
ARC
  5
B2
330
17
100
AcDbEntity
  8
0
100
AcDbCircle
 10
687.2605426352001
 20
1462.4091672159745
 30
0.0
 40
10.0
100
AcDbArc
 50
359.7855292863929
 51
90.00160562567119
  0
LINE
  5
B3
330
17
100
AcDbEntity
  8
0
100
AcDbLine
 10
337.2595040700791
 20
1462.384212472265
 30
0.0
 11
337.1938223830862
 21
1444.837451840901
 31
0.0
  0
LINE
  5
B4
330
17
100
AcDbEntity
  8
0
100
AcDbLine
 10
707.2604959299209
 20
1462.384212472265
 30
0.0
 11
707.3261776169138
 21
1444.837451840901
 31
0.0
  0
LINE
  5
B5
330
17
100
AcDbEntity
  8
0
100
AcDbLine
 10
347.25952742320186
 20
1462.3717351023738
 30
0.0
 11
347.1794545310736
 21
1440.980386378652
 31
0.0
  0
LINE
  5
B6
330
17
100
AcDbEntity
  8
0
100
AcDbLine
 10
697.2604725767982
 20
1462.3717351023738
 30
0.0
 11
697.3405454689264
 21
1440.980386378652
 31
0.0
  0
LINE
  5
B7
330
17
100
AcDbEntity
  8
0
100
AcDbLine
 10
327.2593873054471
 20
1462.371735102375
 30
0.0
 11
327.1795946478492
 21
1441.055250597995
 31
0.0
  0
LINE
  5
B8
330
17
100
AcDbEntity
  8
0
100
AcDbLine
 10
717.260612694553
 20
1462.371735102375
 30
0.0
 11
717.3404053521508
 21
1441.055250597995
 31
0.0
  0
LWPOLYLINE
  5
B9
330
17
100
AcDbEntity
  8
0
100
AcDbPolyline
 90
3
 70
0
 10
134.8385666945528
 20
1482.409167212048
 10
52.26092438191924
 20
1482.409167212048
 10
52.26092438191924
 20
1399.831524899414
  0
LWPOLYLINE
  5
BA
330
17
100
AcDbEntity
  8
0
100
AcDbPolyline
 90
3
 70
0
 10
909.6814333054472
 20
1482.409167212048
 10
992.2590756180807
 20
1482.409167212048
 10
992.2590756180807
 20
1399.831524899414
  0
LWPOLYLINE
  5
BB
330
17
100
AcDbEntity
  8
0
100
AcDbPolyline
 90
3
 70
0
 10
92.07862445336875
 20
1472.409167212048
 10
62.26092438191924
 20
1472.409167212048
 10
62.26092438191924
 20
1442.591467140599
  0
LWPOLYLINE
  5
BC
330
17
100
AcDbEntity
  8
0
100
AcDbPolyline
 90
3
 70
0
 10
952.4413755466312
 20
1472.409167212048
 10
982.2590756180807
 20
1472.409167212048
 10
982.2590756180807
 20
1442.591467140599
  0
ARC
  5
BD
330
17
100
AcDbEntity
  8
0
100
AcDbCircle
 10
855.0699264217975
 20
751.8360170302965
 30
0.0
 40
802.8073086934305
100
AcDbArc
 50
114.49146387443446
 51
125.15410613728625
  0
ARC
  5
BE
330
17
100
AcDbEntity
  8
0
100
AcDbCircle
 10
189.45007357820276
 20
751.8360170302964
 30
0.0
 40
802.8073086934305
100
AcDbArc
 50
54.84589386271379
 51
65.50853612556557
  0
ARC
  5
BF
330
17
100
AcDbEntity
  8
0
100
AcDbCircle
 10
855.0682330753507
 20
751.8348245392269
 30
0.0
 40
812.8073086934305
100
AcDbArc
 50
117.56017120021961
 51
125.15395832433748
  0
ARC
  5
C0
330
17
100
AcDbEntity
  8
0
100
AcDbCircle
 10
189.45176692464952
 20
751.8348245392268
 30
0.0
 40
812.8073086934305
100
AcDbArc
 50
54.846041675662555
 51
62.439828799780415
  0
ARC
  5
C1
330
17
100
AcDbEntity
  8
0
100
AcDbCircle
 10
381.31595191465937
 20
1424.5685336205897
 30
0.0
 40
20.0
100
AcDbArc
 50
236.48538469813099
 51
305.15395832415163
  0
ARC
  5
C2
330
17
100
AcDbEntity
  8
0
100
AcDbCircle
 10
663.2040480853407
 20
1424.5685336205897
 30
0.0
 40
20.0
100
AcDbArc
 50
234.8460416758484
 51
303.5146153018691
  0
ARC
  5
C3
330
17
100
AcDbEntity
  8
0
100
AcDbCircle
 10
381.3159519146599
 20
1424.5685336205902
 30
0.0
 40
10.0
100
AcDbArc
 50
236.48538469814108
 51
305.1539583239569
  0
ARC
  5
C4
330
17
100
AcDbEntity
  8
0
100
AcDbCircle
 10
663.2040480853401
 20
1424.5685336205902
 30
0.0
 40
10.0
100
AcDbArc
 50
234.84604167604311
 51
303.5146153018592
  0
ARC
  5
C5
330
17
100
AcDbEntity
  8
0
100
AcDbCircle
 10
855.0682330753484
 20
751.8348245392262
 30
0.0
 40
802.8073086934305
100
AcDbArc
 50
128.1156271594653
 51
135.87615583857036
  0
ARC
  5
C6
330
17
100
AcDbEntity
  8
0
100
AcDbCircle
 10
189.45176692465066
 20
751.8348245392268
 30
0.0
 40
802.8073086934305
100
AcDbArc
 50
44.12384416142955
 51
51.8843728405346
  0
ARC
  5
C7
330
17
100
AcDbEntity
  8
0
100
AcDbCircle
 10
855.0682330753315
 20
751.8348245392127
 30
0.0
 40
812.8073086934305
100
AcDbArc
 50
128.115627159464
 51
133.0556333812003
  0
ARC
  5
C8
330
17
100
AcDbEntity
  8
0
100
AcDbCircle
 10
189.4517669246685
 20
751.8348245392127
 30
0.0
 40
812.8073086934305
100
AcDbArc
 50
46.944366618799705
 51
51.88437284053601
  0
ARC
  5
C9
330
17
100
AcDbEntity
  8
0
100
AcDbCircle
 10
855.0682330753586
 20
751.834824539241
 30
0.0
 40
802.8073086934305
100
AcDbArc
 50
140.48914268911267
 51
148.21203540725728
  0
ARC
  5
CA
330
17
100
AcDbEntity
  8
0
100
AcDbCircle
 10
189.45176692464076
 20
751.8348245392417
 30
0.0
 40
802.8073086934305
100
AcDbArc
 50
31.78796459274267
 51
39.51085731088726
  0
ARC
  5
CB
330
17
100
AcDbEntity
  8
0
100
AcDbCircle
 10
855.0682330755335
 20
751.8348245395227
 30
0.0
 40
812.8073086934305
100
AcDbArc
 50
143.30966514650257
 51
148.21203540728055
  0
ARC
  5
CC
330
17
100
AcDbEntity
  8
0
100
AcDbCircle
 10
189.45176692446637
 20
751.834824539523
 30
0.0
 40
812.8073086934305
100
AcDbArc
 50
31.78796459271944
 51
36.690334853497404
  0
ARC
  5
CD
330
17
100
AcDbEntity
  8
0
100
AcDbCircle
 10
855.06823307535
 20
751.8348245392275
 30
0.0
 40
802.8073086934305
100
AcDbArc
 50
151.00052244584825
 51
180.00000000000406
  0
ARC
  5
CE
330
17
100
AcDbEntity
  8
0
100
AcDbCircle
 10
189.45176692464997
 20
751.8348245392274
 30
0.0
 40
802.8073086934305
100
AcDbArc
 50
359.9999999999959
 51
28.99947755415176
  0
ARC
  5
CF
330
17
100
AcDbEntity
  8
0
100
AcDbCircle
 10
855.0682330753591
 20
751.8348245392433
 30
0.0
 40
812.8073086934305
100
AcDbArc
 50
151.00052244584958
 51
167.26340332464346
  0
ARC
  5
D0
330
17
100
AcDbEntity
  8
0
100
AcDbCircle
 10
189.45176692464054
 20
751.8348245392443
 30
0.0
 40
812.8073086934305
100
AcDbArc
 50
12.736596675356456
 51
28.999477554150367
  0
ARC
  5
D1
330
17
100
AcDbEntity
  8
0
100
AcDbCircle
 10
135.42110836916697
 20
1150.7331613889185
 30
0.0
 40
20.0
100
AcDbArc
 50
331.0005224457438
 51
57.023831361287556
  0
ARC
  5
D2
330
17
100
AcDbEntity
  8
0
100
AcDbCircle
 10
909.0988916308329
 20
1150.7331613889185
 30
0.0
 40
20.0
100
AcDbArc
 50
122.97616863871232
 51
208.99947755425634
  0
ARC
  5
D3
330
17
100
AcDbEntity
  8
0
100
AcDbCircle
 10
135.42110836916737
 20
1150.7331613889187
 30
0.0
 40
10.0
100
AcDbArc
 50
331.00052244563415
 51
57.02383136128571
  0
ARC
  5
D4
330
17
100
AcDbEntity
  8
0
100
AcDbCircle
 10
909.0988916308328
 20
1150.733161388919
 30
0.0
 40
10.0
100
AcDbArc
 50
122.97616863871612
 51
208.99947755436554
  0
ARC
  5
D5
330
17
100
AcDbEntity
  8
0
100
AcDbCircle
 10
155.67925173856793
 20
1185.27100210638
 30
0.0
 40
20.0
100
AcDbArc
 50
237.0238313612908
 51
328.2120354075655
  0
ARC
  5
D6
330
17
100
AcDbEntity
  8
0
100
AcDbCircle
 10
888.8407482614319
 20
1185.27100210638
 30
0.0
 40
20.0
100
AcDbArc
 50
211.78796459243455
 51
302.97616863870934
  0
ARC
  5
D7
330
17
100
AcDbEntity
  8
0
100
AcDbCircle
 10
155.67919449574939
 20
1185.270909738727
 30
0.0
 40
10.0
100
AcDbArc
 50
237.02302644003527
 51
328.2126580241058
  0
ARC
  5
D8
330
17
100
AcDbEntity
  8
0
100
AcDbCircle
 10
888.8408055042506
 20
1185.270909738727
 30
0.0
 40
10.0
100
AcDbArc
 50
211.7873419758943
 51
302.97697355996485
  0
ARC
  5
D9
330
17
100
AcDbEntity
  8
0
100
AcDbCircle
 10
347.1900226544372
 20
1399.1922147179268
 30
0.0
 40
20.0
100
AcDbArc
 50
308.11562715883065
 51
56.48538469813502
  0
ARC
  5
DA
330
17
100
AcDbEntity
  8
0
100
AcDbCircle
 10
697.3299773455628
 20
1399.1922147179268
 30
0.0
 40
20.0
100
AcDbArc
 50
123.51461530186525
 51
231.88437284116947
  0
ARC
  5
DB
330
17
100
AcDbEntity
  8
0
100
AcDbCircle
 10
347.1900226544402
 20
1399.1922147179293
 30
0.0
 40
10.0
100
AcDbArc
 50
308.11562715815694
 51
56.485384698126175
  0
ARC
  5
DC
330
17
100
AcDbEntity
  8
0
100
AcDbCircle
 10
697.3299773455597
 20
1399.1922147179293
 30
0.0
 40
10.0
100
AcDbArc
 50
123.51461530187383
 51
231.88437284184351
  0
ARC
  5
DD
330
17
100
AcDbEntity
  8
0
100
AcDbCircle
 10
855.0698120363211
 20
751.8358556571583
 30
0.0
 40
782.8073086934304
100
AcDbArc
 50
115.16007553586219
 51
123.1460411137871
  0
ARC
  5
DE
330
17
100
AcDbEntity
  8
0
100
AcDbCircle
 10
189.45080421829192
 20
751.8358556571582
 30
0.0
 40
782.8073086934304
100
AcDbArc
 50
56.85395888621291
 51
64.83992446413782
  0
ARC
  5
DF
330
17
100
AcDbEntity
  8
0
100
AcDbCircle
 10
855.0740954699661
 20
751.8379159326005
 30
0.0
 40
772.8073086934305
100
AcDbArc
 50
115.5091727131242
 51
117.80409489752034
  0
ARC
  5
E0
330
17
100
AcDbEntity
  8
0
100
AcDbCircle
 10
189.44652078464543
 20
751.837915932601
 30
0.0
 40
772.8073086934305
100
AcDbArc
 50
62.195905102479564
 51
64.49082728687571
  0
ARC
  5
E1
330
17
100
AcDbEntity
  8
0
100
AcDbCircle
 10
855.0682330753191
 20
751.8348245392185
 30
0.0
 40
782.8073086934304
100
AcDbArc
 50
131.67579167644212
 51
173.69491106673686
  0
ARC
  5
E2
330
17
100
AcDbEntity
  8
0
100
AcDbCircle
 10
189.4517669246809
 20
751.8348245392186
 30
0.0
 40
782.8073086934304
100
AcDbArc
 50
6.305088933263145
 51
48.32420832355787
  0
ARC
  5
E3
330
17
100
AcDbEntity
  8
0
100
AcDbCircle
 10
855.0682270688536
 20
751.8348030198072
 30
0.0
 40
762.8073086934305
100
AcDbArc
 50
140.39711506357722
 51
164.40450654788899
  0
ARC
  5
E4
330
17
100
AcDbEntity
  8
0
100
AcDbCircle
 10
189.45177293114637
 20
751.8348030198072
 30
0.0
 40
762.8073086934305
100
AcDbArc
 50
15.595493452111048
 51
39.60288493642281
  0
ARC
  5
E5
330
17
100
AcDbEntity
  8
0
100
AcDbCircle
 10
522.2603081273063
 20
1186.958267838676
 30
0.0
 40
240.0
100
AcDbArc
 50
243.43299247485703
 51
296.567007525143
  0
ARC
  5
E6
330
17
100
AcDbEntity
  8
0
100
AcDbCircle
 10
522.2603081273064
 20
1186.958150558853
 30
0.0
 40
250.0
100
AcDbArc
 50
252.7905560811381
 51
287.2094439188619
  0
ARC
  5
E7
330
17
100
AcDbEntity
  8
0
100
AcDbCircle
 10
522.2603081273064
 20
1186.9576933562766
 30
0.0
 40
240.0
100
AcDbArc
 50
66.62745898926433
 51
113.37254101073566
  0
ARC
  5
E8
330
17
100
AcDbEntity
  8
0
100
AcDbCircle
 10
522.2603081273064
 20
1186.957891074361
 30
0.0
 40
250.0
100
AcDbArc
 50
83.64731182115825
 51
96.35268817884177
  0
ARC
  5
E9
330
17
100
AcDbEntity
  8
0
100
AcDbCircle
 10
522.2609243818637
 20
1186.9579596838216
 30
0.0
 40
240.0
100
AcDbArc
 50
141.44899347997733
 51
208.05834818034563
  0
ARC
  5
EA
330
17
100
AcDbEntity
  8
0
100
AcDbCircle
 10
522.2590756181363
 20
1186.9579596838216
 30
0.0
 40
240.0
100
AcDbArc
 50
331.94165181965434
 51
38.55100652002267
  0
ARC
  5
EB
330
17
100
AcDbEntity
  8
0
100
AcDbCircle
 10
522.260924381907
 20
1186.957959684226
 30
0.0
 40
260.0
100
AcDbArc
 50
168.6568231507537
 51
203.2065392464583
  0
ARC
  5
EC
330
17
100
AcDbEntity
  8
0
100
AcDbCircle
 10
522.259075618093
 20
1186.9579596842257
 30
0.0
 40
260.0
100
AcDbArc
 50
336.7934607535417
 51
11.34317684924636
  0
ARC
  5
ED
330
17
100
AcDbEntity
  8
0
100
AcDbCircle
 10
522.2609243819334
 20
1186.9579596839526
 30
0.0
 40
215.0
100
AcDbArc
 50
108.94221244765916
 51
161.05778755233652
  0
ARC
  5
EE
330
17
100
AcDbEntity
  8
0
100
AcDbCircle
 10
522.2590756180667
 20
1186.9579596839526
 30
0.0
 40
215.0
100
AcDbArc
 50
18.9422124476635
 51
71.05778755234086
  0
ARC
  5
EF
330
17
100
AcDbEntity
  8
0
100
AcDbCircle
 10
522.2609243819214
 20
1186.957959683962
 30
0.0
 40
205.0
100
AcDbArc
 50
118.87845316876007
 51
151.12154683122802
  0
ARC
  5
F0
330
17
100
AcDbEntity
  8
0
100
AcDbCircle
 10
522.2590756180787
 20
1186.957959683962
 30
0.0
 40
205.0
100
AcDbArc
 50
28.878453168772005
 51
61.12154683123993
  0
ARC
  5
F1
330
17
100
AcDbEntity
  8
0
100
AcDbCircle
 10
522.2609243819339
 20
1186.9579596839517
 30
0.0
 40
215.0
100
AcDbArc
 50
198.94221244766297
 51
251.0577875523332
  0
ARC
  5
F2
330
17
100
AcDbEntity
  8
0
100
AcDbCircle
 10
522.259075618066
 20
1186.9579596839517
 30
0.0
 40
215.0
100
AcDbArc
 50
288.9422124476668
 51
341.057787552337
  0
ARC
  5
F3
330
17
100
AcDbEntity
  8
0
100
AcDbCircle
 10
390.2609243819197
 20
1186.9579596839524
 30
0.0
 40
78.0
100
AcDbArc
 50
44.999999999997314
 51
315.00000000000415
  0
ARC
  5
F4
330
17
100
AcDbEntity
  8
0
100
AcDbCircle
 10
654.2590756180804
 20
1186.9579596839524
 30
0.0
 40
78.0
100
AcDbArc
 50
224.9999999999958
 51
135.00000000000273
  0
ARC
  5
F5
330
17
100
AcDbEntity
  8
0
100
AcDbCircle
 10
522.2603081273063
 20
1318.95857593168
 30
0.0
 40
78.0
100
AcDbArc
 50
314.9993598219457
 51
225.00064017805454
  0
LINE
  5
F6
330
17
100
AcDbEntity
  8
0
100
AcDbLine
 10
445.4152533144702
 20
1242.112288616503
 30
0.0
 11
467.1065954493683
 21
1263.803630751402
 31
0.0
  0
LINE
  5
F7
330
17
100
AcDbEntity
  8
0
100
AcDbLine
 10
599.1047466855298
 20
1242.112288616503
 30
0.0
 11
577.4140208052473
 21
1263.803630751405
 31
0.0
  0
LINE
  5
F8
330
17
100
AcDbEntity
  8
0
100
AcDbLine
 10
445.415253314472
 20
1131.803630751403
 30
0.0
 11
467.1065954493701
 21
1110.112288616505
 31
0.0
  0
LINE
  5
F9
330
17
100
AcDbEntity
  8
0
100
AcDbLine
 10
599.104746685528
 20
1131.803630751403
 30
0.0
 11
577.4143289325542
 21
1110.1122886164999
 31
0.0
  0
ARC
  5
FA
330
17
100
AcDbEntity
  8
0
100
AcDbCircle
 10
522.2604621909595
 20
1054.9574974968662
 30
0.0
 40
78.0
100
AcDbArc
 50
134.99951986578984
 51
45.0004801342101
  0
ARC
  5
FB
330
17
100
AcDbEntity
  8
0
100
AcDbCircle
 10
453.66457872865954
 20
699.0760632403892
 30
0.0
 40
401.4036543467152
100
AcDbArc
 50
110.90004392141915
 51
159.78102812047385
  0
ARC
  5
FC
330
17
100
AcDbEntity
  8
0
100
AcDbCircle
 10
590.8554212713402
 20
699.0760632403892
 30
0.0
 40
401.4036543467152
100
AcDbArc
 50
20.21897187952615
 51
69.09995607858082
  0
ARC
  5
FD
330
17
100
AcDbEntity
  8
0
100
AcDbCircle
 10
453.66457872861747
 20
699.0760632403575
 30
0.0
 40
421.4036543467152
100
AcDbArc
 50
113.84632556103976
 51
142.27675897993902
  0
ARC
  5
FE
330
17
100
AcDbEntity
  8
0
100
AcDbCircle
 10
590.8554212713826
 20
699.0760632403571
 30
0.0
 40
421.4036543467152
100
AcDbArc
 50
37.72324102006107
 51
66.15367443896028
  0
ARC
  5
FF
330
17
100
AcDbEntity
  8
0
100
AcDbCircle
 10
120.85634565451778
 20
699.0770581349386
 30
0.0
 40
401.4036543467152
100
AcDbArc
 50
359.99985799017895
 51
42.89581164785358
  0
ARC
  5
100
330
17
100
AcDbEntity
  8
0
100
AcDbCircle
 10
923.6636543465784
 20
699.0763948714487
 30
0.0
 40
401.4036543467152
100
AcDbArc
 50
137.10405912156588
 51
180.00004733654575
  0
ARC
  5
101
330
17
100
AcDbEntity
  8
0
100
AcDbCircle
 10
120.85639558910646
 20
699.0772128021969
 30
0.0
 40
411.4036543467152
100
AcDbArc
 50
12.658480458662915
 51
37.25933945895745
  0
ARC
  5
102
330
17
100
AcDbEntity
  8
0
100
AcDbCircle
 10
923.6642206655151
 20
699.0772128022086
 30
0.0
 40
411.4036543467152
100
AcDbArc
 50
142.7406605410446
 51
167.34151954133876
  0
ARC
  5
103
330
17
100
AcDbEntity
  8
0
100
AcDbCircle
 10
169.43208664616623
 20
1365.238004947805
 30
0.0
 40
115.1711622642442
100
AcDbArc
 50
100.34551145693392
 51
199.6544885430859
  0
ARC
  5
104
330
17
100
AcDbEntity
  8
0
100
AcDbCircle
 10
875.0879133538338
 20
1365.2380049478047
 30
0.0
 40
115.1711622642442
100
AcDbArc
 50
340.3455114569141
 51
79.65448854306618
  0
ARC
  5
105
330
17
100
AcDbEntity
  8
0
100
AcDbCircle
 10
169.43208664615014
 20
1365.23800494779
 30
0.0
 40
105.1711622642442
100
AcDbArc
 50
126.4702151083512
 51
173.52978489166898
  0
ARC
  5
106
330
17
100
AcDbEntity
  8
0
100
AcDbCircle
 10
875.0879133538499
 20
1365.23800494779
 30
0.0
 40
105.1711622642442
100
AcDbArc
 50
6.470215108331012
 51
53.52978489164887
  0
ARC
  5
107
330
17
100
AcDbEntity
  8
0
100
AcDbCircle
 10
169.4320866461622
 20
1365.238004947801
 30
0.0
 40
115.1711622642442
100
AcDbArc
 50
220.34551145689258
 51
319.6544885431098
  0
ARC
  5
108
330
17
100
AcDbEntity
  8
0
100
AcDbCircle
 10
875.0879133538377
 20
1365.2380049478013
 30
0.0
 40
115.1711622642442
100
AcDbArc
 50
220.3455114568903
 51
319.65448854310745
  0
ARC
  5
109
330
17
100
AcDbEntity
  8
0
100
AcDbCircle
 10
169.43208664615986
 20
1365.2380049478047
 30
0.0
 40
115.1711622642442
100
AcDbArc
 50
340.3455114569159
 51
79.65448854306626
  0
ARC
  5
10A
330
17
100
AcDbEntity
  8
0
100
AcDbCircle
 10
875.0879133538401
 20
1365.2380049478047
 30
0.0
 40
115.1711622642442
100
AcDbArc
 50
100.34551145693372
 51
199.65448854308386
  0
ARC
  5
10B
330
17
100
AcDbEntity
  8
0
100
AcDbCircle
 10
169.43208664616316
 20
1365.2380049478043
 30
0.0
 40
122.1711622642442
100
AcDbArc
 50
106.44866623394462
 51
163.55133376603632
  0
ARC
  5
10C
330
17
100
AcDbEntity
  8
0
100
AcDbCircle
 10
875.0879133538367
 20
1365.2380049478043
 30
0.0
 40
122.1711622642442
100
AcDbArc
 50
16.448666233963674
 51
73.5513337660553
  0
ARC
  5
10D
330
17
100
AcDbEntity
  8
0
100
AcDbCircle
 10
169.43208664616236
 20
1365.2380049478031
 30
0.0
 40
132.1711622642442
100
AcDbArc
 50
125.82080808848568
 51
144.17919191151822
  0
ARC
  5
10E
330
17
100
AcDbEntity
  8
0
100
AcDbCircle
 10
875.0879133538376
 20
1365.2380049478031
 30
0.0
 40
132.1711622642442
100
AcDbArc
 50
35.82080808848178
 51
54.17919191151434
  0
ARC
  5
10F
330
17
100
AcDbEntity
  8
0
100
AcDbCircle
 10
169.43208664615855
 20
1365.238004947816
 30
0.0
 40
122.1711622642442
100
AcDbArc
 50
196.44866623397246
 51
242.90035189769296
  0
ARC
  5
110
330
17
100
AcDbEntity
  8
0
100
AcDbCircle
 10
875.0879133538415
 20
1365.238004947816
 30
0.0
 40
122.1711622642442
100
AcDbArc
 50
297.099648102307
 51
343.55133376602754
  0
ARC
  5
111
330
17
100
AcDbEntity
  8
0
100
AcDbCircle
 10
169.43208664615025
 20
1365.2380049478202
 30
0.0
 40
132.1711622642442
100
AcDbArc
 50
215.82080808849275
 51
242.90035189769773
  0
ARC
  5
112
330
17
100
AcDbEntity
  8
0
100
AcDbCircle
 10
875.0879133538499
 20
1365.2380049478202
 30
0.0
 40
132.1711622642442
100
AcDbArc
 50
297.0996481023022
 51
324.17919191150725
  0
ARC
  5
113
330
17
100
AcDbEntity
  8
0
100
AcDbCircle
 10
169.43208664618123
 20
1365.2380049478097
 30
0.0
 40
122.1711622642442
100
AcDbArc
 50
259.2982629920284
 51
302.8479652996762
  0
ARC
  5
114
330
17
100
AcDbEntity
  8
0
100
AcDbCircle
 10
875.0879133538187
 20
1365.2380049478097
 30
0.0
 40
122.1711622642442
100
AcDbArc
 50
237.15203470032384
 51
280.70173700797164
  0
ARC
  5
115
330
17
100
AcDbEntity
  8
0
100
AcDbCircle
 10
169.43208664640167
 20
1365.238004947768
 30
0.0
 40
132.1711622642442
100
AcDbArc
 50
259.29826299193104
 51
284.84598465964604
  0
ARC
  5
116
330
17
100
AcDbEntity
  8
0
100
AcDbCircle
 10
875.0879133535984
 20
1365.238004947768
 30
0.0
 40
132.1711622642442
100
AcDbArc
 50
255.15401534035396
 51
280.70173700806896
  0
ARC
  5
117
330
17
100
AcDbEntity
  8
0
100
AcDbCircle
 10
143.03141296324685
 20
1225.539601919524
 30
0.0
 40
20.0
100
AcDbArc
 50
79.2982629920852
 51
170.54943107732828
  0
ARC
  5
118
330
17
100
AcDbEntity
  8
0
100
AcDbCircle
 10
901.4885870367532
 20
1225.539601919524
 30
0.0
 40
20.0
100
AcDbArc
 50
9.450568922671705
 51
100.70173700791482
  0
ARC
  5
119
330
17
100
AcDbEntity
  8
0
100
AcDbCircle
 10
143.03141296324816
 20
1225.539601919524
 30
0.0
 40
10.0
100
AcDbArc
 50
79.29826299215073
 51
170.54943107730716
  0
ARC
  5
11A
330
17
100
AcDbEntity
  8
0
100
AcDbCircle
 10
901.4885870367518
 20
1225.539601919524
 30
0.0
 40
10.0
100
AcDbArc
 50
9.450568922692907
 51
100.70173700784895
  0
ARC
  5
11B
330
17
100
AcDbEntity
  8
0
100
AcDbCircle
 10
104.667515041152
 20
1238.6750180820422
 30
0.0
 40
20.0
100
AcDbArc
 50
350.54943107738376
 51
62.90035189762382
  0
ARC
  5
11C
330
17
100
AcDbEntity
  8
0
100
AcDbCircle
 10
939.852484958848
 20
1238.6750180820422
 30
0.0
 40
20.0
100
AcDbArc
 50
117.09964810237612
 51
189.4505689226162
  0
ARC
  5
11D
330
17
100
AcDbEntity
  8
0
100
AcDbCircle
 10
104.66751504115226
 20
1238.675018082042
 30
0.0
 40
10.0
100
AcDbArc
 50
350.5494310774128
 51
62.90035189754647
  0
ARC
  5
11E
330
17
100
AcDbEntity
  8
0
100
AcDbCircle
 10
939.8524849588476
 20
1238.6750180820418
 30
0.0
 40
10.0
100
AcDbArc
 50
117.09964810245243
 51
189.45056892258592
  0
ARC
  5
11F
330
17
100
AcDbEntity
  8
0
100
AcDbCircle
 10
169.43208664614244
 20
1365.2380049478463
 30
0.0
 40
122.1711622642442
100
AcDbArc
 50
333.5173332279081
 51
14.373810969503422
  0
ARC
  5
120
330
17
100
AcDbEntity
  8
0
100
AcDbCircle
 10
875.0879133538575
 20
1365.2380049478463
 30
0.0
 40
122.1711622642442
100
AcDbArc
 50
165.6261890304966
 51
206.482666772092
  0
ARC
  5
121
330
17
100
AcDbEntity
  8
0
100
AcDbCircle
 10
169.4320866461867
 20
1365.2380049476733
 30
0.0
 40
132.1711622642442
100
AcDbArc
 50
351.519313867936
 51
14.373810969582882
  0
ARC
  5
122
330
17
100
AcDbEntity
  8
0
100
AcDbCircle
 10
875.0879133538133
 20
1365.2380049476733
 30
0.0
 40
132.1711622642442
100
AcDbArc
 50
165.62618903041712
 51
188.480686132064
  0
ARC
  5
123
330
17
100
AcDbEntity
  8
0
100
AcDbCircle
 10
169.43208664614963
 20
1365.238004947808
 30
0.0
 40
122.1711622642442
100
AcDbArc
 50
30.658397082369017
 51
73.5513337660481
  0
ARC
  5
124
330
17
100
AcDbEntity
  8
0
100
AcDbCircle
 10
875.0879133538502
 20
1365.238004947808
 30
0.0
 40
122.1711622642442
100
AcDbArc
 50
106.44866623395187
 51
149.34160291763098
  0
ARC
  5
125
330
17
100
AcDbEntity
  8
0
100
AcDbCircle
 10
169.43208664614394
 20
1365.2380049478174
 30
0.0
 40
132.1711622642442
100
AcDbArc
 50
30.65839708236522
 51
54.17919191150294
  0
ARC
  5
126
330
17
100
AcDbEntity
  8
0
100
AcDbCircle
 10
875.087913353856
 20
1365.2380049478174
 30
0.0
 40
132.1711622642442
100
AcDbArc
 50
125.82080808849707
 51
149.3416029176348
  0
ARC
  5
127
330
17
100
AcDbEntity
  8
0
100
AcDbCircle
 10
291.7309554076296
 20
1437.7337019182373
 30
0.0
 40
20.0
100
AcDbArc
 50
210.65839708232053
 51
285.8535747377362
  0
ARC
  5
128
330
17
100
AcDbEntity
  8
0
100
AcDbCircle
 10
752.7890445923703
 20
1437.7337019182373
 30
0.0
 40
20.0
100
AcDbArc
 50
254.14642526226407
 51
329.34160291767955
  0
ARC
  5
129
330
17
100
AcDbEntity
  8
0
100
AcDbCircle
 10
291.73095540762944
 20
1437.7337019182376
 30
0.0
 40
10.0
100
AcDbArc
 50
210.6583970822602
 51
285.85357473771035
  0
ARC
  5
12A
330
17
100
AcDbEntity
  8
0
100
AcDbCircle
 10
752.7890445923706
 20
1437.7337019182376
 30
0.0
 40
10.0
100
AcDbArc
 50
254.14642526228937
 51
329.34160291773964
  0
ARC
  5
12B
330
17
100
AcDbEntity
  8
0
100
AcDbCircle
 10
307.15282696068067
 20
1400.5315888800792
 30
0.0
 40
20.0
100
AcDbArc
 50
105.8535747377732
 51
194.37381096949264
  0
ARC
  5
12C
330
17
100
AcDbEntity
  8
0
100
AcDbCircle
 10
737.3671730393194
 20
1400.5315888800792
 30
0.0
 40
20.0
100
AcDbArc
 50
345.6261890305073
 51
74.14642526222697
  0
ARC
  5
12D
330
17
100
AcDbEntity
  8
0
100
AcDbCircle
 10
307.15282696068056
 20
1400.5315888800797
 30
0.0
 40
10.0
100
AcDbArc
 50
105.85357473781403
 51
194.3738109694576
  0
ARC
  5
12E
330
17
100
AcDbEntity
  8
0
100
AcDbCircle
 10
737.3671730393194
 20
1400.5315888800797
 30
0.0
 40
10.0
100
AcDbArc
 50
345.6261890305425
 51
74.14642526218567
  0
LINE
  5
12F
330
17
100
AcDbEntity
  8
0
100
AcDbLine
 10
445.4152533144702
 20
1242.112288616504
 30
0.0
 11
444.4791784514004
 21
1264.739705614473
 31
0.0
  0
LINE
  5
130
330
17
100
AcDbEntity
  8
0
100
AcDbLine
 10
599.1047466855298
 20
1242.112288616504
 30
0.0
 11
600.0412837395837
 21
1264.7397056145073
 31
0.0
  0
LINE
  5
131
330
17
100
AcDbEntity
  8
0
100
AcDbLine
 10
444.4791784514004
 20
1264.739705614473
 30
0.0
 11
467.1065954493683
 21
1263.803630751402
 31
0.0
  0
LINE
  5
132
330
17
100
AcDbEntity
  8
0
100
AcDbLine
 10
600.0412837395837
 20
1264.7397056145073
 30
0.0
 11
577.4140208052473
 21
1263.803630751405
 31
0.0
  0
ARC
  5
133
330
17
100
AcDbEntity
  8
0
100
AcDbCircle
 10
390.2609243819161
 20
1186.957959683954
 30
0.0
 40
94.81360173700187
100
AcDbArc
 50
55.121333079173425
 51
304.87866692082036
  0
ARC
  5
134
330
17
100
AcDbEntity
  8
0
100
AcDbCircle
 10
654.2595378090309
 20
1186.9579596839637
 30
0.0
 40
94.81360173700187
100
AcDbArc
 50
235.12133307918796
 51
124.87866692078362
  0
ARC
  5
135
330
17
100
AcDbEntity
  8
0
100
AcDbCircle
 10
390.26092438190454
 20
1186.957959683938
 30
0.0
 40
99.81360173700187
100
AcDbArc
 50
65.75181176780747
 51
135.6352050446572
  0
ARC
  5
136
330
17
100
AcDbEntity
  8
0
100
AcDbCircle
 10
654.2590756180954
 20
1186.957959683938
 30
0.0
 40
99.81360173700187
100
AcDbArc
 50
44.36479495534277
 51
114.2481882321925
  0
ARC
  5
137
330
17
100
AcDbEntity
  8
0
100
AcDbCircle
 10
390.2609243819185
 20
1186.9579596839635
 30
0.0
 40
109.8136017370018
100
AcDbArc
 50
76.79176372652886
 51
115.6338966298756
  0
ARC
  5
138
330
17
100
AcDbEntity
  8
0
100
AcDbCircle
 10
654.2590756180816
 20
1186.9579596839635
 30
0.0
 40
109.8136017370018
100
AcDbArc
 50
64.36610337012445
 51
103.2082362734712
  0
ARC
  5
139
330
17
100
AcDbEntity
  8
0
100
AcDbCircle
 10
390.2609243819151
 20
1186.9579596839571
 30
0.0
 40
99.81360173700187
100
AcDbArc
 50
224.36479495533405
 51
294.24818823217015
  0
ARC
  5
13A
330
17
100
AcDbEntity
  8
0
100
AcDbCircle
 10
654.2590756180849
 20
1186.9579596839571
 30
0.0
 40
99.81360173700187
100
AcDbArc
 50
245.75181176782988
 51
315.6352050446659
  0
ARC
  5
13B
330
17
100
AcDbEntity
  8
0
100
AcDbCircle
 10
522.2602310954799
 20
1054.9569651057204
 30
0.0
 40
94.81360173700187
100
AcDbArc
 50
145.1206004472736
 51
34.879399552727826
  0
ARC
  5
13C
330
17
100
AcDbEntity
  8
0
100
AcDbCircle
 10
522.2609243819014
 20
1054.9579596839615
 30
0.0
 40
99.81360173700187
100
AcDbArc
 50
155.75181176782576
 51
225.63520504468556
  0
ARC
  5
13D
330
17
100
AcDbEntity
  8
0
100
AcDbCircle
 10
522.2590756180987
 20
1054.9579596839615
 30
0.0
 40
99.81360173700187
100
AcDbArc
 50
314.3647949553144
 51
24.24818823217425
  0
ARC
  5
13E
330
17
100
AcDbEntity
  8
0
100
AcDbCircle
 10
522.2602310954852
 20
1318.958954262186
 30
0.0
 40
94.81360173700187
100
AcDbArc
 50
325.1206004473074
 51
214.8793995527296
  0
ARC
  5
13F
330
17
100
AcDbEntity
  8
0
100
AcDbCircle
 10
522.2609243819162
 20
1318.9579596839405
 30
0.0
 40
99.81360173700187
100
AcDbArc
 50
134.36479495530494
 51
204.24818823218857
  0
ARC
  5
140
330
17
100
AcDbEntity
  8
0
100
AcDbCircle
 10
522.2590756180838
 20
1318.9579596839405
 30
0.0
 40
99.81360173700187
100
AcDbArc
 50
335.75181176781143
 51
45.635205044695034
  0
ARC
  5
141
330
17
100
AcDbEntity
  8
0
100
AcDbCircle
 10
522.2609243819185
 20
1318.9579596839044
 30
0.0
 40
109.8136017370018
100
AcDbArc
 50
154.36610337007758
 51
193.20823627344552
  0
ARC
  5
142
330
17
100
AcDbEntity
  8
0
100
AcDbCircle
 10
522.2590756180815
 20
1318.9579596839044
 30
0.0
 40
109.8136017370018
100
AcDbArc
 50
346.79176372655445
 51
25.63389662992241
  0
LINE
  5
143
330
17
100
AcDbEntity
  8
0
100
AcDbLine
 10
444.479178451404
 20
1109.176213753441
 30
0.0
 11
445.415253314472
 21
1131.803630751403
 31
0.0
  0
LINE
  5
144
330
17
100
AcDbEntity
  8
0
100
AcDbLine
 10
600.041283739545
 20
1109.1762137534467
 30
0.0
 11
599.104746685528
 21
1131.803630751403
 31
0.0
  0
LINE
  5
145
330
17
100
AcDbEntity
  8
0
100
AcDbLine
 10
444.479178451395
 20
1109.176213753429
 30
0.0
 11
466.1705205862931
 21
1109.176213753428
 31
0.0
  0
LINE
  5
146
330
17
100
AcDbEntity
  8
0
100
AcDbLine
 10
600.041283739545
 20
1109.1762137534467
 30
0.0
 11
578.3494794137068
 21
1109.176213753428
 31
0.0
  0
ARC
  5
147
330
17
100
AcDbEntity
  8
0
100
AcDbCircle
 10
522.260924381922
 20
1186.9579596839321
 30
0.0
 40
205.0
100
AcDbArc
 50
208.87845316877068
 51
241.121546831241
  0
ARC
  5
148
330
17
100
AcDbEntity
  8
0
100
AcDbCircle
 10
522.2590756180779
 20
1186.9579596839321
 30
0.0
 40
205.0
100
AcDbArc
 50
298.87845316875905
 51
331.1215468312293
  0
ARC
  5
149
330
17
100
AcDbEntity
  8
0
100
AcDbCircle
 10
390.2609243818978
 20
1186.957959683944
 30
0.0
 40
109.8136017370018
100
AcDbArc
 50
244.36610337013545
 51
283.2082362734846
  0
ARC
  5
14A
330
17
100
AcDbEntity
  8
0
100
AcDbCircle
 10
654.2590756181022
 20
1186.957959683944
 30
0.0
 40
109.8136017370018
100
AcDbArc
 50
256.79176372651534
 51
295.6338966298645
  0
ARC
  5
14B
330
17
100
AcDbEntity
  8
0
100
AcDbCircle
 10
522.2609243819194
 20
1054.9579596839937
 30
0.0
 40
109.8136017370018
100
AcDbArc
 50
166.79176372654644
 51
205.6338966299259
  0
ARC
  5
14C
330
17
100
AcDbEntity
  8
0
100
AcDbCircle
 10
522.2590756180806
 20
1054.9579596839935
 30
0.0
 40
109.8136017370018
100
AcDbArc
 50
334.3661033700742
 51
13.208236273453705
  0
LINE
  5
14D
330
17
100
AcDbEntity
  8
0
100
AcDbLine
 10
415.3523242686828
 20
1293.866559797203
 30
0.0
 11
431.2533746048088
 21
1277.965509461062
 31
0.0
  0
LINE
  5
14E
330
17
100
AcDbEntity
  8
0
100
AcDbLine
 10
629.1676757313171
 20
1293.866559797203
 30
0.0
 11
613.2666253951911
 21
1277.965509461062
 31
0.0
  0
LINE
  5
14F
330
17
100
AcDbEntity
  8
0
100
AcDbLine
 10
423.2555349576818
 20
1366.46543268982
 30
0.0
 11
452.4688380537723
 21
1390.314947972933
 31
0.0
  0
LINE
  5
150
330
17
100
AcDbEntity
  8
0
100
AcDbLine
 10
621.2644650423182
 20
1366.46543268982
 30
0.0
 11
592.0511619462277
 21
1390.314947972933
 31
0.0
  0
LINE
  5
151
330
17
100
AcDbEntity
  8
0
100
AcDbLine
 10
342.7534513760588
 20
1285.963349108218
 30
0.0
 11
318.9039360929623
 21
1256.750046012151
 31
0.0
  0
LINE
  5
152
330
17
100
AcDbEntity
  8
0
100
AcDbLine
 10
701.7665486239412
 20
1285.963349108218
 30
0.0
 11
725.6160639070376
 21
1256.750046012151
 31
0.0
  0
LINE
  5
153
330
17
100
AcDbEntity
  8
0
100
AcDbLine
 10
415.3523242686865
 20
1080.049359570706
 30
0.0
 11
431.2533746047725
 21
1095.950409906807
 31
0.0
  0
LINE
  5
154
330
17
100
AcDbEntity
  8
0
100
AcDbLine
 10
629.1676757313135
 20
1080.049359570706
 30
0.0
 11
613.2666253952275
 21
1095.950409906807
 31
0.0
  0
LINE
  5
155
330
17
100
AcDbEntity
  8
0
100
AcDbLine
 10
318.9039360929623
 20
1117.165873355755
 30
0.0
 11
342.7534513760588
 21
1087.952570259677
 31
0.0
  0
LINE
  5
156
330
17
100
AcDbEntity
  8
0
100
AcDbLine
 10
725.6160639070376
 20
1117.165873355755
 30
0.0
 11
701.7665486239412
 21
1087.952570259677
 31
0.0
  0
LINE
  5
157
330
17
100
AcDbEntity
  8
0
100
AcDbLine
 10
423.2555349576982
 20
1007.450486678057
 30
0.0
 11
452.4688380537177
 21
983.6009713949993
 31
0.0
  0
LINE
  5
158
330
17
100
AcDbEntity
  8
0
100
AcDbLine
 10
621.2644650423017
 20
1007.450486678057
 30
0.0
 11
592.0511619462823
 21
983.6009713949993
 31
0.0
  0
LINE
  5
159
330
17
100
AcDbEntity
  8
0
100
AcDbLine
 10
186.0388106722116
 20
1386.474315187412
 30
0.0
 11
196.1266328093356
 21
1369.001694708195
 31
0.0
  0
LINE
  5
15A
330
17
100
AcDbEntity
  8
0
100
AcDbLine
 10
858.4811893277883
 20
1386.474315187412
 30
0.0
 11
848.3933671906643
 21
1369.001694708195
 31
0.0
  0
LINE
  5
15B
330
17
100
AcDbEntity
  8
0
100
AcDbLine
 10
152.8253626201135
 20
1386.474315187412
 30
0.0
 11
142.7375404829895
 21
1369.001694708195
 31
0.0
  0
LINE
  5
15C
330
17
100
AcDbEntity
  8
0
100
AcDbLine
 10
891.6946373798864
 20
1386.474315187412
 30
0.0
 11
901.7824595170105
 21
1369.001694708195
 31
0.0
  0
LINE
  5
15D
330
17
100
AcDbEntity
  8
0
100
AcDbLine
 10
159.3442645090385
 20
1340.238004947803
 30
0.0
 11
179.5199087832884
 21
1340.238004947803
 31
0.0
  0
LINE
  5
15E
330
17
100
AcDbEntity
  8
0
100
AcDbLine
 10
885.1757354909614
 20
1340.238004947803
 30
0.0
 11
865.0000912167116
 21
1340.238004947803
 31
0.0
  0
ARC
  5
15F
330
17
100
AcDbEntity
  8
0
100
AcDbCircle
 10
169.4320866461785
 20
1425.2380049478031
 30
0.0
 40
57.171162264244
100
AcDbArc
 50
324.6494529533836
 51
68.79100849517297
  0
ARC
  5
160
330
17
100
AcDbEntity
  8
0
100
AcDbCircle
 10
875.0879133538215
 20
1425.2380049478031
 30
0.0
 40
57.171162264244
100
AcDbArc
 50
111.208991504827
 51
215.35054704661636
  0
ARC
  5
161
330
17
100
AcDbEntity
  8
0
100
AcDbCircle
 10
169.43208664614792
 20
1425.2380049478033
 30
0.0
 40
57.171162264244
100
AcDbArc
 50
111.20899150482775
 51
215.3505470466161
  0
ARC
  5
162
330
17
100
AcDbEntity
  8
0
100
AcDbCircle
 10
875.0879133538521
 20
1425.2380049478033
 30
0.0
 40
57.171162264244
100
AcDbArc
 50
324.6494529533839
 51
68.79100849517239
  0
ARC
  5
163
330
17
100
AcDbEntity
  8
0
100
AcDbCircle
 10
169.43208664614554
 20
1425.238004947791
 30
0.0
 40
67.171162264244
100
AcDbArc
 50
158.53963947990957
 51
200.6754665347439
  0
ARC
  5
164
330
17
100
AcDbEntity
  8
0
100
AcDbCircle
 10
875.0879133538543
 20
1425.238004947791
 30
0.0
 40
67.171162264244
100
AcDbArc
 50
339.32453346525614
 51
21.46036052009046
  0
ARC
  5
165
330
17
100
AcDbEntity
  8
0
100
AcDbCircle
 10
169.4320866461633
 20
1425.238004947805
 30
0.0
 40
52.171162264244
100
AcDbArc
 50
305.1381047043677
 51
234.86189529562924
  0
ARC
  5
166
330
17
100
AcDbEntity
  8
0
100
AcDbCircle
 10
875.0879133538367
 20
1425.238004947805
 30
0.0
 40
52.171162264244
100
AcDbArc
 50
305.13810470437073
 51
234.86189529563234
  0
ARC
  5
167
330
17
100
AcDbEntity
  8
0
100
AcDbCircle
 10
169.43208664616253
 20
1425.238004947803
 30
0.0
 40
42.171162264244
100
AcDbArc
 50
293.1907407498661
 51
246.80925925013392
  0
ARC
  5
168
330
17
100
AcDbEntity
  8
0
100
AcDbCircle
 10
875.0879133538375
 20
1425.238004947803
 30
0.0
 40
42.171162264244
100
AcDbArc
 50
293.1907407498661
 51
246.80925925013383
  0
ARC
  5
169
330
17
100
AcDbEntity
  8
0
100
AcDbCircle
 10
117.47056241910119
 20
1335.2380049478115
 30
0.0
 40
57.17116226424399
100
AcDbArc
 50
84.64945295339814
 51
188.79100849520012
  0
ARC
  5
16A
330
17
100
AcDbEntity
  8
0
100
AcDbCircle
 10
927.0494375808989
 20
1335.2380049478113
 30
0.0
 40
57.17116226424399
100
AcDbArc
 50
351.2089915047998
 51
95.35054704660197
  0
ARC
  5
16B
330
17
100
AcDbEntity
  8
0
100
AcDbCircle
 10
117.47056241912263
 20
1335.2380049478147
 30
0.0
 40
67.171162264244
100
AcDbArc
 50
99.32453346528457
 51
141.46036052015387
  0
ARC
  5
16C
330
17
100
AcDbEntity
  8
0
100
AcDbCircle
 10
927.0494375808773
 20
1335.2380049478147
 30
0.0
 40
67.171162264244
100
AcDbArc
 50
38.53963947984612
 51
80.67546653471547
  0
ARC
  5
16D
330
17
100
AcDbEntity
  8
0
100
AcDbCircle
 10
117.47056241910501
 20
1335.238004947807
 30
0.0
 40
57.17116226424399
100
AcDbArc
 50
231.20899150476018
 51
335.35054704660854
  0
ARC
  5
16E
330
17
100
AcDbEntity
  8
0
100
AcDbCircle
 10
927.049437580895
 20
1335.238004947807
 30
0.0
 40
57.17116226424399
100
AcDbArc
 50
204.6494529533915
 51
308.79100849523996
  0
ARC
  5
16F
330
17
100
AcDbEntity
  8
0
100
AcDbCircle
 10
117.47056241909223
 20
1335.238004947805
 30
0.0
 40
52.17116226424399
100
AcDbArc
 50
65.13810470436626
 51
354.8618952956499
  0
ARC
  5
170
330
17
100
AcDbEntity
  8
0
100
AcDbCircle
 10
927.0494375809077
 20
1335.238004947805
 30
0.0
 40
52.17116226424399
100
AcDbArc
 50
185.13810470435013
 51
114.86189529563372
  0
ARC
  5
171
330
17
100
AcDbEntity
  8
0
100
AcDbCircle
 10
117.47056241909702
 20
1335.2380049478038
 30
0.0
 40
42.17116226424399
100
AcDbArc
 50
53.19074074985649
 51
6.809259250141316
  0
ARC
  5
172
330
17
100
AcDbEntity
  8
0
100
AcDbCircle
 10
927.0494375809029
 20
1335.2380049478038
 30
0.0
 40
42.17116226424399
100
AcDbArc
 50
173.19074074985872
 51
126.80925925014363
  0
ARC
  5
173
330
17
100
AcDbEntity
  8
0
100
AcDbCircle
 10
221.39361087321973
 20
1335.2380049478086
 30
0.0
 40
57.17116226424399
100
AcDbArc
 50
204.6494529533932
 51
308.7910084952432
  0
ARC
  5
174
330
17
100
AcDbEntity
  8
0
100
AcDbCircle
 10
823.1263891267803
 20
1335.2380049478086
 30
0.0
 40
57.17116226424399
100
AcDbArc
 50
231.20899150475674
 51
335.3505470466068
  0
ARC
  5
175
330
17
100
AcDbEntity
  8
0
100
AcDbCircle
 10
221.39361087322555
 20
1335.238004947811
 30
0.0
 40
57.17116226424399
100
AcDbArc
 50
351.2089915048035
 51
95.35054704660233
  0
ARC
  5
176
330
17
100
AcDbEntity
  8
0
100
AcDbCircle
 10
823.1263891267744
 20
1335.238004947811
 30
0.0
 40
57.17116226424399
100
AcDbArc
 50
84.64945295339766
 51
188.791008495196
  0
ARC
  5
177
330
17
100
AcDbEntity
  8
0
100
AcDbCircle
 10
221.3936108732303
 20
1335.2380049478024
 30
0.0
 40
52.17116226424399
100
AcDbArc
 50
185.13810470434737
 51
114.86189529563156
  0
ARC
  5
178
330
17
100
AcDbEntity
  8
0
100
AcDbCircle
 10
823.1263891267696
 20
1335.2380049478024
 30
0.0
 40
52.17116226424399
100
AcDbArc
 50
65.13810470436829
 51
354.86189529565263
  0
ARC
  5
179
330
17
100
AcDbEntity
  8
0
100
AcDbCircle
 10
221.39361087323
 20
1335.238004947804
 30
0.0
 40
42.17116226424399
100
AcDbArc
 50
173.19074074985932
 51
126.80925925014465
  0
ARC
  5
17A
330
17
100
AcDbEntity
  8
0
100
AcDbCircle
 10
823.12638912677
 20
1335.2380049478038
 30
0.0
 40
42.17116226424399
100
AcDbArc
 50
53.1907407498557
 51
6.809259250141002
  0
LINE
  5
17B
330
17
100
AcDbEntity
  8
0
100
AcDbLine
 10
142.7375404829895
 20
1369.001694708195
 30
0.0
 11
139.405013990718
 21
1382.574143428402
 31
0.0
  0
LINE
  5
17C
330
17
100
AcDbEntity
  8
0
100
AcDbLine
 10
901.7824595170105
 20
1369.001694708195
 30
0.0
 11
905.114986009282
 21
1382.574143428402
 31
0.0
  0
LINE
  5
17D
330
17
100
AcDbEntity
  8
0
100
AcDbLine
 10
139.405013990718
 20
1382.574143428402
 30
0.0
 11
152.8253626201135
 21
1386.474315187412
 31
0.0
  0
LINE
  5
17E
330
17
100
AcDbEntity
  8
0
100
AcDbLine
 10
905.114986009282
 20
1382.574143428402
 30
0.0
 11
891.6946373798864
 21
1386.474315187412
 31
0.0
  0
LINE
  5
17F
330
17
100
AcDbEntity
  8
0
100
AcDbLine
 10
199.4591593016107
 20
1382.574143428403
 30
0.0
 11
186.0388106722116
 21
1386.474315187412
 31
0.0
  0
LINE
  5
180
330
17
100
AcDbEntity
  8
0
100
AcDbLine
 10
845.0608406983893
 20
1382.574143428403
 30
0.0
 11
858.4811893277883
 21
1386.474315187412
 31
0.0
  0
LINE
  5
181
330
17
100
AcDbEntity
  8
0
100
AcDbLine
 10
196.1266328093374
 20
1369.001694708195
 30
0.0
 11
199.4591593015998
 21
1382.574143428396
 31
0.0
  0
LINE
  5
182
330
17
100
AcDbEntity
  8
0
100
AcDbLine
 10
848.3933671906626
 20
1369.001694708195
 30
0.0
 11
845.0608406984002
 21
1382.574143428396
 31
0.0
  0
LINE
  5
183
330
17
100
AcDbEntity
  8
0
100
AcDbLine
 10
169.4320866461589
 20
1330.565727986676
 30
0.0
 11
179.5199087832884
 21
1340.238004947803
 31
0.0
  0
LINE
  5
184
330
17
100
AcDbEntity
  8
0
100
AcDbLine
 10
875.087913353841
 20
1330.565727986676
 30
0.0
 11
865.0000912167116
 21
1340.238004947803
 31
0.0
  0
LINE
  5
185
330
17
100
AcDbEntity
  8
0
100
AcDbLine
 10
169.4320866461589
 20
1330.565727986676
 30
0.0
 11
159.3442645090385
 21
1340.238004947802
 31
0.0
  0
LINE
  5
186
330
17
100
AcDbEntity
  8
0
100
AcDbLine
 10
875.087913353841
 20
1330.565727986676
 30
0.0
 11
885.1757354909614
 21
1340.238004947802
 31
0.0
  0
LINE
  5
187
330
17
100
AcDbEntity
  8
0
100
AcDbLine
 10
122.8017156747505
 20
1392.160062180561
 30
0.0
 11
106.5870629782571
 21
1401.521596279676
 31
0.0
  0
LINE
  5
188
330
17
100
AcDbEntity
  8
0
100
AcDbLine
 10
921.7182843252494
 20
1392.160062180561
 30
0.0
 11
937.9329370217429
 21
1401.521596279676
 31
0.0
  0
ARC
  5
189
330
17
100
AcDbEntity
  8
0
100
AcDbCircle
 10
180.72277104002484
 20
1387.1504397332262
 30
0.0
 40
96.81825029272132
100
AcDbArc
 50
109.28352303133899
 51
139.66772867655882
  0
ARC
  5
18A
330
17
100
AcDbEntity
  8
0
100
AcDbCircle
 10
863.7972289599751
 20
1387.1504397332262
 30
0.0
 40
96.81825029272132
100
AcDbArc
 50
40.332271323441205
 51
70.71647696866106
  0
ARC
  5
18B
330
17
100
AcDbEntity
  8
0
100
AcDbCircle
 10
156.10070366015532
 20
1344.5037680439098
 30
0.0
 40
96.81825029272132
100
AcDbArc
 50
160.33227132349322
 51
190.71647696868936
  0
ARC
  5
18C
330
17
100
AcDbEntity
  8
0
100
AcDbCircle
 10
888.4192963398447
 20
1344.5037680439098
 30
0.0
 40
96.81825029272132
100
AcDbArc
 50
349.2835230313105
 51
19.66772867650678
  0
ARC
  5
18D
330
17
100
AcDbEntity
  8
0
100
AcDbCircle
 10
169.4320866461801
 20
1365.2380049477865
 30
0.0
 40
105.1711622642442
100
AcDbArc
 50
6.470215108330386
 51
53.52978489165191
  0
ARC
  5
18E
330
17
100
AcDbEntity
  8
0
100
AcDbCircle
 10
875.0879133538199
 20
1365.2380049477865
 30
0.0
 40
105.1711622642442
100
AcDbArc
 50
126.47021510834811
 51
173.52978489166964
  0
ARC
  5
18F
330
17
100
AcDbEntity
  8
0
100
AcDbCircle
 10
169.4320866461804
 20
1425.2380049477904
 30
0.0
 40
67.171162264244
100
AcDbArc
 50
339.3245334652578
 51
21.46036052009109
  0
ARC
  5
190
330
17
100
AcDbEntity
  8
0
100
AcDbCircle
 10
875.0879133538195
 20
1425.2380049477906
 30
0.0
 40
67.171162264244
100
AcDbArc
 50
158.5396394799091
 51
200.67546653474244
  0
ARC
  5
191
330
17
100
AcDbEntity
  8
0
100
AcDbCircle
 10
221.39361087320304
 20
1335.2380049478159
 30
0.0
 40
67.171162264244
100
AcDbArc
 50
38.539639479839856
 51
80.67546653471456
  0
ARC
  5
192
330
17
100
AcDbEntity
  8
0
100
AcDbCircle
 10
823.1263891267968
 20
1335.2380049478159
 30
0.0
 40
67.171162264244
100
AcDbArc
 50
99.3245334652852
 51
141.46036052016007
  0
LINE
  5
193
330
17
100
AcDbEntity
  8
0
100
AcDbLine
 10
216.0624576175764
 20
1392.160062180561
 30
0.0
 11
232.2771103140699
 21
1401.521596279676
 31
0.0
  0
LINE
  5
194
330
17
100
AcDbEntity
  8
0
100
AcDbLine
 10
828.4575423824235
 20
1392.160062180561
 30
0.0
 11
812.2428896859301
 21
1401.521596279676
 31
0.0
  0
ARC
  5
195
330
17
100
AcDbEntity
  8
0
100
AcDbCircle
 10
158.1414022523008
 20
1387.1504397332262
 30
0.0
 40
96.81825029272132
100
AcDbArc
 50
40.33227132344118
 51
70.71647696866094
  0
ARC
  5
196
330
17
100
AcDbEntity
  8
0
100
AcDbCircle
 10
886.378597747699
 20
1387.1504397332262
 30
0.0
 40
96.81825029272132
100
AcDbArc
 50
109.28352303133894
 51
139.6677286765588
  0
ARC
  5
197
330
17
100
AcDbEntity
  8
0
100
AcDbCircle
 10
182.76346963217202
 20
1344.5037680439136
 30
0.0
 40
96.81825029272132
100
AcDbArc
 50
349.2835230313102
 51
19.66772867650149
  0
ARC
  5
198
330
17
100
AcDbEntity
  8
0
100
AcDbCircle
 10
861.7565303678278
 20
1344.5037680439136
 30
0.0
 40
96.81825029272132
100
AcDbArc
 50
160.3322713234985
 51
190.71647696868948
  0
ARC
  5
199
330
17
100
AcDbEntity
  8
0
100
AcDbCircle
 10
169.43208664616083
 20
1365.2380049477947
 30
0.0
 40
105.1711622642442
100
AcDbArc
 50
246.47021510835026
 51
293.5297848916547
  0
ARC
  5
19A
330
17
100
AcDbEntity
  8
0
100
AcDbCircle
 10
875.0879133538391
 20
1365.2380049477947
 30
0.0
 40
105.1711622642442
100
AcDbArc
 50
246.47021510834526
 51
293.5297848916498
  0
ARC
  5
19B
330
17
100
AcDbEntity
  8
0
100
AcDbCircle
 10
117.47056241910768
 20
1335.238004947793
 30
0.0
 40
67.171162264244
100
AcDbArc
 50
278.5396394798979
 51
320.6754665347522
  0
ARC
  5
19C
330
17
100
AcDbEntity
  8
0
100
AcDbCircle
 10
927.0494375808921
 20
1335.238004947793
 30
0.0
 40
67.171162264244
100
AcDbArc
 50
219.3245334652478
 51
261.46036052010226
  0
ARC
  5
19D
330
17
100
AcDbEntity
  8
0
100
AcDbCircle
 10
221.39361087322973
 20
1335.2380049477954
 30
0.0
 40
67.171162264244
100
AcDbArc
 50
219.32453346525057
 51
261.46036052009566
  0
ARC
  5
19E
330
17
100
AcDbEntity
  8
0
100
AcDbCircle
 10
823.12638912677
 20
1335.2380049477954
 30
0.0
 40
67.171162264244
100
AcDbArc
 50
278.53963947990445
 51
320.6754665347495
  0
LINE
  5
19F
330
17
100
AcDbEntity
  8
0
100
AcDbLine
 10
169.4320866461625
 20
1311.39389048229
 30
0.0
 11
169.4320866461807
 21
1292.670822284027
 31
0.0
  0
LINE
  5
1A0
330
17
100
AcDbEntity
  8
0
100
AcDbLine
 10
875.0879133538375
 20
1311.39389048229
 30
0.0
 11
875.0879133538193
 21
1292.670822284027
 31
0.0
  0
ARC
  5
1A1
330
17
100
AcDbEntity
  8
0
100
AcDbCircle
 10
144.81001926631848
 20
1364.0598070662754
 30
0.0
 40
96.81825029272132
100
AcDbArc
 50
229.28352303127332
 51
259.66772867652617
  0
ARC
  5
1A2
330
17
100
AcDbEntity
  8
0
100
AcDbCircle
 10
899.7099807336812
 20
1364.0598070662752
 30
0.0
 40
96.81825029272132
100
AcDbArc
 50
280.33227132347406
 51
310.71647696872697
  0
ARC
  5
1A3
330
17
100
AcDbEntity
  8
0
100
AcDbCircle
 10
194.05415402600826
 20
1364.0598070662784
 30
0.0
 40
96.81825029272132
100
AcDbArc
 50
280.33227132347577
 51
310.71647696872725
  0
ARC
  5
1A4
330
17
100
AcDbEntity
  8
0
100
AcDbCircle
 10
850.4658459739917
 20
1364.0598070662784
 30
0.0
 40
96.81825029272132
100
AcDbArc
 50
229.28352303127278
 51
259.66772867652423
  0
LINE
  5
1A5
330
17
100
AcDbEntity
  8
0
100
AcDbLine
 10
62.26092438191924
 20
1472.409167212048
 30
0.0
 11
52.26092438191924
 21
1482.409167212048
 31
0.0
  0
LINE
  5
1A6
330
17
100
AcDbEntity
  8
0
100
AcDbLine
 10
982.2590756180807
 20
1472.409167212048
 30
0.0
 11
992.2590756180807
 21
1482.409167212048
 31
0.0
  0
LINE
  5
1A7
330
17
100
AcDbEntity
  8
0
100
AcDbLine
 10
52.26092438191924
 20
1399.831524899414
 30
0.0
 11
62.26092438191924
 21
1442.5914671406
 31
0.0
  0
LINE
  5
1A8
330
17
100
AcDbEntity
  8
0
100
AcDbLine
 10
992.2590756180807
 20
1399.831524899414
 30
0.0
 11
982.2590756180807
 21
1442.5914671406
 31
0.0
  0
LINE
  5
1A9
330
17
100
AcDbEntity
  8
0
100
AcDbLine
 10
92.07862445336875
 20
1472.409167212048
 30
0.0
 11
134.8385666945528
 21
1482.409167212048
 31
0.0
  0
LINE
  5
1AA
330
17
100
AcDbEntity
  8
0
100
AcDbLine
 10
952.4413755466312
 20
1472.409167212048
 30
0.0
 11
909.6814333054472
 21
1482.409167212048
 31
0.0
  0
LINE
  5
1AB
330
17
100
AcDbEntity
  8
0
100
AcDbLine
 10
427.0503854039202
 20
1407.264458152607
 30
0.0
 11
494.5982347861413
 21
1435.422797446417
 31
0.0
  0
LINE
  5
1AC
330
17
100
AcDbEntity
  8
0
100
AcDbLine
 10
617.4702308508354
 20
1407.2644581525026
 30
0.0
 11
549.9223814684689
 21
1435.422797446404
 31
0.0
  0
LINE
  5
1AD
330
17
100
AcDbEntity
  8
0
100
AcDbLine
 10
522.2603081273064
 20
1449.309147830102
 30
0.0
 11
522.2603081273064
 21
1460.3731635328177
 31
0.0
  0
LINE
  5
1B2
330
17
100
AcDbEntity
  8
0
100
AcDbLine
 10
118.7970404916109
 20
1201.754374086291
 30
0.0
 11
124.3960675776056
 21
1235.391085254404
 31
0.0
  0
LINE
  5
1B3
330
17
100
AcDbEntity
  8
0
100
AcDbLine
 10
925.7229595083891
 20
1201.754374086291
 30
0.0
 11
920.1239324223943
 21
1235.391085254404
 31
0.0
  0
LINE
  5
1B4
330
17
100
AcDbEntity
  8
0
100
AcDbLine
 10
128.0341413981427
 20
1196.344589412425
 30
0.0
 11
133.1671366950254
 21
1227.181568333356
 31
0.0
  0
LINE
  5
1B5
330
17
100
AcDbEntity
  8
0
100
AcDbLine
 10
916.4858586018572
 20
1196.344589412425
 30
0.0
 11
911.3528633049746
 21
1227.181568333356
 31
0.0
  0
LINE
  5
1B6
330
17
100
AcDbEntity
  8
0
100
AcDbLine
 10
108.3055888616913
 20
1199.628522240072
 30
0.0
 11
114.5317913093808
 21
1237.033051668228
 31
0.0
  0
LINE
  5
1B7
330
17
100
AcDbEntity
  8
0
100
AcDbLine
 10
936.2144111383087
 20
1199.628522240072
 30
0.0
 11
929.9882086906192
 21
1237.033051668228
 31
0.0
  0
LINE
  5
1B8
330
17
100
AcDbEntity
  8
0
100
AcDbLine
 10
128.9175463242049
 20
1178.793607360951
 30
0.0
 11
146.3069114665054
 21
1167.511101993355
 31
0.0
  0
LINE
  5
1B9
330
17
100
AcDbEntity
  8
0
100
AcDbLine
 10
915.6024536757951
 20
1178.793607360951
 30
0.0
 11
898.2130885334946
 21
1167.511101993355
 31
0.0
  0
LINE
  5
1BA
330
17
100
AcDbEntity
  8
0
100
AcDbLine
 10
120.2703432507028
 20
1172.483640452904
 30
0.0
 11
140.8640099178378
 21
1159.122131691137
 31
0.0
  0
LINE
  5
1BB
330
17
100
AcDbEntity
  8
0
100
AcDbLine
 10
924.2496567492972
 20
1172.483640452904
 30
0.0
 11
903.6559900821621
 21
1159.122131691137
 31
0.0
  0
LINE
  5
1BC
330
17
100
AcDbEntity
  8
0
100
AcDbLine
 10
131.1561463480379
 20
1189.261581057341
 30
0.0
 11
150.23617509494994
 21
1176.8820159020806
 31
0.0
  0
LINE
  5
1BD
330
17
100
AcDbEntity
  8
0
100
AcDbLine
 10
913.363853651962
 20
1189.261581057341
 30
0.0
 11
894.2838249050501
 21
1176.8820159020806
 31
0.0
  0
LINE
  5
1BE
330
17
100
AcDbEntity
  8
0
100
AcDbLine
 10
283.2974276267965
 20
1084.505789289351
 30
0.0
 11
310.4683546978672
 21
1074.069043369613
 31
0.0
  0
LINE
  5
1BF
330
17
100
AcDbEntity
  8
0
100
AcDbLine
 10
761.2225723732035
 20
1084.505789289351
 30
0.0
 11
734.0516453021328
 21
1074.069043369613
 31
0.0
  0
ARC
  5
1C0
330
17
100
AcDbEntity
  8
0
100
AcDbCircle
 10
758.4118647460557
 20
974.8729688678799
 30
0.0
 40
557.1699875098244
100
AcDbArc
 50
139.52667765770462
 51
151.80793392369407
  0
ARC
  5
1C1
330
17
100
AcDbEntity
  8
0
100
AcDbCircle
 10
286.1081352539439
 20
974.8729688678802
 30
0.0
 40
557.1699875098244
100
AcDbArc
 50
28.19206607630589
 51
40.473322342295326
  0
ARC
  5
1C2
330
17
100
AcDbEntity
  8
0
100
AcDbCircle
 10
899.9833702110568
 20
605.7202765741622
 30
0.0
 40
855.0856523699614
100
AcDbArc
 50
155.75066548095324
 51
164.2514172993926
  0
ARC
  5
1C3
330
17
100
AcDbEntity
  8
0
100
AcDbCircle
 10
144.53662978894283
 20
605.7202765741629
 30
0.0
 40
855.0856523699614
100
AcDbArc
 50
15.748582700607338
 51
24.249334519046734
  0
ARC
  5
1C4
330
17
100
AcDbEntity
  8
0
100
AcDbCircle
 10
453.6645787281659
 20
690.4425736342896
 30
0.0
 40
381.4036543467153
100
AcDbArc
 50
133.3512735684488
 51
171.98485496996554
  0
ARC
  5
1C5
330
17
100
AcDbEntity
  8
0
100
AcDbCircle
 10
590.8554212718341
 20
690.4425736342894
 30
0.0
 40
381.4036543467153
100
AcDbArc
 50
8.015145030034502
 51
46.64872643155127
  0
ARC
  5
1C6
330
17
100
AcDbEntity
  8
0
100
AcDbCircle
 10
453.66457872817614
 20
690.4425736342891
 30
0.0
 40
371.4036543467153
100
AcDbArc
 50
142.27426348579777
 51
164.1545298209491
  0
ARC
  5
1C7
330
17
100
AcDbEntity
  8
0
100
AcDbCircle
 10
590.8554212718238
 20
690.442573634289
 30
0.0
 40
371.4036543467153
100
AcDbArc
 50
15.845470179050917
 51
37.725736514202254
  0
ARC
  5
1C8
330
17
100
AcDbEntity
  8
0
100
AcDbCircle
 10
120.8572700351753
 20
699.0760632403719
 30
0.0
 40
381.4036543467153
100
AcDbArc
 50
6.277116939524777
 51
50.75045730587028
  0
ARC
  5
1C9
330
17
100
AcDbEntity
  8
0
100
AcDbCircle
 10
923.6627299648246
 20
699.0760632403718
 30
0.0
 40
381.4036543467153
100
AcDbArc
 50
129.2495426941297
 51
173.7228830604752
  0
ARC
  5
1CA
330
17
100
AcDbEntity
  8
0
100
AcDbCircle
 10
120.85727003517741
 20
699.0760632403933
 30
0.0
 40
371.4036543467153
100
AcDbArc
 50
13.891803520125311
 51
38.68705109221886
  0
ARC
  5
1CB
330
17
100
AcDbEntity
  8
0
100
AcDbCircle
 10
923.6627299648226
 20
699.0760632403935
 30
0.0
 40
371.4036543467153
100
AcDbArc
 50
141.31294890778113
 51
166.1081964798747
  0
ARC
  5
1CC
330
17
100
AcDbEntity
  8
0
100
AcDbCircle
 10
231.88287933544012
 20
872.9589025189041
 30
0.0
 40
164.4301502467036
100
AcDbArc
 50
356.5262983087328
 51
63.473701691221706
  0
ARC
  5
1CD
330
17
100
AcDbEntity
  8
0
100
AcDbCircle
 10
812.6371206645599
 20
872.9589025189042
 30
0.0
 40
164.4301502467036
100
AcDbArc
 50
116.52629830877835
 51
183.47370169126722
  0
ARC
  5
1CE
330
17
100
AcDbEntity
  8
0
100
AcDbCircle
 10
231.88287933545945
 20
872.9589025188923
 30
0.0
 40
154.4301502467036
100
AcDbArc
 50
18.145671431365766
 51
41.85432856863431
  0
ARC
  5
1CF
330
17
100
AcDbEntity
  8
0
100
AcDbCircle
 10
812.6371206645405
 20
872.9589025188922
 30
0.0
 40
154.4301502467036
100
AcDbArc
 50
138.14567143136566
 51
161.85432856863426
  0
ARC
  5
1D0
330
17
100
AcDbEntity
  8
0
100
AcDbCircle
 10
231.88287933540155
 20
872.9589025189495
 30
0.0
 40
178.1326627672622
100
AcDbArc
 50
346.48886634373537
 51
42.995200798323324
  0
ARC
  5
1D1
330
17
100
AcDbEntity
  8
0
100
AcDbCircle
 10
812.6371206645986
 20
872.9589025189495
 30
0.0
 40
178.1326627672622
100
AcDbArc
 50
137.0047992016767
 51
193.5111336562646
  0
ARC
  5
1D2
330
17
100
AcDbEntity
  8
0
100
AcDbCircle
 10
231.88287933546476
 20
872.9589025189077
 30
0.0
 40
188.1326627672622
100
AcDbArc
 50
349.06188784326895
 51
18.04255144292352
  0
ARC
  5
1D3
330
17
100
AcDbEntity
  8
0
100
AcDbCircle
 10
812.6371206645354
 20
872.958902518908
 30
0.0
 40
188.1326627672622
100
AcDbArc
 50
161.95744855707648
 51
190.93811215673108
  0
ARC
  5
1D4
330
17
100
AcDbEntity
  8
0
100
AcDbCircle
 10
342.63896942790245
 20
872.9589025189044
 30
0.0
 40
164.4301502467036
100
AcDbArc
 50
116.52629830877858
 51
183.47370169126884
  0
ARC
  5
1D5
330
17
100
AcDbEntity
  8
0
100
AcDbCircle
 10
701.8810305720975
 20
872.9589025189044
 30
0.0
 40
164.4301502467036
100
AcDbArc
 50
356.52629830873116
 51
63.473701691221436
  0
ARC
  5
1D6
330
17
100
AcDbEntity
  8
0
100
AcDbCircle
 10
342.638969427903
 20
872.9589025189123
 30
0.0
 40
154.4301502467036
100
AcDbArc
 50
138.1456714313764
 51
161.85432856862622
  0
ARC
  5
1D7
330
17
100
AcDbEntity
  8
0
100
AcDbCircle
 10
701.881030572097
 20
872.9589025189122
 30
0.0
 40
154.4301502467036
100
AcDbArc
 50
18.145671431373845
 51
41.854328568623664
  0
ARC
  5
1D8
330
17
100
AcDbEntity
  8
0
100
AcDbCircle
 10
342.63896942781037
 20
872.9589025187662
 30
0.0
 40
178.1326627672622
100
AcDbArc
 50
147.83724355346425
 51
193.52308049423698
  0
ARC
  5
1D9
330
17
100
AcDbEntity
  8
0
100
AcDbCircle
 10
701.8810305721895
 20
872.9589025187662
 30
0.0
 40
178.1326627672622
100
AcDbArc
 50
346.476919505763
 51
32.162756446535745
  0
ARC
  5
1DA
330
17
100
AcDbEntity
  8
0
100
AcDbCircle
 10
342.63896942786903
 20
872.9589025188686
 30
0.0
 40
188.1326627672622
100
AcDbArc
 50
166.24293112356983
 51
190.95088840314247
  0
ARC
  5
1DB
330
17
100
AcDbEntity
  8
0
100
AcDbCircle
 10
701.8810305721308
 20
872.9589025188686
 30
0.0
 40
188.1326627672622
100
AcDbArc
 50
349.04911159685753
 51
13.757068876430157
  0
ARC
  5
1DC
330
17
100
AcDbEntity
  8
0
100
AcDbCircle
 10
287.26092438167365
 20
968.876490162813
 30
0.0
 40
164.4301502467036
100
AcDbArc
 50
236.52629830875645
 51
303.47370169124406
  0
ARC
  5
1DD
330
17
100
AcDbEntity
  8
0
100
AcDbCircle
 10
757.2590756183264
 20
968.876490162813
 30
0.0
 40
164.4301502467036
100
AcDbArc
 50
236.52629830875588
 51
303.4737016912436
  0
ARC
  5
1DE
330
17
100
AcDbEntity
  8
0
100
AcDbCircle
 10
287.2609243816794
 20
968.8764901628042
 30
0.0
 40
154.4301502467036
100
AcDbArc
 50
258.1456714314159
 51
281.85432856857733
  0
ARC
  5
1DF
330
17
100
AcDbEntity
  8
0
100
AcDbCircle
 10
757.25907561832
 20
968.8764901628044
 30
0.0
 40
154.4301502467036
100
AcDbArc
 50
258.1456714314229
 51
281.85432856858426
  0
ARC
  5
1E0
330
17
100
AcDbEntity
  8
0
100
AcDbCircle
 10
287.2609243816747
 20
968.8764901628607
 30
0.0
 40
178.1326627672622
100
AcDbArc
 50
257.5493433611536
 51
282.49252682777114
  0
ARC
  5
1E1
330
17
100
AcDbEntity
  8
0
100
AcDbCircle
 10
757.2590756183253
 20
968.8764901628607
 30
0.0
 40
178.1326627672622
100
AcDbArc
 50
257.50747317222886
 51
282.4506566388464
  0
ARC
  5
1E2
330
17
100
AcDbEntity
  8
0
100
AcDbCircle
 10
287.2609243814964
 20
968.8764901628167
 30
0.0
 40
188.1326627672622
100
AcDbArc
 50
266.1525660014113
 51
273.8789040246278
  0
ARC
  5
1E3
330
17
100
AcDbEntity
  8
0
100
AcDbCircle
 10
757.2590756185036
 20
968.8764901628167
 30
0.0
 40
188.1326627672622
100
AcDbArc
 50
266.1210959753722
 51
273.8474339985887
  0
ARC
  5
1E4
330
17
100
AcDbEntity
  8
0
100
AcDbCircle
 10
267.63568447867897
 20
960.0725472549534
 30
0.0
 40
70.8578789458204
100
AcDbArc
 50
335.6671316518863
 51
57.87200230672565
  0
ARC
  5
1E5
330
17
100
AcDbEntity
  8
0
100
AcDbCircle
 10
776.884315521321
 20
960.0725472549534
 30
0.0
 40
70.8578789458204
100
AcDbArc
 50
122.1279976932744
 51
204.33286834811375
  0
ARC
  5
1E6
330
17
100
AcDbEntity
  8
0
100
AcDbCircle
 10
267.635684478698
 20
960.0725472548297
 30
0.0
 40
80.8578789458204
100
AcDbArc
 50
344.60675004719667
 51
11.360987890623067
  0
ARC
  5
1E7
330
17
100
AcDbEntity
  8
0
100
AcDbCircle
 10
776.8843155213019
 20
960.0725472548298
 30
0.0
 40
80.8578789458204
100
AcDbArc
 50
168.639012109377
 51
195.39324995280342
  0
ARC
  5
1E8
330
17
100
AcDbEntity
  8
0
100
AcDbCircle
 10
267.635684478685
 20
960.0725472549062
 30
0.0
 40
65.8578789458204
100
AcDbArc
 50
317.3770484038678
 51
72.66285385410467
  0
ARC
  5
1E9
330
17
100
AcDbEntity
  8
0
100
AcDbCircle
 10
776.8843155213149
 20
960.0725472549062
 30
0.0
 40
65.8578789458204
100
AcDbArc
 50
107.33714614589523
 51
222.62295159613225
  0
ARC
  5
1EA
330
17
100
AcDbEntity
  8
0
100
AcDbCircle
 10
267.63568447869324
 20
960.0725472549396
 30
0.0
 40
55.8578789458204
100
AcDbArc
 50
320.6174115386469
 51
69.43055718060263
  0
ARC
  5
1EB
330
17
100
AcDbEntity
  8
0
100
AcDbCircle
 10
776.8843155213068
 20
960.0725472549396
 30
0.0
 40
55.8578789458204
100
AcDbArc
 50
110.56944281939744
 51
219.3825884613531
  0
ARC
  5
1EC
330
17
100
AcDbEntity
  8
0
100
AcDbCircle
 10
306.88616428466656
 20
960.0725472549557
 30
0.0
 40
70.8578789458204
100
AcDbArc
 50
122.12799769327782
 51
204.33286834811616
  0
ARC
  5
1ED
330
17
100
AcDbEntity
  8
0
100
AcDbCircle
 10
737.6338357153334
 20
960.0725472549557
 30
0.0
 40
70.8578789458204
100
AcDbArc
 50
335.66713165188384
 51
57.87200230672214
  0
ARC
  5
1EE
330
17
100
AcDbEntity
  8
0
100
AcDbCircle
 10
306.8861642846465
 20
960.0725472548345
 30
0.0
 40
80.8578789458204
100
AcDbArc
 50
168.63901210938147
 51
195.39324995281444
  0
ARC
  5
1EF
330
17
100
AcDbEntity
  8
0
100
AcDbCircle
 10
737.6338357153534
 20
960.0725472548345
 30
0.0
 40
80.8578789458204
100
AcDbArc
 50
344.6067500471855
 51
11.360987890618539
  0
ARC
  5
1F0
330
17
100
AcDbEntity
  8
0
100
AcDbCircle
 10
306.88616428466037
 20
960.0725472549062
 30
0.0
 40
65.8578789458204
100
AcDbArc
 50
107.33714614589515
 51
222.62295159613254
  0
ARC
  5
1F1
330
17
100
AcDbEntity
  8
0
100
AcDbCircle
 10
737.6338357153397
 20
960.0725472549061
 30
0.0
 40
65.8578789458204
100
AcDbArc
 50
317.3770484038675
 51
72.66285385410498
  0
ARC
  5
1F2
330
17
100
AcDbEntity
  8
0
100
AcDbCircle
 10
306.886164284652
 20
960.0725472549395
 30
0.0
 40
55.8578789458204
100
AcDbArc
 50
110.56944281939701
 51
219.3825884613537
  0
ARC
  5
1F3
330
17
100
AcDbEntity
  8
0
100
AcDbCircle
 10
737.6338357153479
 20
960.0725472549396
 30
0.0
 40
55.8578789458204
100
AcDbArc
 50
320.6174115386462
 51
69.43055718060289
  0
ARC
  5
1F4
330
17
100
AcDbEntity
  8
0
100
AcDbCircle
 10
344.8271511677061
 20
894.3568302841854
 30
0.0
 40
70.85787894582039
100
AcDbArc
 50
215.6671316518997
 51
297.87200230679235
  0
ARC
  5
1F5
330
17
100
AcDbEntity
  8
0
100
AcDbCircle
 10
699.6928488322937
 20
894.3568302841854
 30
0.0
 40
70.85787894582039
100
AcDbArc
 50
242.1279976932077
 51
324.33286834810036
  0
ARC
  5
1F6
330
17
100
AcDbEntity
  8
0
100
AcDbCircle
 10
344.8271511677064
 20
894.3568302841295
 30
0.0
 40
80.85787894582037
100
AcDbArc
 50
224.60675004712013
 51
251.3609878904568
  0
ARC
  5
1F7
330
17
100
AcDbEntity
  8
0
100
AcDbCircle
 10
699.6928488322935
 20
894.3568302841295
 30
0.0
 40
80.85787894582037
100
AcDbArc
 50
288.6390121095432
 51
315.3932499528799
  0
ARC
  5
1F8
330
17
100
AcDbEntity
  8
0
100
AcDbCircle
 10
344.82715116769964
 20
894.3568302841973
 30
0.0
 40
65.85787894582039
100
AcDbArc
 50
197.3770484038213
 51
312.66285385412635
  0
ARC
  5
1F9
330
17
100
AcDbEntity
  8
0
100
AcDbCircle
 10
699.6928488323003
 20
894.3568302841973
 30
0.0
 40
65.85787894582039
100
AcDbArc
 50
227.33714614587367
 51
342.6229515961787
  0
ARC
  5
1FA
330
17
100
AcDbEntity
  8
0
100
AcDbCircle
 10
344.82715116769816
 20
894.3568302841928
 30
0.0
 40
55.85787894582039
100
AcDbArc
 50
200.61741153865844
 51
309.43055718065557
  0
ARC
  5
1FB
330
17
100
AcDbEntity
  8
0
100
AcDbCircle
 10
699.6928488323019
 20
894.3568302841928
 30
0.0
 40
55.85787894582039
100
AcDbArc
 50
230.56944281934432
 51
339.3825884613415
  0
ARC
  5
1FC
330
17
100
AcDbEntity
  8
0
100
AcDbCircle
 10
325.2019112647176
 20
860.3649176614925
 30
0.0
 40
70.85787894582039
100
AcDbArc
 50
2.127997693158138
 51
84.33286834810893
  0
ARC
  5
1FD
330
17
100
AcDbEntity
  8
0
100
AcDbCircle
 10
719.3180887352826
 20
860.3649176614925
 30
0.0
 40
70.85787894582039
100
AcDbArc
 50
95.66713165189118
 51
177.87200230684186
  0
ARC
  5
1FE
330
17
100
AcDbEntity
  8
0
100
AcDbCircle
 10
325.20191126467597
 20
860.3649176615031
 30
0.0
 40
80.85787894582037
100
AcDbArc
 50
48.639012109398585
 51
75.39324995281314
  0
ARC
  5
1FF
330
17
100
AcDbEntity
  8
0
100
AcDbCircle
 10
719.3180887353241
 20
860.3649176615031
 30
0.0
 40
80.85787894582037
100
AcDbArc
 50
104.60675004718686
 51
131.36098789060156
  0
ARC
  5
200
330
17
100
AcDbEntity
  8
0
100
AcDbCircle
 10
325.2019112647279
 20
860.3649176615017
 30
0.0
 40
65.85787894582039
100
AcDbArc
 50
347.33714614590383
 51
102.6229515961964
  0
ARC
  5
201
330
17
100
AcDbEntity
  8
0
100
AcDbCircle
 10
719.318088735272
 20
860.3649176615017
 30
0.0
 40
65.85787894582039
100
AcDbArc
 50
77.3770484038035
 51
192.6628538540962
  0
ARC
  5
202
330
17
100
AcDbEntity
  8
0
100
AcDbCircle
 10
325.20191126475527
 20
860.3649176615179
 30
0.0
 40
55.85787894582039
100
AcDbArc
 50
350.5694428194173
 51
99.38258846134407
  0
ARC
  5
203
330
17
100
AcDbEntity
  8
0
100
AcDbCircle
 10
719.3180887352446
 20
860.3649176615179
 30
0.0
 40
55.85787894582039
100
AcDbArc
 50
80.61741153865589
 51
189.43055718058275
  0
ARC
  5
204
330
17
100
AcDbEntity
  8
0
100
AcDbCircle
 10
249.3199374986254
 20
860.3649176614916
 30
0.0
 40
70.85787894582037
100
AcDbArc
 50
95.66713165188796
 51
177.8720023068447
  0
ARC
  5
205
330
17
100
AcDbEntity
  8
0
100
AcDbCircle
 10
795.2000625013746
 20
860.3649176614916
 30
0.0
 40
70.85787894582037
100
AcDbArc
 50
2.127997693155289
 51
84.33286834811207
  0
ARC
  5
206
330
17
100
AcDbEntity
  8
0
100
AcDbCircle
 10
249.3199374986198
 20
860.3649176614789
 30
0.0
 40
80.85787894582037
100
AcDbArc
 50
104.60675004714814
 51
131.36098789053202
  0
ARC
  5
207
330
17
100
AcDbEntity
  8
0
100
AcDbCircle
 10
795.2000625013802
 20
860.3649176614789
 30
0.0
 40
80.85787894582037
100
AcDbArc
 50
48.63901210946801
 51
75.39324995285193
  0
ARC
  5
208
330
17
100
AcDbEntity
  8
0
100
AcDbCircle
 10
249.31993749861826
 20
860.3649176615011
 30
0.0
 40
65.85787894582037
100
AcDbArc
 50
77.37704840380412
 51
192.6628538540955
  0
ARC
  5
209
330
17
100
AcDbEntity
  8
0
100
AcDbCircle
 10
795.2000625013818
 20
860.3649176615011
 30
0.0
 40
65.85787894582037
100
AcDbArc
 50
347.3371461459045
 51
102.622951596196
  0
ARC
  5
20A
330
17
100
AcDbEntity
  8
0
100
AcDbCircle
 10
249.3199374985902
 20
860.3649176615174
 30
0.0
 40
55.85787894582037
100
AcDbArc
 50
80.61741153865584
 51
189.4305571805799
  0
ARC
  5
20B
330
17
100
AcDbEntity
  8
0
100
AcDbCircle
 10
795.2000625014098
 20
860.3649176615174
 30
0.0
 40
55.85787894582037
100
AcDbArc
 50
350.5694428194201
 51
99.3825884613441
  0
ARC
  5
20C
330
17
100
AcDbEntity
  8
0
100
AcDbCircle
 10
229.6946975956376
 20
894.356830284187
 30
0.0
 40
70.85787894582037
100
AcDbArc
 50
242.127997693212
 51
324.3328683480987
  0
ARC
  5
20D
330
17
100
AcDbEntity
  8
0
100
AcDbCircle
 10
814.8253024043623
 20
894.356830284187
 30
0.0
 40
70.85787894582037
100
AcDbArc
 50
215.6671316519013
 51
297.8720023067881
  0
ARC
  5
20E
330
17
100
AcDbEntity
  8
0
100
AcDbCircle
 10
229.6946975956266
 20
894.3568302841306
 30
0.0
 40
80.85787894582037
100
AcDbArc
 50
288.63901210954907
 51
315.39324995287876
  0
ARC
  5
20F
330
17
100
AcDbEntity
  8
0
100
AcDbCircle
 10
814.825302404373
 20
894.3568302841309
 30
0.0
 40
80.85787894582037
100
AcDbArc
 50
224.60675004712152
 51
251.36098789045116
  0
ARC
  5
210
330
17
100
AcDbEntity
  8
0
100
AcDbCircle
 10
229.69469759564473
 20
894.3568302841991
 30
0.0
 40
65.85787894582037
100
AcDbArc
 50
227.33714614587575
 51
342.62295159617804
  0
ARC
  5
211
330
17
100
AcDbEntity
  8
0
100
AcDbCircle
 10
814.8253024043553
 20
894.3568302841991
 30
0.0
 40
65.85787894582037
100
AcDbArc
 50
197.37704840382193
 51
312.66285385412425
  0
ARC
  5
212
330
17
100
AcDbEntity
  8
0
100
AcDbCircle
 10
229.69469759564726
 20
894.356830284195
 30
0.0
 40
55.85787894582037
100
AcDbArc
 50
230.56944281934406
 51
339.38258846133795
  0
ARC
  5
213
330
17
100
AcDbEntity
  8
0
100
AcDbCircle
 10
814.8253024043529
 20
894.3568302841951
 30
0.0
 40
55.85787894582037
100
AcDbArc
 50
200.61741153866217
 51
309.4305571806557
  0
LINE
  5
214
330
17
100
AcDbEntity
  8
0
100
AcDbLine
 10
292.5468257116322
 20
874.6878137725893
 30
0.0
 11
281.9750230517115
 21
874.6878137725893
 31
0.0
  0
LINE
  5
215
330
17
100
AcDbEntity
  8
0
100
AcDbLine
 10
751.9731742883678
 20
874.6878137725893
 30
0.0
 11
762.5449769482884
 21
874.6878137725893
 31
0.0
  0
LINE
  5
216
330
17
100
AcDbEntity
  8
0
100
AcDbLine
 10
316.095616503188
 20
915.4755158803725
 30
0.0
 11
310.8097151732277
 21
924.630965547661
 31
0.0
  0
LINE
  5
217
330
17
100
AcDbEntity
  8
0
100
AcDbLine
 10
728.424383496812
 20
915.4755158803725
 30
0.0
 11
733.7102848267723
 21
924.630965547661
 31
0.0
  0
LINE
  5
218
330
17
100
AcDbEntity
  8
0
100
AcDbLine
 10
263.7121335901161
 20
924.6309655476604
 30
0.0
 11
258.4262322601558
 21
915.4755158803721
 31
0.0
  0
LINE
  5
219
330
17
100
AcDbEntity
  8
0
100
AcDbLine
 10
780.8078664098839
 20
924.6309655476604
 30
0.0
 11
786.0937677398442
 21
915.4755158803721
 31
0.0
  0
LINE
  5
21A
330
17
100
AcDbEntity
  8
0
100
AcDbLine
 10
345.5929230894185
 20
938.6094268898242
 30
0.0
 11
332.1990495021805
 21
930.8764703687431
 31
0.0
  0
LINE
  5
21B
330
17
100
AcDbEntity
  8
0
100
AcDbLine
 10
698.9270769105815
 20
938.6094268898242
 30
0.0
 11
712.3209504978195
 21
930.8764703687431
 31
0.0
  0
LINE
  5
21C
330
17
100
AcDbEntity
  8
0
100
AcDbLine
 10
242.3227992611669
 20
930.8764703687424
 30
0.0
 11
228.9289256739307
 21
938.6094268898071
 31
0.0
  0
LINE
  5
21D
330
17
100
AcDbEntity
  8
0
100
AcDbLine
 10
802.1972007388331
 20
930.8764703687424
 30
0.0
 11
815.5910743260692
 21
938.6094268898071
 31
0.0
  0
LINE
  5
21E
330
17
100
AcDbEntity
  8
0
100
AcDbLine
 10
287.260924381661
 20
837.5754414209811
 30
0.0
 11
287.2609243816719
 21
853.0413544631366
 31
0.0
  0
LINE
  5
21F
330
17
100
AcDbEntity
  8
0
100
AcDbLine
 10
757.259075618339
 20
837.5754414209811
 30
0.0
 11
757.2590756183281
 21
853.0413544631366
 31
0.0
  0
ARC
  5
220
330
17
100
AcDbEntity
  8
0
100
AcDbCircle
 10
260.92916939213
 20
936.5349639716163
 30
0.0
 40
94.60502900024575
100
AcDbArc
 50
24.655635625191813
 51
62.01697692740121
  0
ARC
  5
221
330
17
100
AcDbEntity
  8
0
100
AcDbCircle
 10
783.59083060787
 20
936.5349639716163
 30
0.0
 40
94.60502900024575
100
AcDbArc
 50
117.98302307259881
 51
155.3443643748082
  0
ARC
  5
222
330
17
100
AcDbEntity
  8
0
100
AcDbCircle
 10
301.4645086543911
 20
866.3256968673312
 30
0.0
 40
94.60502900024575
100
AcDbArc
 50
357.9830230725208
 51
35.344364374783915
  0
ARC
  5
223
330
17
100
AcDbEntity
  8
0
100
AcDbCircle
 10
743.055491345609
 20
866.3256968673314
 30
0.0
 40
94.60502900024575
100
AcDbArc
 50
144.65563562521635
 51
182.01697692747936
  0
ARC
  5
224
330
17
100
AcDbEntity
  8
0
100
AcDbCircle
 10
313.59267937121456
 20
936.5349639716178
 30
0.0
 40
94.60502900024575
100
AcDbArc
 50
117.98302307260064
 51
155.34436437481017
  0
ARC
  5
225
330
17
100
AcDbEntity
  8
0
100
AcDbCircle
 10
730.9273206287853
 20
936.5349639716178
 30
0.0
 40
94.60502900024575
100
AcDbArc
 50
24.65563562518984
 51
62.0169769273993
  0
ARC
  5
226
330
17
100
AcDbEntity
  8
0
100
AcDbCircle
 10
273.0573401089515
 20
866.3256968673342
 30
0.0
 40
94.60502900024575
100
AcDbArc
 50
144.65563562518818
 51
182.01697692748368
  0
ARC
  5
227
330
17
100
AcDbEntity
  8
0
100
AcDbCircle
 10
771.4626598910485
 20
866.3256968673342
 30
0.0
 40
94.60502900024575
100
AcDbArc
 50
357.9830230725163
 51
35.344364374811825
  0
ARC
  5
228
330
17
100
AcDbEntity
  8
0
100
AcDbCircle
 10
327.79626364387843
 20
911.9336343616367
 30
0.0
 40
94.60502900024574
100
AcDbArc
 50
264.65563562515223
 51
302.0169769274821
  0
ARC
  5
229
330
17
100
AcDbEntity
  8
0
100
AcDbCircle
 10
716.7237363561215
 20
911.9336343616367
 30
0.0
 40
94.60502900024574
100
AcDbArc
 50
237.98302307251788
 51
275.34436437484777
  0
ARC
  5
22A
330
17
100
AcDbEntity
  8
0
100
AcDbCircle
 10
246.7255851194628
 20
911.9336343616403
 30
0.0
 40
94.60502900024574
100
AcDbArc
 50
237.98302307252305
 51
275.3443643748476
  0
ARC
  5
22B
330
17
100
AcDbEntity
  8
0
100
AcDbCircle
 10
797.7944148805376
 20
911.9336343616407
 30
0.0
 40
94.60502900024574
100
AcDbArc
 50
264.6556356251522
 51
302.01697692747666
  0
LINE
  5
22C
330
17
100
AcDbEntity
  8
0
100
AcDbLine
 10
287.3097877659552
 20
696.4764041183014
 30
0.0
 11
287.3097877659552
 21
681.4699141321514
 31
0.0
  0
LINE
  5
22D
330
17
100
AcDbEntity
  8
0
100
AcDbLine
 10
757.2102122340448
 20
696.4764041183014
 30
0.0
 11
757.2102122340448
 21
681.4699141321514
 31
0.0
  0
LINE
  5
22E
330
17
100
AcDbEntity
  8
0
100
AcDbLine
 10
284.80978776595555
 20
656.2396019670107
 30
0.0
 11
284.809787765957
 21
67.40916721210891
 31
0.0
  0
LINE
  5
22F
330
17
100
AcDbEntity
  8
0
100
AcDbLine
 10
759.7102122340444
 20
656.2396019670107
 30
0.0
 11
759.710212234043
 21
67.40916721210891
 31
0.0
  0
LINE
  5
230
330
17
100
AcDbEntity
  8
0
100
AcDbLine
 10
274.8097877659552
 20
655.991742913862
 30
0.0
 11
274.809787765957
 21
77.40916721210698
 31
0.0
  0
LINE
  5
231
330
17
100
AcDbEntity
  8
0
100
AcDbLine
 10
769.7102122340448
 20
655.991742913862
 30
0.0
 11
769.710212234043
 21
77.40916721210698
 31
0.0
  0
ARC
  5
232
330
17
100
AcDbEntity
  8
0
100
AcDbCircle
 10
236.42597607753183
 20
666.2438530046734
 30
0.0
 40
164.4301502467036
100
AcDbArc
 50
116.52168082064418
 51
183.4716358548631
  0
ARC
  5
233
330
17
100
AcDbEntity
  8
0
100
AcDbCircle
 10
808.0940239224681
 20
666.2438530046735
 30
0.0
 40
164.4301502467036
100
AcDbArc
 50
356.52836414513683
 51
63.47831917935574
  0
ARC
  5
234
330
17
100
AcDbEntity
  8
0
100
AcDbCircle
 10
236.4378328117349
 20
666.2497707540313
 30
0.0
 40
154.4301502467036
100
AcDbArc
 50
138.14567143137586
 51
161.8543285686302
  0
ARC
  5
235
330
17
100
AcDbEntity
  8
0
100
AcDbCircle
 10
808.0821671882651
 20
666.2497707540313
 30
0.0
 40
154.4301502467036
100
AcDbArc
 50
18.145671431369816
 51
41.85432856862414
  0
ARC
  5
236
330
17
100
AcDbEntity
  8
0
100
AcDbCircle
 10
236.43783281174345
 20
666.2497707540417
 30
0.0
 40
178.1326627672622
100
AcDbArc
 50
112.09136007353844
 51
154.25540102351025
  0
ARC
  5
237
330
17
100
AcDbEntity
  8
0
100
AcDbCircle
 10
808.0821671882567
 20
666.2497707540416
 30
0.0
 40
178.1326627672622
100
AcDbArc
 50
25.744598976489808
 51
67.90863992646163
  0
ARC
  5
238
330
17
100
AcDbEntity
  8
0
100
AcDbCircle
 10
236.43783281170806
 20
666.2497707540006
 30
0.0
 40
188.1326627672622
100
AcDbArc
 50
114.66355216462411
 51
138.1158966386307
  0
ARC
  5
239
330
17
100
AcDbEntity
  8
0
100
AcDbCircle
 10
808.0821671882918
 20
666.2497707540006
 30
0.0
 40
188.1326627672622
100
AcDbArc
 50
41.8841033613693
 51
65.33644783537589
  0
ARC
  5
23A
330
17
100
AcDbEntity
  8
0
100
AcDbCircle
 10
125.68174271926209
 20
666.2497707540159
 30
0.0
 40
164.4301502467036
100
AcDbArc
 50
10.592727570476262
 51
63.473701691218906
  0
ARC
  5
23B
330
17
100
AcDbEntity
  8
0
100
AcDbCircle
 10
918.8382572807378
 20
666.249770754016
 30
0.0
 40
164.4301502467036
100
AcDbArc
 50
116.52629830878115
 51
169.40727242952377
  0
ARC
  5
23C
330
17
100
AcDbEntity
  8
0
100
AcDbCircle
 10
125.68174271926816
 20
666.2497707540227
 30
0.0
 40
154.4301502467036
100
AcDbArc
 50
18.145671431376556
 51
41.85432856862396
  0
ARC
  5
23D
330
17
100
AcDbEntity
  8
0
100
AcDbCircle
 10
918.8382572807316
 20
666.2497707540225
 30
0.0
 40
154.4301502467036
100
AcDbArc
 50
138.14567143137592
 51
161.85432856862334
  0
ARC
  5
23E
330
17
100
AcDbEntity
  8
0
100
AcDbCircle
 10
125.68174271933594
 20
666.2497707539475
 30
0.0
 40
178.1326627672622
100
AcDbArc
 50
24.858807290652198
 51
46.25314289541699
  0
ARC
  5
23F
330
17
100
AcDbEntity
  8
0
100
AcDbCircle
 10
918.838257280664
 20
666.2497707539474
 30
0.0
 40
178.1326627672622
100
AcDbArc
 50
133.746857104583
 51
155.1411927093478
  0
ARC
  5
240
330
17
100
AcDbEntity
  8
0
100
AcDbCircle
 10
125.68174271927487
 20
666.2497707540057
 30
0.0
 40
188.1326627672622
100
AcDbArc
 50
30.782370847542133
 51
37.64992025517779
  0
ARC
  5
241
330
17
100
AcDbEntity
  8
0
100
AcDbCircle
 10
918.8382572807246
 20
666.249770754005
 30
0.0
 40
188.1326627672622
100
AcDbArc
 50
142.35007974482195
 51
149.21762915245762
  0
ARC
  5
242
330
17
100
AcDbEntity
  8
0
100
AcDbCircle
 10
200.68502766842343
 20
753.3634154900179
 30
0.0
 40
70.8578789458204
100
AcDbArc
 50
122.12799769320813
 51
204.33286834806523
  0
ARC
  5
243
330
17
100
AcDbEntity
  8
0
100
AcDbCircle
 10
843.8349723315765
 20
753.363415490018
 30
0.0
 40
70.8578789458204
100
AcDbArc
 50
335.66713165193465
 51
57.87200230679174
  0
ARC
  5
244
330
17
100
AcDbEntity
  8
0
100
AcDbCircle
 10
200.68502766851935
 20
753.3634154901536
 30
0.0
 40
80.8578789458204
100
AcDbArc
 50
168.63901210952534
 51
195.39324995294305
  0
ARC
  5
245
330
17
100
AcDbEntity
  8
0
100
AcDbCircle
 10
843.8349723314806
 20
753.3634154901537
 30
0.0
 40
80.8578789458204
100
AcDbArc
 50
344.6067500470569
 51
11.36098789047458
  0
ARC
  5
246
330
17
100
AcDbEntity
  8
0
100
AcDbCircle
 10
200.6850276685312
 20
753.3634154900284
 30
0.0
 40
65.8578789458204
100
AcDbArc
 50
107.33714614593615
 51
222.62295159615857
  0
ARC
  5
247
330
17
100
AcDbEntity
  8
0
100
AcDbCircle
 10
843.8349723314687
 20
753.3634154900284
 30
0.0
 40
65.8578789458204
100
AcDbArc
 50
317.37704840384146
 51
72.66285385406384
  0
ARC
  5
248
330
17
100
AcDbEntity
  8
0
100
AcDbCircle
 10
200.68502766847848
 20
753.363415490048
 30
0.0
 40
55.8578789458204
100
AcDbArc
 50
110.5694428193977
 51
219.3825884613531
  0
ARC
  5
249
330
17
100
AcDbEntity
  8
0
100
AcDbCircle
 10
843.8349723315214
 20
753.3634154900482
 30
0.0
 40
55.8578789458204
100
AcDbArc
 50
320.6174115386468
 51
69.43055718060216
  0
ARC
  5
24A
330
17
100
AcDbEntity
  8
0
100
AcDbCircle
 10
161.43454786257473
 20
753.3634154900196
 30
0.0
 40
70.8578789458204
100
AcDbArc
 50
335.66713165193283
 51
57.87200230678933
  0
ARC
  5
24B
330
17
100
AcDbEntity
  8
0
100
AcDbCircle
 10
883.0854521374252
 20
753.3634154900197
 30
0.0
 40
70.8578789458204
100
AcDbArc
 50
122.12799769321086
 51
204.33286834806725
  0
ARC
  5
24C
330
17
100
AcDbEntity
  8
0
100
AcDbCircle
 10
161.43454786248066
 20
753.3634154901617
 30
0.0
 40
80.8578789458204
100
AcDbArc
 50
344.60675004704325
 51
11.360987890462347
  0
ARC
  5
24D
330
17
100
AcDbEntity
  8
0
100
AcDbCircle
 10
883.0854521375193
 20
753.3634154901615
 30
0.0
 40
80.8578789458204
100
AcDbArc
 50
168.6390121095375
 51
195.39324995295658
  0
ARC
  5
24E
330
17
100
AcDbEntity
  8
0
100
AcDbCircle
 10
161.43454786246593
 20
753.3634154900285
 30
0.0
 40
65.8578789458204
100
AcDbArc
 50
317.3770484038405
 51
72.66285385406371
  0
ARC
  5
24F
330
17
100
AcDbEntity
  8
0
100
AcDbCircle
 10
883.085452137534
 20
753.3634154900285
 30
0.0
 40
65.8578789458204
100
AcDbArc
 50
107.33714614593629
 51
222.62295159615945
  0
ARC
  5
250
330
17
100
AcDbEntity
  8
0
100
AcDbCircle
 10
161.43454786251917
 20
753.3634154900479
 30
0.0
 40
55.8578789458204
100
AcDbArc
 50
320.6174115386463
 51
69.4305571806027
  0
ARC
  5
251
330
17
100
AcDbEntity
  8
0
100
AcDbCircle
 10
883.0854521374807
 20
753.3634154900479
 30
0.0
 40
55.8578789458204
100
AcDbArc
 50
110.56944281939722
 51
219.3825884613537
  0
ARC
  5
252
330
17
100
AcDbEntity
  8
0
100
AcDbCircle
 10
143.1065398560321
 20
653.6545702633204
 30
0.0
 40
70.85787894582039
100
AcDbArc
 50
95.65716875961681
 51
177.87101866541582
  0
ARC
  5
253
330
17
100
AcDbEntity
  8
0
100
AcDbCircle
 10
901.4134601439677
 20
653.6545702633204
 30
0.0
 40
70.85787894582039
100
AcDbArc
 50
2.1289813345841804
 51
84.34283124038309
  0
ARC
  5
254
330
17
100
AcDbEntity
  8
0
100
AcDbCircle
 10
143.1188008824665
 20
653.6557858966037
 30
0.0
 40
80.85787894582037
100
AcDbArc
 50
104.60675004709374
 51
131.36098789054918
  0
ARC
  5
255
330
17
100
AcDbEntity
  8
0
100
AcDbCircle
 10
901.4011991175336
 20
653.6557858966037
 30
0.0
 40
80.85787894582037
100
AcDbArc
 50
48.639012109450896
 51
75.39324995290637
  0
ARC
  5
256
330
17
100
AcDbEntity
  8
0
100
AcDbCircle
 10
143.11880332775397
 20
653.65578534899
 30
0.0
 40
65.85787894582039
100
AcDbArc
 50
77.37705058389649
 51
179.999999523698
  0
ARC
  5
257
330
17
100
AcDbEntity
  8
0
100
AcDbCircle
 10
901.4011966722461
 20
653.65578534899
 30
0.0
 40
65.85787894582039
100
AcDbArc
 50
4.7630202655969305e-07
 51
102.6229494161037
  0
ARC
  5
258
330
17
100
AcDbEntity
  8
0
100
AcDbCircle
 10
143.11880332775397
 20
653.655785492569
 30
0.0
 40
55.85787894582039
100
AcDbArc
 50
80.6174140808855
 51
179.9999995856617
  0
ARC
  5
259
330
17
100
AcDbEntity
  8
0
100
AcDbCircle
 10
901.401196672246
 20
653.655785492569
 30
0.0
 40
55.85787894582039
100
AcDbArc
 50
4.143382959719395e-07
 51
99.38258591911445
  0
ARC
  5
25A
330
17
100
AcDbEntity
  8
0
100
AcDbCircle
 10
219.0007746485503
 20
653.6557858966198
 30
0.0
 40
70.85787894582037
100
AcDbArc
 50
15.414433485491742
 51
84.33286834803842
  0
ARC
  5
25B
330
17
100
AcDbEntity
  8
0
100
AcDbCircle
 10
825.5192253514497
 20
653.6557858966198
 30
0.0
 40
70.85787894582037
100
AcDbArc
 50
95.66713165196155
 51
164.58556651450826
  0
ARC
  5
25C
330
17
100
AcDbEntity
  8
0
100
AcDbCircle
 10
219.000774648563
 20
653.6557858965841
 30
0.0
 40
80.85787894582037
100
AcDbArc
 50
48.63901210948116
 51
75.39324995293168
  0
ARC
  5
25D
330
17
100
AcDbEntity
  8
0
100
AcDbCircle
 10
825.5192253514368
 20
653.6557858965841
 30
0.0
 40
80.85787894582037
100
AcDbArc
 50
104.6067500470683
 51
131.36098789051886
  0
ARC
  5
25E
330
17
100
AcDbEntity
  8
0
100
AcDbCircle
 10
219.00259800783957
 20
653.6561942598279
 30
0.0
 40
65.85787894581951
100
AcDbArc
 50
2.2481189465901172
 51
102.62457719987027
  0
ARC
  5
25F
330
17
100
AcDbEntity
  8
0
100
AcDbCircle
 10
825.5174019921604
 20
653.6561942598279
 30
0.0
 40
65.85787894581951
100
AcDbArc
 50
77.37542280012985
 51
177.75188105340987
  0
ARC
  5
260
330
17
100
AcDbEntity
  8
0
100
AcDbCircle
 10
219.00077464854138
 20
653.6557858966208
 30
0.0
 40
55.85787894582093
100
AcDbArc
 50
2.39678848118385
 51
99.38258846137141
  0
ARC
  5
261
330
17
100
AcDbEntity
  8
0
100
AcDbCircle
 10
825.5192253514585
 20
653.6557858966208
 30
0.0
 40
55.85787894582093
100
AcDbArc
 50
80.61741153862856
 51
177.60321151881615
  0
LINE
  5
262
330
17
100
AcDbEntity
  8
0
100
AcDbLine
 10
152.2250956439824
 20
708.7663841154808
 30
0.0
 11
157.5109969739428
 21
717.9218337827697
 31
0.0
  0
LINE
  5
263
330
17
100
AcDbEntity
  8
0
100
AcDbLine
 10
892.2949043560176
 20
708.7663841154808
 30
0.0
 11
887.0090030260571
 21
717.9218337827697
 31
0.0
  0
LINE
  5
264
330
17
100
AcDbEntity
  8
0
100
AcDbLine
 10
204.6085785570544
 20
717.9218337827688
 30
0.0
 11
209.8944798870165
 21
708.7663841154803
 31
0.0
  0
LINE
  5
265
330
17
100
AcDbEntity
  8
0
100
AcDbLine
 10
839.9114214429455
 20
717.9218337827688
 30
0.0
 11
834.6255201129835
 21
708.7663841154803
 31
0.0
  0
LINE
  5
266
330
17
100
AcDbEntity
  8
0
100
AcDbLine
 10
122.727789057752
 20
731.9002951249327
 30
0.0
 11
136.1216626449918
 21
724.1673386038514
 31
0.0
  0
LINE
  5
267
330
17
100
AcDbEntity
  8
0
100
AcDbLine
 10
921.792210942248
 20
731.9002951249327
 30
0.0
 11
908.3983373550082
 21
724.1673386038514
 31
0.0
  0
LINE
  5
268
330
17
100
AcDbEntity
  8
0
100
AcDbLine
 10
225.9979128860054
 20
724.1673386038508
 30
0.0
 11
239.3917864732416
 21
731.9002951249153
 31
0.0
  0
LINE
  5
269
330
17
100
AcDbEntity
  8
0
100
AcDbLine
 10
818.5220871139945
 20
724.1673386038508
 30
0.0
 11
805.1282135267584
 21
731.9002951249153
 31
0.0
  0
ARC
  5
26A
330
17
100
AcDbEntity
  8
0
100
AcDbCircle
 10
207.39154275504123
 20
729.8258322067242
 30
0.0
 40
94.60502900024575
100
AcDbArc
 50
117.98302307259846
 51
155.34436437480107
  0
ARC
  5
26B
330
17
100
AcDbEntity
  8
0
100
AcDbCircle
 10
837.1284572449588
 20
729.8258322067243
 30
0.0
 40
94.60502900024575
100
AcDbArc
 50
24.65563562519887
 51
62.01697692740149
  0
ARC
  5
26C
330
17
100
AcDbEntity
  8
0
100
AcDbCircle
 10
166.84456407875626
 20
659.600156826366
 30
0.0
 40
94.60502900024575
100
AcDbArc
 50
144.64345192994847
 51
182.00703342943493
  0
ARC
  5
26D
330
17
100
AcDbEntity
  8
0
100
AcDbCircle
 10
877.6754359212437
 20
659.6001568263661
 30
0.0
 40
94.60502900024575
100
AcDbArc
 50
357.992966570565
 51
35.35654807005148
  0
ARC
  5
26E
330
17
100
AcDbEntity
  8
0
100
AcDbCircle
 10
154.72803277595762
 20
729.8258322067253
 30
0.0
 40
94.60502900024575
100
AcDbArc
 50
24.655635625192268
 51
62.01697692740018
  0
ARC
  5
26F
330
17
100
AcDbEntity
  8
0
100
AcDbCircle
 10
889.7919672240424
 20
729.8258322067254
 30
0.0
 40
94.60502900024575
100
AcDbArc
 50
117.98302307259999
 51
155.3443643748078
  0
ARC
  5
270
330
17
100
AcDbEntity
  8
0
100
AcDbCircle
 10
195.26337203821944
 20
659.6165651024488
 30
0.0
 40
94.60502900024575
100
AcDbArc
 50
13.355696193837161
 51
35.344364374813956
  0
ARC
  5
271
330
17
100
AcDbEntity
  8
0
100
AcDbCircle
 10
849.2566279617805
 20
659.6165651024492
 30
0.0
 40
94.60502900024575
100
AcDbArc
 50
144.65563562518628
 51
166.64430380616304
  0
ARC
  5
272
330
17
100
AcDbEntity
  8
0
100
AcDbCircle
 10
338.18174272018075
 20
666.2497707540113
 30
0.0
 40
164.4301502467036
100
AcDbArc
 50
3.7441936681505164
 51
63.473701691222466
  0
ARC
  5
273
330
17
100
AcDbEntity
  8
0
100
AcDbCircle
 10
706.3382572798192
 20
666.2497707540113
 30
0.0
 40
164.4301502467036
100
AcDbArc
 50
116.52629830877758
 51
176.2558063318495
  0
ARC
  5
274
330
17
100
AcDbEntity
  8
0
100
AcDbCircle
 10
338.1817427201802
 20
666.24977075402
 30
0.0
 40
178.1326627672622
100
AcDbArc
 50
24.732637748294504
 51
67.93954690618327
  0
ARC
  5
275
330
17
100
AcDbEntity
  8
0
100
AcDbCircle
 10
706.3382572798197
 20
666.24977075402
 30
0.0
 40
178.1326627672622
100
AcDbArc
 50
112.06045309381669
 51
155.2673622517055
  0
ARC
  5
276
330
17
100
AcDbEntity
  8
0
100
AcDbCircle
 10
338.1817427201752
 20
666.2497707540247
 30
0.0
 40
188.1326627672622
100
AcDbArc
 50
40.42550581720606
 51
65.36652540663029
  0
ARC
  5
277
330
17
100
AcDbEntity
  8
0
100
AcDbCircle
 10
706.3382572798246
 20
666.2497707540246
 30
0.0
 40
188.1326627672622
100
AcDbArc
 50
114.63347459336961
 51
139.57449418279387
  0
ARC
  5
278
330
17
100
AcDbEntity
  8
0
100
AcDbCircle
 10
448.93783281264837
 20
666.2497707540159
 30
0.0
 40
164.4301502467036
100
AcDbArc
 50
116.52629830878115
 51
169.40727242952374
  0
ARC
  5
279
330
17
100
AcDbEntity
  8
0
100
AcDbCircle
 10
595.5821671873517
 20
666.249770754016
 30
0.0
 40
164.4301502467036
100
AcDbArc
 50
10.592727570476226
 51
63.47370169121886
  0
ARC
  5
27A
330
17
100
AcDbEntity
  8
0
100
AcDbCircle
 10
448.93783281264473
 20
666.2497707540286
 30
0.0
 40
154.4301502467036
100
AcDbArc
 50
138.14567143137535
 51
161.85432856862323
  0
ARC
  5
27B
330
17
100
AcDbEntity
  8
0
100
AcDbCircle
 10
595.5821671873555
 20
666.2497707540285
 30
0.0
 40
154.4301502467036
100
AcDbArc
 50
18.145671431376833
 51
41.854328568624766
  0
ARC
  5
27C
330
17
100
AcDbEntity
  8
0
100
AcDbCircle
 10
448.93783281256356
 20
666.2497707538902
 30
0.0
 40
178.1326627672622
100
AcDbArc
 50
133.73377897855875
 51
155.1411927093275
  0
ARC
  5
27D
330
17
100
AcDbEntity
  8
0
100
AcDbCircle
 10
595.5821671874362
 20
666.2497707538904
 30
0.0
 40
178.1326627672622
100
AcDbArc
 50
24.858807290672413
 51
46.266221021441154
  0
ARC
  5
27E
330
17
100
AcDbEntity
  8
0
100
AcDbCircle
 10
448.9378328126951
 20
666.2497707540892
 30
0.0
 40
188.1326627672622
100
AcDbArc
 50
142.34740178183165
 51
149.21762915248746
  0
ARC
  5
27F
330
17
100
AcDbEntity
  8
0
100
AcDbCircle
 10
595.5821671873044
 20
666.2497707540899
 30
0.0
 40
188.1326627672622
100
AcDbArc
 50
30.782370847512293
 51
37.6525982181681
  0
ARC
  5
280
330
17
100
AcDbEntity
  8
0
100
AcDbCircle
 10
373.93454786349446
 20
753.3634154900134
 30
0.0
 40
70.8578789458204
100
AcDbArc
 50
335.6671316519419
 51
57.87200230679897
  0
ARC
  5
281
330
17
100
AcDbEntity
  8
0
100
AcDbCircle
 10
670.5854521365054
 20
753.3634154900134
 30
0.0
 40
70.8578789458204
100
AcDbArc
 50
122.12799769320104
 51
204.33286834805818
  0
ARC
  5
282
330
17
100
AcDbEntity
  8
0
100
AcDbCircle
 10
373.93454786338003
 20
753.3634154900282
 30
0.0
 40
65.8578789458204
100
AcDbArc
 50
317.37704840384185
 51
72.66285385406461
  0
ARC
  5
283
330
17
100
AcDbEntity
  8
0
100
AcDbCircle
 10
670.5854521366198
 20
753.3634154900282
 30
0.0
 40
65.8578789458204
100
AcDbArc
 50
107.33714614593525
 51
222.6229515961582
  0
ARC
  5
284
330
17
100
AcDbEntity
  8
0
100
AcDbCircle
 10
373.93454786343193
 20
753.3634154900482
 30
0.0
 40
55.8578789458204
100
AcDbArc
 50
320.6174115386468
 51
69.43055718060228
  0
ARC
  5
285
330
17
100
AcDbEntity
  8
0
100
AcDbCircle
 10
670.5854521365679
 20
753.363415490048
 30
0.0
 40
55.8578789458204
100
AcDbArc
 50
110.5694428193976
 51
219.3825884613531
  0
ARC
  5
286
330
17
100
AcDbEntity
  8
0
100
AcDbCircle
 10
413.1850276693357
 20
753.3634154900199
 30
0.0
 40
70.8578789458204
100
AcDbArc
 50
122.12799769321087
 51
204.3328683480643
  0
ARC
  5
287
330
17
100
AcDbEntity
  8
0
100
AcDbCircle
 10
631.3349723306644
 20
753.3634154900199
 30
0.0
 40
70.8578789458204
100
AcDbArc
 50
335.6671316519357
 51
57.87200230678917
  0
ARC
  5
288
330
17
100
AcDbEntity
  8
0
100
AcDbCircle
 10
413.1850276694312
 20
753.3634154901572
 30
0.0
 40
80.8578789458204
100
AcDbArc
 50
168.63901210952903
 51
195.39324995295425
  0
ARC
  5
289
330
17
100
AcDbEntity
  8
0
100
AcDbCircle
 10
631.3349723305689
 20
753.3634154901571
 30
0.0
 40
80.8578789458204
100
AcDbArc
 50
344.6067500470458
 51
11.360987890471057
  0
ARC
  5
28A
330
17
100
AcDbEntity
  8
0
100
AcDbCircle
 10
413.1850276694436
 20
753.3634154900282
 30
0.0
 40
65.8578789458204
100
AcDbArc
 50
107.33714614593549
 51
222.62295159615883
  0
ARC
  5
28B
330
17
100
AcDbEntity
  8
0
100
AcDbCircle
 10
631.3349723305563
 20
753.3634154900282
 30
0.0
 40
65.8578789458204
100
AcDbArc
 50
317.37704840384123
 51
72.66285385406447
  0
ARC
  5
28C
330
17
100
AcDbEntity
  8
0
100
AcDbCircle
 10
413.1850276693939
 20
753.363415490049
 30
0.0
 40
55.8578789458204
100
AcDbArc
 50
110.56944281940021
 51
219.38258846135687
  0
ARC
  5
28D
330
17
100
AcDbEntity
  8
0
100
AcDbCircle
 10
631.334972330606
 20
753.363415490049
 30
0.0
 40
55.8578789458204
100
AcDbArc
 50
320.6174115386432
 51
69.43055718059969
  0
ARC
  5
28E
330
17
100
AcDbEntity
  8
0
100
AcDbCircle
 10
431.50077464945775
 20
653.6557858966081
 30
0.0
 40
65.85787894582037
100
AcDbArc
 50
2.2073095915812426
 51
102.62295159618849
  0
ARC
  5
28F
330
17
100
AcDbEntity
  8
0
100
AcDbCircle
 10
613.0192253505421
 20
653.6557858966081
 30
0.0
 40
65.85787894582037
100
AcDbArc
 50
77.37704840381151
 51
177.79269040841876
  0
ARC
  5
290
330
17
100
AcDbEntity
  8
0
100
AcDbCircle
 10
431.50077464946105
 20
653.6557858966275
 30
0.0
 40
55.85787894581577
100
AcDbArc
 50
2.3967884811685467
 51
99.38258846137697
  0
ARC
  5
291
330
17
100
AcDbEntity
  8
0
100
AcDbCircle
 10
613.0192253505388
 20
653.6557858966275
 30
0.0
 40
55.85787894581577
100
AcDbArc
 50
80.61741153862297
 51
177.60321151883147
  0
ARC
  5
292
330
17
100
AcDbEntity
  8
0
100
AcDbCircle
 10
355.6188008833928
 20
653.6557858966265
 30
0.0
 40
70.85787894582037
100
AcDbArc
 50
95.66713165198935
 51
164.58556651451389
  0
ARC
  5
293
330
17
100
AcDbEntity
  8
0
100
AcDbCircle
 10
688.9011991166071
 20
653.6557858966265
 30
0.0
 40
70.85787894582037
100
AcDbArc
 50
15.414433485486109
 51
84.33286834801055
  0
ARC
  5
294
330
17
100
AcDbEntity
  8
0
100
AcDbCircle
 10
355.6188008833387
 20
653.6557858965807
 30
0.0
 40
80.85787894582037
100
AcDbArc
 50
104.60675004706167
 51
131.3609878905082
  0
ARC
  5
295
330
17
100
AcDbEntity
  8
0
100
AcDbCircle
 10
688.9011991166614
 20
653.6557858965807
 30
0.0
 40
80.85787894582037
100
AcDbArc
 50
48.639012109491816
 51
75.39324995293835
  0
ARC
  5
296
330
17
100
AcDbEntity
  8
0
100
AcDbCircle
 10
355.6200241378656
 20
653.6502300280933
 30
0.0
 40
65.86303324622256
100
AcDbArc
 50
77.37914303497016
 51
177.70570167453076
  0
ARC
  5
297
330
17
100
AcDbEntity
  8
0
100
AcDbCircle
 10
688.8999758621343
 20
653.6502300280932
 30
0.0
 40
65.86303324622256
100
AcDbArc
 50
2.2942983254693488
 51
102.6208569650298
  0
ARC
  5
298
330
17
100
AcDbEntity
  8
0
100
AcDbCircle
 10
355.6188008833672
 20
653.6557858966215
 30
0.0
 40
55.85787894582061
100
AcDbArc
 50
80.61741153862803
 51
177.6032115188166
  0
ARC
  5
299
330
17
100
AcDbEntity
  8
0
100
AcDbCircle
 10
688.9011991166327
 20
653.6557858966215
 30
0.0
 40
55.85787894582061
100
AcDbArc
 50
2.3967884811833913
 51
99.38258846137187
  0
LINE
  5
29A
330
17
100
AcDbEntity
  8
0
100
AcDbLine
 10
422.3944798879278
 20
708.7663841154808
 30
0.0
 11
417.1085785579675
 21
717.9218337827697
 31
0.0
  0
LINE
  5
29B
330
17
100
AcDbEntity
  8
0
100
AcDbLine
 10
622.1255201120722
 20
708.7663841154808
 30
0.0
 11
627.4114214420324
 21
717.9218337827697
 31
0.0
  0
LINE
  5
29C
330
17
100
AcDbEntity
  8
0
100
AcDbLine
 10
370.010996974856
 20
717.9218337827688
 30
0.0
 11
364.7250956448938
 21
708.7663841154803
 31
0.0
  0
LINE
  5
29D
330
17
100
AcDbEntity
  8
0
100
AcDbLine
 10
674.509003025144
 20
717.9218337827688
 30
0.0
 11
679.7949043551062
 21
708.7663841154803
 31
0.0
  0
LINE
  5
29E
330
17
100
AcDbEntity
  8
0
100
AcDbLine
 10
348.621662645905
 20
724.1673386038508
 30
0.0
 11
335.2277890586688
 21
731.9002951249153
 31
0.0
  0
LINE
  5
29F
330
17
100
AcDbEntity
  8
0
100
AcDbLine
 10
695.898337354095
 20
724.1673386038508
 30
0.0
 11
709.2922109413312
 21
731.9002951249153
 31
0.0
  0
ARC
  5
2A0
330
17
100
AcDbEntity
  8
0
100
AcDbCircle
 10
367.2280327768824
 20
729.8258322067172
 30
0.0
 40
94.60502900024575
100
AcDbArc
 50
24.6556356252056
 51
62.016976927410596
  0
ARC
  5
2A1
330
17
100
AcDbEntity
  8
0
100
AcDbCircle
 10
677.2919672231174
 20
729.8258322067172
 30
0.0
 40
94.60502900024575
100
AcDbArc
 50
117.98302307258935
 51
155.3443643747944
  0
ARC
  5
2A2
330
17
100
AcDbEntity
  8
0
100
AcDbCircle
 10
419.8915427559533
 20
729.8258322067256
 30
0.0
 40
94.60502900024575
100
AcDbArc
 50
117.98302307260026
 51
155.34436437480304
  0
ARC
  5
2A3
330
17
100
AcDbEntity
  8
0
100
AcDbCircle
 10
624.6284572440468
 20
729.8258322067256
 30
0.0
 40
94.60502900024575
100
AcDbArc
 50
24.65563562519699
 51
62.01697692739976
  0
ARC
  5
2A4
330
17
100
AcDbEntity
  8
0
100
AcDbCircle
 10
379.35620349370413
 20
659.6165651024701
 30
0.0
 40
94.60502900024575
100
AcDbArc
 50
144.65563562519705
 51
166.64430380617608
  0
ARC
  5
2A5
330
17
100
AcDbEntity
  8
0
100
AcDbCircle
 10
665.1637965062959
 20
659.6165651024703
 30
0.0
 40
94.60502900024575
100
AcDbArc
 50
13.355696193823796
 51
35.34436437480282
  0
LINE
  5
2A6
330
17
100
AcDbEntity
  8
0
100
AcDbLine
 10
502.2609243819119
 20
676.9873894551071
 30
0.0
 11
502.2609243819119
 21
62.40916721211188
 31
0.0
  0
LINE
  5
2A7
330
17
100
AcDbEntity
  8
0
100
AcDbLine
 10
542.2590756180881
 20
676.9873894551071
 30
0.0
 11
542.2590756180881
 21
62.40916721211188
 31
0.0
  0
LINE
  5
2A8
330
17
100
AcDbEntity
  8
0
100
AcDbLine
 10
289.8097877659552
 20
656.2868826533431
 30
0.0
 11
289.809787765957
 21
67.40916721210891
 31
0.0
  0
LINE
  5
2A9
330
17
100
AcDbEntity
  8
0
100
AcDbLine
 10
754.7102122340448
 20
656.2868826533431
 30
0.0
 11
754.710212234043
 21
67.40916721210891
 31
0.0
  0
LINE
  5
2AA
330
17
100
AcDbEntity
  8
0
100
AcDbLine
 10
299.8097877659552
 20
655.991742913862
 30
0.0
 11
299.809787765957
 21
77.40916721210715
 31
0.0
  0
LINE
  5
2AB
330
17
100
AcDbEntity
  8
0
100
AcDbLine
 10
744.7102122340448
 20
655.991742913862
 30
0.0
 11
744.710212234043
 21
77.40916721210715
 31
0.0
  0
LINE
  5
2AC
330
17
100
AcDbEntity
  8
0
100
AcDbLine
 10
72.29757191960869
 20
656.2868826458266
 30
0.0
 11
72.26092438198108
 21
62.40916721211188
 31
0.0
  0
LINE
  5
2AD
330
17
100
AcDbEntity
  8
0
100
AcDbLine
 10
972.2224280803912
 20
656.2868826458266
 30
0.0
 11
972.2590756180189
 21
62.40916721211188
 31
0.0
  0
LINE
  5
2AE
330
17
100
AcDbEntity
  8
0
100
AcDbLine
 10
77.26092438193358
 20
653.6557858964691
 30
0.0
 11
77.26092438197927
 21
67.40916721210822
 31
0.0
  0
LINE
  5
2AF
330
17
100
AcDbEntity
  8
0
100
AcDbLine
 10
967.2590756180664
 20
653.6557858964691
 30
0.0
 11
967.2590756180207
 21
67.40916721210822
 31
0.0
  0
LINE
  5
2B0
330
17
100
AcDbEntity
  8
0
100
AcDbLine
 10
87.26092438193358
 20
653.655785896509
 30
0.0
 11
87.26092438197563
 21
77.40916721210647
 31
0.0
  0
LINE
  5
2B1
330
17
100
AcDbEntity
  8
0
100
AcDbLine
 10
957.2590756180664
 20
653.655785896509
 30
0.0
 11
957.2590756180243
 21
77.40916721210647
 31
0.0
  0
LINE
  5
2B2
330
17
100
AcDbEntity
  8
0
100
AcDbLine
 10
497.3097877668683
 20
656.1923212807073
 30
0.0
 11
497.3097877668701
 21
67.40916721210965
 31
0.0
  0
LINE
  5
2B3
330
17
100
AcDbEntity
  8
0
100
AcDbLine
 10
547.2102122331316
 20
656.1923212807073
 30
0.0
 11
547.2102122331298
 21
67.40916721210965
 31
0.0
  0
LINE
  5
2B4
330
17
100
AcDbEntity
  8
0
100
AcDbLine
 10
487.3097877668701
 20
655.9917429138449
 30
0.0
 11
487.3423633555786
 21
77.40916721210773
 31
0.0
  0
LINE
  5
2B5
330
17
100
AcDbEntity
  8
0
100
AcDbLine
 10
557.2102122331298
 20
655.9917429138449
 30
0.0
 11
557.1776366444213
 21
77.40916721210773
 31
0.0
  0
LINE
  5
2B6
330
17
100
AcDbEntity
  8
0
100
AcDbLine
 10
522.2603081273095
 20
789.2318899346352
 30
0.0
 11
522.2609243819265
 21
42.40916721204821
 31
0.0
  0
LINE
  5
2B7
330
17
100
AcDbEntity
  8
0
100
AcDbLine
 10
72.26092438198108
 20
62.40916721211188
 30
0.0
 11
502.2609243819119
 21
62.40916721211176
 31
0.0
  0
LINE
  5
2B8
330
17
100
AcDbEntity
  8
0
100
AcDbLine
 10
972.2590756180189
 20
62.40916721211188
 30
0.0
 11
542.2590756180881
 21
62.40916721211176
 31
0.0
  0
LINE
  5
2B9
330
17
100
AcDbEntity
  8
0
100
AcDbLine
 10
77.26092438197927
 20
67.40916721210822
 30
0.0
 11
284.8097877659552
 21
67.40916721210891
 31
0.0
  0
LINE
  5
2BA
330
17
100
AcDbEntity
  8
0
100
AcDbLine
 10
967.2590756180207
 20
67.40916721210822
 30
0.0
 11
759.7102122340448
 21
67.40916721210891
 31
0.0
  0
LINE
  5
2BB
330
17
100
AcDbEntity
  8
0
100
AcDbLine
 10
87.26092438197745
 20
77.40916721210647
 30
0.0
 11
274.8097877659552
 21
77.40916721210704
 31
0.0
  0
LINE
  5
2BC
330
17
100
AcDbEntity
  8
0
100
AcDbLine
 10
957.2590756180225
 20
77.40916721210647
 30
0.0
 11
769.7102122340448
 21
77.40916721210704
 31
0.0
  0
LINE
  5
2BD
330
17
100
AcDbEntity
  8
0
100
AcDbLine
 10
274.8097877659552
 20
77.40916721210704
 30
0.0
 11
284.8097877659552
 21
67.40916721210891
 31
0.0
  0
LINE
  5
2BE
330
17
100
AcDbEntity
  8
0
100
AcDbLine
 10
769.7102122340448
 20
77.40916721210704
 30
0.0
 11
759.7102122340448
 21
67.40916721210891
 31
0.0
  0
LINE
  5
2BF
330
17
100
AcDbEntity
  8
0
100
AcDbLine
 10
77.26092438197927
 20
67.40916721210822
 30
0.0
 11
87.26092438197563
 21
77.40916721210647
 31
0.0
  0
LINE
  5
2C0
330
17
100
AcDbEntity
  8
0
100
AcDbLine
 10
967.2590756180207
 20
67.40916721210822
 30
0.0
 11
957.2590756180243
 21
77.40916721210647
 31
0.0
  0
LINE
  5
2C1
330
17
100
AcDbEntity
  8
0
100
AcDbLine
 10
289.809787765957
 20
67.40916721210891
 30
0.0
 11
497.3097877668701
 21
67.40916721210965
 31
0.0
  0
LINE
  5
2C2
330
17
100
AcDbEntity
  8
0
100
AcDbLine
 10
754.710212234043
 20
67.40916721210891
 30
0.0
 11
547.2102122331298
 21
67.40916721210965
 31
0.0
  0
LINE
  5
2C3
330
17
100
AcDbEntity
  8
0
100
AcDbLine
 10
299.8097877659552
 20
77.40916721210715
 30
0.0
 11
487.3423633555786
 21
77.40916721210773
 31
0.0
  0
LINE
  5
2C4
330
17
100
AcDbEntity
  8
0
100
AcDbLine
 10
744.7102122340448
 20
77.40916721210715
 30
0.0
 11
557.1776366444213
 21
77.40916721210773
 31
0.0
  0
LINE
  5
2C5
330
17
100
AcDbEntity
  8
0
100
AcDbLine
 10
487.3423633555786
 20
77.40916721210773
 30
0.0
 11
497.3097877668701
 21
67.40916721210965
 31
0.0
  0
LINE
  5
2C6
330
17
100
AcDbEntity
  8
0
100
AcDbLine
 10
557.1776366444213
 20
77.40916721210773
 30
0.0
 11
547.2102122331298
 21
67.40916721210965
 31
0.0
  0
LINE
  5
2C7
330
17
100
AcDbEntity
  8
0
100
AcDbLine
 10
289.809787765957
 20
67.40916721210891
 30
0.0
 11
299.8097877659534
 21
77.40916721210715
 31
0.0
  0
LINE
  5
2C8
330
17
100
AcDbEntity
  8
0
100
AcDbLine
 10
754.710212234043
 20
67.40916721210891
 30
0.0
 11
744.7102122340466
 21
77.40916721210715
 31
0.0
  0
ARC
  5
2C9
330
17
100
AcDbEntity
  8
0
100
AcDbCircle
 10
338.18174272019115
 20
666.2497707540265
 30
0.0
 40
154.4301502467036
100
AcDbArc
 50
18.145671431375227
 51
41.85432856862805
  0
ARC
  5
2CA
330
17
100
AcDbEntity
  8
0
100
AcDbCircle
 10
706.3382572798087
 20
666.2497707540265
 30
0.0
 40
154.4301502467036
100
AcDbArc
 50
138.14567143137197
 51
161.85432856862477
  0
ARC
  5
2CB
330
17
100
AcDbEntity
  8
0
100
AcDbCircle
 10
373.9345478634025
 20
753.3634154901424
 30
0.0
 40
80.8578789458204
100
AcDbArc
 50
344.6067500470641
 51
11.360987890484935
  0
ARC
  5
2CC
330
17
100
AcDbEntity
  8
0
100
AcDbCircle
 10
670.5854521365974
 20
753.3634154901426
 30
0.0
 40
80.8578789458204
100
AcDbArc
 50
168.63901210951522
 51
195.3932499529361
  0
ARC
  5
2CD
330
17
100
AcDbEntity
  8
0
100
AcDbCircle
 10
431.5007746494716
 20
653.6557858966239
 30
0.0
 40
70.85787894582039
100
AcDbArc
 50
3.0095785738631493
 51
84.33286834803596
  0
ARC
  5
2CE
330
17
100
AcDbEntity
  8
0
100
AcDbCircle
 10
613.0192253505282
 20
653.6557858966239
 30
0.0
 40
70.85787894582039
100
AcDbArc
 50
95.66713165196396
 51
176.99042142613686
  0
ARC
  5
2CF
330
17
100
AcDbEntity
  8
0
100
AcDbCircle
 10
431.50077464947066
 20
653.655785896599
 30
0.0
 40
80.85787894582037
100
AcDbArc
 50
48.63901210946559
 51
75.39324995291554
  0
ARC
  5
2D0
330
17
100
AcDbEntity
  8
0
100
AcDbCircle
 10
613.0192253505289
 20
653.6557858965989
 30
0.0
 40
80.85787894582037
100
AcDbArc
 50
104.60675004708423
 51
131.36098789053423
  0
LINE
  5
2D1
330
17
100
AcDbEntity
  8
0
100
AcDbLine
 10
451.8917864741729
 20
731.9002951249327
 30
0.0
 11
438.4979128869331
 21
724.1673386038514
 31
0.0
  0
LINE
  5
2D2
330
17
100
AcDbEntity
  8
0
100
AcDbLine
 10
592.628213525827
 20
731.9002951249327
 30
0.0
 11
606.0220871130668
 21
724.1673386038514
 31
0.0
  0
ARC
  5
2D3
330
17
100
AcDbEntity
  8
0
100
AcDbCircle
 10
407.7633720391396
 20
659.6165651024547
 30
0.0
 40
94.60502900024575
100
AcDbArc
 50
2.731358573290332
 51
35.344364374809814
  0
ARC
  5
2D4
330
17
100
AcDbEntity
  8
0
100
AcDbCircle
 10
636.7566279608603
 20
659.6165651024548
 30
0.0
 40
94.60502900024575
100
AcDbArc
 50
144.65563562519026
 51
177.26864142670973
  0
LINE
  5
2D5
330
17
100
AcDbEntity
  8
0
100
AcDbLine
 10
448.2939325898374
 20
948.1507484753505
 30
0.0
 11
414.9217156791532
 21
972.2994069191869
 31
0.0
  0
LINE
  5
2D6
330
17
100
AcDbEntity
  8
0
100
AcDbLine
 10
596.2266836648188
 20
948.1507484754092
 30
0.0
 11
629.5989005755047
 21
972.2994069192172
 31
0.0
  0
LINE
  5
2D7
330
17
100
AcDbEntity
  8
0
100
AcDbLine
 10
287.3097877659607
 20
762.5320321227839
 30
0.0
 11
287.3097877659788
 21
741.1338184474191
 31
0.0
  0
LINE
  5
2D8
330
17
100
AcDbEntity
  8
0
100
AcDbLine
 10
757.2102122340393
 20
762.5320321227839
 30
0.0
 11
757.2102122340211
 21
741.1338184474191
 31
0.0
  0
LINE
  5
2D9
330
17
100
AcDbEntity
  8
0
100
AcDbLine
 10
299.9877123052052
 20
781.1747915315834
 30
0.0
 11
325.7932054503458
 21
794.9612554644143
 31
0.0
  0
LINE
  5
2DA
330
17
100
AcDbEntity
  8
0
100
AcDbLine
 10
744.5322876947948
 20
781.1747915315834
 30
0.0
 11
718.7267945496542
 21
794.9612554644143
 31
0.0
  0
LINE
  5
2DB
330
17
100
AcDbEntity
  8
0
100
AcDbLine
 10
274.6372345757759
 20
781.1678295858857
 30
0.0
 11
248.8557460880497
 21
794.9331435675285
 31
0.0
  0
LINE
  5
2DC
330
17
100
AcDbEntity
  8
0
100
AcDbLine
 10
769.8827654242241
 20
781.1678295858857
 30
0.0
 11
795.6642539119503
 21
794.9331435675285
 31
0.0
  0
LINE
  5
2DD
330
17
100
AcDbEntity
  8
0
100
AcDbLine
 10
157.9321316220998
 20
837.2198081308184
 30
0.0
 11
169.4448917725699
 21
831.3048869894034
 31
0.0
  0
LINE
  5
2DE
330
17
100
AcDbEntity
  8
0
100
AcDbLine
 10
886.5878683779001
 20
837.2198081308184
 30
0.0
 11
875.0751082274301
 21
831.3048869894034
 31
0.0
  0
LINE
  5
2DF
330
17
100
AcDbEntity
  8
0
100
AcDbLine
 10
416.5976819227185
 20
837.2609963471999
 30
0.0
 11
405.0856385734337
 21
831.3410008790917
 31
0.0
  0
LINE
  5
2E0
330
17
100
AcDbEntity
  8
0
100
AcDbLine
 10
627.9223180772815
 20
837.2609963471999
 30
0.0
 11
639.4343614265663
 21
831.3410008790917
 31
0.0
  0
ARC
  5
2E1
330
17
100
AcDbEntity
  8
0
100
AcDbCircle
 10
442.20516173418474
 20
772.9021856872907
 30
0.0
 40
317.2698190416745
100
AcDbArc
 50
142.1029221313009
 51
152.84621011032783
  0
ARC
  5
2E2
330
17
100
AcDbEntity
  8
0
100
AcDbCircle
 10
602.3148382658153
 20
772.9021856872905
 30
0.0
 40
317.2698190416745
100
AcDbArc
 50
27.153789889672215
 51
37.89707786869915
  0
ARC
  5
2E3
330
17
100
AcDbEntity
  8
0
100
AcDbCircle
 10
292.96645915073816
 20
680.3261581103462
 30
0.0
 40
226.0237748553403
100
AcDbArc
 50
150.4340264057286
 51
163.73696417818917
  0
ARC
  5
2E4
330
17
100
AcDbEntity
  8
0
100
AcDbCircle
 10
751.553540849262
 20
680.3261581103458
 30
0.0
 40
226.0237748553403
100
AcDbArc
 50
16.263035821810963
 51
29.56597359427154
  0
ARC
  5
2E5
330
17
100
AcDbEntity
  8
0
100
AcDbCircle
 10
359.08045573401876
 20
713.0083902889356
 30
0.0
 40
143.6043519628607
100
AcDbArc
 50
11.149745519866975
 51
31.59579019103308
  0
ARC
  5
2E6
330
17
100
AcDbEntity
  8
0
100
AcDbCircle
 10
685.4395442659812
 20
713.0083902889356
 30
0.0
 40
143.6043519628607
100
AcDbArc
 50
148.4042098089669
 51
168.85025448013303
  0
ARC
  5
2E7
330
17
100
AcDbEntity
  8
0
100
AcDbCircle
 10
133.95885435368413
 20
768.7003420146602
 30
0.0
 40
320.993088849083
100
AcDbArc
 50
30.41951180083832
 51
44.68719265570638
  0
ARC
  5
2E8
330
17
100
AcDbEntity
  8
0
100
AcDbCircle
 10
910.5611456463155
 20
768.7003420146599
 30
0.0
 40
320.993088849083
100
AcDbArc
 50
135.31280734429353
 51
149.58048819916155
  0
LINE
  5
2E9
330
17
100
AcDbEntity
  8
0
100
AcDbLine
 10
297.1945525110755
 20
1418.494442403089
 30
0.0
 11
322.7082295822206
 21
1425.73985910089
 31
0.0
  0
LINE
  5
2EA
330
17
100
AcDbEntity
  8
0
100
AcDbLine
 10
747.3254474889245
 20
1418.494442403089
 30
0.0
 11
721.8117704177794
 21
1425.73985910089
 31
0.0
  0
LINE
  5
2EB
330
17
100
AcDbEntity
  8
0
100
AcDbLine
 10
304.4210284089445
 20
1410.15121863765
 30
0.0
 11
329.11439974215
 21
1417.163683539659
 31
0.0
  0
LINE
  5
2EC
330
17
100
AcDbEntity
  8
0
100
AcDbLine
 10
740.0989715910555
 20
1410.15121863765
 30
0.0
 11
715.40560025785
 21
1417.163683539659
 31
0.0
  0
LINE
  5
2ED
330
17
100
AcDbEntity
  8
0
100
AcDbLine
 10
294.462753959348
 20
1428.114072160662
 30
0.0
 11
323.6508026386951
 21
1436.402943054805
 31
0.0
  0
LINE
  5
2EE
330
17
100
AcDbEntity
  8
0
100
AcDbLine
 10
750.057246040652
 20
1428.114072160662
 30
0.0
 11
720.8691973613049
 21
1436.402943054805
 31
0.0
  0
ARC
  5
2EF
330
17
100
AcDbEntity
  8
0
100
AcDbCircle
 10
1480.563273965471
 20
762.0085552685487
 30
0.0
 40
1428.338582627679
100
AcDbArc
 50
173.20386431363917
 51
180.40810825163967
  0
ARC
  5
2F0
330
17
100
AcDbEntity
  8
0
100
AcDbCircle
 10
-436.04327396547103
 20
762.0085552685482
 30
0.0
 40
1428.338582627679
100
AcDbArc
 50
359.59189174836035
 51
6.796135686360848
  0
LINE
  5
2F1
330
17
100
AcDbEntity
  8
0
100
AcDbLine
 10
370.2729583299865
 20
1407.893633540263
 30
0.0
 11
349.6438492788207
 21
1421.555311739973
 31
0.0
  0
LINE
  5
2F2
330
17
100
AcDbEntity
  8
0
100
AcDbLine
 10
674.2470416700135
 20
1407.893633540263
 30
0.0
 11
694.8761507211793
 21
1421.555311739973
 31
0.0
  0
LINE
  5
2F3
330
17
100
AcDbEntity
  8
0
100
AcDbLine
 10
375.7944551223268
 20
1416.231083580425
 30
0.0
 11
351.9807235353223
 21
1432.001785886035
 31
0.0
  0
LINE
  5
2F4
330
17
100
AcDbEntity
  8
0
100
AcDbLine
 10
668.7255448776732
 20
1416.231083580425
 30
0.0
 11
692.5392764646776
 21
1432.001785886035
 31
0.0
  0
LINE
  5
2F5
330
17
100
AcDbEntity
  8
0
100
AcDbLine
 10
352.711519446781
 20
1407.529664758094
 30
0.0
 11
340.9377299506437
 21
1415.326885805711
 31
0.0
  0
LINE
  5
2F6
330
17
100
AcDbEntity
  8
0
100
AcDbLine
 10
691.8084805532189
 20
1407.529664758094
 30
0.0
 11
703.5822700493563
 21
1415.326885805711
 31
0.0
  0
LINE
  5
2F7
330
17
100
AcDbEntity
  8
0
100
AcDbLine
 10
478.9986414475647
 20
1472.409167212048
 30
0.0
 11
522.26
 21
1482.4091672121976
 31
0.0
  0
LINE
  5
2F8
330
17
100
AcDbEntity
  8
0
100
AcDbLine
 10
565.5213585524352
 20
1472.409167212048
 30
0.0
 11
522.26
 21
1482.4091672121976
 31
0.0
  0
LINE
  5
2F9
330
17
100
AcDbEntity
  8
0
100
AcDbLine
 10
246.7855488389582
 20
1472.409167212048
 30
0.0
 11
204.0256065977724
 21
1482.409167212048
 31
0.0
  0
LINE
  5
2FA
330
17
100
AcDbEntity
  8
0
100
AcDbLine
 10
797.7344511610418
 20
1472.409167212048
 30
0.0
 11
840.4943934022276
 21
1482.409167212048
 31
0.0
  0
LINE
  5
2FB
330
17
100
AcDbEntity
  8
0
100
AcDbLine
 10
300.1580408269606
 20
1345.745928665353
 30
0.0
 11
278.7837439765048
 21
1310.758578297888
 31
0.0
  0
LINE
  5
2FC
330
17
100
AcDbEntity
  8
0
100
AcDbLine
 10
744.3619591730394
 20
1345.745928665353
 30
0.0
 11
765.7362560234951
 21
1310.758578297888
 31
0.0
  0
ARC
  5
300
330
17
100
AcDbEntity
  8
0
100
AcDbCircle
 10
337.1376742185789
 20
1429.837556928482
 30
0.0
 40
15.0
100
AcDbArc
 50
8.2956995938868
 51
47.975214413133166
  0
ARC
  5
301
330
17
100
AcDbEntity
  8
0
100
AcDbCircle
 10
337.1376742185789
 20
1429.837556928482
 30
0.0
 40
15.0
100
AcDbArc
 50
47.975214413133166
 51
89.78552930890598
  0
ARC
  5
302
330
17
100
AcDbEntity
  8
0
100
AcDbCircle
 10
337.1376742185789
 20
1429.837556928482
 30
0.0
 40
15.0
100
AcDbArc
 50
89.78552930890598
 51
131.5958442046837
  0
ARC
  5
303
330
17
100
AcDbEntity
  8
0
100
AcDbCircle
 10
337.1376742185789
 20
1429.837556928482
 30
0.0
 40
15.0
100
AcDbArc
 50
131.5958442046837
 51
154.0432598420018
  0
ARC
  5
304
330
17
100
AcDbEntity
  8
0
100
AcDbCircle
 10
337.1376742185789
 20
1429.837556928482
 30
0.0
 40
15.0
100
AcDbArc
 50
154.0432598420018
 51
195.8535747377816
  0
ARC
  5
305
330
17
100
AcDbEntity
  8
0
100
AcDbCircle
 10
337.1376742185789
 20
1429.837556928482
 30
0.0
 40
15.0
100
AcDbArc
 50
195.8535747377816
 51
237.66388963355882
  0
ARC
  5
306
330
17
100
AcDbEntity
  8
0
100
AcDbCircle
 10
337.1376742185789
 20
1429.837556928482
 30
0.0
 40
15.0
100
AcDbArc
 50
237.66388963355882
 51
284.67506980232514
  0
ARC
  5
307
330
17
100
AcDbEntity
  8
0
100
AcDbCircle
 10
337.1376742185789
 20
1429.837556928482
 30
0.0
 40
15.0
100
AcDbArc
 50
284.67506980232514
 51
326.48538469810546
  0
ARC
  5
308
330
17
100
AcDbEntity
  8
0
100
AcDbCircle
 10
337.1376742185789
 20
1429.837556928482
 30
0.0
 40
15.0
100
AcDbArc
 50
326.48538469810546
 51
8.2956995938868
  0
ARC
  5
309
330
17
100
AcDbEntity
  8
0
100
AcDbCircle
 10
707.3823257814211
 20
1429.837556928482
 30
0.0
 40
15.0
100
AcDbArc
 50
25.956740157998123
 51
48.40415579531616
  0
ARC
  5
30A
330
17
100
AcDbEntity
  8
0
100
AcDbCircle
 10
707.3823257814211
 20
1429.837556928482
 30
0.0
 40
15.0
100
AcDbArc
 50
48.40415579531616
 51
90.21447069109404
  0
ARC
  5
30B
330
17
100
AcDbEntity
  8
0
100
AcDbCircle
 10
707.3823257814211
 20
1429.837556928482
 30
0.0
 40
15.0
100
AcDbArc
 50
90.21447069109404
 51
132.02478558686684
  0
ARC
  5
30C
330
17
100
AcDbEntity
  8
0
100
AcDbCircle
 10
707.3823257814211
 20
1429.837556928482
 30
0.0
 40
15.0
100
AcDbArc
 50
132.02478558686684
 51
171.70430040611322
  0
ARC
  5
30D
330
17
100
AcDbEntity
  8
0
100
AcDbCircle
 10
707.3823257814211
 20
1429.837556928482
 30
0.0
 40
15.0
100
AcDbArc
 50
171.70430040611322
 51
213.51461530189465
  0
ARC
  5
30E
330
17
100
AcDbEntity
  8
0
100
AcDbCircle
 10
707.3823257814211
 20
1429.837556928482
 30
0.0
 40
15.0
100
AcDbArc
 50
213.51461530189465
 51
255.32493019767506
  0
ARC
  5
30F
330
17
100
AcDbEntity
  8
0
100
AcDbCircle
 10
707.3823257814211
 20
1429.837556928482
 30
0.0
 40
15.0
100
AcDbArc
 50
255.32493019767506
 51
302.3361103664411
  0
ARC
  5
310
330
17
100
AcDbEntity
  8
0
100
AcDbCircle
 10
707.3823257814211
 20
1429.837556928482
 30
0.0
 40
15.0
100
AcDbArc
 50
302.3361103664411
 51
344.1464252622184
  0
ARC
  5
311
330
17
100
AcDbEntity
  8
0
100
AcDbCircle
 10
707.3823257814211
 20
1429.837556928482
 30
0.0
 40
15.0
100
AcDbArc
 50
344.1464252622184
 51
25.956740157998123
  0
ARC
  5
312
330
17
100
AcDbEntity
  8
0
100
AcDbCircle
 10
116.3340908708764
 20
1186.957959683953
 30
0.0
 40
15.0
100
AcDbArc
 50
8.834146257067747
 51
38.739116181581046
  0
ARC
  5
313
330
17
100
AcDbEntity
  8
0
100
AcDbCircle
 10
116.3340908708764
 20
1186.957959683953
 30
0.0
 40
15.0
100
AcDbArc
 50
38.739116181581046
 51
80.54943107736209
  0
ARC
  5
314
330
17
100
AcDbEntity
  8
0
100
AcDbCircle
 10
116.3340908708764
 20
1186.957959683953
 30
0.0
 40
15.0
100
AcDbArc
 50
80.54943107736209
 51
122.35974597313745
  0
ARC
  5
315
330
17
100
AcDbEntity
  8
0
100
AcDbCircle
 10
116.3340908708764
 20
1186.957959683953
 30
0.0
 40
15.0
100
AcDbArc
 50
122.35974597313745
 51
138.18968510421922
  0
ARC
  5
316
330
17
100
AcDbEntity
  8
0
100
AcDbCircle
 10
116.3340908708764
 20
1186.957959683953
 30
0.0
 40
15.0
100
AcDbArc
 50
138.18968510421922
 51
180.0
  0
ARC
  5
317
330
17
100
AcDbEntity
  8
0
100
AcDbCircle
 10
116.3340908708764
 20
1186.957959683953
 30
0.0
 40
15.0
100
AcDbArc
 50
180.0
 51
221.81031489578078
  0
ARC
  5
318
330
17
100
AcDbEntity
  8
0
100
AcDbCircle
 10
116.3340908708764
 20
1186.957959683953
 30
0.0
 40
15.0
100
AcDbArc
 50
221.81031489578078
 51
285.2135164655139
  0
ARC
  5
319
330
17
100
AcDbEntity
  8
0
100
AcDbCircle
 10
116.3340908708764
 20
1186.957959683953
 30
0.0
 40
15.0
100
AcDbArc
 50
285.2135164655139
 51
327.0238313612919
  0
ARC
  5
31A
330
17
100
AcDbEntity
  8
0
100
AcDbCircle
 10
116.3340908708764
 20
1186.957959683953
 30
0.0
 40
15.0
100
AcDbArc
 50
327.0238313612919
 51
8.834146257067747
  0
ARC
  5
31B
330
17
100
AcDbEntity
  8
0
100
AcDbCircle
 10
928.1859091291236
 20
1186.957959683953
 30
0.0
 40
15.0
100
AcDbArc
 50
0.0
 51
41.810314895781
  0
ARC
  5
31C
330
17
100
AcDbEntity
  8
0
100
AcDbCircle
 10
928.1859091291236
 20
1186.957959683953
 30
0.0
 40
15.0
100
AcDbArc
 50
41.810314895781
 51
57.64025402686249
  0
ARC
  5
31D
330
17
100
AcDbEntity
  8
0
100
AcDbCircle
 10
928.1859091291236
 20
1186.957959683953
 30
0.0
 40
15.0
100
AcDbArc
 50
57.64025402686249
 51
99.45056892263808
  0
ARC
  5
31E
330
17
100
AcDbEntity
  8
0
100
AcDbCircle
 10
928.1859091291236
 20
1186.957959683953
 30
0.0
 40
15.0
100
AcDbArc
 50
99.45056892263808
 51
141.26088381841916
  0
ARC
  5
31F
330
17
100
AcDbEntity
  8
0
100
AcDbCircle
 10
928.1859091291236
 20
1186.957959683953
 30
0.0
 40
15.0
100
AcDbArc
 50
141.26088381841916
 51
171.1658537429323
  0
ARC
  5
320
330
17
100
AcDbEntity
  8
0
100
AcDbCircle
 10
928.1859091291236
 20
1186.957959683953
 30
0.0
 40
15.0
100
AcDbArc
 50
171.1658537429323
 51
212.9761686387081
  0
ARC
  5
321
330
17
100
AcDbEntity
  8
0
100
AcDbCircle
 10
928.1859091291236
 20
1186.957959683953
 30
0.0
 40
15.0
100
AcDbArc
 50
212.9761686387081
 51
254.7864835344859
  0
ARC
  5
322
330
17
100
AcDbEntity
  8
0
100
AcDbCircle
 10
928.1859091291236
 20
1186.957959683953
 30
0.0
 40
15.0
100
AcDbArc
 50
254.7864835344859
 51
318.189685104219
  0
ARC
  5
323
330
17
100
AcDbEntity
  8
0
100
AcDbCircle
 10
928.1859091291236
 20
1186.957959683953
 30
0.0
 40
15.0
100
AcDbArc
 50
318.189685104219
 51
0.0
  0
ENDSEC
  0
SECTION
  2
OBJECTS
  0
DICTIONARY
  5
A
330
0
100
AcDbDictionary
281
1
  3
ACAD_COLOR
350
B
  3
ACAD_GROUP
350
C
  3
ACAD_LAYOUT
350
D
  3
ACAD_MATERIAL
350
E
  3
ACAD_MLEADERSTYLE
350
F
  3
ACAD_MLINESTYLE
350
10
  3
ACAD_PLOTSETTINGS
350
11
  3
ACAD_PLOTSTYLENAME
350
12
  3
ACAD_SCALELIST
350
14
  3
ACAD_TABLESTYLE
350
15
  3
ACAD_VISUALSTYLE
350
16
  3
EZDXF_META
350
2D
  0
DICTIONARY
  5
B
330
A
100
AcDbDictionary
281
1
  0
DICTIONARY
  5
C
330
A
100
AcDbDictionary
281
1
  0
DICTIONARY
  5
D
330
A
100
AcDbDictionary
281
1
  3
Model
350
1A
  3
Layout1
350
1E
  0
DICTIONARY
  5
E
330
A
100
AcDbDictionary
281
1
  3
ByBlock
350
1F
  3
ByLayer
350
20
  3
Global
350
21
  0
DICTIONARY
  5
F
330
A
100
AcDbDictionary
281
1
  3
Standard
350
2C
  0
DICTIONARY
  5
10
330
A
100
AcDbDictionary
281
1
  3
Standard
350
22
  0
DICTIONARY
  5
11
330
A
100
AcDbDictionary
281
1
  0
ACDBDICTIONARYWDFLT
  5
12
330
A
100
AcDbDictionary
281
1
  3
Normal
350
13
100
AcDbDictionaryWithDefault
340
13
  0
ACDBPLACEHOLDER
  5
13
330
12
  0
DICTIONARY
  5
14
330
A
100
AcDbDictionary
281
1
  0
DICTIONARY
  5
15
330
A
100
AcDbDictionary
281
1
  0
DICTIONARY
  5
16
330
A
100
AcDbDictionary
281
1
  3
2dWireframe
350
5A
  3
Basic
350
5B
  3
Brighten
350
5C
  3
ColorChange
350
5D
  3
Conceptual
350
5E
  3
Dim
350
5F
  3
EdgeColorOff
350
60
  3
Facepattern
350
61
  3
Flat
350
62
  3
FlatWithEdges
350
63
  3
Gouraud
350
64
  3
GouraudWithEdges
350
65
  3
Hidden
350
66
  3
JitterOff
350
67
  3
Linepattern
350
68
  3
Modeling
350
69
  3
OverhangOff
350
6A
  3
Realistic
350
6B
  3
Shaded
350
6C
  3
Shaded with edges
350
6D
  3
Shades of Gray
350
6E
  3
Sketchy
350
6F
  3
Thicken
350
70
  3
Wireframe
350
71
  3
X-Ray
350
72
  0
LAYOUT
  5
1A
330
D
100
AcDbPlotSettings
  1

  4
A3
  6

 40
7.5
 41
20.0
 42
7.5
 43
20.0
 44
420.0
 45
297.0
 46
0.0
 47
0.0
 48
0.0
 49
0.0
140
0.0
141
0.0
142
1.0
143
1.0
 70
1024
 72
1
 73
0
 74
5
  7

 75
16
 76
0
 77
2
 78
300
147
1.0
148
0.0
149
0.0
100
AcDbLayout
  1
Model
 70
1
 71
0
 10
0.0
 20
0.0
 11
420.0
 21
297.0
 12
0.0
 22
0.0
 32
0.0
 14
1e+20
 24
1e+20
 34
1e+20
 15
-1e+20
 25
-1e+20
 35
-1e+20
146
0.0
 13
0.0
 23
0.0
 33
0.0
 16
1.0
 26
0.0
 36
0.0
 17
0.0
 27
1.0
 37
0.0
 76
1
330
17
  0
LAYOUT
  5
1E
330
D
100
AcDbPlotSettings
  1

  4
A3
  6

 40
7.5
 41
20.0
 42
7.5
 43
20.0
 44
420.0
 45
297.0
 46
0.0
 47
0.0
 48
0.0
 49
0.0
140
0.0
141
0.0
142
1.0
143
1.0
 70
0
 72
1
 73
0
 74
5
  7

 75
16
 76
0
 77
2
 78
300
147
1.0
148
0.0
149
0.0
100
AcDbLayout
  1
Layout1
 70
1
 71
1
 10
0.0
 20
0.0
 11
420.0
 21
297.0
 12
0.0
 22
0.0
 32
0.0
 14
1e+20
 24
1e+20
 34
1e+20
 15
-1e+20
 25
-1e+20
 35
-1e+20
146
0.0
 13
0.0
 23
0.0
 33
0.0
 16
1.0
 26
0.0
 36
0.0
 17
0.0
 27
1.0
 37
0.0
 76
1
330
1B
  0
MATERIAL
  5
1F
102
{ACAD_REACTORS
330
E
102
}
330
E
100
AcDbMaterial
  1
ByBlock
  2

 70
0
 40
1.0
 71
1
 41
1.0
 91
-1023410177
 42
1.0
 72
1
  3

 73
1
 74
1
 75
1
 44
0.5
 73
0
 45
1.0
 46
1.0
 77
1
  4

 78
1
 79
1
170
1
 48
1.0
171
1
  6

172
1
173
1
174
1
140
1.0
141
1.0
175
1
  7

176
1
177
1
178
1
143
1.0
179
1
  8

270
1
271
1
272
1
145
1.0
146
1.0
273
1
  9

274
1
275
1
276
1
 42
1.0
 72
1
  3

 73
1
 74
1
 75
1
 94
63
  0
MATERIAL
  5
20
102
{ACAD_REACTORS
330
E
102
}
330
E
100
AcDbMaterial
  1
ByLayer
  2

 70
0
 40
1.0
 71
1
 41
1.0
 91
-1023410177
 42
1.0
 72
1
  3

 73
1
 74
1
 75
1
 44
0.5
 73
0
 45
1.0
 46
1.0
 77
1
  4

 78
1
 79
1
170
1
 48
1.0
171
1
  6

172
1
173
1
174
1
140
1.0
141
1.0
175
1
  7

176
1
177
1
178
1
143
1.0
179
1
  8

270
1
271
1
272
1
145
1.0
146
1.0
273
1
  9

274
1
275
1
276
1
 42
1.0
 72
1
  3

 73
1
 74
1
 75
1
 94
63
  0
MATERIAL
  5
21
102
{ACAD_REACTORS
330
E
102
}
330
E
100
AcDbMaterial
  1
Global
  2

 70
0
 40
1.0
 71
1
 41
1.0
 91
-1023410177
 42
1.0
 72
1
  3

 73
1
 74
1
 75
1
 44
0.5
 73
0
 45
1.0
 46
1.0
 77
1
  4

 78
1
 79
1
170
1
 48
1.0
171
1
  6

172
1
173
1
174
1
140
1.0
141
1.0
175
1
  7

176
1
177
1
178
1
143
1.0
179
1
  8

270
1
271
1
272
1
145
1.0
146
1.0
273
1
  9

274
1
275
1
276
1
 42
1.0
 72
1
  3

 73
1
 74
1
 75
1
 94
63
  0
MLINESTYLE
  5
22
102
{ACAD_REACTORS
330
10
102
}
330
10
100
AcDbMlineStyle
  2
Standard
 70
0
  3

 62
256
 51
90.0
 52
90.0
 71
2
 49
0.5
 62
256
  6
BYLAYER
 49
-0.5
 62
256
  6
BYLAYER
  0
MLEADERSTYLE
  5
2C
102
{ACAD_REACTORS
330
F
102
}
330
F
100
AcDbMLeaderStyle
179
2
170
2
171
1
172
0
 90
2
 40
0.0
 41
0.0
173
1
 91
-1056964608
 92
-2
290
1
 42
2.0
291
1
 43
8.0
  3
Standard
 44
4.0
300

342
29
174
1
175
1
176
0
178
1
 93
-1056964608
 45
4.0
292
0
297
0
 46
4.0
 94
-1056964608
 47
1.0
 49
1.0
140
1.0
294
1
141
0.0
177
0
142
1.0
295
0
296
0
143
3.75
271
0
272
9
273
9
  0
DICTIONARY
  5
2D
330
A
100
AcDbDictionary
280
1
281
1
  3
CREATED_BY_EZDXF
350
2E
  3
WRITTEN_BY_EZDXF
350
2FF
  0
DICTIONARYVAR
  5
2E
330
2D
100
DictionaryVariables
280
0
  1
1.4.4 @ 2026-07-30T19:55:25.448159+00:00
  0
VISUALSTYLE
  5
5A
102
{ACAD_REACTORS
330
16
102
}
330
16
100
AcDbVisualStyle
  2
2dWireframe
 70
4
177
3
291
0
 70
58
 90
2
176
1
 90
2
176
1
 90
0
176
1
 90
0
176
1
 40
0.6
176
1
 40
30.0
176
1
 62
7
420
16777215
176
1
 90
1
176
1
 90
4
176
1
 62
7
176
1
 62
257
176
1
 90
1
176
1
 90
1
176
1
 40
1.0
176
1
 90
8
176
1
 62
7
176
1
 40
1.0
176
1
 90
1
176
1
 90
6
176
1
 90
2
176
1
 62
7
176
1
 90
5
176
1
 90
0
176
1
 90
0
176
1
290
0
176
1
 90
1
176
1
 40
0.0
176
1
 90
0
176
1
290
1
176
1
290
1
176
1
290
0
176
1
290
0
176
1
290
0
176
1
290
0
176
1
290
0
176
1
290
0
176
1
290
0
176
1
 90
50
176
1
 40
0.0
176
1
 40
1.0
176
1
 90
0
176
1
 62
18
420
0
176
1
 90
50
176
1
 90
3
176
1
 62
5
420
255
176
1
290
0
176
1
 90
50
176
1
 90
50
176
1
 90
50
176
1
290
0
176
1
 90
50
176
1
 62
256
176
0
 40
1.0
176
0
 90
2
176
1
  1
strokes_ogs.tif
176
1
290
0
176
1
 40
1.0
176
1
 40
1.0
176
1
  0
VISUALSTYLE
  5
5B
102
{ACAD_REACTORS
330
16
102
}
330
16
100
AcDbVisualStyle
  2
Basic
 70
7
177
3
291
1
 70
58
 90
2
176
1
 90
2
176
1
 90
0
176
1
 90
1
176
1
 40
0.6
176
1
 40
30.0
176
1
 62
7
420
16777215
176
1
 90
1
176
1
 90
4
176
1
 62
7
176
1
 62
257
176
1
 90
1
176
1
 90
1
176
1
 40
1.0
176
1
 90
8
176
1
 62
7
176
1
 40
1.0
176
1
 90
1
176
1
 90
6
176
1
 90
2
176
1
 62
7
176
1
 90
5
176
1
 90
0
176
1
 90
0
176
1
290
0
176
1
 90
1
176
1
 40
0.0
176
1
 90
0
176
1
290
0
176
1
290
1
176
1
290
1
176
1
290
0
176
1
290
0
176
1
290
0
176
1
290
0
176
1
290
0
176
1
290
0
176
1
 90
50
176
1
 40
0.0
176
1
 40
1.0
176
1
 90
0
176
1
 62
18
420
0
176
1
 90
50
176
1
 90
3
176
1
 62
5
420
255
176
1
290
0
176
1
 90
50
176
1
 90
50
176
1
 90
50
176
1
290
0
176
1
 90
50
176
1
 62
256
176
0
 40
1.0
176
0
 90
2
176
1
  1
strokes_ogs.tif
176
1
290
0
176
1
 40
1.0
176
1
 40
1.0
176
1
  0
VISUALSTYLE
  5
5C
102
{ACAD_REACTORS
330
16
102
}
330
16
100
AcDbVisualStyle
  2
Brighten
 70
12
177
3
291
1
 70
58
 90
2
176
1
 90
2
176
1
 90
0
176
1
 90
2
176
1
 40
0.6
176
1
 40
30.0
176
1
 62
7
420
16777215
176
1
 90
1
176
1
 90
4
176
1
 62
7
176
1
 62
257
176
1
 90
1
176
1
 90
1
176
1
 40
1.0
176
1
 90
8
176
1
 62
7
176
1
 40
1.0
176
1
 90
1
176
1
 90
6
176
1
 90
2
176
1
 62
7
176
1
 90
5
176
1
 90
0
176
1
 90
0
176
1
290
0
176
1
 90
1
176
1
 40
0.0
176
1
 90
0
176
1
290
0
176
1
290
1
176
1
290
1
176
1
290
0
176
1
290
0
176
1
290
0
176
1
290
0
176
1
290
0
176
1
290
0
176
1
 90
50
176
1
 40
0.0
176
1
 40
1.0
176
1
 90
0
176
1
 62
18
420
0
176
1
 90
50
176
1
 90
3
176
1
 62
5
420
255
176
1
290
0
176
1
 90
50
176
1
 90
50
176
1
 90
50
176
1
290
0
176
1
 90
50
176
1
 62
256
176
0
 40
1.0
176
0
 90
2
176
1
  1
strokes_ogs.tif
176
1
290
0
176
1
 40
1.0
176
1
 40
1.0
176
1
  0
VISUALSTYLE
  5
5D
102
{ACAD_REACTORS
330
16
102
}
330
16
100
AcDbVisualStyle
  2
ColorChange
 70
16
177
3
291
1
 70
58
 90
2
176
1
 90
2
176
1
 90
0
176
1
 90
2
176
1
 40
0.6
176
1
 40
30.0
176
1
 62
7
420
16777215
176
1
 90
1
176
1
 90
4
176
1
 62
7
176
1
 62
257
176
1
 90
1
176
1
 90
1
176
1
 40
1.0
176
1
 90
8
176
1
 62
7
176
1
 40
1.0
176
1
 90
1
176
1
 90
6
176
1
 90
2
176
1
 62
7
176
1
 90
5
176
1
 90
0
176
1
 90
0
176
1
290
0
176
1
 90
1
176
1
 40
0.0
176
1
 90
0
176
1
290
0
176
1
290
1
176
1
290
1
176
1
290
0
176
1
290
0
176
1
290
0
176
1
290
0
176
1
290
0
176
1
290
0
176
1
 90
50
176
1
 40
0.0
176
1
 40
1.0
176
1
 90
0
176
1
 62
18
420
0
176
1
 90
50
176
1
 90
3
176
1
 62
5
420
255
176
1
290
0
176
1
 90
50
176
1
 90
50
176
1
 90
50
176
1
290
0
176
1
 90
50
176
1
 62
256
176
0
 40
1.0
176
0
 90
2
176
1
  1
strokes_ogs.tif
176
1
290
0
176
1
 40
1.0
176
1
 40
1.0
176
1
  0
VISUALSTYLE
  5
5E
102
{ACAD_REACTORS
330
16
102
}
330
16
100
AcDbVisualStyle
  2
Conceptual
 70
9
177
3
291
0
 70
58
 90
2
176
1
 90
2
176
1
 90
0
176
1
 90
3
176
1
 40
0.6
176
1
 40
30.0
176
1
 62
7
420
16777215
176
1
 90
1
176
1
 90
4
176
1
 62
7
176
1
 62
257
176
1
 90
1
176
1
 90
1
176
1
 40
1.0
176
1
 90
8
176
1
 62
7
176
1
 40
1.0
176
1
 90
1
176
1
 90
6
176
1
 90
2
176
1
 62
7
176
1
 90
5
176
1
 90
0
176
1
 90
0
176
1
290
0
176
1
 90
1
176
1
 40
0.0
176
1
 90
0
176
1
290
0
176
1
290
1
176
1
290
1
176
1
290
0
176
1
290
0
176
1
290
0
176
1
290
0
176
1
290
0
176
1
290
0
176
1
 90
50
176
1
 40
0.0
176
1
 40
1.0
176
1
 90
0
176
1
 62
18
420
0
176
1
 90
50
176
1
 90
3
176
1
 62
5
420
255
176
1
290
0
176
1
 90
50
176
1
 90
50
176
1
 90
50
176
1
290
0
176
1
 90
50
176
1
 62
256
176
0
 40
1.0
176
0
 90
2
176
1
  1
strokes_ogs.tif
176
1
290
0
176
1
 40
1.0
176
1
 40
1.0
176
1
  0
VISUALSTYLE
  5
5F
102
{ACAD_REACTORS
330
16
102
}
330
16
100
AcDbVisualStyle
  2
Dim
 70
11
177
3
291
1
 70
58
 90
2
176
1
 90
2
176
1
 90
0
176
1
 90
2
176
1
 40
0.6
176
1
 40
30.0
176
1
 62
7
420
16777215
176
1
 90
1
176
1
 90
4
176
1
 62
7
176
1
 62
257
176
1
 90
1
176
1
 90
1
176
1
 40
1.0
176
1
 90
8
176
1
 62
7
176
1
 40
1.0
176
1
 90
1
176
1
 90
6
176
1
 90
2
176
1
 62
7
176
1
 90
5
176
1
 90
0
176
1
 90
0
176
1
290
0
176
1
 90
1
176
1
 40
0.0
176
1
 90
0
176
1
290
0
176
1
290
1
176
1
290
1
176
1
290
0
176
1
290
0
176
1
290
0
176
1
290
0
176
1
290
0
176
1
290
0
176
1
 90
50
176
1
 40
0.0
176
1
 40
1.0
176
1
 90
0
176
1
 62
18
420
0
176
1
 90
50
176
1
 90
3
176
1
 62
5
420
255
176
1
290
0
176
1
 90
50
176
1
 90
50
176
1
 90
50
176
1
290
0
176
1
 90
50
176
1
 62
256
176
0
 40
1.0
176
0
 90
2
176
1
  1
strokes_ogs.tif
176
1
290
0
176
1
 40
1.0
176
1
 40
1.0
176
1
  0
VISUALSTYLE
  5
60
102
{ACAD_REACTORS
330
16
102
}
330
16
100
AcDbVisualStyle
  2
EdgeColorOff
 70
22
177
3
291
1
 70
58
 90
2
176
1
 90
2
176
1
 90
0
176
1
 90
2
176
1
 40
0.6
176
1
 40
30.0
176
1
 62
7
420
16777215
176
1
 90
1
176
1
 90
4
176
1
 62
7
176
1
 62
257
176
1
 90
1
176
1
 90
1
176
1
 40
1.0
176
1
 90
8
176
1
 62
7
176
1
 40
1.0
176
1
 90
1
176
1
 90
6
176
1
 90
2
176
1
 62
7
176
1
 90
5
176
1
 90
0
176
1
 90
0
176
1
290
0
176
1
 90
1
176
1
 40
0.0
176
1
 90
0
176
1
290
0
176
1
290
1
176
1
290
1
176
1
290
0
176
1
290
0
176
1
290
0
176
1
290
0
176
1
290
0
176
1
290
0
176
1
 90
50
176
1
 40
0.0
176
1
 40
1.0
176
1
 90
0
176
1
 62
18
420
0
176
1
 90
50
176
1
 90
3
176
1
 62
5
420
255
176
1
290
0
176
1
 90
50
176
1
 90
50
176
1
 90
50
176
1
290
0
176
1
 90
50
176
1
 62
256
176
0
 40
1.0
176
0
 90
2
176
1
  1
strokes_ogs.tif
176
1
290
0
176
1
 40
1.0
176
1
 40
1.0
176
1
  0
VISUALSTYLE
  5
61
102
{ACAD_REACTORS
330
16
102
}
330
16
100
AcDbVisualStyle
  2
Facepattern
 70
15
177
3
291
1
 70
58
 90
2
176
1
 90
2
176
1
 90
0
176
1
 90
2
176
1
 40
0.6
176
1
 40
30.0
176
1
 62
7
420
16777215
176
1
 90
1
176
1
 90
4
176
1
 62
7
176
1
 62
257
176
1
 90
1
176
1
 90
1
176
1
 40
1.0
176
1
 90
8
176
1
 62
7
176
1
 40
1.0
176
1
 90
1
176
1
 90
6
176
1
 90
2
176
1
 62
7
176
1
 90
5
176
1
 90
0
176
1
 90
0
176
1
290
0
176
1
 90
1
176
1
 40
0.0
176
1
 90
0
176
1
290
0
176
1
290
1
176
1
290
1
176
1
290
0
176
1
290
0
176
1
290
0
176
1
290
0
176
1
290
0
176
1
290
0
176
1
 90
50
176
1
 40
0.0
176
1
 40
1.0
176
1
 90
0
176
1
 62
18
420
0
176
1
 90
50
176
1
 90
3
176
1
 62
5
420
255
176
1
290
0
176
1
 90
50
176
1
 90
50
176
1
 90
50
176
1
290
0
176
1
 90
50
176
1
 62
256
176
0
 40
1.0
176
0
 90
2
176
1
  1
strokes_ogs.tif
176
1
290
0
176
1
 40
1.0
176
1
 40
1.0
176
1
  0
VISUALSTYLE
  5
62
102
{ACAD_REACTORS
330
16
102
}
330
16
100
AcDbVisualStyle
  2
Flat
 70
0
177
3
291
1
 70
58
 90
2
176
1
 90
2
176
1
 90
0
176
1
 90
2
176
1
 40
0.6
176
1
 40
30.0
176
1
 62
7
420
16777215
176
1
 90
1
176
1
 90
4
176
1
 62
7
176
1
 62
257
176
1
 90
1
176
1
 90
1
176
1
 40
1.0
176
1
 90
8
176
1
 62
7
176
1
 40
1.0
176
1
 90
1
176
1
 90
6
176
1
 90
2
176
1
 62
7
176
1
 90
5
176
1
 90
0
176
1
 90
0
176
1
290
0
176
1
 90
1
176
1
 40
0.0
176
1
 90
0
176
1
290
0
176
1
290
1
176
1
290
1
176
1
290
0
176
1
290
0
176
1
290
0
176
1
290
0
176
1
290
0
176
1
290
0
176
1
 90
50
176
1
 40
0.0
176
1
 40
1.0
176
1
 90
0
176
1
 62
18
420
0
176
1
 90
50
176
1
 90
3
176
1
 62
5
420
255
176
1
290
0
176
1
 90
50
176
1
 90
50
176
1
 90
50
176
1
290
0
176
1
 90
50
176
1
 62
256
176
0
 40
1.0
176
0
 90
2
176
1
  1
strokes_ogs.tif
176
1
290
0
176
1
 40
1.0
176
1
 40
1.0
176
1
  0
VISUALSTYLE
  5
63
102
{ACAD_REACTORS
330
16
102
}
330
16
100
AcDbVisualStyle
  2
FlatWithEdges
 70
1
177
3
291
1
 70
58
 90
2
176
1
 90
2
176
1
 90
0
176
1
 90
2
176
1
 40
0.6
176
1
 40
30.0
176
1
 62
7
420
16777215
176
1
 90
1
176
1
 90
4
176
1
 62
7
176
1
 62
257
176
1
 90
1
176
1
 90
1
176
1
 40
1.0
176
1
 90
8
176
1
 62
7
176
1
 40
1.0
176
1
 90
1
176
1
 90
6
176
1
 90
2
176
1
 62
7
176
1
 90
5
176
1
 90
0
176
1
 90
0
176
1
290
0
176
1
 90
1
176
1
 40
0.0
176
1
 90
0
176
1
290
0
176
1
290
1
176
1
290
1
176
1
290
0
176
1
290
0
176
1
290
0
176
1
290
0
176
1
290
0
176
1
290
0
176
1
 90
50
176
1
 40
0.0
176
1
 40
1.0
176
1
 90
0
176
1
 62
18
420
0
176
1
 90
50
176
1
 90
3
176
1
 62
5
420
255
176
1
290
0
176
1
 90
50
176
1
 90
50
176
1
 90
50
176
1
290
0
176
1
 90
50
176
1
 62
256
176
0
 40
1.0
176
0
 90
2
176
1
  1
strokes_ogs.tif
176
1
290
0
176
1
 40
1.0
176
1
 40
1.0
176
1
  0
VISUALSTYLE
  5
64
102
{ACAD_REACTORS
330
16
102
}
330
16
100
AcDbVisualStyle
  2
Gouraud
 70
2
177
3
291
1
 70
58
 90
2
176
1
 90
2
176
1
 90
0
176
1
 90
2
176
1
 40
0.6
176
1
 40
30.0
176
1
 62
7
420
16777215
176
1
 90
1
176
1
 90
4
176
1
 62
7
176
1
 62
257
176
1
 90
1
176
1
 90
1
176
1
 40
1.0
176
1
 90
8
176
1
 62
7
176
1
 40
1.0
176
1
 90
1
176
1
 90
6
176
1
 90
2
176
1
 62
7
176
1
 90
5
176
1
 90
0
176
1
 90
0
176
1
290
0
176
1
 90
1
176
1
 40
0.0
176
1
 90
0
176
1
290
0
176
1
290
1
176
1
290
1
176
1
290
0
176
1
290
0
176
1
290
0
176
1
290
0
176
1
290
0
176
1
290
0
176
1
 90
50
176
1
 40
0.0
176
1
 40
1.0
176
1
 90
0
176
1
 62
18
420
0
176
1
 90
50
176
1
 90
3
176
1
 62
5
420
255
176
1
290
0
176
1
 90
50
176
1
 90
50
176
1
 90
50
176
1
290
0
176
1
 90
50
176
1
 62
256
176
0
 40
1.0
176
0
 90
2
176
1
  1
strokes_ogs.tif
176
1
290
0
176
1
 40
1.0
176
1
 40
1.0
176
1
  0
VISUALSTYLE
  5
65
102
{ACAD_REACTORS
330
16
102
}
330
16
100
AcDbVisualStyle
  2
GouraudWithEdges
 70
3
177
3
291
1
 70
58
 90
2
176
1
 90
2
176
1
 90
0
176
1
 90
2
176
1
 40
0.6
176
1
 40
30.0
176
1
 62
7
420
16777215
176
1
 90
1
176
1
 90
4
176
1
 62
7
176
1
 62
257
176
1
 90
1
176
1
 90
1
176
1
 40
1.0
176
1
 90
8
176
1
 62
7
176
1
 40
1.0
176
1
 90
1
176
1
 90
6
176
1
 90
2
176
1
 62
7
176
1
 90
5
176
1
 90
0
176
1
 90
0
176
1
290
0
176
1
 90
1
176
1
 40
0.0
176
1
 90
0
176
1
290
0
176
1
290
1
176
1
290
1
176
1
290
0
176
1
290
0
176
1
290
0
176
1
290
0
176
1
290
0
176
1
290
0
176
1
 90
50
176
1
 40
0.0
176
1
 40
1.0
176
1
 90
0
176
1
 62
18
420
0
176
1
 90
50
176
1
 90
3
176
1
 62
5
420
255
176
1
290
0
176
1
 90
50
176
1
 90
50
176
1
 90
50
176
1
290
0
176
1
 90
50
176
1
 62
256
176
0
 40
1.0
176
0
 90
2
176
1
  1
strokes_ogs.tif
176
1
290
0
176
1
 40
1.0
176
1
 40
1.0
176
1
  0
VISUALSTYLE
  5
66
102
{ACAD_REACTORS
330
16
102
}
330
16
100
AcDbVisualStyle
  2
Hidden
 70
6
177
3
291
0
 70
58
 90
2
176
1
 90
2
176
1
 90
0
176
1
 90
1
176
1
 40
0.6
176
1
 40
30.0
176
1
 62
7
420
16777215
176
1
 90
1
176
1
 90
4
176
1
 62
7
176
1
 62
257
176
1
 90
1
176
1
 90
1
176
1
 40
1.0
176
1
 90
8
176
1
 62
7
176
1
 40
1.0
176
1
 90
1
176
1
 90
6
176
1
 90
2
176
1
 62
7
176
1
 90
5
176
1
 90
0
176
1
 90
0
176
1
290
0
176
1
 90
1
176
1
 40
0.0
176
1
 90
0
176
1
290
0
176
1
290
1
176
1
290
1
176
1
290
0
176
1
290
0
176
1
290
0
176
1
290
0
176
1
290
0
176
1
290
0
176
1
 90
50
176
1
 40
0.0
176
1
 40
1.0
176
1
 90
0
176
1
 62
18
420
0
176
1
 90
50
176
1
 90
3
176
1
 62
5
420
255
176
1
290
0
176
1
 90
50
176
1
 90
50
176
1
 90
50
176
1
290
0
176
1
 90
50
176
1
 62
256
176
0
 40
1.0
176
0
 90
2
176
1
  1
strokes_ogs.tif
176
1
290
0
176
1
 40
1.0
176
1
 40
1.0
176
1
  0
VISUALSTYLE
  5
67
102
{ACAD_REACTORS
330
16
102
}
330
16
100
AcDbVisualStyle
  2
JitterOff
 70
20
177
3
291
1
 70
58
 90
2
176
1
 90
2
176
1
 90
0
176
1
 90
2
176
1
 40
0.6
176
1
 40
30.0
176
1
 62
7
420
16777215
176
1
 90
1
176
1
 90
4
176
1
 62
7
176
1
 62
257
176
1
 90
1
176
1
 90
1
176
1
 40
1.0
176
1
 90
8
176
1
 62
7
176
1
 40
1.0
176
1
 90
1
176
1
 90
6
176
1
 90
2
176
1
 62
7
176
1
 90
5
176
1
 90
0
176
1
 90
0
176
1
290
0
176
1
 90
1
176
1
 40
0.0
176
1
 90
0
176
1
290
0
176
1
290
1
176
1
290
1
176
1
290
0
176
1
290
0
176
1
290
0
176
1
290
0
176
1
290
0
176
1
290
0
176
1
 90
50
176
1
 40
0.0
176
1
 40
1.0
176
1
 90
0
176
1
 62
18
420
0
176
1
 90
50
176
1
 90
3
176
1
 62
5
420
255
176
1
290
0
176
1
 90
50
176
1
 90
50
176
1
 90
50
176
1
290
0
176
1
 90
50
176
1
 62
256
176
0
 40
1.0
176
0
 90
2
176
1
  1
strokes_ogs.tif
176
1
290
0
176
1
 40
1.0
176
1
 40
1.0
176
1
  0
VISUALSTYLE
  5
68
102
{ACAD_REACTORS
330
16
102
}
330
16
100
AcDbVisualStyle
  2
Linepattern
 70
14
177
3
291
1
 70
58
 90
2
176
1
 90
2
176
1
 90
0
176
1
 90
2
176
1
 40
0.6
176
1
 40
30.0
176
1
 62
7
420
16777215
176
1
 90
1
176
1
 90
4
176
1
 62
7
176
1
 62
257
176
1
 90
1
176
1
 90
1
176
1
 40
1.0
176
1
 90
8
176
1
 62
7
176
1
 40
1.0
176
1
 90
1
176
1
 90
6
176
1
 90
2
176
1
 62
7
176
1
 90
5
176
1
 90
0
176
1
 90
0
176
1
290
0
176
1
 90
1
176
1
 40
0.0
176
1
 90
0
176
1
290
0
176
1
290
1
176
1
290
1
176
1
290
0
176
1
290
0
176
1
290
0
176
1
290
0
176
1
290
0
176
1
290
0
176
1
 90
50
176
1
 40
0.0
176
1
 40
1.0
176
1
 90
0
176
1
 62
18
420
0
176
1
 90
50
176
1
 90
3
176
1
 62
5
420
255
176
1
290
0
176
1
 90
50
176
1
 90
50
176
1
 90
50
176
1
290
0
176
1
 90
50
176
1
 62
256
176
0
 40
1.0
176
0
 90
2
176
1
  1
strokes_ogs.tif
176
1
290
0
176
1
 40
1.0
176
1
 40
1.0
176
1
  0
VISUALSTYLE
  5
69
102
{ACAD_REACTORS
330
16
102
}
330
16
100
AcDbVisualStyle
  2
Modeling
 70
10
177
3
291
0
 70
58
 90
2
176
1
 90
2
176
1
 90
0
176
1
 90
2
176
1
 40
0.6
176
1
 40
30.0
176
1
 62
7
420
16777215
176
1
 90
1
176
1
 90
4
176
1
 62
7
176
1
 62
257
176
1
 90
1
176
1
 90
1
176
1
 40
1.0
176
1
 90
8
176
1
 62
7
176
1
 40
1.0
176
1
 90
1
176
1
 90
6
176
1
 90
2
176
1
 62
7
176
1
 90
5
176
1
 90
0
176
1
 90
0
176
1
290
0
176
1
 90
1
176
1
 40
0.0
176
1
 90
0
176
1
290
0
176
1
290
1
176
1
290
1
176
1
290
0
176
1
290
0
176
1
290
0
176
1
290
0
176
1
290
0
176
1
290
0
176
1
 90
50
176
1
 40
0.0
176
1
 40
1.0
176
1
 90
0
176
1
 62
18
420
0
176
1
 90
50
176
1
 90
3
176
1
 62
5
420
255
176
1
290
0
176
1
 90
50
176
1
 90
50
176
1
 90
50
176
1
290
0
176
1
 90
50
176
1
 62
256
176
0
 40
1.0
176
0
 90
2
176
1
  1
strokes_ogs.tif
176
1
290
0
176
1
 40
1.0
176
1
 40
1.0
176
1
  0
VISUALSTYLE
  5
6A
102
{ACAD_REACTORS
330
16
102
}
330
16
100
AcDbVisualStyle
  2
OverhangOff
 70
21
177
3
291
1
 70
58
 90
2
176
1
 90
2
176
1
 90
0
176
1
 90
2
176
1
 40
0.6
176
1
 40
30.0
176
1
 62
7
420
16777215
176
1
 90
1
176
1
 90
4
176
1
 62
7
176
1
 62
257
176
1
 90
1
176
1
 90
1
176
1
 40
1.0
176
1
 90
8
176
1
 62
7
176
1
 40
1.0
176
1
 90
1
176
1
 90
6
176
1
 90
2
176
1
 62
7
176
1
 90
5
176
1
 90
0
176
1
 90
0
176
1
290
0
176
1
 90
1
176
1
 40
0.0
176
1
 90
0
176
1
290
0
176
1
290
1
176
1
290
1
176
1
290
0
176
1
290
0
176
1
290
0
176
1
290
0
176
1
290
0
176
1
290
0
176
1
 90
50
176
1
 40
0.0
176
1
 40
1.0
176
1
 90
0
176
1
 62
18
420
0
176
1
 90
50
176
1
 90
3
176
1
 62
5
420
255
176
1
290
0
176
1
 90
50
176
1
 90
50
176
1
 90
50
176
1
290
0
176
1
 90
50
176
1
 62
256
176
0
 40
1.0
176
0
 90
2
176
1
  1
strokes_ogs.tif
176
1
290
0
176
1
 40
1.0
176
1
 40
1.0
176
1
  0
VISUALSTYLE
  5
6B
102
{ACAD_REACTORS
330
16
102
}
330
16
100
AcDbVisualStyle
  2
Realistic
 70
8
177
3
291
0
 70
58
 90
2
176
1
 90
2
176
1
 90
0
176
1
 90
2
176
1
 40
0.6
176
1
 40
30.0
176
1
 62
7
420
16777215
176
1
 90
1
176
1
 90
4
176
1
 62
7
176
1
 62
257
176
1
 90
1
176
1
 90
1
176
1
 40
1.0
176
1
 90
8
176
1
 62
7
176
1
 40
1.0
176
1
 90
1
176
1
 90
6
176
1
 90
2
176
1
 62
7
176
1
 90
5
176
1
 90
0
176
1
 90
0
176
1
290
0
176
1
 90
1
176
1
 40
0.0
176
1
 90
0
176
1
290
0
176
1
290
1
176
1
290
1
176
1
290
0
176
1
290
0
176
1
290
0
176
1
290
0
176
1
290
0
176
1
290
0
176
1
 90
50
176
1
 40
0.0
176
1
 40
1.0
176
1
 90
0
176
1
 62
18
420
0
176
1
 90
50
176
1
 90
3
176
1
 62
5
420
255
176
1
290
0
176
1
 90
50
176
1
 90
50
176
1
 90
50
176
1
290
0
176
1
 90
50
176
1
 62
256
176
0
 40
1.0
176
0
 90
2
176
1
  1
strokes_ogs.tif
176
1
290
0
176
1
 40
1.0
176
1
 40
1.0
176
1
  0
VISUALSTYLE
  5
6C
102
{ACAD_REACTORS
330
16
102
}
330
16
100
AcDbVisualStyle
  2
Shaded
 70
27
177
3
291
0
 70
58
 90
2
176
1
 90
2
176
1
 90
0
176
1
 90
2
176
1
 40
0.6
176
1
 40
30.0
176
1
 62
7
420
16777215
176
1
 90
1
176
1
 90
4
176
1
 62
7
176
1
 62
257
176
1
 90
1
176
1
 90
1
176
1
 40
1.0
176
1
 90
8
176
1
 62
7
176
1
 40
1.0
176
1
 90
1
176
1
 90
6
176
1
 90
2
176
1
 62
7
176
1
 90
5
176
1
 90
0
176
1
 90
0
176
1
290
0
176
1
 90
1
176
1
 40
0.0
176
1
 90
0
176
1
290
0
176
1
290
1
176
1
290
1
176
1
290
0
176
1
290
0
176
1
290
0
176
1
290
0
176
1
290
0
176
1
290
0
176
1
 90
50
176
1
 40
0.0
176
1
 40
1.0
176
1
 90
0
176
1
 62
18
420
0
176
1
 90
50
176
1
 90
3
176
1
 62
5
420
255
176
1
290
0
176
1
 90
50
176
1
 90
50
176
1
 90
50
176
1
290
0
176
1
 90
50
176
1
 62
256
176
0
 40
1.0
176
0
 90
2
176
1
  1
strokes_ogs.tif
176
1
290
0
176
1
 40
1.0
176
1
 40
1.0
176
1
  0
VISUALSTYLE
  5
6D
102
{ACAD_REACTORS
330
16
102
}
330
16
100
AcDbVisualStyle
  2
Shaded with edges
 70
26
177
3
291
0
 70
58
 90
2
176
1
 90
2
176
1
 90
0
176
1
 90
2
176
1
 40
0.6
176
1
 40
30.0
176
1
 62
7
420
16777215
176
1
 90
1
176
1
 90
4
176
1
 62
7
176
1
 62
257
176
1
 90
1
176
1
 90
1
176
1
 40
1.0
176
1
 90
8
176
1
 62
7
176
1
 40
1.0
176
1
 90
1
176
1
 90
6
176
1
 90
2
176
1
 62
7
176
1
 90
5
176
1
 90
0
176
1
 90
0
176
1
290
0
176
1
 90
1
176
1
 40
0.0
176
1
 90
0
176
1
290
0
176
1
290
1
176
1
290
1
176
1
290
0
176
1
290
0
176
1
290
0
176
1
290
0
176
1
290
0
176
1
290
0
176
1
 90
50
176
1
 40
0.0
176
1
 40
1.0
176
1
 90
0
176
1
 62
18
420
0
176
1
 90
50
176
1
 90
3
176
1
 62
5
420
255
176
1
290
0
176
1
 90
50
176
1
 90
50
176
1
 90
50
176
1
290
0
176
1
 90
50
176
1
 62
256
176
0
 40
1.0
176
0
 90
2
176
1
  1
strokes_ogs.tif
176
1
290
0
176
1
 40
1.0
176
1
 40
1.0
176
1
  0
VISUALSTYLE
  5
6E
102
{ACAD_REACTORS
330
16
102
}
330
16
100
AcDbVisualStyle
  2
Shades of Gray
 70
23
177
3
291
0
 70
58
 90
2
176
1
 90
2
176
1
 90
0
176
1
 90
2
176
1
 40
0.6
176
1
 40
30.0
176
1
 62
7
420
16777215
176
1
 90
1
176
1
 90
4
176
1
 62
7
176
1
 62
257
176
1
 90
1
176
1
 90
1
176
1
 40
1.0
176
1
 90
8
176
1
 62
7
176
1
 40
1.0
176
1
 90
1
176
1
 90
6
176
1
 90
2
176
1
 62
7
176
1
 90
5
176
1
 90
0
176
1
 90
0
176
1
290
0
176
1
 90
1
176
1
 40
0.0
176
1
 90
0
176
1
290
0
176
1
290
1
176
1
290
1
176
1
290
0
176
1
290
0
176
1
290
0
176
1
290
0
176
1
290
0
176
1
290
0
176
1
 90
50
176
1
 40
0.0
176
1
 40
1.0
176
1
 90
0
176
1
 62
18
420
0
176
1
 90
50
176
1
 90
3
176
1
 62
5
420
255
176
1
290
0
176
1
 90
50
176
1
 90
50
176
1
 90
50
176
1
290
0
176
1
 90
50
176
1
 62
256
176
0
 40
1.0
176
0
 90
2
176
1
  1
strokes_ogs.tif
176
1
290
0
176
1
 40
1.0
176
1
 40
1.0
176
1
  0
VISUALSTYLE
  5
6F
102
{ACAD_REACTORS
330
16
102
}
330
16
100
AcDbVisualStyle
  2
Sketchy
 70
24
177
3
291
0
 70
58
 90
2
176
1
 90
2
176
1
 90
0
176
1
 90
1
176
1
 40
0.6
176
1
 40
30.0
176
1
 62
7
420
16777215
176
1
 90
1
176
1
 90
4
176
1
 62
7
176
1
 62
257
176
1
 90
1
176
1
 90
1
176
1
 40
1.0
176
1
 90
8
176
1
 62
7
176
1
 40
1.0
176
1
 90
1
176
1
 90
6
176
1
 90
2
176
1
 62
7
176
1
 90
5
176
1
 90
0
176
1
 90
0
176
1
290
0
176
1
 90
1
176
1
 40
0.0
176
1
 90
0
176
1
290
0
176
1
290
1
176
1
290
1
176
1
290
0
176
1
290
0
176
1
290
0
176
1
290
0
176
1
290
0
176
1
290
0
176
1
 90
50
176
1
 40
0.0
176
1
 40
1.0
176
1
 90
0
176
1
 62
18
420
0
176
1
 90
50
176
1
 90
3
176
1
 62
5
420
255
176
1
290
0
176
1
 90
50
176
1
 90
50
176
1
 90
50
176
1
290
0
176
1
 90
50
176
1
 62
256
176
0
 40
1.0
176
0
 90
2
176
1
  1
strokes_ogs.tif
176
1
290
0
176
1
 40
1.0
176
1
 40
1.0
176
1
  0
VISUALSTYLE
  5
70
102
{ACAD_REACTORS
330
16
102
}
330
16
100
AcDbVisualStyle
  2
Thicken
 70
13
177
3
291
1
 70
58
 90
2
176
1
 90
2
176
1
 90
0
176
1
 90
2
176
1
 40
0.6
176
1
 40
30.0
176
1
 62
7
420
16777215
176
1
 90
1
176
1
 90
4
176
1
 62
7
176
1
 62
257
176
1
 90
1
176
1
 90
1
176
1
 40
1.0
176
1
 90
8
176
1
 62
7
176
1
 40
1.0
176
1
 90
1
176
1
 90
6
176
1
 90
2
176
1
 62
7
176
1
 90
5
176
1
 90
0
176
1
 90
0
176
1
290
0
176
1
 90
1
176
1
 40
0.0
176
1
 90
0
176
1
290
0
176
1
290
1
176
1
290
1
176
1
290
0
176
1
290
0
176
1
290
0
176
1
290
0
176
1
290
0
176
1
290
0
176
1
 90
50
176
1
 40
0.0
176
1
 40
1.0
176
1
 90
0
176
1
 62
18
420
0
176
1
 90
50
176
1
 90
3
176
1
 62
5
420
255
176
1
290
0
176
1
 90
50
176
1
 90
50
176
1
 90
50
176
1
290
0
176
1
 90
50
176
1
 62
256
176
0
 40
1.0
176
0
 90
2
176
1
  1
strokes_ogs.tif
176
1
290
0
176
1
 40
1.0
176
1
 40
1.0
176
1
  0
VISUALSTYLE
  5
71
102
{ACAD_REACTORS
330
16
102
}
330
16
100
AcDbVisualStyle
  2
Wireframe
 70
5
177
3
291
0
 70
58
 90
2
176
1
 90
2
176
1
 90
0
176
1
 90
0
176
1
 40
0.6
176
1
 40
30.0
176
1
 62
7
420
16777215
176
1
 90
1
176
1
 90
4
176
1
 62
7
176
1
 62
257
176
1
 90
1
176
1
 90
1
176
1
 40
1.0
176
1
 90
8
176
1
 62
7
176
1
 40
1.0
176
1
 90
1
176
1
 90
6
176
1
 90
2
176
1
 62
7
176
1
 90
5
176
1
 90
0
176
1
 90
0
176
1
290
0
176
1
 90
1
176
1
 40
0.0
176
1
 90
0
176
1
290
0
176
1
290
1
176
1
290
1
176
1
290
0
176
1
290
0
176
1
290
0
176
1
290
0
176
1
290
0
176
1
290
0
176
1
 90
50
176
1
 40
0.0
176
1
 40
1.0
176
1
 90
0
176
1
 62
18
420
0
176
1
 90
50
176
1
 90
3
176
1
 62
5
420
255
176
1
290
0
176
1
 90
50
176
1
 90
50
176
1
 90
50
176
1
290
0
176
1
 90
50
176
1
 62
256
176
0
 40
1.0
176
0
 90
2
176
1
  1
strokes_ogs.tif
176
1
290
0
176
1
 40
1.0
176
1
 40
1.0
176
1
  0
VISUALSTYLE
  5
72
102
{ACAD_REACTORS
330
16
102
}
330
16
100
AcDbVisualStyle
  2
X-Ray
 70
25
177
3
291
0
 70
58
 90
2
176
1
 90
2
176
1
 90
0
176
1
 90
2
176
1
 40
0.5
176
1
 40
30.0
176
1
 62
7
420
16777215
176
1
 90
1
176
1
 90
4
176
1
 62
7
176
1
 62
257
176
1
 90
1
176
1
 90
1
176
1
 40
1.0
176
1
 90
8
176
1
 62
7
176
1
 40
1.0
176
1
 90
1
176
1
 90
6
176
1
 90
2
176
1
 62
7
176
1
 90
5
176
1
 90
0
176
1
 90
0
176
1
290
0
176
1
 90
1
176
1
 40
0.0
176
1
 90
0
176
1
290
0
176
1
290
1
176
1
290
1
176
1
290
0
176
1
290
0
176
1
290
0
176
1
290
0
176
1
290
0
176
1
290
0
176
1
 90
50
176
1
 40
0.0
176
1
 40
1.0
176
1
 90
0
176
1
 62
18
420
0
176
1
 90
50
176
1
 90
3
176
1
 62
5
420
255
176
1
290
0
176
1
 90
50
176
1
 90
50
176
1
 90
50
176
1
290
0
176
1
 90
50
176
1
 62
256
176
0
 40
1.0
176
0
 90
2
176
1
  1
strokes_ogs.tif
176
1
290
0
176
1
 40
1.0
176
1
 40
1.0
176
1
  0
DICTIONARYVAR
  5
2FF
330
2D
100
DictionaryVariables
280
0
  1
1.4.4 @ 2026-07-30T20:19:44.060662+00:00
  0
ENDSEC
  0
EOF
