  0
SECTION
  2
HEADER
  9
$ACADVER
  1
AC1032
  9
$ACADMAINTVER
 90
4
  9
$DWGCODEPAGE
  3
ANSI_1252
  9
$LASTSAVEDBY
  1
ezdxf
  9
$REQUIREDVERSIONS
160
0
  9
$INSBASE
 10
0.0
 20
0.0
 30
0.0
  9
$EXTMIN
 10
1e+20
 20
1e+20
 30
1e+20
  9
$EXTMAX
 10
-1e+20
 20
-1e+20
 30
-1e+20
  9
$LIMMIN
 10
0.0
 20
0.0
  9
$LIMMAX
 10
420.0
 20
297.0
  9
$ORTHOMODE
 70
0
  9
$REGENMODE
 70
1
  9
$FILLMODE
 70
1
  9
$QTEXTMODE
 70
0
  9
$MIRRTEXT
 70
1
  9
$LTSCALE
 40
1.0
  9
$ATTMODE
 70
1
  9
$TEXTSIZE
 40
2.5
  9
$TRACEWID
 40
1.0
  9
$TEXTSTYLE
  7
OpenSans
  9
$CLAYER
  8
0
  9
$CELTYPE
  6
ByLayer
  9
$CECOLOR
 62
256
  9
$CELTSCALE
 40
1.0
  9
$DISPSILH
 70
0
  9
$DIMSCALE
 40
1.0
  9
$DIMASZ
 40
0.175
  9
$DIMEXO
 40
0.125
  9
$DIMDLI
 40
3.75
  9
$DIMRND
 40
0.0
  9
$DIMDLE
 40
0.0
  9
$DIMEXE
 40
0.375
  9
$DIMTP
 40
0.0
  9
$DIMTM
 40
0.0
  9
$DIMTXT
 40
0.25
  9
$DIMCEN
 40
2.5
  9
$DIMTSZ
 40
0.0
  9
$DIMTOL
 70
0
  9
$DIMLIM
 70
0
  9
$DIMTIH
 70
0
  9
$DIMTOH
 70
0
  9
$DIMSE1
 70
0
  9
$DIMSE2
 70
0
  9
$DIMTAD
 70
1
  9
$DIMZIN
 70
12
  9
$DIMBLK
  1
ARCHTICK
  9
$DIMASO
 70
1
  9
$DIMSHO
 70
1
  9
$DIMPOST
  1

  9
$DIMAPOST
  1

  9
$DIMALT
 70
0
  9
$DIMALTD
 70
3
  9
$DIMALTF
 40
0.03937007874
  9
$DIMLFAC
 40
100.0
  9
$DIMTOFL
 70
1
  9
$DIMTVP
 40
0.0
  9
$DIMTIX
 70
0
  9
$DIMSOXD
 70
0
  9
$DIMSAH
 70
0
  9
$DIMBLK1
  1

  9
$DIMBLK2
  1

  9
$DIMSTYLE
  2
EZDXF
  9
$DIMCLRD
 70
0
  9
$DIMCLRE
 70
0
  9
$DIMCLRT
 70
0
  9
$DIMTFAC
 40
0.5
  9
$DIMGAP
 40
0.1
  9
$DIMJUST
 70
0
  9
$DIMSD1
 70
0
  9
$DIMSD2
 70
0
  9
$DIMTOLJ
 70
0
  9
$DIMTZIN
 70
8
  9
$DIMALTZ
 70
0
  9
$DIMALTTZ
 70
0
  9
$DIMUPT
 70
1
  9
$DIMDEC
 70
2
  9
$DIMTDEC
 70
2
  9
$DIMALTU
 70
2
  9
$DIMALTTD
 70
3
  9
$DIMTXSTY
  7
OpenSansCondensed-Light
  9
$DIMAUNIT
 70
0
  9
$DIMADEC
 70
2
  9
$DIMALTRND
 40
0.0
  9
$DIMAZIN
 70
3
  9
$DIMDSEP
 70
46
  9
$DIMATFIT
 70
3
  9
$DIMFRAC
 70
0
  9
$DIMLDRBLK
  1

  9
$DIMLUNIT
 70
2
  9
$DIMLWD
 70
-2
  9
$DIMLWE
 70
-2
  9
$DIMTMOVE
 70
2
  9
$DIMFXL
 40
1.0
  9
$DIMFXLON
 70
0
  9
$DIMJOGANG
 40
0.785398163397
  9
$DIMTFILL
 70
0
  9
$DIMTFILLCLR
 70
0
  9
$DIMARCSYM
 70
0
  9
$DIMLTYPE
  6

  9
$DIMLTEX1
  6

  9
$DIMLTEX2
  6

  9
$DIMTXTDIRECTION
 70
0
  9
$LUNITS
 70
2
  9
$LUPREC
 70
4
  9
$SKETCHINC
 40
1.0
  9
$FILLETRAD
 40
10.0
  9
$AUNITS
 70
0
  9
$AUPREC
 70
2
  9
$MENU
  1
.
  9
$ELEVATION
 40
0.0
  9
$PELEVATION
 40
0.0
  9
$THICKNESS
 40
0.0
  9
$LIMCHECK
 70
0
  9
$CHAMFERA
 40
0.0
  9
$CHAMFERB
 40
0.0
  9
$CHAMFERC
 40
0.0
  9
$CHAMFERD
 40
0.0
  9
$SKPOLY
 70
0
  9
$TDCREATE
 40
2461252.477916667
  9
$TDUCREATE
 40
2458532.153996898
  9
$TDUPDATE
 40
2461252.477916667
  9
$TDUUPDATE
 40
2458532.1544311
  9
$TDINDWG
 40
0.0
  9
$TDUSRTIMER
 40
0.0
  9
$USRTIMER
 70
1
  9
$ANGBASE
 50
0.0
  9
$ANGDIR
 70
0
  9
$PDMODE
 70
0
  9
$PDSIZE
 40
0.0
  9
$PLINEWID
 40
0.0
  9
$SPLFRAME
 70
0
  9
$SPLINETYPE
 70
6
  9
$SPLINESEGS
 70
8
  9
$HANDSEED
  5
C1
  9
$SURFTAB1
 70
6
  9
$SURFTAB2
 70
6
  9
$SURFTYPE
 70
6
  9
$SURFU
 70
6
  9
$SURFV
 70
6
  9
$UCSBASE
  2

  9
$UCSNAME
  2

  9
$UCSORG
 10
0.0
 20
0.0
 30
0.0
  9
$UCSXDIR
 10
1.0
 20
0.0
 30
0.0
  9
$UCSYDIR
 10
0.0
 20
1.0
 30
0.0
  9
$UCSORTHOREF
  2

  9
$UCSORTHOVIEW
 70
0
  9
$UCSORGTOP
 10
0.0
 20
0.0
 30
0.0
  9
$UCSORGBOTTOM
 10
0.0
 20
0.0
 30
0.0
  9
$UCSORGLEFT
 10
0.0
 20
0.0
 30
0.0
  9
$UCSORGRIGHT
 10
0.0
 20
0.0
 30
0.0
  9
$UCSORGFRONT
 10
0.0
 20
0.0
 30
0.0
  9
$UCSORGBACK
 10
0.0
 20
0.0
 30
0.0
  9
$PUCSBASE
  2

  9
$PUCSNAME
  2

  9
$PUCSORG
 10
0.0
 20
0.0
 30
0.0
  9
$PUCSXDIR
 10
1.0
 20
0.0
 30
0.0
  9
$PUCSYDIR
 10
0.0
 20
1.0
 30
0.0
  9
$PUCSORTHOREF
  2

  9
$PUCSORTHOVIEW
 70
0
  9
$PUCSORGTOP
 10
0.0
 20
0.0
 30
0.0
  9
$PUCSORGBOTTOM
 10
0.0
 20
0.0
 30
0.0
  9
$PUCSORGLEFT
 10
0.0
 20
0.0
 30
0.0
  9
$PUCSORGRIGHT
 10
0.0
 20
0.0
 30
0.0
  9
$PUCSORGFRONT
 10
0.0
 20
0.0
 30
0.0
  9
$PUCSORGBACK
 10
0.0
 20
0.0
 30
0.0
  9
$USERI1
 70
0
  9
$USERI2
 70
0
  9
$USERI3
 70
0
  9
$USERI4
 70
0
  9
$USERI5
 70
0
  9
$USERR1
 40
0.0
  9
$USERR2
 40
0.0
  9
$USERR3
 40
0.0
  9
$USERR4
 40
0.0
  9
$USERR5
 40
0.0
  9
$WORLDVIEW
 70
1
  9
$SHADEDGE
 70
3
  9
$SHADEDIF
 70
70
  9
$TILEMODE
 70
1
  9
$MAXACTVP
 70
64
  9
$PINSBASE
 10
0.0
 20
0.0
 30
0.0
  9
$PLIMCHECK
 70
0
  9
$PEXTMIN
 10
1e+20
 20
1e+20
 30
1e+20
  9
$PEXTMAX
 10
-1e+20
 20
-1e+20
 30
-1e+20
  9
$PLIMMIN
 10
0.0
 20
0.0
  9
$PLIMMAX
 10
420.0
 20
297.0
  9
$UNITMODE
 70
0
  9
$VISRETAIN
 70
1
  9
$PLINEGEN
 70
0
  9
$PSLTSCALE
 70
1
  9
$TREEDEPTH
 70
3020
  9
$CMLSTYLE
  2
Standard
  9
$CMLJUST
 70
0
  9
$CMLSCALE
 40
20.0
  9
$PROXYGRAPHICS
 70
1
  9
$MEASUREMENT
 70
1
  9
$CELWEIGHT
370
-1
  9
$ENDCAPS
280
0
  9
$JOINSTYLE
280
0
  9
$LWDISPLAY
290
0
  9
$INSUNITS
 70
1
  9
$HYPERLINKBASE
  1

  9
$STYLESHEET
  1

  9
$XEDIT
290
1
  9
$CEPSNTYPE
380
0
  9
$PSTYLEMODE
290
1
  9
$FINGERPRINTGUID
  2
{874205A9-972E-4065-8C17-79E43A25C092}
  9
$VERSIONGUID
  2
{84B18577-6817-4681-A94A-BEF2D6D923B0}
  9
$EXTNAMES
290
1
  9
$PSVPSCALE
 40
0.0
  9
$OLESTARTUP
290
0
  9
$SORTENTS
280
127
  9
$INDEXCTL
280
0
  9
$HIDETEXT
280
1
  9
$XCLIPFRAME
280
1
  9
$HALOGAP
280
0
  9
$OBSCOLOR
 70
257
  9
$OBSLTYPE
280
0
  9
$INTERSECTIONDISPLAY
280
0
  9
$INTERSECTIONCOLOR
 70
257
  9
$DIMASSOC
280
2
  9
$PROJECTNAME
  1

  9
$CAMERADISPLAY
290
0
  9
$LENSLENGTH
 40
50.0
  9
$CAMERAHEIGHT
 40
0.0
  9
$STEPSPERSEC
 40
24.0
  9
$STEPSIZE
 40
100.0
  9
$3DDWFPREC
 40
2.0
  9
$PSOLWIDTH
 40
0.005
  9
$PSOLHEIGHT
 40
0.08
  9
$LOFTANG1
 40
1.570796326795
  9
$LOFTANG2
 40
1.570796326795
  9
$LOFTMAG1
 40
0.0
  9
$LOFTMAG2
 40
0.0
  9
$LOFTPARAM
 70
7
  9
$LOFTNORMALS
280
1
  9
$LATITUDE
 40
37.795
  9
$LONGITUDE
 40
-122.394
  9
$NORTHDIRECTION
 40
0.0
  9
$TIMEZONE
 70
-8000
  9
$LIGHTGLYPHDISPLAY
280
1
  9
$TILEMODELIGHTSYNCH
280
1
  9
$CMATERIAL
347
20
  9
$SOLIDHIST
280
0
  9
$SHOWHIST
280
1
  9
$DWFFRAME
280
2
  9
$DGNFRAME
280
2
  9
$REALWORLDSCALE
290
1
  9
$INTERFERECOLOR
 62
256
  9
$CSHADOW
280
0
  9
$SHADOWPLANELOCATION
 40
0.0
  0
ENDSEC
  0
SECTION
  2
CLASSES
  0
CLASS
  1
ACDBDICTIONARYWDFLT
  2
AcDbDictionaryWithDefault
  3
ObjectDBX Classes
 90
0
 91
0
280
0
281
0
  0
CLASS
  1
SUN
  2
AcDbSun
  3
SCENEOE
 90
1153
 91
0
280
0
281
0
  0
CLASS
  1
VISUALSTYLE
  2
AcDbVisualStyle
  3
ObjectDBX Classes
 90
4095
 91
0
280
0
281
0
  0
CLASS
  1
MATERIAL
  2
AcDbMaterial
  3
ObjectDBX Classes
 90
1153
 91
0
280
0
281
0
  0
CLASS
  1
SCALE
  2
AcDbScale
  3
ObjectDBX Classes
 90
1153
 91
0
280
0
281
0
  0
CLASS
  1
TABLESTYLE
  2
AcDbTableStyle
  3
ObjectDBX Classes
 90
4095
 91
0
280
0
281
0
  0
CLASS
  1
MLEADERSTYLE
  2
AcDbMLeaderStyle
  3
ACDB_MLEADERSTYLE_CLASS
 90
4095
 91
0
280
0
281
0
  0
CLASS
  1
DICTIONARYVAR
  2
AcDbDictionaryVar
  3
ObjectDBX Classes
 90
0
 91
0
280
0
281
0
  0
CLASS
  1
CELLSTYLEMAP
  2
AcDbCellStyleMap
  3
ObjectDBX Classes
 90
1152
 91
0
280
0
281
0
  0
CLASS
  1
MENTALRAYRENDERSETTINGS
  2
AcDbMentalRayRenderSettings
  3
SCENEOE
 90
1024
 91
0
280
0
281
0
  0
CLASS
  1
ACDBDETAILVIEWSTYLE
  2
AcDbDetailViewStyle
  3
ObjectDBX Classes
 90
1025
 91
0
280
0
281
0
  0
CLASS
  1
ACDBSECTIONVIEWSTYLE
  2
AcDbSectionViewStyle
  3
ObjectDBX Classes
 90
1025
 91
0
280
0
281
0
  0
CLASS
  1
RASTERVARIABLES
  2
AcDbRasterVariables
  3
ISM
 90
0
 91
0
280
0
281
0
  0
CLASS
  1
LAYOUT
  2
AcDbLayout
  3
ObjectDBX Classes
 90
0
 91
0
280
0
281
0
  0
CLASS
  1
ACDBPLACEHOLDER
  2
AcDbPlaceHolder
  3
ObjectDBX Classes
 90
0
 91
0
280
0
281
0
  0
ENDSEC
  0
SECTION
  2
TABLES
  0
TABLE
  2
VPORT
  5
8
330
0
100
AcDbSymbolTable
 70
1
  0
VPORT
  5
23
330
8
100
AcDbSymbolTableRecord
100
AcDbViewportTableRecord
  2
*Active
 70
0
 10
0.0
 20
0.0
 11
1.0
 21
1.0
 12
0.0
 22
0.0
 13
0.0
 23
0.0
 14
0.5
 24
0.5
 15
0.5
 25
0.5
 16
0.0
 26
0.0
 36
1.0
 17
0.0
 27
0.0
 37
0.0
 40
1000.0
 41
1.34
 42
50.0
 43
0.0
 44
0.0
 50
0.0
 51
0.0
 71
0
 72
1000
 73
1
 74
3
 75
0
 76
0
 77
0
 78
0
281
0
 65
0
146
0.0
  0
ENDTAB
  0
TABLE
  2
LTYPE
  5
2
330
0
100
AcDbSymbolTable
 70
21
  0
LTYPE
  5
24
330
2
100
AcDbSymbolTableRecord
100
AcDbLinetypeTableRecord
  2
ByBlock
 70
0
  3

 72
65
 73
0
 40
0.0
  0
LTYPE
  5
25
330
2
100
AcDbSymbolTableRecord
100
AcDbLinetypeTableRecord
  2
ByLayer
 70
0
  3

 72
65
 73
0
 40
0.0
  0
LTYPE
  5
26
330
2
100
AcDbSymbolTableRecord
100
AcDbLinetypeTableRecord
  2
Continuous
 70
0
  3

 72
65
 73
0
 40
0.0
  0
LTYPE
  5
2F
330
2
100
AcDbSymbolTableRecord
100
AcDbLinetypeTableRecord
  2
CENTER
 70
0
  3
Center ____ _ ____ _ ____ _ ____ _ ____ _ ____
 72
65
 73
4
 40
5.08
 49
3.175
 74
0
 49
-0.635
 74
0
 49
0.635
 74
0
 49
-0.635
 74
0
  0
LTYPE
  5
30
330
2
100
AcDbSymbolTableRecord
100
AcDbLinetypeTableRecord
  2
CENTERX2
 70
0
  3
Center (2x) ________  __  ________  __  ________
 72
65
 73
4
 40
8.89
 49
6.35
 74
0
 49
-0.635
 74
0
 49
1.27
 74
0
 49
-0.635
 74
0
  0
LTYPE
  5
31
330
2
100
AcDbSymbolTableRecord
100
AcDbLinetypeTableRecord
  2
CENTER2
 70
0
  3
Center (.5x) ____ _ ____ _ ____ _ ____ _ ____
 72
65
 73
4
 40
2.54
 49
1.587
 74
0
 49
-0.318
 74
0
 49
0.318
 74
0
 49
-0.318
 74
0
  0
LTYPE
  5
32
330
2
100
AcDbSymbolTableRecord
100
AcDbLinetypeTableRecord
  2
DASHED
 70
0
  3
Dashed __ __ __ __ __ __ __ __ __ __ __ __ __ _
 72
65
 73
2
 40
1.524
 49
1.27
 74
0
 49
-0.254
 74
0
  0
LTYPE
  5
33
330
2
100
AcDbSymbolTableRecord
100
AcDbLinetypeTableRecord
  2
DASHEDX2
 70
0
  3
Dashed (2x) ____  ____  ____  ____  ____  ____
 72
65
 73
2
 40
3.048
 49
2.54
 74
0
 49
-0.508
 74
0
  0
LTYPE
  5
34
330
2
100
AcDbSymbolTableRecord
100
AcDbLinetypeTableRecord
  2
DASHED2
 70
0
  3
Dashed (.5x) _ _ _ _ _ _ _ _ _ _ _ _ _ _
 72
65
 73
2
 40
0.762
 49
0.635
 74
0
 49
-0.127
 74
0
  0
LTYPE
  5
35
330
2
100
AcDbSymbolTableRecord
100
AcDbLinetypeTableRecord
  2
PHANTOM
 70
0
  3
Phantom ______  __  __  ______  __  __  ______
 72
65
 73
6
 40
6.35
 49
3.175
 74
0
 49
-0.635
 74
0
 49
0.635
 74
0
 49
-0.635
 74
0
 49
0.635
 74
0
 49
-0.635
 74
0
  0
LTYPE
  5
36
330
2
100
AcDbSymbolTableRecord
100
AcDbLinetypeTableRecord
  2
PHANTOMX2
 70
0
  3
Phantom (2x)____________    ____    ____    ____________
 72
65
 73
6
 40
10.795
 49
6.35
 74
0
 49
-0.635
 74
0
 49
1.27
 74
0
 49
-0.635
 74
0
 49
1.27
 74
0
 49
-0.635
 74
0
  0
LTYPE
  5
37
330
2
100
AcDbSymbolTableRecord
100
AcDbLinetypeTableRecord
  2
PHANTOM2
 70
0
  3
Phantom (.5x) ___ _ _ ___ _ _ ___ _ _ ___ _ _ ___
 72
65
 73
6
 40
3.175
 49
1.587
 74
0
 49
-0.318
 74
0
 49
0.318
 74
0
 49
-0.318
 74
0
 49
0.318
 74
0
 49
-0.318
 74
0
  0
LTYPE
  5
38
330
2
100
AcDbSymbolTableRecord
100
AcDbLinetypeTableRecord
  2
DASHDOT
 70
0
  3
Dash dot __ . __ . __ . __ . __ . __ . __ . __
 72
65
 73
4
 40
3.556
 49
2.54
 74
0
 49
-0.508
 74
0
 49
0.0
 74
0
 49
-0.508
 74
0
  0
LTYPE
  5
39
330
2
100
AcDbSymbolTableRecord
100
AcDbLinetypeTableRecord
  2
DASHDOTX2
 70
0
  3
Dash dot (2x) ____  .  ____  .  ____  .  ____
 72
65
 73
4
 40
6.096
 49
5.08
 74
0
 49
-0.508
 74
0
 49
0.0
 74
0
 49
-0.508
 74
0
  0
LTYPE
  5
3A
330
2
100
AcDbSymbolTableRecord
100
AcDbLinetypeTableRecord
  2
DASHDOT2
 70
0
  3
Dash dot (.5x) _ . _ . _ . _ . _ . _ . _ . _
 72
65
 73
4
 40
1.778
 49
1.27
 74
0
 49
-0.254
 74
0
 49
0.0
 74
0
 49
-0.254
 74
0
  0
LTYPE
  5
3B
330
2
100
AcDbSymbolTableRecord
100
AcDbLinetypeTableRecord
  2
DOT
 70
0
  3
Dot .  .  .  .  .  .  .  .  .  .  .  .  .  .  .  .
 72
65
 73
2
 40
0.508
 49
0.0
 74
0
 49
-0.508
 74
0
  0
LTYPE
  5
3C
330
2
100
AcDbSymbolTableRecord
100
AcDbLinetypeTableRecord
  2
DOTX2
 70
0
  3
Dot (2x) .    .    .    .    .    .    .    . 
 72
65
 73
2
 40
1.016
 49
0.0
 74
0
 49
-1.016
 74
0
  0
LTYPE
  5
3D
330
2
100
AcDbSymbolTableRecord
100
AcDbLinetypeTableRecord
  2
DOT2
 70
0
  3
Dot (.5) . . . . . . . . . . . . . . . . . . . 
 72
65
 73
2
 40
0.254
 49
0.0
 74
0
 49
-0.254
 74
0
  0
LTYPE
  5
3E
330
2
100
AcDbSymbolTableRecord
100
AcDbLinetypeTableRecord
  2
DIVIDE
 70
0
  3
Divide __ . . __ . . __ . . __ . . __ . . __
 72
65
 73
6
 40
4.064
 49
2.54
 74
0
 49
-0.508
 74
0
 49
0.0
 74
0
 49
-0.508
 74
0
 49
0.0
 74
0
 49
-0.508
 74
0
  0
LTYPE
  5
3F
330
2
100
AcDbSymbolTableRecord
100
AcDbLinetypeTableRecord
  2
DIVIDEX2
 70
0
  3
Divide (2x) ____  . .  ____  . .  ____  . .  ____
 72
65
 73
6
 40
6.604
 49
5.08
 74
0
 49
-0.508
 74
0
 49
0.0
 74
0
 49
-0.508
 74
0
 49
0.0
 74
0
 49
-0.508
 74
0
  0
LTYPE
  5
40
330
2
100
AcDbSymbolTableRecord
100
AcDbLinetypeTableRecord
  2
DIVIDE2
 70
0
  3
Divide(.5x) _ . _ . _ . _ . _ . _ . _ . _
 72
65
 73
6
 40
2.032
 49
1.27
 74
0
 49
-0.254
 74
0
 49
0.0
 74
0
 49
-0.254
 74
0
 49
0.0
 74
0
 49
-0.254
 74
0
  0
ENDTAB
  0
TABLE
  2
LAYER
  5
1
330
0
100
AcDbSymbolTable
 70
2
  0
LAYER
  5
27
330
1
100
AcDbSymbolTableRecord
100
AcDbLayerTableRecord
  2
0
 70
0
 62
7
  6
Continuous
370
-3
390
13
347
21
  0
LAYER
  5
28
330
1
100
AcDbSymbolTableRecord
100
AcDbLayerTableRecord
  2
Defpoints
 70
0
 62
7
  6
Continuous
290
0
370
-3
390
13
347
21
  0
ENDTAB
  0
TABLE
  2
STYLE
  5
5
330
0
100
AcDbSymbolTable
 70
26
  0
STYLE
  5
29
330
5
100
AcDbSymbolTableRecord
100
AcDbTextStyleTableRecord
  2
Standard
 70
0
 40
0.0
 41
1.0
 50
0.0
 71
0
 42
2.5
  3
txt
  4

  0
STYLE
  5
41
330
5
100
AcDbSymbolTableRecord
100
AcDbTextStyleTableRecord
  2
OpenSans-Light
 70
0
 40
0.0
 41
1.0
 50
0.0
 71
0
 42
2.5
  3
OpenSans-Light.ttf
  4

  0
STYLE
  5
42
330
5
100
AcDbSymbolTableRecord
100
AcDbTextStyleTableRecord
  2
OpenSans-Light-Italic
 70
0
 40
0.0
 41
1.0
 50
0.0
 71
0
 42
2.5
  3
OpenSans-LightItalic.ttf
  4

  0
STYLE
  5
43
330
5
100
AcDbSymbolTableRecord
100
AcDbTextStyleTableRecord
  2
OpenSans
 70
0
 40
0.0
 41
1.0
 50
0.0
 71
0
 42
2.5
  3
OpenSans-Regular.ttf
  4

  0
STYLE
  5
44
330
5
100
AcDbSymbolTableRecord
100
AcDbTextStyleTableRecord
  2
OpenSans-Italic
 70
0
 40
0.0
 41
1.0
 50
0.0
 71
0
 42
2.5
  3
OpenSans-Italic.ttf
  4

  0
STYLE
  5
45
330
5
100
AcDbSymbolTableRecord
100
AcDbTextStyleTableRecord
  2
OpenSans-SemiBold
 70
0
 40
0.0
 41
1.0
 50
0.0
 71
0
 42
2.5
  3
OpenSans-SemiBold.ttf
  4

  0
STYLE
  5
46
330
5
100
AcDbSymbolTableRecord
100
AcDbTextStyleTableRecord
  2
OpenSans-SemiBoldItalic
 70
0
 40
0.0
 41
1.0
 50
0.0
 71
0
 42
2.5
  3
OpenSans-SemiBoldItalic.ttf
  4

  0
STYLE
  5
47
330
5
100
AcDbSymbolTableRecord
100
AcDbTextStyleTableRecord
  2
OpenSans-Bold
 70
0
 40
0.0
 41
1.0
 50
0.0
 71
0
 42
2.5
  3
OpenSans-Bold.ttf
  4

  0
STYLE
  5
48
330
5
100
AcDbSymbolTableRecord
100
AcDbTextStyleTableRecord
  2
OpenSans-BoldItalic
 70
0
 40
0.0
 41
1.0
 50
0.0
 71
0
 42
2.5
  3
OpenSans-BoldItalic.ttf
  4

  0
STYLE
  5
49
330
5
100
AcDbSymbolTableRecord
100
AcDbTextStyleTableRecord
  2
OpenSans-ExtraBold
 70
0
 40
0.0
 41
1.0
 50
0.0
 71
0
 42
2.5
  3
OpenSans-ExtraBold.ttf
  4

  0
STYLE
  5
4A
330
5
100
AcDbSymbolTableRecord
100
AcDbTextStyleTableRecord
  2
OpenSans-ExtraBoldItalic
 70
0
 40
0.0
 41
1.0
 50
0.0
 71
0
 42
2.5
  3
OpenSans-ExtraBoldItalic.ttf
  4

  0
STYLE
  5
4B
330
5
100
AcDbSymbolTableRecord
100
AcDbTextStyleTableRecord
  2
OpenSansCondensed-Bold
 70
0
 40
0.0
 41
1.0
 50
0.0
 71
0
 42
2.5
  3
OpenSansCondensed-Bold.ttf
  4

  0
STYLE
  5
4C
330
5
100
AcDbSymbolTableRecord
100
AcDbTextStyleTableRecord
  2
OpenSansCondensed-Light
 70
0
 40
0.0
 41
1.0
 50
0.0
 71
0
 42
2.5
  3
OpenSansCondensed-Light.ttf
  4

  0
STYLE
  5
4D
330
5
100
AcDbSymbolTableRecord
100
AcDbTextStyleTableRecord
  2
OpenSansCondensed-Italic
 70
0
 40
0.0
 41
1.0
 50
0.0
 71
0
 42
2.5
  3
OpenSansCondensed-LightItalic.ttf
  4

  0
STYLE
  5
4E
330
5
100
AcDbSymbolTableRecord
100
AcDbTextStyleTableRecord
  2
LiberationSans
 70
0
 40
0.0
 41
1.0
 50
0.0
 71
0
 42
2.5
  3
LiberationSans-Regular.ttf
  4

  0
STYLE
  5
4F
330
5
100
AcDbSymbolTableRecord
100
AcDbTextStyleTableRecord
  2
LiberationSans-Bold
 70
0
 40
0.0
 41
1.0
 50
0.0
 71
0
 42
2.5
  3
LiberationSans-Bold.ttf
  4

  0
STYLE
  5
50
330
5
100
AcDbSymbolTableRecord
100
AcDbTextStyleTableRecord
  2
LiberationSans-BoldItalic
 70
0
 40
0.0
 41
1.0
 50
0.0
 71
0
 42
2.5
  3
LiberationSans-BoldItalic.ttf
  4

  0
STYLE
  5
51
330
5
100
AcDbSymbolTableRecord
100
AcDbTextStyleTableRecord
  2
LiberationSans-Italic
 70
0
 40
0.0
 41
1.0
 50
0.0
 71
0
 42
2.5
  3
LiberationSans-Italic.ttf
  4

  0
STYLE
  5
52
330
5
100
AcDbSymbolTableRecord
100
AcDbTextStyleTableRecord
  2
LiberationSerif
 70
0
 40
0.0
 41
1.0
 50
0.0
 71
0
 42
2.5
  3
LiberationSerif-Regular.ttf
  4

  0
STYLE
  5
53
330
5
100
AcDbSymbolTableRecord
100
AcDbTextStyleTableRecord
  2
LiberationSerif-Bold
 70
0
 40
0.0
 41
1.0
 50
0.0
 71
0
 42
2.5
  3
LiberationSerif-Bold.ttf
  4

  0
STYLE
  5
54
330
5
100
AcDbSymbolTableRecord
100
AcDbTextStyleTableRecord
  2
LiberationSerif-BoldItalic
 70
0
 40
0.0
 41
1.0
 50
0.0
 71
0
 42
2.5
  3
LiberationSerif-BoldItalic.ttf
  4

  0
STYLE
  5
55
330
5
100
AcDbSymbolTableRecord
100
AcDbTextStyleTableRecord
  2
LiberationSerif-Italic
 70
0
 40
0.0
 41
1.0
 50
0.0
 71
0
 42
2.5
  3
LiberationSerif-Italic.ttf
  4

  0
STYLE
  5
56
330
5
100
AcDbSymbolTableRecord
100
AcDbTextStyleTableRecord
  2
LiberationMono
 70
0
 40
0.0
 41
1.0
 50
0.0
 71
0
 42
2.5
  3
LiberationMono-Regular.ttf
  4

  0
STYLE
  5
57
330
5
100
AcDbSymbolTableRecord
100
AcDbTextStyleTableRecord
  2
LiberationMono-Bold
 70
0
 40
0.0
 41
1.0
 50
0.0
 71
0
 42
2.5
  3
LiberationMono-Bold.ttf
  4

  0
STYLE
  5
58
330
5
100
AcDbSymbolTableRecord
100
AcDbTextStyleTableRecord
  2
LiberationMono-BoldItalic
 70
0
 40
0.0
 41
1.0
 50
0.0
 71
0
 42
2.5
  3
LiberationMono-BoldItalic.ttf
  4

  0
STYLE
  5
59
330
5
100
AcDbSymbolTableRecord
100
AcDbTextStyleTableRecord
  2
LiberationMono-Italic
 70
0
 40
0.0
 41
1.0
 50
0.0
 71
0
 42
2.5
  3
LiberationMono-Italic.ttf
  4

  0
ENDTAB
  0
TABLE
  2
VIEW
  5
7
330
0
100
AcDbSymbolTable
 70
0
  0
ENDTAB
  0
TABLE
  2
UCS
  5
6
330
0
100
AcDbSymbolTable
 70
0
  0
ENDTAB
  0
TABLE
  2
APPID
  5
3
330
0
100
AcDbSymbolTable
 70
3
  0
APPID
  5
2A
330
3
100
AcDbSymbolTableRecord
100
AcDbRegAppTableRecord
  2
ACAD
 70
0
  0
APPID
  5
BE
330
3
100
AcDbSymbolTableRecord
100
AcDbRegAppTableRecord
  2
HATCHBACKGROUNDCOLOR
 70
0
  0
APPID
  5
BF
330
3
100
AcDbSymbolTableRecord
100
AcDbRegAppTableRecord
  2
EZDXF
 70
0
  0
ENDTAB
  0
TABLE
  2
DIMSTYLE
  5
4
330
0
100
AcDbSymbolTable
 70
12
100
AcDbDimStyleTable
  0
DIMSTYLE
105
2B
330
4
100
AcDbSymbolTableRecord
100
AcDbDimStyleTableRecord
  2
Standard
 70
0
 40
1.0
 41
2.5
 42
0.625
 43
3.75
 44
1.25
 45
0.0
 46
0.0
 47
0.0
 48
0.0
 49
2.5
140
2.5
141
2.5
142
0.0
143
0.03937007874
144
1.0
145
0.0
146
1.0
147
0.625
148
0.0
 69
0
 70
0
 71
0
 72
0
 73
0
 74
0
 75
0
 76
0
 77
1
 78
8
 79
3
170
0
171
3
172
1
173
0
174
0
175
0
176
0
177
0
178
0
179
2
271
2
272
2
273
2
274
3
275
0
276
0
277
2
278
44
279
0
280
0
281
0
282
0
283
0
284
8
285
0
286
0
288
0
289
3
290
0
371
-2
372
-2
  0
DIMSTYLE
105
73
330
4
100
AcDbSymbolTableRecord
100
AcDbDimStyleTableRecord
  2
EZDXF
 70
0
 40
1.0
 41
0.175
 42
0.125
 43
3.75
 44
0.375
 45
0.0
 46
0.0
 47
0.0
 48
0.0
 49
2.5
140
0.25
141
2.5
142
0.0
143
0.03937007874
144
100.0
145
0.0
146
0.5
147
0.1
148
0.0
 69
0
 70
0
 71
0
 72
0
 73
0
 74
0
 75
0
 76
0
 77
1
 78
12
 79
3
170
0
171
3
172
1
173
0
174
0
175
0
176
0
177
0
178
0
179
2
271
2
272
2
273
2
274
3
275
0
276
0
277
2
278
46
279
2
280
0
281
0
282
0
283
0
284
8
285
0
286
0
288
1
289
3
290
0
340
4C
342
74
371
-2
372
-2
  0
DIMSTYLE
105
7C
330
4
100
AcDbSymbolTableRecord
100
AcDbDimStyleTableRecord
  2
EZ_M_100_H25_CM
 70
0
 40
1.0
 41
0.25
 42
0.125
 43
3.75
 44
0.375
 45
0.0
 46
0.0
 47
0.0
 48
0.0
 49
2.5
140
0.25
141
2.5
142
0.125
143
0.03937007874
144
100.0
145
0.0
146
0.5
147
0.1
148
0.0
 69
0
 70
0
 71
0
 72
0
 73
0
 74
0
 75
0
 76
0
 77
1
 78
12
 79
3
170
0
171
3
172
1
173
0
174
0
175
0
176
0
177
0
178
0
179
2
271
2
272
2
273
2
274
3
275
0
276
0
277
2
278
46
279
2
280
0
281
0
282
0
283
0
284
8
285
0
286
0
288
1
289
3
290
0
340
4C
371
-2
372
-2
  0
DIMSTYLE
105
7D
330
4
100
AcDbSymbolTableRecord
100
AcDbDimStyleTableRecord
  2
EZ_M_50_H25_CM
 70
0
 40
1.0
 41
0.125
 42
0.0625
 43
3.75
 44
0.1875
 45
0.0
 46
0.0
 47
0.0
 48
0.0
 49
2.5
140
0.125
141
2.5
142
0.0625
143
0.03937007874
144
100.0
145
0.0
146
0.5
147
0.05
148
0.0
 69
0
 70
0
 71
0
 72
0
 73
0
 74
0
 75
0
 76
0
 77
1
 78
12
 79
3
170
0
171
3
172
1
173
0
174
0
175
0
176
0
177
0
178
0
179
2
271
2
272
2
273
2
274
3
275
0
276
0
277
2
278
46
279
2
280
0
281
0
282
0
283
0
284
8
285
0
286
0
288
1
289
3
290
0
340
4C
371
-2
372
-2
  0
DIMSTYLE
105
7E
330
4
100
AcDbSymbolTableRecord
100
AcDbDimStyleTableRecord
  2
EZ_M_25_H25_CM
 70
0
 40
1.0
 41
0.0625
 42
0.03125
 43
3.75
 44
0.09375
 45
0.0
 46
0.0
 47
0.0
 48
0.0
 49
2.5
140
0.0625
141
2.5
142
0.03125
143
0.03937007874
144
100.0
145
0.0
146
0.5
147
0.025
148
0.0
 69
0
 70
0
 71
0
 72
0
 73
0
 74
0
 75
0
 76
0
 77
1
 78
12
 79
3
170
0
171
3
172
1
173
0
174
0
175
0
176
0
177
0
178
0
179
2
271
2
272
2
273
2
274
3
275
0
276
0
277
2
278
46
279
2
280
0
281
0
282
0
283
0
284
8
285
0
286
0
288
1
289
3
290
0
340
4C
371
-2
372
-2
  0
DIMSTYLE
105
7F
330
4
100
AcDbSymbolTableRecord
100
AcDbDimStyleTableRecord
  2
EZ_M_20_H25_CM
 70
0
 40
1.0
 41
0.05
 42
0.025
 43
3.75
 44
0.07500000000000001
 45
0.0
 46
0.0
 47
0.0
 48
0.0
 49
2.5
140
0.05
141
2.5
142
0.025
143
0.03937007874
144
100.0
145
0.0
146
0.5
147
0.020000000000000004
148
0.0
 69
0
 70
0
 71
0
 72
0
 73
0
 74
0
 75
0
 76
0
 77
1
 78
12
 79
3
170
0
171
3
172
1
173
0
174
0
175
0
176
0
177
0
178
0
179
2
271
2
272
2
273
2
274
3
275
0
276
0
277
2
278
46
279
2
280
0
281
0
282
0
283
0
284
8
285
0
286
0
288
1
289
3
290
0
340
4C
371
-2
372
-2
  0
DIMSTYLE
105
80
330
4
100
AcDbSymbolTableRecord
100
AcDbDimStyleTableRecord
  2
EZ_M_10_H25_CM
 70
0
 40
1.0
 41
0.025
 42
0.0125
 43
3.75
 44
0.037500000000000006
 45
0.0
 46
0.0
 47
0.0
 48
0.0
 49
2.5
140
0.025
141
2.5
142
0.0125
143
0.03937007874
144
100.0
145
0.0
146
0.5
147
0.010000000000000002
148
0.0
 69
0
 70
0
 71
0
 72
0
 73
0
 74
0
 75
0
 76
0
 77
1
 78
12
 79
3
170
0
171
3
172
1
173
0
174
0
175
0
176
0
177
0
178
0
179
2
271
2
272
2
273
2
274
3
275
0
276
0
277
2
278
46
279
2
280
0
281
0
282
0
283
0
284
8
285
0
286
0
288
1
289
3
290
0
340
4C
371
-2
372
-2
  0
DIMSTYLE
105
81
330
4
100
AcDbSymbolTableRecord
100
AcDbDimStyleTableRecord
  2
EZ_M_5_H25_CM
 70
0
 40
1.0
 41
0.0125
 42
0.00625
 43
3.75
 44
0.018750000000000003
 45
0.0
 46
0.0
 47
0.0
 48
0.0
 49
2.5
140
0.0125
141
2.5
142
0.00625
143
0.03937007874
144
100.0
145
0.0
146
0.5
147
0.005000000000000001
148
0.0
 69
0
 70
0
 71
0
 72
0
 73
0
 74
0
 75
0
 76
0
 77
1
 78
12
 79
3
170
0
171
3
172
1
173
0
174
0
175
0
176
0
177
0
178
0
179
2
271
2
272
2
273
2
274
3
275
0
276
0
277
2
278
46
279
2
280
0
281
0
282
0
283
0
284
8
285
0
286
0
288
1
289
3
290
0
340
4C
371
-2
372
-2
  0
DIMSTYLE
105
82
330
4
100
AcDbSymbolTableRecord
100
AcDbDimStyleTableRecord
  2
EZ_M_1_H25_CM
 70
0
 40
1.0
 41
0.0025
 42
0.00125
 43
3.75
 44
0.00375
 45
0.0
 46
0.0
 47
0.0
 48
0.0
 49
2.5
140
0.0025
141
2.5
142
0.00125
143
0.03937007874
144
100.0
145
0.0
146
0.5
147
0.001
148
0.0
 69
0
 70
0
 71
0
 72
0
 73
0
 74
0
 75
0
 76
0
 77
1
 78
12
 79
3
170
0
171
3
172
1
173
0
174
0
175
0
176
0
177
0
178
0
179
2
271
2
272
2
273
2
274
3
275
0
276
0
277
2
278
46
279
2
280
0
281
0
282
0
283
0
284
8
285
0
286
0
288
1
289
3
290
0
340
4C
371
-2
372
-2
  0
DIMSTYLE
105
83
330
4
100
AcDbSymbolTableRecord
100
AcDbDimStyleTableRecord
  2
EZ_RADIUS
 70
0
 40
1.0
 41
0.25
 42
0.125
 43
3.75
 44
0.375
 45
0.0
 46
0.0
 47
0.0
 48
0.0
 49
2.5
140
0.25
141
0.0
142
0.0
143
0.03937007874
144
100.0
145
0.0
146
0.5
147
0.1
148
0.0
 69
0
 70
0
 71
0
 72
0
 73
0
 74
0
 75
0
 76
0
 77
1
 78
12
 79
3
170
0
171
3
172
0
173
0
174
0
175
0
176
0
177
0
178
0
179
2
271
2
272
2
273
2
274
3
275
0
276
0
277
2
278
46
279
1
280
0
281
0
282
0
283
0
284
8
285
0
286
0
288
1
289
3
290
0
340
4C
342
84
371
-2
372
-2
  0
DIMSTYLE
105
88
330
4
100
AcDbSymbolTableRecord
100
AcDbDimStyleTableRecord
  2
EZ_RADIUS_INSIDE
 70
0
 40
1.0
 41
0.25
 42
0.125
 43
3.75
 44
0.375
 45
0.0
 46
0.0
 47
0.0
 48
0.0
 49
2.5
140
0.25
141
0.0
142
0.0
143
0.03937007874
144
100.0
145
0.0
146
0.5
147
0.1
148
0.0
 69
0
 70
0
 71
0
 72
0
 73
0
 74
0
 75
0
 76
0
 77
0
 78
12
 79
3
170
0
171
3
172
0
173
0
174
1
175
0
176
0
177
0
178
0
179
2
271
2
272
2
273
2
274
3
275
0
276
0
277
2
278
46
279
0
280
0
281
0
282
0
283
0
284
8
285
0
286
0
288
1
289
0
290
0
340
4C
342
84
371
-2
372
-2
  0
DIMSTYLE
105
89
330
4
100
AcDbSymbolTableRecord
100
AcDbDimStyleTableRecord
  2
EZ_CURVED
 70
0
 40
1.0
 41
0.25
 42
0.125
 43
3.75
 44
0.375
 45
0.0
 46
0.0
 47
0.0
 48
0.0
 49
2.5
140
0.25
141
2.5
142
0.0
143
0.03937007874
144
100.0
145
0.0
146
0.5
147
0.1
148
0.0
 69
0
 70
0
 71
0
 72
0
 73
0
 74
0
 75
0
 76
0
 77
1
 78
12
 79
2
 90
2
170
0
171
3
172
1
173
0
174
0
175
0
176
0
177
0
178
0
179
2
271
2
272
2
273
2
274
3
275
0
276
0
277
2
278
46
279
2
280
0
281
0
282
0
283
0
284
8
285
0
286
0
288
1
289
3
290
0
340
4C
371
-2
372
-2
  0
ENDTAB
  0
TABLE
  2
BLOCK_RECORD
  5
9
330
0
100
AcDbSymbolTable
 70
5
  0
BLOCK_RECORD
  5
17
330
9
100
AcDbSymbolTableRecord
100
AcDbBlockTableRecord
  2
*Model_Space
340
1A
 70
0
280
1
281
0
  0
BLOCK_RECORD
  5
1B
330
9
100
AcDbSymbolTableRecord
100
AcDbBlockTableRecord
  2
*Paper_Space
340
1E
 70
0
280
1
281
0
  0
BLOCK_RECORD
  5
74
330
9
100
AcDbSymbolTableRecord
100
AcDbBlockTableRecord
  2
_ARCHTICK
340
0
 70
0
280
1
281
0
  0
BLOCK_RECORD
  5
78
330
9
100
AcDbSymbolTableRecord
100
AcDbBlockTableRecord
  2
_CLOSEDFILLED
340
0
 70
0
280
1
281
0
  0
BLOCK_RECORD
  5
84
330
9
100
AcDbSymbolTableRecord
100
AcDbBlockTableRecord
  2
_CLOSEDBLANK
340
0
 70
0
280
1
281
0
  0
ENDTAB
  0
ENDSEC
  0
SECTION
  2
BLOCKS
  0
BLOCK
  5
18
330
17
100
AcDbEntity
  8
0
100
AcDbBlockBegin
  2
*Model_Space
 70
0
 10
0.0
 20
0.0
 30
0.0
  3
*Model_Space
  1

  0
ENDBLK
  5
19
330
17
100
AcDbEntity
  8
0
100
AcDbBlockEnd
  0
BLOCK
  5
1C
330
1B
100
AcDbEntity
  8
0
100
AcDbBlockBegin
  2
*Paper_Space
 70
0
 10
0.0
 20
0.0
 30
0.0
  3
*Paper_Space
  1

  0
ENDBLK
  5
1D
330
1B
100
AcDbEntity
  8
0
100
AcDbBlockEnd
  0
BLOCK
  5
75
330
74
100
AcDbEntity
  8
0
100
AcDbBlockBegin
  2
_ARCHTICK
 70
0
 10
0.0
 20
0.0
 30
0.0
  3
_ARCHTICK
  1

  0
LWPOLYLINE
  5
77
330
74
100
AcDbEntity
  8
0
  6
BYBLOCK
 62
0
100
AcDbPolyline
 90
2
 70
0
 43
0.15
 10
-0.5
 20
-0.5
 10
0.5
 20
0.5
  0
ENDBLK
  5
76
330
74
100
AcDbEntity
  8
0
100
AcDbBlockEnd
  0
BLOCK
  5
79
330
78
100
AcDbEntity
  8
0
100
AcDbBlockBegin
  2
_CLOSEDFILLED
 70
0
 10
0.0
 20
0.0
 30
0.0
  3
_CLOSEDFILLED
  1

  0
SOLID
  5
7B
330
78
100
AcDbEntity
  8
0
  6
BYBLOCK
 62
0
100
AcDbTrace
 10
-1.0
 20
0.16439898372402537
 30
0.0
 11
0.0
 21
0.0
 31
0.0
 12
-1.0
 22
-0.16439898372402537
 32
0.0
 13
-1.0
 23
-0.16439898372402537
 33
0.0
  0
ENDBLK
  5
7A
330
78
100
AcDbEntity
  8
0
100
AcDbBlockEnd
  0
BLOCK
  5
85
330
84
100
AcDbEntity
  8
0
100
AcDbBlockBegin
  2
_CLOSEDBLANK
 70
0
 10
0.0
 20
0.0
 30
0.0
  3
_CLOSEDBLANK
  1

  0
LWPOLYLINE
  5
87
330
84
100
AcDbEntity
  8
0
  6
BYBLOCK
 62
0
100
AcDbPolyline
 90
3
 70
1
 10
-1.0
 20
0.16439898372402537
 10
0.0
 20
0.0
 10
-1.0
 20
-0.16439898372402537
  0
ENDBLK
  5
86
330
84
100
AcDbEntity
  8
0
100
AcDbBlockEnd
  0
ENDSEC
  0
SECTION
  2
ENTITIES
  0
LINE
  5
8A
330
17
100
AcDbEntity
  8
0
100
AcDbLine
 10
-80.0
 20
30.0
 30
0.0
 11
-80.0
 21
250.0
 31
0.0
  0
LINE
  5
8B
330
17
100
AcDbEntity
  8
0
100
AcDbLine
 10
80.0
 20
30.0
 30
0.0
 11
80.0
 21
250.0
 31
0.0
  0
LINE
  5
8C
330
17
100
AcDbEntity
  8
0
100
AcDbLine
 10
-80.0
 20
250.0
 30
0.0
 11
80.0
 21
250.0
 31
0.0
  0
LINE
  5
8D
330
17
100
AcDbEntity
  8
0
100
AcDbLine
 10
-65.0
 20
30.0
 30
0.0
 11
-65.0
 21
250.0
 31
0.0
  0
LINE
  5
8E
330
17
100
AcDbEntity
  8
0
100
AcDbLine
 10
65.0
 20
30.0
 30
0.0
 11
65.0
 21
250.0
 31
0.0
  0
LINE
  5
8F
330
17
100
AcDbEntity
  8
0
100
AcDbLine
 10
-90.0
 20
250.0
 30
0.0
 11
90.0
 21
250.0
 31
0.0
  0
LINE
  5
90
330
17
100
AcDbEntity
  8
0
100
AcDbLine
 10
-90.0
 20
250.0
 30
0.0
 11
-90.0
 21
265.0
 31
0.0
  0
LINE
  5
91
330
17
100
AcDbEntity
  8
0
100
AcDbLine
 10
90.0
 20
250.0
 30
0.0
 11
90.0
 21
265.0
 31
0.0
  0
LINE
  5
92
330
17
100
AcDbEntity
  8
0
100
AcDbLine
 10
-90.0
 20
265.0
 30
0.0
 11
90.0
 21
265.0
 31
0.0
  0
LINE
  5
93
330
17
100
AcDbEntity
  8
0
100
AcDbLine
 10
-89.0
 20
30.0
 30
0.0
 11
89.0
 21
30.0
 31
0.0
  0
LINE
  5
94
330
17
100
AcDbEntity
  8
0
100
AcDbLine
 10
-89.0
 20
24.0
 30
0.0
 11
89.0
 21
24.0
 31
0.0
  0
LINE
  5
95
330
17
100
AcDbEntity
  8
0
100
AcDbLine
 10
-89.0
 20
24.0
 30
0.0
 11
-89.0
 21
30.0
 31
0.0
  0
LINE
  5
96
330
17
100
AcDbEntity
  8
0
100
AcDbLine
 10
89.0
 20
24.0
 30
0.0
 11
89.0
 21
30.0
 31
0.0
  0
LINE
  5
97
330
17
100
AcDbEntity
  8
0
100
AcDbLine
 10
-80.0
 20
30.0
 30
0.0
 11
-80.0
 21
24.0
 31
0.0
  0
LINE
  5
98
330
17
100
AcDbEntity
  8
0
100
AcDbLine
 10
80.0
 20
30.0
 30
0.0
 11
80.0
 21
24.0
 31
0.0
  0
LWPOLYLINE
  5
99
330
17
100
AcDbEntity
  8
0
100
AcDbPolyline
 90
61
 70
0
 10
-65.0
 20
150.0
 10
-64.97919807748738
 20
151.92837522170808
 10
-64.91680199131903
 20
153.85585296324206
 10
-64.81284078109766
 20
155.78153616212165
 10
-64.66736283114388
 20
157.70452859106024
 10
-64.48043584797787
 20
159.6239352750755
 10
-64.25214682880825
 20
161.53886290801742
 10
-63.98260202104285
 20
163.4484202683197
 10
-63.67192687284047
 20
165.3517186337809
 10
-63.320265974726325
 20
167.24787219518237
 10
-62.92778299229852
 20
169.13599846855038
 10
-62.494660590056924
 20
171.01521870587072
 10
-62.021100346389716
 20
172.88465830406474
 10
-61.50732265975731
 20
174.74344721203587
 10
-60.95356664611724
 20
176.59072033559815
 10
-60.36009002763791
 20
178.42561794009714
 10
-59.727169012752626
 20
180.24728605053727
 10
-59.055098167610296
 20
182.05487684902778
 10
-58.34419027898204
 20
183.8475490693637
 10
-57.59477620868795
 20
185.62446838855723
 10
-56.807204739611564
 20
187.384807815138
 10
-55.9818424133736
 20
189.12774807404108
 10
-55.11907335974094
 20
190.85247798790346
 10
-54.2192991178496
 20
192.55819485459227
 10
-53.282938449325556
 20
194.2441048207883
 10
-52.31042714338989
 20
195.90942325145107
 10
-51.30221781403927
 20
197.55337509499407
 10
-50.25877968939608
 20
199.1751952439992
 10
-49.180598393326065
 20
200.77412889130377
 10
-48.06817571942544
 20
202.34943188129324
 10
-46.922029397482405
 20
203.90037105623674
 10
-45.74269285252184
 20
205.42622459750416
 10
-44.53071495654531
 20
206.926282361506
 10
-43.28665977308201
 20
208.39984621019934
 10
-42.01110629466932
 20
209.84623033600664
 10
-40.704648173385465
 20
211.2647615809954
 10
-39.36789344455937
 20
212.65477975017126
 10
-38.00146424378646
 20
214.01563791873735
 10
-36.60599651738221
 20
215.34670273317806
 10
-35.18213972640794
 20
216.64735470602642
 10
-33.73055654440678
 20
217.91698850417816
 10
-32.251922548990535
 20
219.1550132306184
 10
-30.746925907420877
 20
220.36085269942924
 10
-29.21626705633103
 20
221.53394570395113
 10
-27.66065837573746
 20
222.67374627797273
 10
-26.080823857492963
 20
223.77972394982737
 10
-24.47749876833532
 20
224.85136398927884
 10
-22.8514293076888
 20
225.88816764708037
 10
-21.20337226037739
 20
226.88965238709645
 10
-19.534094644411443
 20
227.85535211087858
 10
-17.844373354011832
 20
228.7848173745912
 10
-16.134994798037656
 20
229.6776155981858
 10
-14.406754533985659
 20
230.53333126672726
 10
-12.660456897731759
 20
231.35156612377745
 10
-10.896914629187282
 20
232.13193935674667
 10
-9.11694849404368
 20
232.87408777412688
 10
-7.32138690178218
 20
233.57766597452343
 10
-5.511065520125676
 20
234.24234650740766
 10
-3.6868268861129465
 20
234.86782002551473
 10
-1.8495200139754502
 20
235.4537954288162
 10
0.0
 20
236.0
  0
LWPOLYLINE
  5
9A
330
17
100
AcDbEntity
  8
0
100
AcDbPolyline
 90
61
 70
0
 10
65.0
 20
150.0
 10
64.97919807748738
 20
151.92837522170808
 10
64.91680199131905
 20
153.85585296324203
 10
64.81284078109766
 20
155.78153616212165
 10
64.66736283114388
 20
157.70452859106024
 10
64.48043584797787
 20
159.6239352750755
 10
64.25214682880826
 20
161.5388629080174
 10
63.982602021042865
 20
163.44842026831967
 10
63.67192687284047
 20
165.3517186337809
 10
63.320265974726325
 20
167.24787219518237
 10
62.92778299229852
 20
169.13599846855035
 10
62.494660590056924
 20
171.01521870587072
 10
62.021100346389716
 20
172.88465830406471
 10
61.50732265975731
 20
174.74344721203587
 10
60.95356664611725
 20
176.59072033559812
 10
60.36009002763791
 20
178.42561794009714
 10
59.72716901275264
 20
180.24728605053727
 10
59.055098167610296
 20
182.05487684902778
 10
58.34419027898204
 20
183.84754906936368
 10
57.59477620868796
 20
185.6244683885572
 10
56.807204739611564
 20
187.384807815138
 10
55.98184241337361
 20
189.12774807404105
 10
55.11907335974095
 20
190.85247798790343
 10
54.219299117849616
 20
192.55819485459227
 10
53.282938449325556
 20
194.2441048207883
 10
52.31042714338989
 20
195.9094232514511
 10
51.30221781403928
 20
197.55337509499407
 10
50.25877968939608
 20
199.1751952439992
 10
49.180598393326065
 20
200.77412889130377
 10
48.068175719425454
 20
202.3494318812932
 10
46.92202939748242
 20
203.9003710562367
 10
45.74269285252184
 20
205.42622459750413
 10
44.53071495654531
 20
206.926282361506
 10
43.28665977308201
 20
208.39984621019937
 10
42.01110629466932
 20
209.8462303360066
 10
40.70464817338548
 20
211.2647615809954
 10
39.36789344455937
 20
212.65477975017126
 10
38.00146424378649
 20
214.01563791873733
 10
36.60599651738222
 20
215.34670273317806
 10
35.18213972640794
 20
216.64735470602642
 10
33.73055654440677
 20
217.9169885041782
 10
32.25192254899055
 20
219.1550132306184
 10
30.746925907420884
 20
220.36085269942922
 10
29.216267056331038
 20
221.53394570395113
 10
27.66065837573748
 20
222.6737462779727
 10
26.080823857492977
 20
223.77972394982737
 10
24.477498768335327
 20
224.8513639892788
 10
22.8514293076888
 20
225.88816764708037
 10
21.203372260377375
 20
226.88965238709645
 10
19.534094644411436
 20
227.85535211087858
 10
17.844373354011847
 20
228.78481737459117
 10
16.134994798037685
 20
229.67761559818578
 10
14.406754533985687
 20
230.53333126672726
 10
12.660456897731766
 20
231.35156612377745
 10
10.89691462918729
 20
232.13193935674667
 10
9.116948494043687
 20
232.87408777412688
 10
7.321386901782191
 20
233.5776659745234
 10
5.511065520125687
 20
234.24234650740763
 10
3.6868268861129536
 20
234.86782002551473
 10
1.8495200139754608
 20
235.4537954288162
 10
7.105427357601002e-15
 20
236.0
  0
CIRCLE
  5
9B
330
17
100
AcDbEntity
  8
0
100
AcDbCircle
 10
0.0
 20
200.0
 30
0.0
 40
33.0
  0
LWPOLYLINE
  5
9C
330
17
100
AcDbEntity
  8
0
100
AcDbPolyline
 90
60
 70
1
 10
8.698928598759544
 20
191.30107140124045
 10
12.060157494563912
 20
188.91615231908588
 10
16.020454257536862
 20
187.77521048551094
 10
20.135341553399858
 20
188.00629761358314
 10
23.942991835989716
 20
189.58347802301915
 10
27.01605979540598
 20
192.3297394882159
 10
29.0096447496016
 20
195.9368599116035
 10
29.7
 20
200.0000001192093
 10
29.00964467085693
 20
204.0631403134358
 10
27.01605964675442
 20
207.67026069818726
 10
23.942991634114932
 20
210.4165221038272
 10
20.135341320958922
 20
211.99370243946998
 10
16.020454020617404
 20
212.22478948779465
 10
12.06015727975619
 20
211.0838475774682
 10
8.698928430172147
 20
208.69892843017215
 10
8.698928430172145
 20
208.69892843017215
 10
11.083847584857178
 20
212.0601572950996
 10
12.22478949160813
 20
216.02045405446304
 10
11.993702428101447
 20
220.1353413707677
 10
10.416522067585374
 20
223.94299169179342
 10
7.670260631614721
 20
227.01605969984425
 10
4.063140216990388
 20
229.00964470460465
 10
7.281849373350207e-15
 20
229.7
 10
-4.063140216990375
 20
229.00964470460465
 10
-7.670260631614713
 20
227.01605969984428
 10
-10.416522067585365
 20
223.94299169179345
 10
-11.993702428101441
 20
220.1353413707677
 10
-12.224789491608126
 20
216.02045405446304
 10
-11.083847584857178
 20
212.0601572950996
 10
-8.69892843017215
 20
208.69892843017215
 10
-8.698928430172147
 20
208.69892843017215
 10
-12.060157295099598
 20
211.08384758485718
 10
-16.02045405446304
 20
212.22478949160813
 10
-20.135341370767694
 20
211.99370242810144
 10
-23.942991691793438
 20
210.41652206758536
 10
-27.016059699844266
 20
207.67026063161472
 10
-29.009644704604646
 20
204.06314021699038
 10
-29.7
 20
200.0
 10
-29.009644704604646
 20
195.93685978300962
 10
-27.01605969984427
 20
192.32973936838528
 10
-23.94299169179345
 20
189.58347793241464
 10
-20.135341370767705
 20
188.00629757189856
 10
-16.020454054463045
 20
187.77521050839187
 10
-12.060157295099604
 20
188.91615241514282
 10
-8.69892843017215
 20
191.30107156982785
 10
-8.698928430172149
 20
191.30107156982785
 10
-11.083847577468186
 20
187.9398427202438
 10
-12.224789487794643
 20
183.9795459793826
 10
-11.993702439469976
 20
179.86465867904107
 10
-10.416522103827186
 20
176.05700836588508
 10
-7.670260698187278
 20
172.98394035324557
 10
-4.063140313435815
 20
170.99035532914309
 10
-1.192092978583239e-07
 20
170.3
 10
4.063140088396476
 20
170.9903552503984
 10
7.670260511784111
 20
172.983940204594
 10
10.41652197698084
 20
176.05700816401028
 10
11.993702386416842
 20
179.86465844660015
 10
12.224789514489052
 20
183.97954574246313
 10
11.083847680914129
 20
187.93984250543608
 10
8.698928598759553
 20
191.30107140124045
  0
LWPOLYLINE
  5
9D
330
17
100
AcDbEntity
  8
0
100
AcDbPolyline
 90
4
 70
1
 10
14.467404743076765
 20
214.46740474307677
 10
-14.467404743076761
 20
214.46740474307677
 10
-14.467404743076766
 20
185.53259525692323
 10
14.46740474307676
 20
185.53259525692323
  0
LINE
  5
9E
330
17
100
AcDbEntity
  8
0
100
AcDbLine
 10
32.5
 20
30.0
 30
0.0
 11
32.5
 21
116.0
 31
0.0
  0
LINE
  5
9F
330
17
100
AcDbEntity
  8
0
100
AcDbLine
 10
65.0
 20
30.0
 30
0.0
 11
65.0
 21
116.0
 31
0.0
  0
LWPOLYLINE
  5
A0
330
17
100
AcDbEntity
  8
0
100
AcDbPolyline
 90
23
 70
0
 10
0.0
 20
116.0
 10
0.03664613526842686
 20
117.57820632545202
 10
0.146505549116263
 20
119.15301077493642
 10
0.3293414359410036
 20
120.72101880534181
 10
0.5847596869373746
 20
122.27885052346313
 10
0.912209739611896
 20
123.82314797147316
 10
1.3109857645385858
 20
125.3505823651119
 10
1.780228186797622
 20
126.85786126899112
 10
2.318925538817542
 20
128.34173569354783
 10
2.925916640627076
 20
129.7990070983489
 10
3.5998931028169956
 20
131.2265342866507
 10
4.339402146816777
 20
132.62124017635267
 10
5.142849736406941
 20
133.9801184327497
 10
6.008504013716813
 20
135.300239948786
 10
6.9344990323015345
 20
136.57875915884233
 10
7.918838779251349
 20
137.81292017244698
 10
8.959401477663498
 20
139.00006271468865
 10
10.053944160202597
 20
140.13762786052735
 10
11.200107503890898
 20
141.22316355064171
 10
12.39542091570707
 20
142.25432987692434
 10
13.637307858031281
 20
143.2289041262309
 10
14.923091402457239
 20
144.14478557151205
 10
16.25
 20
145.0
  0
LWPOLYLINE
  5
A1
330
17
100
AcDbEntity
  8
0
100
AcDbPolyline
 90
23
 70
0
 10
32.5
 20
116.0
 10
32.46335386473157
 20
117.57820632545202
 10
32.35349445088374
 20
119.1530107749364
 10
32.170658564058996
 20
120.72101880534181
 10
31.915240313062625
 20
122.27885052346313
 10
31.587790260388104
 20
123.82314797147316
 10
31.189014235461414
 20
125.35058236511189
 10
30.719771813202378
 20
126.8578612689911
 10
30.181074461182458
 20
128.34173569354783
 10
29.574083359372924
 20
129.7990070983489
 10
28.900106897183008
 20
131.2265342866507
 10
28.16059785318322
 20
132.62124017635267
 10
27.35715026359306
 20
133.9801184327497
 10
26.491495986283187
 20
135.300239948786
 10
25.56550096769847
 20
136.57875915884233
 10
24.581161220748655
 20
137.81292017244698
 10
23.540598522336495
 20
139.00006271468865
 10
22.446055839797403
 20
140.13762786052735
 10
21.299892496109106
 20
141.22316355064171
 10
20.10457908429292
 20
142.25432987692434
 10
18.86269214196871
 20
143.22890412623093
 10
17.576908597542754
 20
144.14478557151207
 10
16.249999999999996
 20
145.0
  0
LWPOLYLINE
  5
A2
330
17
100
AcDbEntity
  8
0
100
AcDbPolyline
 90
33
 70
1
 10
18.964994448555856
 20
133.51750277572205
 10
20.952508333830203
 20
135.5050166658748
 10
21.679988897111727
 20
138.22001112954428
 10
20.9525083071742
 20
140.9350055860713
 10
18.964994402386306
 20
142.92251945671046
 10
16.249999933359984
 20
143.64999999999998
 10
13.535005482189797
 20
142.92251939007045
 10
11.547491626185785
 20
140.9350054706474
 10
10.820011102888273
 20
138.22001099626422
 10
11.547491732809815
 20
135.5050165504509
 10
13.535005666868036
 20
133.51750270908204
 10
13.535005666868036
 20
133.51750270908204
 10
10.820011222840309
 20
134.2449833456676
 10
8.105016746671529
 20
133.51750282903407
 10
6.117502822370082
 20
131.52998897790846
 10
5.390022205776543
 20
128.8149945285239
 10
6.117502742402056
 20
126.10000005771195
 10
8.105016608162844
 20
124.11248614804568
 10
10.820011062904255
 20
123.38500555144414
 10
13.535005528359353
 20
124.11248610806166
 10
15.52251942339047
 20
126.09999998845761
 10
16.249999999999996
 20
128.81499444855586
 10
16.25
 20
128.81499444855586
 10
16.97748056994551
 20
126.1
 10
18.96499444855584
 20
124.11248612138965
 10
21.679988897111706
 20
123.38500555144411
 10
24.394983345667576
 20
124.11248612138962
 10
26.38249722427792
 20
126.09999999999995
 10
27.109977794223454
 20
128.8149944485558
 10
26.382497224277934
 20
131.52998889711168
 10
24.394983345667598
 20
133.51750277572202
 10
21.679988897111738
 20
134.24498334566758
 10
18.964994448555867
 20
133.51750277572205
  0
LWPOLYLINE
  5
A3
330
17
100
AcDbEntity
  8
0
100
AcDbPolyline
 90
23
 70
0
 10
32.5
 20
116.0
 10
32.53664613526843
 20
117.57820632545202
 10
32.64650554911626
 20
119.15301077493642
 10
32.829341435941004
 20
120.72101880534181
 10
33.084759686937375
 20
122.27885052346313
 10
33.412209739611896
 20
123.82314797147316
 10
33.810985764538586
 20
125.3505823651119
 10
34.28022818679762
 20
126.85786126899112
 10
34.81892553881754
 20
128.34173569354783
 10
35.42591664062708
 20
129.7990070983489
 10
36.09989310281699
 20
131.2265342866507
 10
36.83940214681678
 20
132.62124017635267
 10
37.642849736406944
 20
133.9801184327497
 10
38.508504013716816
 20
135.300239948786
 10
39.43449903230153
 20
136.57875915884233
 10
40.418838779251345
 20
137.81292017244698
 10
41.4594014776635
 20
139.00006271468865
 10
42.5539441602026
 20
140.13762786052735
 10
43.7001075038909
 20
141.22316355064171
 10
44.89542091570707
 20
142.25432987692434
 10
46.13730785803128
 20
143.2289041262309
 10
47.42309140245724
 20
144.14478557151205
 10
48.75
 20
145.0
  0
LWPOLYLINE
  5
A4
330
17
100
AcDbEntity
  8
0
100
AcDbPolyline
 90
23
 70
0
 10
65.0
 20
116.0
 10
64.96335386473157
 20
117.57820632545202
 10
64.85349445088374
 20
119.1530107749364
 10
64.670658564059
 20
120.72101880534181
 10
64.41524031306263
 20
122.27885052346313
 10
64.0877902603881
 20
123.82314797147316
 10
63.689014235461414
 20
125.35058236511189
 10
63.21977181320238
 20
126.8578612689911
 10
62.68107446118246
 20
128.34173569354783
 10
62.07408335937292
 20
129.7990070983489
 10
61.40010689718301
 20
131.2265342866507
 10
60.66059785318322
 20
132.62124017635267
 10
59.857150263593056
 20
133.9801184327497
 10
58.991495986283184
 20
135.300239948786
 10
58.06550096769847
 20
136.57875915884233
 10
57.081161220748655
 20
137.81292017244698
 10
56.040598522336495
 20
139.00006271468865
 10
54.9460558397974
 20
140.13762786052735
 10
53.79989249610911
 20
141.22316355064171
 10
52.60457908429292
 20
142.25432987692434
 10
51.36269214196871
 20
143.22890412623093
 10
50.076908597542754
 20
144.14478557151207
 10
48.75
 20
145.0
  0
LWPOLYLINE
  5
A5
330
17
100
AcDbEntity
  8
0
100
AcDbPolyline
 90
33
 70
1
 10
51.464994448555856
 20
133.51750277572205
 10
53.45250833559557
 20
135.50501666893248
 10
54.17998889711173
 20
138.22001113660573
 10
53.4525083018781
 20
140.9350055952444
 10
51.46499439015548
 20
142.92251946377195
 10
48.749999915706304
 20
143.64999999999998
 10
46.035005463843554
 20
142.92251937947825
 10
44.04749161382821
 20
140.93500544924345
 10
43.32001110288827
 20
138.22001096801836
 10
44.04749174869813
 20
135.50501652293153
 10
46.03500569744511
 20
133.51750269142838
 10
46.03500569744511
 20
133.51750269142838
 10
43.320011244293106
 20
134.24498334566758
 10
40.605016753251796
 20
133.5175028328332
 10
38.61750281924192
 20
131.52998897249032
 10
37.890022205776546
 20
128.81499450841298
 10
38.61750275938479
 20
126.100000028297
 10
40.6050166495762
 20
124.11248612413566
 10
43.32001112457885
 20
123.38500555144414
 10
46.035005593769526
 20
124.11248614582624
 10
48.02251946808233
 20
126.10000006586618
 10
48.75
 20
128.81499455179414
 10
48.75
 20
128.81499455179414
 10
49.47748052348829
 20
126.10000008046627
 10
51.464994377030266
 20
124.11248616268496
 10
54.17998882484491
 20
123.38500555144411
 10
56.89498329202338
 20
124.11248609041814
 10
58.88249719846835
 20
126.09999995529647
 10
59.609977794223454
 20
128.8149944072605
 10
58.88249723976368
 20
131.5299888702896
 10
56.894983363549
 20
133.5175027653982
 10
54.17998890743557
 20
134.24498334566758
 10
51.46499444855588
 20
133.51750277572205
  0
LWPOLYLINE
  5
A6
330
17
100
AcDbEntity
  8
0
100
AcDbPolyline
 90
41
 70
0
 10
0.0
 20
145.0
 10
0.02318045995077256
 20
146.4822781725575
 10
0.09269916933363476
 20
147.9631066783642
 10
0.20848813891185358
 20
149.44103726844207
 10
0.3704341271748959
 20
150.91462452797217
 10
0.5783787510884721
 20
152.38242728990897
 10
0.8321186409930661
 20
153.8430100444406
 10
1.1314056394991994
 20
155.29494434291595
 10
1.4759470441852116
 20
156.73681019486645
 10
1.8654058938599647
 20
158.16719745675533
 10
2.2994012981105385
 20
159.58470721109683
 10
2.7775088098127725
 20
160.98795313459627
 10
3.29926084024018
 20
162.375562853973
 10
3.8641471163652668
 20
163.74617928814033
 10
4.471615179906152
 20
165.09846197542942
 10
5.121070927630257
 20
166.4310883845599
 10
5.811879192386762
 20
167.7427552080742
 10
6.543364364299499
 20
169.03217963697094
 10
7.3148110515128195
 20
170.29810061529128
 10
8.125464779844258
 20
171.53928007343032
 10
8.974532730659497
 20
172.75450413896814
 10
9.861184516248429
 20
173.94258432383612
 10
10.784552991943556
 20
175.10235868665688
 10
11.743735104186655
 20
176.23269296912238
 10
12.737792773714474
 20
177.33248170529714
 10
13.7657538129993
 20
178.40064930276318
 10
14.826612877047666
 20
179.43615109454842
 10
15.919332446626687
 20
180.43797436080996
 10
17.04284384295711
 20
181.4051393192734
 10
18.196048272880173
 20
182.33670008345882
 10
19.377817903476323
 20
183.23174558775713
 10
20.586996965084804
 20
184.08940047845124
 10
21.822402881645466
 20
184.9088259698114
 10
23.08282742725703
 20
185.68922066442678
 10
24.36703790782095
 20
186.42982133697151
 10
25.673778366615227
 20
187.12990368063834
 10
27.00177081261893
 20
187.78878301551006
 10
28.34971647038632
 20
188.40581495817594
 10
29.716297050248023
 20
188.98039605193796
 10
31.100176037597283
 20
189.51196435699111
 10
32.5
 20
190.0
  0
LWPOLYLINE
  5
A7
330
17
100
AcDbEntity
  8
0
100
AcDbPolyline
 90
41
 70
0
 10
65.0
 20
145.0
 10
64.97681954004923
 20
146.4822781725575
 10
64.90730083066637
 20
147.9631066783642
 10
64.79151186108814
 20
149.44103726844207
 10
64.62956587282511
 20
150.91462452797217
 10
64.42162124891152
 20
152.382427289909
 10
64.16788135900694
 20
153.8430100444406
 10
63.8685943605008
 20
155.29494434291595
 10
63.52405295581479
 20
156.73681019486645
 10
63.134594106140035
 20
158.16719745675533
 10
62.70059870188946
 20
159.58470721109683
 10
62.22249119018723
 20
160.98795313459627
 10
61.70073915975982
 20
162.375562853973
 10
61.13585288363473
 20
163.7461792881403
 10
60.52838482009385
 20
165.0984619754294
 10
59.87892907236974
 20
166.4310883845599
 10
59.18812080761324
 20
167.7427552080742
 10
58.45663563570051
 20
169.03217963697094
 10
57.68518894848718
 20
170.29810061529128
 10
56.87453522015576
 20
171.5392800734303
 10
56.02546726934051
 20
172.75450413896814
 10
55.13881548375157
 20
173.9425843238361
 10
54.215447008056444
 20
175.1023586866569
 10
53.256264895813345
 20
176.23269296912238
 10
52.26220722628554
 20
177.33248170529714
 10
51.2342461870007
 20
178.40064930276318
 10
50.17338712295234
 20
179.4361510945484
 10
49.080667553373324
 20
180.43797436080996
 10
47.95715615704289
 20
181.4051393192734
 10
46.80395172711982
 20
182.33670008345882
 10
45.62218209652369
 20
183.23174558775713
 10
44.41300303491521
 20
184.08940047845124
 10
43.17759711835454
 20
184.9088259698114
 10
41.917172572742984
 20
185.68922066442678
 10
40.63296209217906
 20
186.4298213369715
 10
39.326221633384776
 20
187.12990368063834
 10
37.998229187381064
 20
187.78878301551006
 10
36.65028352961369
 20
188.40581495817594
 10
35.283702949751984
 20
188.98039605193796
 10
33.89982396240272
 20
189.51196435699111
 10
32.5
 20
190.0
  0
CIRCLE
  5
A8
330
17
100
AcDbEntity
  8
0
100
AcDbCircle
 10
32.5
 20
168.0
 30
0.0
 40
21.0
  0
LWPOLYLINE
  5
A9
330
17
100
AcDbEntity
  8
0
100
AcDbPolyline
 90
3
 70
1
 10
32.5
 20
189.0
 10
14.313466520526784
 20
157.5
 10
50.686533479473205
 20
157.5
  0
LWPOLYLINE
  5
AA
330
17
100
AcDbEntity
  8
0
100
AcDbPolyline
 90
45
 70
1
 10
36.300991964771235
 20
170.19450373404828
 10
38.443470613391014
 20
172.0382555568332
 10
39.764249551107135
 20
174.5372910790897
 10
40.080727778960544
 20
177.34611237548953
 10
39.34915138862896
 20
180.07639286088363
 10
37.67066264993114
 20
182.3506644141241
 10
35.277316838489305
 20
183.85450329201902
 10
32.500000012177345
 20
184.38
 10
29.72268318418183
 20
183.8545033009168
 10
27.329337367922104
 20
182.3506644306895
 10
25.650848621938138
 20
180.07639288282644
 10
24.919272222859483
 20
177.3461123997761
 10
25.235750441714192
 20
174.5372911023624
 10
26.55652937142409
 20
172.03825557587444
 10
28.699008014136993
 20
170.19450374622562
 10
28.699008014136997
 20
170.19450374622562
 10
26.031032791497083
 20
171.12806875982062
 10
23.206415096606612
 20
171.0223791153856
 10
20.615665400409203
 20
169.89204667097724
 10
18.616961337276123
 20
167.89334271810066
 10
17.48662874995165
 20
165.3025930842569
 10
17.38093894969942
 20
162.4779753951967
 10
18.314503816118254
 20
159.8100001210576
 10
20.15825566819025
 20
157.66752152578292
 10
22.657291194448433
 20
156.34674264128762
 10
25.46611247422579
 20
156.03026445641692
 10
28.19639293053228
 20
156.76184087289028
 10
30.47066445193849
 20
158.44032961880126
 10
31.974503304399086
 20
160.83367542103275
 10
32.5
 20
163.61099222797822
 10
32.5
 20
163.61099222797822
 10
33.025496696236466
 20
160.8336754194134
 10
34.52933555042799
 20
158.4403296162508
 10
36.80360707416975
 20
156.7618408706259
 10
39.53388753271322
 20
156.0302644558969
 10
42.342708813863226
 20
156.34674264385143
 10
44.84174433997028
 20
157.66752153229072
 10
46.68549618997041
 20
159.8100001316035
 10
47.61906105237479
 20
162.4779754089582
 10
47.51337124656443
 20
165.30259309952092
 10
46.38303865292425
 20
167.89334273247405
 10
44.384334583780046
 20
169.89204668175682
 10
41.79358488304134
 20
171.02237912003082
 10
38.96896718614046
 20
171.12806875645003
 10
36.300991964771235
 20
170.19450373404828
  0
CIRCLE
  5
AB
330
17
100
AcDbEntity
  8
0
100
AcDbCircle
 10
49.0
 20
214.0
 30
0.0
 40
10.5
  0
LWPOLYLINE
  5
AC
330
17
100
AcDbEntity
  8
0
100
AcDbPolyline
 90
45
 70
1
 10
47.002042546831966
 20
212.84647872658402
 10
45.875867914682374
 20
211.87732708664018
 10
45.18161237154927
 20
210.56373146997117
 10
45.0152584858855
 20
209.08729976209312
 10
45.39980509922145
 20
207.65215234615462
 10
46.282087678694694
 20
206.45670194849643
 10
47.540128446934006
 20
205.66622258206684
 10
49.00000011542389
 20
205.39000000000001
 10
50.45987176795613
 20
205.666222666405
 10
51.7179124905287
 20
206.4567021055128
 10
52.60019500093964
 20
207.65215255414128
 10
52.98474153136578
 20
209.0872999922954
 10
52.818387560407146
 20
210.56373169056303
 10
52.12413194138639
 20
211.87732726712426
 10
50.99795725324799
 20
212.8464788420079
 10
50.99795725324799
 20
212.8464788420079
 10
52.40035448128413
 20
212.35575874042286
 10
53.8850894303954
 20
212.4113135259114
 10
55.24689377352706
 20
213.00546261017462
 10
56.29749464793163
 20
214.05606339353787
 10
56.89164385020393
 20
215.4178676851827
 10
56.94719876435428
 20
216.90260262947976
 10
56.45647878429597
 20
218.30499990003995
 10
55.48732717688222
 20
219.43117456018396
 10
54.173731580267095
 20
220.1254301412609
 10
52.69729987719427
 20
220.2917840695721
 10
51.26215245014796
 20
219.90723749769106
 10
50.06670202700462
 20
219.02495495274894
 10
49.27622262423591
 20
217.766914207343
 10
49.0
 20
216.30704254683195
 10
49.0
 20
216.30704254683195
 10
48.72377738178825
 20
217.76691419199372
 10
47.93329799542631
 20
219.0249549285742
 10
46.73784759442063
 20
219.90723747622798
 10
45.30270018857784
 20
220.2917840646432
 10
43.82626849851573
 20
220.1254301655622
 10
42.51267290046811
 20
219.43117462186882
 10
41.54352127341599
 20
218.30500000000004
 10
41.052801255306335
 20
216.9026027599195
 10
41.10835611677348
 20
215.41786782986412
 10
41.7025052591818
 20
214.05606352977748
 10
42.7531060766094
 20
213.00546271234987
 10
44.114910376696066
 20
212.41131356994154
 10
45.59964530675141
 20
212.35575870847438
 10
47.00204254683196
 20
212.84647872658402
  0
LINE
  5
AD
330
17
100
AcDbEntity
  8
0
100
AcDbLine
 10
-32.5
 20
30.0
 30
0.0
 11
-32.5
 21
116.0
 31
0.0
  0
LINE
  5
AE
330
17
100
AcDbEntity
  8
0
100
AcDbLine
 10
-65.0
 20
30.0
 30
0.0
 11
-65.0
 21
116.0
 31
0.0
  0
LWPOLYLINE
  5
AF
330
17
100
AcDbEntity
  8
0
100
AcDbPolyline
 90
23
 70
0
 10
-0.0
 20
116.0
 10
-0.03664613526842686
 20
117.57820632545202
 10
-0.146505549116263
 20
119.15301077493642
 10
-0.3293414359410036
 20
120.72101880534181
 10
-0.5847596869373746
 20
122.27885052346313
 10
-0.912209739611896
 20
123.82314797147316
 10
-1.3109857645385858
 20
125.3505823651119
 10
-1.780228186797622
 20
126.85786126899112
 10
-2.318925538817542
 20
128.34173569354783
 10
-2.925916640627076
 20
129.7990070983489
 10
-3.5998931028169956
 20
131.2265342866507
 10
-4.339402146816777
 20
132.62124017635267
 10
-5.142849736406941
 20
133.9801184327497
 10
-6.008504013716813
 20
135.300239948786
 10
-6.9344990323015345
 20
136.57875915884233
 10
-7.918838779251349
 20
137.81292017244698
 10
-8.959401477663498
 20
139.00006271468865
 10
-10.053944160202597
 20
140.13762786052735
 10
-11.200107503890898
 20
141.22316355064171
 10
-12.39542091570707
 20
142.25432987692434
 10
-13.637307858031281
 20
143.2289041262309
 10
-14.923091402457239
 20
144.14478557151205
 10
-16.25
 20
145.0
  0
LWPOLYLINE
  5
B0
330
17
100
AcDbEntity
  8
0
100
AcDbPolyline
 90
23
 70
0
 10
-32.5
 20
116.0
 10
-32.46335386473157
 20
117.57820632545202
 10
-32.35349445088374
 20
119.1530107749364
 10
-32.170658564058996
 20
120.72101880534181
 10
-31.915240313062625
 20
122.27885052346313
 10
-31.587790260388104
 20
123.82314797147316
 10
-31.189014235461414
 20
125.35058236511189
 10
-30.719771813202378
 20
126.8578612689911
 10
-30.181074461182458
 20
128.34173569354783
 10
-29.574083359372924
 20
129.7990070983489
 10
-28.900106897183008
 20
131.2265342866507
 10
-28.16059785318322
 20
132.62124017635267
 10
-27.35715026359306
 20
133.9801184327497
 10
-26.491495986283187
 20
135.300239948786
 10
-25.56550096769847
 20
136.57875915884233
 10
-24.581161220748655
 20
137.81292017244698
 10
-23.540598522336495
 20
139.00006271468865
 10
-22.446055839797403
 20
140.13762786052735
 10
-21.299892496109106
 20
141.22316355064171
 10
-20.10457908429292
 20
142.25432987692434
 10
-18.86269214196871
 20
143.22890412623093
 10
-17.576908597542754
 20
144.14478557151207
 10
-16.249999999999996
 20
145.0
  0
LWPOLYLINE
  5
B1
330
17
100
AcDbEntity
  8
0
100
AcDbPolyline
 90
33
 70
1
 10
-18.964994448555856
 20
133.51750277572205
 10
-20.952508333830203
 20
135.5050166658748
 10
-21.679988897111727
 20
138.22001112954428
 10
-20.9525083071742
 20
140.9350055860713
 10
-18.964994402386306
 20
142.92251945671046
 10
-16.249999933359984
 20
143.64999999999998
 10
-13.535005482189797
 20
142.92251939007045
 10
-11.547491626185785
 20
140.9350054706474
 10
-10.820011102888273
 20
138.22001099626422
 10
-11.547491732809815
 20
135.5050165504509
 10
-13.535005666868036
 20
133.51750270908204
 10
-13.535005666868036
 20
133.51750270908204
 10
-10.820011222840309
 20
134.2449833456676
 10
-8.105016746671529
 20
133.51750282903407
 10
-6.117502822370082
 20
131.52998897790846
 10
-5.390022205776543
 20
128.8149945285239
 10
-6.117502742402056
 20
126.10000005771195
 10
-8.105016608162844
 20
124.11248614804568
 10
-10.820011062904255
 20
123.38500555144414
 10
-13.535005528359353
 20
124.11248610806166
 10
-15.52251942339047
 20
126.09999998845761
 10
-16.249999999999996
 20
128.81499444855586
 10
-16.25
 20
128.81499444855586
 10
-16.97748056994551
 20
126.1
 10
-18.96499444855584
 20
124.11248612138965
 10
-21.679988897111706
 20
123.38500555144411
 10
-24.394983345667576
 20
124.11248612138962
 10
-26.38249722427792
 20
126.09999999999995
 10
-27.109977794223454
 20
128.8149944485558
 10
-26.382497224277934
 20
131.52998889711168
 10
-24.394983345667598
 20
133.51750277572202
 10
-21.679988897111738
 20
134.24498334566758
 10
-18.964994448555867
 20
133.51750277572205
  0
LWPOLYLINE
  5
B2
330
17
100
AcDbEntity
  8
0
100
AcDbPolyline
 90
23
 70
0
 10
-32.5
 20
116.0
 10
-32.53664613526843
 20
117.57820632545202
 10
-32.64650554911626
 20
119.15301077493642
 10
-32.829341435941004
 20
120.72101880534181
 10
-33.084759686937375
 20
122.27885052346313
 10
-33.412209739611896
 20
123.82314797147316
 10
-33.810985764538586
 20
125.3505823651119
 10
-34.28022818679762
 20
126.85786126899112
 10
-34.81892553881754
 20
128.34173569354783
 10
-35.42591664062708
 20
129.7990070983489
 10
-36.09989310281699
 20
131.2265342866507
 10
-36.83940214681678
 20
132.62124017635267
 10
-37.642849736406944
 20
133.9801184327497
 10
-38.508504013716816
 20
135.300239948786
 10
-39.43449903230153
 20
136.57875915884233
 10
-40.418838779251345
 20
137.81292017244698
 10
-41.4594014776635
 20
139.00006271468865
 10
-42.5539441602026
 20
140.13762786052735
 10
-43.7001075038909
 20
141.22316355064171
 10
-44.89542091570707
 20
142.25432987692434
 10
-46.13730785803128
 20
143.2289041262309
 10
-47.42309140245724
 20
144.14478557151205
 10
-48.75
 20
145.0
  0
LWPOLYLINE
  5
B3
330
17
100
AcDbEntity
  8
0
100
AcDbPolyline
 90
23
 70
0
 10
-65.0
 20
116.0
 10
-64.96335386473157
 20
117.57820632545202
 10
-64.85349445088374
 20
119.1530107749364
 10
-64.670658564059
 20
120.72101880534181
 10
-64.41524031306263
 20
122.27885052346313
 10
-64.0877902603881
 20
123.82314797147316
 10
-63.689014235461414
 20
125.35058236511189
 10
-63.21977181320238
 20
126.8578612689911
 10
-62.68107446118246
 20
128.34173569354783
 10
-62.07408335937292
 20
129.7990070983489
 10
-61.40010689718301
 20
131.2265342866507
 10
-60.66059785318322
 20
132.62124017635267
 10
-59.857150263593056
 20
133.9801184327497
 10
-58.991495986283184
 20
135.300239948786
 10
-58.06550096769847
 20
136.57875915884233
 10
-57.081161220748655
 20
137.81292017244698
 10
-56.040598522336495
 20
139.00006271468865
 10
-54.9460558397974
 20
140.13762786052735
 10
-53.79989249610911
 20
141.22316355064171
 10
-52.60457908429292
 20
142.25432987692434
 10
-51.36269214196871
 20
143.22890412623093
 10
-50.076908597542754
 20
144.14478557151207
 10
-48.75
 20
145.0
  0
LWPOLYLINE
  5
B4
330
17
100
AcDbEntity
  8
0
100
AcDbPolyline
 90
33
 70
1
 10
-51.464994448555856
 20
133.51750277572205
 10
-53.45250833559557
 20
135.50501666893248
 10
-54.17998889711173
 20
138.22001113660573
 10
-53.4525083018781
 20
140.9350055952444
 10
-51.46499439015548
 20
142.92251946377195
 10
-48.749999915706304
 20
143.64999999999998
 10
-46.035005463843554
 20
142.92251937947825
 10
-44.04749161382821
 20
140.93500544924345
 10
-43.32001110288827
 20
138.22001096801836
 10
-44.04749174869813
 20
135.50501652293153
 10
-46.03500569744511
 20
133.51750269142838
 10
-46.03500569744511
 20
133.51750269142838
 10
-43.320011244293106
 20
134.24498334566758
 10
-40.605016753251796
 20
133.5175028328332
 10
-38.61750281924192
 20
131.52998897249032
 10
-37.890022205776546
 20
128.81499450841298
 10
-38.61750275938479
 20
126.100000028297
 10
-40.6050166495762
 20
124.11248612413566
 10
-43.32001112457885
 20
123.38500555144414
 10
-46.035005593769526
 20
124.11248614582624
 10
-48.02251946808233
 20
126.10000006586618
 10
-48.75
 20
128.81499455179414
 10
-48.75
 20
128.81499455179414
 10
-49.47748052348829
 20
126.10000008046627
 10
-51.464994377030266
 20
124.11248616268496
 10
-54.17998882484491
 20
123.38500555144411
 10
-56.89498329202338
 20
124.11248609041814
 10
-58.88249719846835
 20
126.09999995529647
 10
-59.609977794223454
 20
128.8149944072605
 10
-58.88249723976368
 20
131.5299888702896
 10
-56.894983363549
 20
133.5175027653982
 10
-54.17998890743557
 20
134.24498334566758
 10
-51.46499444855588
 20
133.51750277572205
  0
LWPOLYLINE
  5
B5
330
17
100
AcDbEntity
  8
0
100
AcDbPolyline
 90
41
 70
0
 10
-0.0
 20
145.0
 10
-0.02318045995077256
 20
146.4822781725575
 10
-0.09269916933363476
 20
147.9631066783642
 10
-0.20848813891185358
 20
149.44103726844207
 10
-0.3704341271748959
 20
150.91462452797217
 10
-0.5783787510884721
 20
152.38242728990897
 10
-0.8321186409930661
 20
153.8430100444406
 10
-1.1314056394991994
 20
155.29494434291595
 10
-1.4759470441852116
 20
156.73681019486645
 10
-1.8654058938599647
 20
158.16719745675533
 10
-2.2994012981105385
 20
159.58470721109683
 10
-2.7775088098127725
 20
160.98795313459627
 10
-3.29926084024018
 20
162.375562853973
 10
-3.8641471163652668
 20
163.74617928814033
 10
-4.471615179906152
 20
165.09846197542942
 10
-5.121070927630257
 20
166.4310883845599
 10
-5.811879192386762
 20
167.7427552080742
 10
-6.543364364299499
 20
169.03217963697094
 10
-7.3148110515128195
 20
170.29810061529128
 10
-8.125464779844258
 20
171.53928007343032
 10
-8.974532730659497
 20
172.75450413896814
 10
-9.861184516248429
 20
173.94258432383612
 10
-10.784552991943556
 20
175.10235868665688
 10
-11.743735104186655
 20
176.23269296912238
 10
-12.737792773714474
 20
177.33248170529714
 10
-13.7657538129993
 20
178.40064930276318
 10
-14.826612877047666
 20
179.43615109454842
 10
-15.919332446626687
 20
180.43797436080996
 10
-17.04284384295711
 20
181.4051393192734
 10
-18.196048272880173
 20
182.33670008345882
 10
-19.377817903476323
 20
183.23174558775713
 10
-20.586996965084804
 20
184.08940047845124
 10
-21.822402881645466
 20
184.9088259698114
 10
-23.08282742725703
 20
185.68922066442678
 10
-24.36703790782095
 20
186.42982133697151
 10
-25.673778366615227
 20
187.12990368063834
 10
-27.00177081261893
 20
187.78878301551006
 10
-28.34971647038632
 20
188.40581495817594
 10
-29.716297050248023
 20
188.98039605193796
 10
-31.100176037597283
 20
189.51196435699111
 10
-32.5
 20
190.0
  0
LWPOLYLINE
  5
B6
330
17
100
AcDbEntity
  8
0
100
AcDbPolyline
 90
41
 70
0
 10
-65.0
 20
145.0
 10
-64.97681954004923
 20
146.4822781725575
 10
-64.90730083066637
 20
147.9631066783642
 10
-64.79151186108814
 20
149.44103726844207
 10
-64.62956587282511
 20
150.91462452797217
 10
-64.42162124891152
 20
152.382427289909
 10
-64.16788135900694
 20
153.8430100444406
 10
-63.8685943605008
 20
155.29494434291595
 10
-63.52405295581479
 20
156.73681019486645
 10
-63.134594106140035
 20
158.16719745675533
 10
-62.70059870188946
 20
159.58470721109683
 10
-62.22249119018723
 20
160.98795313459627
 10
-61.70073915975982
 20
162.375562853973
 10
-61.13585288363473
 20
163.7461792881403
 10
-60.52838482009385
 20
165.0984619754294
 10
-59.87892907236974
 20
166.4310883845599
 10
-59.18812080761324
 20
167.7427552080742
 10
-58.45663563570051
 20
169.03217963697094
 10
-57.68518894848718
 20
170.29810061529128
 10
-56.87453522015576
 20
171.5392800734303
 10
-56.02546726934051
 20
172.75450413896814
 10
-55.13881548375157
 20
173.9425843238361
 10
-54.215447008056444
 20
175.1023586866569
 10
-53.256264895813345
 20
176.23269296912238
 10
-52.26220722628554
 20
177.33248170529714
 10
-51.2342461870007
 20
178.40064930276318
 10
-50.17338712295234
 20
179.4361510945484
 10
-49.080667553373324
 20
180.43797436080996
 10
-47.95715615704289
 20
181.4051393192734
 10
-46.80395172711982
 20
182.33670008345882
 10
-45.62218209652369
 20
183.23174558775713
 10
-44.41300303491521
 20
184.08940047845124
 10
-43.17759711835454
 20
184.9088259698114
 10
-41.917172572742984
 20
185.68922066442678
 10
-40.63296209217906
 20
186.4298213369715
 10
-39.326221633384776
 20
187.12990368063834
 10
-37.998229187381064
 20
187.78878301551006
 10
-36.65028352961369
 20
188.40581495817594
 10
-35.283702949751984
 20
188.98039605193796
 10
-33.89982396240272
 20
189.51196435699111
 10
-32.5
 20
190.0
  0
CIRCLE
  5
B7
330
17
100
AcDbEntity
  8
0
100
AcDbCircle
 10
-32.5
 20
168.0
 30
0.0
 40
21.0
  0
LWPOLYLINE
  5
B8
330
17
100
AcDbEntity
  8
0
100
AcDbPolyline
 90
3
 70
1
 10
-32.5
 20
189.0
 10
-14.313466520526784
 20
157.5
 10
-50.686533479473205
 20
157.5
  0
LWPOLYLINE
  5
B9
330
17
100
AcDbEntity
  8
0
100
AcDbPolyline
 90
45
 70
1
 10
-36.300991964771235
 20
170.19450373404828
 10
-38.443470613391014
 20
172.0382555568332
 10
-39.764249551107135
 20
174.5372910790897
 10
-40.080727778960544
 20
177.34611237548953
 10
-39.34915138862896
 20
180.07639286088363
 10
-37.67066264993114
 20
182.3506644141241
 10
-35.277316838489305
 20
183.85450329201902
 10
-32.500000012177345
 20
184.38
 10
-29.72268318418183
 20
183.8545033009168
 10
-27.329337367922104
 20
182.3506644306895
 10
-25.650848621938138
 20
180.07639288282644
 10
-24.919272222859483
 20
177.3461123997761
 10
-25.235750441714192
 20
174.5372911023624
 10
-26.55652937142409
 20
172.03825557587444
 10
-28.699008014136993
 20
170.19450374622562
 10
-28.699008014136997
 20
170.19450374622562
 10
-26.031032791497083
 20
171.12806875982062
 10
-23.206415096606612
 20
171.0223791153856
 10
-20.615665400409203
 20
169.89204667097724
 10
-18.616961337276123
 20
167.89334271810066
 10
-17.48662874995165
 20
165.3025930842569
 10
-17.38093894969942
 20
162.4779753951967
 10
-18.314503816118254
 20
159.8100001210576
 10
-20.15825566819025
 20
157.66752152578292
 10
-22.657291194448433
 20
156.34674264128762
 10
-25.46611247422579
 20
156.03026445641692
 10
-28.19639293053228
 20
156.76184087289028
 10
-30.47066445193849
 20
158.44032961880126
 10
-31.974503304399086
 20
160.83367542103275
 10
-32.5
 20
163.61099222797822
 10
-32.5
 20
163.61099222797822
 10
-33.025496696236466
 20
160.8336754194134
 10
-34.52933555042799
 20
158.4403296162508
 10
-36.80360707416975
 20
156.7618408706259
 10
-39.53388753271322
 20
156.0302644558969
 10
-42.342708813863226
 20
156.34674264385143
 10
-44.84174433997028
 20
157.66752153229072
 10
-46.68549618997041
 20
159.8100001316035
 10
-47.61906105237479
 20
162.4779754089582
 10
-47.51337124656443
 20
165.30259309952092
 10
-46.38303865292425
 20
167.89334273247405
 10
-44.384334583780046
 20
169.89204668175682
 10
-41.79358488304134
 20
171.02237912003082
 10
-38.96896718614046
 20
171.12806875645003
 10
-36.300991964771235
 20
170.19450373404828
  0
CIRCLE
  5
BA
330
17
100
AcDbEntity
  8
0
100
AcDbCircle
 10
-49.0
 20
214.0
 30
0.0
 40
10.5
  0
LWPOLYLINE
  5
BB
330
17
100
AcDbEntity
  8
0
100
AcDbPolyline
 90
45
 70
1
 10
-47.002042546831966
 20
212.84647872658402
 10
-45.875867914682374
 20
211.87732708664018
 10
-45.18161237154927
 20
210.56373146997117
 10
-45.0152584858855
 20
209.08729976209312
 10
-45.39980509922145
 20
207.65215234615462
 10
-46.282087678694694
 20
206.45670194849643
 10
-47.540128446934006
 20
205.66622258206684
 10
-49.00000011542389
 20
205.39000000000001
 10
-50.45987176795613
 20
205.666222666405
 10
-51.7179124905287
 20
206.4567021055128
 10
-52.60019500093964
 20
207.65215255414128
 10
-52.98474153136578
 20
209.0872999922954
 10
-52.818387560407146
 20
210.56373169056303
 10
-52.12413194138639
 20
211.87732726712426
 10
-50.99795725324799
 20
212.8464788420079
 10
-50.99795725324799
 20
212.8464788420079
 10
-52.40035448128413
 20
212.35575874042286
 10
-53.8850894303954
 20
212.4113135259114
 10
-55.24689377352706
 20
213.00546261017462
 10
-56.29749464793163
 20
214.05606339353787
 10
-56.89164385020393
 20
215.4178676851827
 10
-56.94719876435428
 20
216.90260262947976
 10
-56.45647878429597
 20
218.30499990003995
 10
-55.48732717688222
 20
219.43117456018396
 10
-54.173731580267095
 20
220.1254301412609
 10
-52.69729987719427
 20
220.2917840695721
 10
-51.26215245014796
 20
219.90723749769106
 10
-50.06670202700462
 20
219.02495495274894
 10
-49.27622262423591
 20
217.766914207343
 10
-49.0
 20
216.30704254683195
 10
-49.0
 20
216.30704254683195
 10
-48.72377738178825
 20
217.76691419199372
 10
-47.93329799542631
 20
219.0249549285742
 10
-46.73784759442063
 20
219.90723747622798
 10
-45.30270018857784
 20
220.2917840646432
 10
-43.82626849851573
 20
220.1254301655622
 10
-42.51267290046811
 20
219.43117462186882
 10
-41.54352127341599
 20
218.30500000000004
 10
-41.052801255306335
 20
216.9026027599195
 10
-41.10835611677348
 20
215.41786782986412
 10
-41.7025052591818
 20
214.05606352977748
 10
-42.7531060766094
 20
213.00546271234987
 10
-44.114910376696066
 20
212.41131356994154
 10
-45.59964530675141
 20
212.35575870847438
 10
-47.00204254683196
 20
212.84647872658402
  0
LINE
  5
BC
330
17
100
AcDbEntity
  8
0
100
AcDbLine
 10
0.0
 20
30.0
 30
0.0
 11
0.0
 21
116.0
 31
0.0
  0
LINE
  5
BD
330
17
100
AcDbEntity
  8
0
100
AcDbLine
 10
0.0
 20
145.0
 30
0.0
 11
0.0
 21
167.0
 31
0.0
  0
ENDSEC
  0
SECTION
  2
OBJECTS
  0
DICTIONARY
  5
A
330
0
100
AcDbDictionary
281
1
  3
ACAD_COLOR
350
B
  3
ACAD_GROUP
350
C
  3
ACAD_LAYOUT
350
D
  3
ACAD_MATERIAL
350
E
  3
ACAD_MLEADERSTYLE
350
F
  3
ACAD_MLINESTYLE
350
10
  3
ACAD_PLOTSETTINGS
350
11
  3
ACAD_PLOTSTYLENAME
350
12
  3
ACAD_SCALELIST
350
14
  3
ACAD_TABLESTYLE
350
15
  3
ACAD_VISUALSTYLE
350
16
  3
EZDXF_META
350
2D
  0
DICTIONARY
  5
B
330
A
100
AcDbDictionary
281
1
  0
DICTIONARY
  5
C
330
A
100
AcDbDictionary
281
1
  0
DICTIONARY
  5
D
330
A
100
AcDbDictionary
281
1
  3
Model
350
1A
  3
Layout1
350
1E
  0
DICTIONARY
  5
E
330
A
100
AcDbDictionary
281
1
  3
ByBlock
350
1F
  3
ByLayer
350
20
  3
Global
350
21
  0
DICTIONARY
  5
F
330
A
100
AcDbDictionary
281
1
  3
Standard
350
2C
  0
DICTIONARY
  5
10
330
A
100
AcDbDictionary
281
1
  3
Standard
350
22
  0
DICTIONARY
  5
11
330
A
100
AcDbDictionary
281
1
  0
ACDBDICTIONARYWDFLT
  5
12
330
A
100
AcDbDictionary
281
1
  3
Normal
350
13
100
AcDbDictionaryWithDefault
340
13
  0
ACDBPLACEHOLDER
  5
13
330
12
  0
DICTIONARY
  5
14
330
A
100
AcDbDictionary
281
1
  0
DICTIONARY
  5
15
330
A
100
AcDbDictionary
281
1
  0
DICTIONARY
  5
16
330
A
100
AcDbDictionary
281
1
  3
2dWireframe
350
5A
  3
Basic
350
5B
  3
Brighten
350
5C
  3
ColorChange
350
5D
  3
Conceptual
350
5E
  3
Dim
350
5F
  3
EdgeColorOff
350
60
  3
Facepattern
350
61
  3
Flat
350
62
  3
FlatWithEdges
350
63
  3
Gouraud
350
64
  3
GouraudWithEdges
350
65
  3
Hidden
350
66
  3
JitterOff
350
67
  3
Linepattern
350
68
  3
Modeling
350
69
  3
OverhangOff
350
6A
  3
Realistic
350
6B
  3
Shaded
350
6C
  3
Shaded with edges
350
6D
  3
Shades of Gray
350
6E
  3
Sketchy
350
6F
  3
Thicken
350
70
  3
Wireframe
350
71
  3
X-Ray
350
72
  0
LAYOUT
  5
1A
330
D
100
AcDbPlotSettings
  1

  4
A3
  6

 40
7.5
 41
20.0
 42
7.5
 43
20.0
 44
420.0
 45
297.0
 46
0.0
 47
0.0
 48
0.0
 49
0.0
140
0.0
141
0.0
142
1.0
143
1.0
 70
1024
 72
1
 73
0
 74
5
  7

 75
16
 76
0
 77
2
 78
300
147
1.0
148
0.0
149
0.0
100
AcDbLayout
  1
Model
 70
1
 71
0
 10
0.0
 20
0.0
 11
420.0
 21
297.0
 12
0.0
 22
0.0
 32
0.0
 14
1e+20
 24
1e+20
 34
1e+20
 15
-1e+20
 25
-1e+20
 35
-1e+20
146
0.0
 13
0.0
 23
0.0
 33
0.0
 16
1.0
 26
0.0
 36
0.0
 17
0.0
 27
1.0
 37
0.0
 76
1
330
17
  0
LAYOUT
  5
1E
330
D
100
AcDbPlotSettings
  1

  4
A3
  6

 40
7.5
 41
20.0
 42
7.5
 43
20.0
 44
420.0
 45
297.0
 46
0.0
 47
0.0
 48
0.0
 49
0.0
140
0.0
141
0.0
142
1.0
143
1.0
 70
0
 72
1
 73
0
 74
5
  7

 75
16
 76
0
 77
2
 78
300
147
1.0
148
0.0
149
0.0
100
AcDbLayout
  1
Layout1
 70
1
 71
1
 10
0.0
 20
0.0
 11
420.0
 21
297.0
 12
0.0
 22
0.0
 32
0.0
 14
1e+20
 24
1e+20
 34
1e+20
 15
-1e+20
 25
-1e+20
 35
-1e+20
146
0.0
 13
0.0
 23
0.0
 33
0.0
 16
1.0
 26
0.0
 36
0.0
 17
0.0
 27
1.0
 37
0.0
 76
1
330
1B
  0
MATERIAL
  5
1F
102
{ACAD_REACTORS
330
E
102
}
330
E
100
AcDbMaterial
  1
ByBlock
  2

 70
0
 40
1.0
 71
1
 41
1.0
 91
-1023410177
 42
1.0
 72
1
  3

 73
1
 74
1
 75
1
 44
0.5
 73
0
 45
1.0
 46
1.0
 77
1
  4

 78
1
 79
1
170
1
 48
1.0
171
1
  6

172
1
173
1
174
1
140
1.0
141
1.0
175
1
  7

176
1
177
1
178
1
143
1.0
179
1
  8

270
1
271
1
272
1
145
1.0
146
1.0
273
1
  9

274
1
275
1
276
1
 42
1.0
 72
1
  3

 73
1
 74
1
 75
1
 94
63
  0
MATERIAL
  5
20
102
{ACAD_REACTORS
330
E
102
}
330
E
100
AcDbMaterial
  1
ByLayer
  2

 70
0
 40
1.0
 71
1
 41
1.0
 91
-1023410177
 42
1.0
 72
1
  3

 73
1
 74
1
 75
1
 44
0.5
 73
0
 45
1.0
 46
1.0
 77
1
  4

 78
1
 79
1
170
1
 48
1.0
171
1
  6

172
1
173
1
174
1
140
1.0
141
1.0
175
1
  7

176
1
177
1
178
1
143
1.0
179
1
  8

270
1
271
1
272
1
145
1.0
146
1.0
273
1
  9

274
1
275
1
276
1
 42
1.0
 72
1
  3

 73
1
 74
1
 75
1
 94
63
  0
MATERIAL
  5
21
102
{ACAD_REACTORS
330
E
102
}
330
E
100
AcDbMaterial
  1
Global
  2

 70
0
 40
1.0
 71
1
 41
1.0
 91
-1023410177
 42
1.0
 72
1
  3

 73
1
 74
1
 75
1
 44
0.5
 73
0
 45
1.0
 46
1.0
 77
1
  4

 78
1
 79
1
170
1
 48
1.0
171
1
  6

172
1
173
1
174
1
140
1.0
141
1.0
175
1
  7

176
1
177
1
178
1
143
1.0
179
1
  8

270
1
271
1
272
1
145
1.0
146
1.0
273
1
  9

274
1
275
1
276
1
 42
1.0
 72
1
  3

 73
1
 74
1
 75
1
 94
63
  0
MLINESTYLE
  5
22
102
{ACAD_REACTORS
330
10
102
}
330
10
100
AcDbMlineStyle
  2
Standard
 70
0
  3

 62
256
 51
90.0
 52
90.0
 71
2
 49
0.5
 62
256
  6
BYLAYER
 49
-0.5
 62
256
  6
BYLAYER
  0
MLEADERSTYLE
  5
2C
102
{ACAD_REACTORS
330
F
102
}
330
F
100
AcDbMLeaderStyle
179
2
170
2
171
1
172
0
 90
2
 40
0.0
 41
0.0
173
1
 91
-1056964608
 92
-2
290
1
 42
2.0
291
1
 43
8.0
  3
Standard
 44
4.0
300

342
29
174
1
175
1
176
0
178
1
 93
-1056964608
 45
4.0
292
0
297
0
 46
4.0
 94
-1056964608
 47
1.0
 49
1.0
140
1.0
294
1
141
0.0
177
0
142
1.0
295
0
296
0
143
3.75
271
0
272
9
273
9
  0
DICTIONARY
  5
2D
330
A
100
AcDbDictionary
280
1
281
1
  3
CREATED_BY_EZDXF
350
2E
  3
WRITTEN_BY_EZDXF
350
C0
  0
DICTIONARYVAR
  5
2E
330
2D
100
DictionaryVariables
280
0
  1
1.4.4 @ 2026-07-30T11:28:12.809816+00:00
  0
VISUALSTYLE
  5
5A
102
{ACAD_REACTORS
330
16
102
}
330
16
100
AcDbVisualStyle
  2
2dWireframe
 70
4
177
3
291
0
 70
58
 90
2
176
1
 90
2
176
1
 90
0
176
1
 90
0
176
1
 40
0.6
176
1
 40
30.0
176
1
 62
7
420
16777215
176
1
 90
1
176
1
 90
4
176
1
 62
7
176
1
 62
257
176
1
 90
1
176
1
 90
1
176
1
 40
1.0
176
1
 90
8
176
1
 62
7
176
1
 40
1.0
176
1
 90
1
176
1
 90
6
176
1
 90
2
176
1
 62
7
176
1
 90
5
176
1
 90
0
176
1
 90
0
176
1
290
0
176
1
 90
1
176
1
 40
0.0
176
1
 90
0
176
1
290
1
176
1
290
1
176
1
290
0
176
1
290
0
176
1
290
0
176
1
290
0
176
1
290
0
176
1
290
0
176
1
290
0
176
1
 90
50
176
1
 40
0.0
176
1
 40
1.0
176
1
 90
0
176
1
 62
18
420
0
176
1
 90
50
176
1
 90
3
176
1
 62
5
420
255
176
1
290
0
176
1
 90
50
176
1
 90
50
176
1
 90
50
176
1
290
0
176
1
 90
50
176
1
 62
256
176
0
 40
1.0
176
0
 90
2
176
1
  1
strokes_ogs.tif
176
1
290
0
176
1
 40
1.0
176
1
 40
1.0
176
1
  0
VISUALSTYLE
  5
5B
102
{ACAD_REACTORS
330
16
102
}
330
16
100
AcDbVisualStyle
  2
Basic
 70
7
177
3
291
1
 70
58
 90
2
176
1
 90
2
176
1
 90
0
176
1
 90
1
176
1
 40
0.6
176
1
 40
30.0
176
1
 62
7
420
16777215
176
1
 90
1
176
1
 90
4
176
1
 62
7
176
1
 62
257
176
1
 90
1
176
1
 90
1
176
1
 40
1.0
176
1
 90
8
176
1
 62
7
176
1
 40
1.0
176
1
 90
1
176
1
 90
6
176
1
 90
2
176
1
 62
7
176
1
 90
5
176
1
 90
0
176
1
 90
0
176
1
290
0
176
1
 90
1
176
1
 40
0.0
176
1
 90
0
176
1
290
0
176
1
290
1
176
1
290
1
176
1
290
0
176
1
290
0
176
1
290
0
176
1
290
0
176
1
290
0
176
1
290
0
176
1
 90
50
176
1
 40
0.0
176
1
 40
1.0
176
1
 90
0
176
1
 62
18
420
0
176
1
 90
50
176
1
 90
3
176
1
 62
5
420
255
176
1
290
0
176
1
 90
50
176
1
 90
50
176
1
 90
50
176
1
290
0
176
1
 90
50
176
1
 62
256
176
0
 40
1.0
176
0
 90
2
176
1
  1
strokes_ogs.tif
176
1
290
0
176
1
 40
1.0
176
1
 40
1.0
176
1
  0
VISUALSTYLE
  5
5C
102
{ACAD_REACTORS
330
16
102
}
330
16
100
AcDbVisualStyle
  2
Brighten
 70
12
177
3
291
1
 70
58
 90
2
176
1
 90
2
176
1
 90
0
176
1
 90
2
176
1
 40
0.6
176
1
 40
30.0
176
1
 62
7
420
16777215
176
1
 90
1
176
1
 90
4
176
1
 62
7
176
1
 62
257
176
1
 90
1
176
1
 90
1
176
1
 40
1.0
176
1
 90
8
176
1
 62
7
176
1
 40
1.0
176
1
 90
1
176
1
 90
6
176
1
 90
2
176
1
 62
7
176
1
 90
5
176
1
 90
0
176
1
 90
0
176
1
290
0
176
1
 90
1
176
1
 40
0.0
176
1
 90
0
176
1
290
0
176
1
290
1
176
1
290
1
176
1
290
0
176
1
290
0
176
1
290
0
176
1
290
0
176
1
290
0
176
1
290
0
176
1
 90
50
176
1
 40
0.0
176
1
 40
1.0
176
1
 90
0
176
1
 62
18
420
0
176
1
 90
50
176
1
 90
3
176
1
 62
5
420
255
176
1
290
0
176
1
 90
50
176
1
 90
50
176
1
 90
50
176
1
290
0
176
1
 90
50
176
1
 62
256
176
0
 40
1.0
176
0
 90
2
176
1
  1
strokes_ogs.tif
176
1
290
0
176
1
 40
1.0
176
1
 40
1.0
176
1
  0
VISUALSTYLE
  5
5D
102
{ACAD_REACTORS
330
16
102
}
330
16
100
AcDbVisualStyle
  2
ColorChange
 70
16
177
3
291
1
 70
58
 90
2
176
1
 90
2
176
1
 90
0
176
1
 90
2
176
1
 40
0.6
176
1
 40
30.0
176
1
 62
7
420
16777215
176
1
 90
1
176
1
 90
4
176
1
 62
7
176
1
 62
257
176
1
 90
1
176
1
 90
1
176
1
 40
1.0
176
1
 90
8
176
1
 62
7
176
1
 40
1.0
176
1
 90
1
176
1
 90
6
176
1
 90
2
176
1
 62
7
176
1
 90
5
176
1
 90
0
176
1
 90
0
176
1
290
0
176
1
 90
1
176
1
 40
0.0
176
1
 90
0
176
1
290
0
176
1
290
1
176
1
290
1
176
1
290
0
176
1
290
0
176
1
290
0
176
1
290
0
176
1
290
0
176
1
290
0
176
1
 90
50
176
1
 40
0.0
176
1
 40
1.0
176
1
 90
0
176
1
 62
18
420
0
176
1
 90
50
176
1
 90
3
176
1
 62
5
420
255
176
1
290
0
176
1
 90
50
176
1
 90
50
176
1
 90
50
176
1
290
0
176
1
 90
50
176
1
 62
256
176
0
 40
1.0
176
0
 90
2
176
1
  1
strokes_ogs.tif
176
1
290
0
176
1
 40
1.0
176
1
 40
1.0
176
1
  0
VISUALSTYLE
  5
5E
102
{ACAD_REACTORS
330
16
102
}
330
16
100
AcDbVisualStyle
  2
Conceptual
 70
9
177
3
291
0
 70
58
 90
2
176
1
 90
2
176
1
 90
0
176
1
 90
3
176
1
 40
0.6
176
1
 40
30.0
176
1
 62
7
420
16777215
176
1
 90
1
176
1
 90
4
176
1
 62
7
176
1
 62
257
176
1
 90
1
176
1
 90
1
176
1
 40
1.0
176
1
 90
8
176
1
 62
7
176
1
 40
1.0
176
1
 90
1
176
1
 90
6
176
1
 90
2
176
1
 62
7
176
1
 90
5
176
1
 90
0
176
1
 90
0
176
1
290
0
176
1
 90
1
176
1
 40
0.0
176
1
 90
0
176
1
290
0
176
1
290
1
176
1
290
1
176
1
290
0
176
1
290
0
176
1
290
0
176
1
290
0
176
1
290
0
176
1
290
0
176
1
 90
50
176
1
 40
0.0
176
1
 40
1.0
176
1
 90
0
176
1
 62
18
420
0
176
1
 90
50
176
1
 90
3
176
1
 62
5
420
255
176
1
290
0
176
1
 90
50
176
1
 90
50
176
1
 90
50
176
1
290
0
176
1
 90
50
176
1
 62
256
176
0
 40
1.0
176
0
 90
2
176
1
  1
strokes_ogs.tif
176
1
290
0
176
1
 40
1.0
176
1
 40
1.0
176
1
  0
VISUALSTYLE
  5
5F
102
{ACAD_REACTORS
330
16
102
}
330
16
100
AcDbVisualStyle
  2
Dim
 70
11
177
3
291
1
 70
58
 90
2
176
1
 90
2
176
1
 90
0
176
1
 90
2
176
1
 40
0.6
176
1
 40
30.0
176
1
 62
7
420
16777215
176
1
 90
1
176
1
 90
4
176
1
 62
7
176
1
 62
257
176
1
 90
1
176
1
 90
1
176
1
 40
1.0
176
1
 90
8
176
1
 62
7
176
1
 40
1.0
176
1
 90
1
176
1
 90
6
176
1
 90
2
176
1
 62
7
176
1
 90
5
176
1
 90
0
176
1
 90
0
176
1
290
0
176
1
 90
1
176
1
 40
0.0
176
1
 90
0
176
1
290
0
176
1
290
1
176
1
290
1
176
1
290
0
176
1
290
0
176
1
290
0
176
1
290
0
176
1
290
0
176
1
290
0
176
1
 90
50
176
1
 40
0.0
176
1
 40
1.0
176
1
 90
0
176
1
 62
18
420
0
176
1
 90
50
176
1
 90
3
176
1
 62
5
420
255
176
1
290
0
176
1
 90
50
176
1
 90
50
176
1
 90
50
176
1
290
0
176
1
 90
50
176
1
 62
256
176
0
 40
1.0
176
0
 90
2
176
1
  1
strokes_ogs.tif
176
1
290
0
176
1
 40
1.0
176
1
 40
1.0
176
1
  0
VISUALSTYLE
  5
60
102
{ACAD_REACTORS
330
16
102
}
330
16
100
AcDbVisualStyle
  2
EdgeColorOff
 70
22
177
3
291
1
 70
58
 90
2
176
1
 90
2
176
1
 90
0
176
1
 90
2
176
1
 40
0.6
176
1
 40
30.0
176
1
 62
7
420
16777215
176
1
 90
1
176
1
 90
4
176
1
 62
7
176
1
 62
257
176
1
 90
1
176
1
 90
1
176
1
 40
1.0
176
1
 90
8
176
1
 62
7
176
1
 40
1.0
176
1
 90
1
176
1
 90
6
176
1
 90
2
176
1
 62
7
176
1
 90
5
176
1
 90
0
176
1
 90
0
176
1
290
0
176
1
 90
1
176
1
 40
0.0
176
1
 90
0
176
1
290
0
176
1
290
1
176
1
290
1
176
1
290
0
176
1
290
0
176
1
290
0
176
1
290
0
176
1
290
0
176
1
290
0
176
1
 90
50
176
1
 40
0.0
176
1
 40
1.0
176
1
 90
0
176
1
 62
18
420
0
176
1
 90
50
176
1
 90
3
176
1
 62
5
420
255
176
1
290
0
176
1
 90
50
176
1
 90
50
176
1
 90
50
176
1
290
0
176
1
 90
50
176
1
 62
256
176
0
 40
1.0
176
0
 90
2
176
1
  1
strokes_ogs.tif
176
1
290
0
176
1
 40
1.0
176
1
 40
1.0
176
1
  0
VISUALSTYLE
  5
61
102
{ACAD_REACTORS
330
16
102
}
330
16
100
AcDbVisualStyle
  2
Facepattern
 70
15
177
3
291
1
 70
58
 90
2
176
1
 90
2
176
1
 90
0
176
1
 90
2
176
1
 40
0.6
176
1
 40
30.0
176
1
 62
7
420
16777215
176
1
 90
1
176
1
 90
4
176
1
 62
7
176
1
 62
257
176
1
 90
1
176
1
 90
1
176
1
 40
1.0
176
1
 90
8
176
1
 62
7
176
1
 40
1.0
176
1
 90
1
176
1
 90
6
176
1
 90
2
176
1
 62
7
176
1
 90
5
176
1
 90
0
176
1
 90
0
176
1
290
0
176
1
 90
1
176
1
 40
0.0
176
1
 90
0
176
1
290
0
176
1
290
1
176
1
290
1
176
1
290
0
176
1
290
0
176
1
290
0
176
1
290
0
176
1
290
0
176
1
290
0
176
1
 90
50
176
1
 40
0.0
176
1
 40
1.0
176
1
 90
0
176
1
 62
18
420
0
176
1
 90
50
176
1
 90
3
176
1
 62
5
420
255
176
1
290
0
176
1
 90
50
176
1
 90
50
176
1
 90
50
176
1
290
0
176
1
 90
50
176
1
 62
256
176
0
 40
1.0
176
0
 90
2
176
1
  1
strokes_ogs.tif
176
1
290
0
176
1
 40
1.0
176
1
 40
1.0
176
1
  0
VISUALSTYLE
  5
62
102
{ACAD_REACTORS
330
16
102
}
330
16
100
AcDbVisualStyle
  2
Flat
 70
0
177
3
291
1
 70
58
 90
2
176
1
 90
2
176
1
 90
0
176
1
 90
2
176
1
 40
0.6
176
1
 40
30.0
176
1
 62
7
420
16777215
176
1
 90
1
176
1
 90
4
176
1
 62
7
176
1
 62
257
176
1
 90
1
176
1
 90
1
176
1
 40
1.0
176
1
 90
8
176
1
 62
7
176
1
 40
1.0
176
1
 90
1
176
1
 90
6
176
1
 90
2
176
1
 62
7
176
1
 90
5
176
1
 90
0
176
1
 90
0
176
1
290
0
176
1
 90
1
176
1
 40
0.0
176
1
 90
0
176
1
290
0
176
1
290
1
176
1
290
1
176
1
290
0
176
1
290
0
176
1
290
0
176
1
290
0
176
1
290
0
176
1
290
0
176
1
 90
50
176
1
 40
0.0
176
1
 40
1.0
176
1
 90
0
176
1
 62
18
420
0
176
1
 90
50
176
1
 90
3
176
1
 62
5
420
255
176
1
290
0
176
1
 90
50
176
1
 90
50
176
1
 90
50
176
1
290
0
176
1
 90
50
176
1
 62
256
176
0
 40
1.0
176
0
 90
2
176
1
  1
strokes_ogs.tif
176
1
290
0
176
1
 40
1.0
176
1
 40
1.0
176
1
  0
VISUALSTYLE
  5
63
102
{ACAD_REACTORS
330
16
102
}
330
16
100
AcDbVisualStyle
  2
FlatWithEdges
 70
1
177
3
291
1
 70
58
 90
2
176
1
 90
2
176
1
 90
0
176
1
 90
2
176
1
 40
0.6
176
1
 40
30.0
176
1
 62
7
420
16777215
176
1
 90
1
176
1
 90
4
176
1
 62
7
176
1
 62
257
176
1
 90
1
176
1
 90
1
176
1
 40
1.0
176
1
 90
8
176
1
 62
7
176
1
 40
1.0
176
1
 90
1
176
1
 90
6
176
1
 90
2
176
1
 62
7
176
1
 90
5
176
1
 90
0
176
1
 90
0
176
1
290
0
176
1
 90
1
176
1
 40
0.0
176
1
 90
0
176
1
290
0
176
1
290
1
176
1
290
1
176
1
290
0
176
1
290
0
176
1
290
0
176
1
290
0
176
1
290
0
176
1
290
0
176
1
 90
50
176
1
 40
0.0
176
1
 40
1.0
176
1
 90
0
176
1
 62
18
420
0
176
1
 90
50
176
1
 90
3
176
1
 62
5
420
255
176
1
290
0
176
1
 90
50
176
1
 90
50
176
1
 90
50
176
1
290
0
176
1
 90
50
176
1
 62
256
176
0
 40
1.0
176
0
 90
2
176
1
  1
strokes_ogs.tif
176
1
290
0
176
1
 40
1.0
176
1
 40
1.0
176
1
  0
VISUALSTYLE
  5
64
102
{ACAD_REACTORS
330
16
102
}
330
16
100
AcDbVisualStyle
  2
Gouraud
 70
2
177
3
291
1
 70
58
 90
2
176
1
 90
2
176
1
 90
0
176
1
 90
2
176
1
 40
0.6
176
1
 40
30.0
176
1
 62
7
420
16777215
176
1
 90
1
176
1
 90
4
176
1
 62
7
176
1
 62
257
176
1
 90
1
176
1
 90
1
176
1
 40
1.0
176
1
 90
8
176
1
 62
7
176
1
 40
1.0
176
1
 90
1
176
1
 90
6
176
1
 90
2
176
1
 62
7
176
1
 90
5
176
1
 90
0
176
1
 90
0
176
1
290
0
176
1
 90
1
176
1
 40
0.0
176
1
 90
0
176
1
290
0
176
1
290
1
176
1
290
1
176
1
290
0
176
1
290
0
176
1
290
0
176
1
290
0
176
1
290
0
176
1
290
0
176
1
 90
50
176
1
 40
0.0
176
1
 40
1.0
176
1
 90
0
176
1
 62
18
420
0
176
1
 90
50
176
1
 90
3
176
1
 62
5
420
255
176
1
290
0
176
1
 90
50
176
1
 90
50
176
1
 90
50
176
1
290
0
176
1
 90
50
176
1
 62
256
176
0
 40
1.0
176
0
 90
2
176
1
  1
strokes_ogs.tif
176
1
290
0
176
1
 40
1.0
176
1
 40
1.0
176
1
  0
VISUALSTYLE
  5
65
102
{ACAD_REACTORS
330
16
102
}
330
16
100
AcDbVisualStyle
  2
GouraudWithEdges
 70
3
177
3
291
1
 70
58
 90
2
176
1
 90
2
176
1
 90
0
176
1
 90
2
176
1
 40
0.6
176
1
 40
30.0
176
1
 62
7
420
16777215
176
1
 90
1
176
1
 90
4
176
1
 62
7
176
1
 62
257
176
1
 90
1
176
1
 90
1
176
1
 40
1.0
176
1
 90
8
176
1
 62
7
176
1
 40
1.0
176
1
 90
1
176
1
 90
6
176
1
 90
2
176
1
 62
7
176
1
 90
5
176
1
 90
0
176
1
 90
0
176
1
290
0
176
1
 90
1
176
1
 40
0.0
176
1
 90
0
176
1
290
0
176
1
290
1
176
1
290
1
176
1
290
0
176
1
290
0
176
1
290
0
176
1
290
0
176
1
290
0
176
1
290
0
176
1
 90
50
176
1
 40
0.0
176
1
 40
1.0
176
1
 90
0
176
1
 62
18
420
0
176
1
 90
50
176
1
 90
3
176
1
 62
5
420
255
176
1
290
0
176
1
 90
50
176
1
 90
50
176
1
 90
50
176
1
290
0
176
1
 90
50
176
1
 62
256
176
0
 40
1.0
176
0
 90
2
176
1
  1
strokes_ogs.tif
176
1
290
0
176
1
 40
1.0
176
1
 40
1.0
176
1
  0
VISUALSTYLE
  5
66
102
{ACAD_REACTORS
330
16
102
}
330
16
100
AcDbVisualStyle
  2
Hidden
 70
6
177
3
291
0
 70
58
 90
2
176
1
 90
2
176
1
 90
0
176
1
 90
1
176
1
 40
0.6
176
1
 40
30.0
176
1
 62
7
420
16777215
176
1
 90
1
176
1
 90
4
176
1
 62
7
176
1
 62
257
176
1
 90
1
176
1
 90
1
176
1
 40
1.0
176
1
 90
8
176
1
 62
7
176
1
 40
1.0
176
1
 90
1
176
1
 90
6
176
1
 90
2
176
1
 62
7
176
1
 90
5
176
1
 90
0
176
1
 90
0
176
1
290
0
176
1
 90
1
176
1
 40
0.0
176
1
 90
0
176
1
290
0
176
1
290
1
176
1
290
1
176
1
290
0
176
1
290
0
176
1
290
0
176
1
290
0
176
1
290
0
176
1
290
0
176
1
 90
50
176
1
 40
0.0
176
1
 40
1.0
176
1
 90
0
176
1
 62
18
420
0
176
1
 90
50
176
1
 90
3
176
1
 62
5
420
255
176
1
290
0
176
1
 90
50
176
1
 90
50
176
1
 90
50
176
1
290
0
176
1
 90
50
176
1
 62
256
176
0
 40
1.0
176
0
 90
2
176
1
  1
strokes_ogs.tif
176
1
290
0
176
1
 40
1.0
176
1
 40
1.0
176
1
  0
VISUALSTYLE
  5
67
102
{ACAD_REACTORS
330
16
102
}
330
16
100
AcDbVisualStyle
  2
JitterOff
 70
20
177
3
291
1
 70
58
 90
2
176
1
 90
2
176
1
 90
0
176
1
 90
2
176
1
 40
0.6
176
1
 40
30.0
176
1
 62
7
420
16777215
176
1
 90
1
176
1
 90
4
176
1
 62
7
176
1
 62
257
176
1
 90
1
176
1
 90
1
176
1
 40
1.0
176
1
 90
8
176
1
 62
7
176
1
 40
1.0
176
1
 90
1
176
1
 90
6
176
1
 90
2
176
1
 62
7
176
1
 90
5
176
1
 90
0
176
1
 90
0
176
1
290
0
176
1
 90
1
176
1
 40
0.0
176
1
 90
0
176
1
290
0
176
1
290
1
176
1
290
1
176
1
290
0
176
1
290
0
176
1
290
0
176
1
290
0
176
1
290
0
176
1
290
0
176
1
 90
50
176
1
 40
0.0
176
1
 40
1.0
176
1
 90
0
176
1
 62
18
420
0
176
1
 90
50
176
1
 90
3
176
1
 62
5
420
255
176
1
290
0
176
1
 90
50
176
1
 90
50
176
1
 90
50
176
1
290
0
176
1
 90
50
176
1
 62
256
176
0
 40
1.0
176
0
 90
2
176
1
  1
strokes_ogs.tif
176
1
290
0
176
1
 40
1.0
176
1
 40
1.0
176
1
  0
VISUALSTYLE
  5
68
102
{ACAD_REACTORS
330
16
102
}
330
16
100
AcDbVisualStyle
  2
Linepattern
 70
14
177
3
291
1
 70
58
 90
2
176
1
 90
2
176
1
 90
0
176
1
 90
2
176
1
 40
0.6
176
1
 40
30.0
176
1
 62
7
420
16777215
176
1
 90
1
176
1
 90
4
176
1
 62
7
176
1
 62
257
176
1
 90
1
176
1
 90
1
176
1
 40
1.0
176
1
 90
8
176
1
 62
7
176
1
 40
1.0
176
1
 90
1
176
1
 90
6
176
1
 90
2
176
1
 62
7
176
1
 90
5
176
1
 90
0
176
1
 90
0
176
1
290
0
176
1
 90
1
176
1
 40
0.0
176
1
 90
0
176
1
290
0
176
1
290
1
176
1
290
1
176
1
290
0
176
1
290
0
176
1
290
0
176
1
290
0
176
1
290
0
176
1
290
0
176
1
 90
50
176
1
 40
0.0
176
1
 40
1.0
176
1
 90
0
176
1
 62
18
420
0
176
1
 90
50
176
1
 90
3
176
1
 62
5
420
255
176
1
290
0
176
1
 90
50
176
1
 90
50
176
1
 90
50
176
1
290
0
176
1
 90
50
176
1
 62
256
176
0
 40
1.0
176
0
 90
2
176
1
  1
strokes_ogs.tif
176
1
290
0
176
1
 40
1.0
176
1
 40
1.0
176
1
  0
VISUALSTYLE
  5
69
102
{ACAD_REACTORS
330
16
102
}
330
16
100
AcDbVisualStyle
  2
Modeling
 70
10
177
3
291
0
 70
58
 90
2
176
1
 90
2
176
1
 90
0
176
1
 90
2
176
1
 40
0.6
176
1
 40
30.0
176
1
 62
7
420
16777215
176
1
 90
1
176
1
 90
4
176
1
 62
7
176
1
 62
257
176
1
 90
1
176
1
 90
1
176
1
 40
1.0
176
1
 90
8
176
1
 62
7
176
1
 40
1.0
176
1
 90
1
176
1
 90
6
176
1
 90
2
176
1
 62
7
176
1
 90
5
176
1
 90
0
176
1
 90
0
176
1
290
0
176
1
 90
1
176
1
 40
0.0
176
1
 90
0
176
1
290
0
176
1
290
1
176
1
290
1
176
1
290
0
176
1
290
0
176
1
290
0
176
1
290
0
176
1
290
0
176
1
290
0
176
1
 90
50
176
1
 40
0.0
176
1
 40
1.0
176
1
 90
0
176
1
 62
18
420
0
176
1
 90
50
176
1
 90
3
176
1
 62
5
420
255
176
1
290
0
176
1
 90
50
176
1
 90
50
176
1
 90
50
176
1
290
0
176
1
 90
50
176
1
 62
256
176
0
 40
1.0
176
0
 90
2
176
1
  1
strokes_ogs.tif
176
1
290
0
176
1
 40
1.0
176
1
 40
1.0
176
1
  0
VISUALSTYLE
  5
6A
102
{ACAD_REACTORS
330
16
102
}
330
16
100
AcDbVisualStyle
  2
OverhangOff
 70
21
177
3
291
1
 70
58
 90
2
176
1
 90
2
176
1
 90
0
176
1
 90
2
176
1
 40
0.6
176
1
 40
30.0
176
1
 62
7
420
16777215
176
1
 90
1
176
1
 90
4
176
1
 62
7
176
1
 62
257
176
1
 90
1
176
1
 90
1
176
1
 40
1.0
176
1
 90
8
176
1
 62
7
176
1
 40
1.0
176
1
 90
1
176
1
 90
6
176
1
 90
2
176
1
 62
7
176
1
 90
5
176
1
 90
0
176
1
 90
0
176
1
290
0
176
1
 90
1
176
1
 40
0.0
176
1
 90
0
176
1
290
0
176
1
290
1
176
1
290
1
176
1
290
0
176
1
290
0
176
1
290
0
176
1
290
0
176
1
290
0
176
1
290
0
176
1
 90
50
176
1
 40
0.0
176
1
 40
1.0
176
1
 90
0
176
1
 62
18
420
0
176
1
 90
50
176
1
 90
3
176
1
 62
5
420
255
176
1
290
0
176
1
 90
50
176
1
 90
50
176
1
 90
50
176
1
290
0
176
1
 90
50
176
1
 62
256
176
0
 40
1.0
176
0
 90
2
176
1
  1
strokes_ogs.tif
176
1
290
0
176
1
 40
1.0
176
1
 40
1.0
176
1
  0
VISUALSTYLE
  5
6B
102
{ACAD_REACTORS
330
16
102
}
330
16
100
AcDbVisualStyle
  2
Realistic
 70
8
177
3
291
0
 70
58
 90
2
176
1
 90
2
176
1
 90
0
176
1
 90
2
176
1
 40
0.6
176
1
 40
30.0
176
1
 62
7
420
16777215
176
1
 90
1
176
1
 90
4
176
1
 62
7
176
1
 62
257
176
1
 90
1
176
1
 90
1
176
1
 40
1.0
176
1
 90
8
176
1
 62
7
176
1
 40
1.0
176
1
 90
1
176
1
 90
6
176
1
 90
2
176
1
 62
7
176
1
 90
5
176
1
 90
0
176
1
 90
0
176
1
290
0
176
1
 90
1
176
1
 40
0.0
176
1
 90
0
176
1
290
0
176
1
290
1
176
1
290
1
176
1
290
0
176
1
290
0
176
1
290
0
176
1
290
0
176
1
290
0
176
1
290
0
176
1
 90
50
176
1
 40
0.0
176
1
 40
1.0
176
1
 90
0
176
1
 62
18
420
0
176
1
 90
50
176
1
 90
3
176
1
 62
5
420
255
176
1
290
0
176
1
 90
50
176
1
 90
50
176
1
 90
50
176
1
290
0
176
1
 90
50
176
1
 62
256
176
0
 40
1.0
176
0
 90
2
176
1
  1
strokes_ogs.tif
176
1
290
0
176
1
 40
1.0
176
1
 40
1.0
176
1
  0
VISUALSTYLE
  5
6C
102
{ACAD_REACTORS
330
16
102
}
330
16
100
AcDbVisualStyle
  2
Shaded
 70
27
177
3
291
0
 70
58
 90
2
176
1
 90
2
176
1
 90
0
176
1
 90
2
176
1
 40
0.6
176
1
 40
30.0
176
1
 62
7
420
16777215
176
1
 90
1
176
1
 90
4
176
1
 62
7
176
1
 62
257
176
1
 90
1
176
1
 90
1
176
1
 40
1.0
176
1
 90
8
176
1
 62
7
176
1
 40
1.0
176
1
 90
1
176
1
 90
6
176
1
 90
2
176
1
 62
7
176
1
 90
5
176
1
 90
0
176
1
 90
0
176
1
290
0
176
1
 90
1
176
1
 40
0.0
176
1
 90
0
176
1
290
0
176
1
290
1
176
1
290
1
176
1
290
0
176
1
290
0
176
1
290
0
176
1
290
0
176
1
290
0
176
1
290
0
176
1
 90
50
176
1
 40
0.0
176
1
 40
1.0
176
1
 90
0
176
1
 62
18
420
0
176
1
 90
50
176
1
 90
3
176
1
 62
5
420
255
176
1
290
0
176
1
 90
50
176
1
 90
50
176
1
 90
50
176
1
290
0
176
1
 90
50
176
1
 62
256
176
0
 40
1.0
176
0
 90
2
176
1
  1
strokes_ogs.tif
176
1
290
0
176
1
 40
1.0
176
1
 40
1.0
176
1
  0
VISUALSTYLE
  5
6D
102
{ACAD_REACTORS
330
16
102
}
330
16
100
AcDbVisualStyle
  2
Shaded with edges
 70
26
177
3
291
0
 70
58
 90
2
176
1
 90
2
176
1
 90
0
176
1
 90
2
176
1
 40
0.6
176
1
 40
30.0
176
1
 62
7
420
16777215
176
1
 90
1
176
1
 90
4
176
1
 62
7
176
1
 62
257
176
1
 90
1
176
1
 90
1
176
1
 40
1.0
176
1
 90
8
176
1
 62
7
176
1
 40
1.0
176
1
 90
1
176
1
 90
6
176
1
 90
2
176
1
 62
7
176
1
 90
5
176
1
 90
0
176
1
 90
0
176
1
290
0
176
1
 90
1
176
1
 40
0.0
176
1
 90
0
176
1
290
0
176
1
290
1
176
1
290
1
176
1
290
0
176
1
290
0
176
1
290
0
176
1
290
0
176
1
290
0
176
1
290
0
176
1
 90
50
176
1
 40
0.0
176
1
 40
1.0
176
1
 90
0
176
1
 62
18
420
0
176
1
 90
50
176
1
 90
3
176
1
 62
5
420
255
176
1
290
0
176
1
 90
50
176
1
 90
50
176
1
 90
50
176
1
290
0
176
1
 90
50
176
1
 62
256
176
0
 40
1.0
176
0
 90
2
176
1
  1
strokes_ogs.tif
176
1
290
0
176
1
 40
1.0
176
1
 40
1.0
176
1
  0
VISUALSTYLE
  5
6E
102
{ACAD_REACTORS
330
16
102
}
330
16
100
AcDbVisualStyle
  2
Shades of Gray
 70
23
177
3
291
0
 70
58
 90
2
176
1
 90
2
176
1
 90
0
176
1
 90
2
176
1
 40
0.6
176
1
 40
30.0
176
1
 62
7
420
16777215
176
1
 90
1
176
1
 90
4
176
1
 62
7
176
1
 62
257
176
1
 90
1
176
1
 90
1
176
1
 40
1.0
176
1
 90
8
176
1
 62
7
176
1
 40
1.0
176
1
 90
1
176
1
 90
6
176
1
 90
2
176
1
 62
7
176
1
 90
5
176
1
 90
0
176
1
 90
0
176
1
290
0
176
1
 90
1
176
1
 40
0.0
176
1
 90
0
176
1
290
0
176
1
290
1
176
1
290
1
176
1
290
0
176
1
290
0
176
1
290
0
176
1
290
0
176
1
290
0
176
1
290
0
176
1
 90
50
176
1
 40
0.0
176
1
 40
1.0
176
1
 90
0
176
1
 62
18
420
0
176
1
 90
50
176
1
 90
3
176
1
 62
5
420
255
176
1
290
0
176
1
 90
50
176
1
 90
50
176
1
 90
50
176
1
290
0
176
1
 90
50
176
1
 62
256
176
0
 40
1.0
176
0
 90
2
176
1
  1
strokes_ogs.tif
176
1
290
0
176
1
 40
1.0
176
1
 40
1.0
176
1
  0
VISUALSTYLE
  5
6F
102
{ACAD_REACTORS
330
16
102
}
330
16
100
AcDbVisualStyle
  2
Sketchy
 70
24
177
3
291
0
 70
58
 90
2
176
1
 90
2
176
1
 90
0
176
1
 90
1
176
1
 40
0.6
176
1
 40
30.0
176
1
 62
7
420
16777215
176
1
 90
1
176
1
 90
4
176
1
 62
7
176
1
 62
257
176
1
 90
1
176
1
 90
1
176
1
 40
1.0
176
1
 90
8
176
1
 62
7
176
1
 40
1.0
176
1
 90
1
176
1
 90
6
176
1
 90
2
176
1
 62
7
176
1
 90
5
176
1
 90
0
176
1
 90
0
176
1
290
0
176
1
 90
1
176
1
 40
0.0
176
1
 90
0
176
1
290
0
176
1
290
1
176
1
290
1
176
1
290
0
176
1
290
0
176
1
290
0
176
1
290
0
176
1
290
0
176
1
290
0
176
1
 90
50
176
1
 40
0.0
176
1
 40
1.0
176
1
 90
0
176
1
 62
18
420
0
176
1
 90
50
176
1
 90
3
176
1
 62
5
420
255
176
1
290
0
176
1
 90
50
176
1
 90
50
176
1
 90
50
176
1
290
0
176
1
 90
50
176
1
 62
256
176
0
 40
1.0
176
0
 90
2
176
1
  1
strokes_ogs.tif
176
1
290
0
176
1
 40
1.0
176
1
 40
1.0
176
1
  0
VISUALSTYLE
  5
70
102
{ACAD_REACTORS
330
16
102
}
330
16
100
AcDbVisualStyle
  2
Thicken
 70
13
177
3
291
1
 70
58
 90
2
176
1
 90
2
176
1
 90
0
176
1
 90
2
176
1
 40
0.6
176
1
 40
30.0
176
1
 62
7
420
16777215
176
1
 90
1
176
1
 90
4
176
1
 62
7
176
1
 62
257
176
1
 90
1
176
1
 90
1
176
1
 40
1.0
176
1
 90
8
176
1
 62
7
176
1
 40
1.0
176
1
 90
1
176
1
 90
6
176
1
 90
2
176
1
 62
7
176
1
 90
5
176
1
 90
0
176
1
 90
0
176
1
290
0
176
1
 90
1
176
1
 40
0.0
176
1
 90
0
176
1
290
0
176
1
290
1
176
1
290
1
176
1
290
0
176
1
290
0
176
1
290
0
176
1
290
0
176
1
290
0
176
1
290
0
176
1
 90
50
176
1
 40
0.0
176
1
 40
1.0
176
1
 90
0
176
1
 62
18
420
0
176
1
 90
50
176
1
 90
3
176
1
 62
5
420
255
176
1
290
0
176
1
 90
50
176
1
 90
50
176
1
 90
50
176
1
290
0
176
1
 90
50
176
1
 62
256
176
0
 40
1.0
176
0
 90
2
176
1
  1
strokes_ogs.tif
176
1
290
0
176
1
 40
1.0
176
1
 40
1.0
176
1
  0
VISUALSTYLE
  5
71
102
{ACAD_REACTORS
330
16
102
}
330
16
100
AcDbVisualStyle
  2
Wireframe
 70
5
177
3
291
0
 70
58
 90
2
176
1
 90
2
176
1
 90
0
176
1
 90
0
176
1
 40
0.6
176
1
 40
30.0
176
1
 62
7
420
16777215
176
1
 90
1
176
1
 90
4
176
1
 62
7
176
1
 62
257
176
1
 90
1
176
1
 90
1
176
1
 40
1.0
176
1
 90
8
176
1
 62
7
176
1
 40
1.0
176
1
 90
1
176
1
 90
6
176
1
 90
2
176
1
 62
7
176
1
 90
5
176
1
 90
0
176
1
 90
0
176
1
290
0
176
1
 90
1
176
1
 40
0.0
176
1
 90
0
176
1
290
0
176
1
290
1
176
1
290
1
176
1
290
0
176
1
290
0
176
1
290
0
176
1
290
0
176
1
290
0
176
1
290
0
176
1
 90
50
176
1
 40
0.0
176
1
 40
1.0
176
1
 90
0
176
1
 62
18
420
0
176
1
 90
50
176
1
 90
3
176
1
 62
5
420
255
176
1
290
0
176
1
 90
50
176
1
 90
50
176
1
 90
50
176
1
290
0
176
1
 90
50
176
1
 62
256
176
0
 40
1.0
176
0
 90
2
176
1
  1
strokes_ogs.tif
176
1
290
0
176
1
 40
1.0
176
1
 40
1.0
176
1
  0
VISUALSTYLE
  5
72
102
{ACAD_REACTORS
330
16
102
}
330
16
100
AcDbVisualStyle
  2
X-Ray
 70
25
177
3
291
0
 70
58
 90
2
176
1
 90
2
176
1
 90
0
176
1
 90
2
176
1
 40
0.5
176
1
 40
30.0
176
1
 62
7
420
16777215
176
1
 90
1
176
1
 90
4
176
1
 62
7
176
1
 62
257
176
1
 90
1
176
1
 90
1
176
1
 40
1.0
176
1
 90
8
176
1
 62
7
176
1
 40
1.0
176
1
 90
1
176
1
 90
6
176
1
 90
2
176
1
 62
7
176
1
 90
5
176
1
 90
0
176
1
 90
0
176
1
290
0
176
1
 90
1
176
1
 40
0.0
176
1
 90
0
176
1
290
0
176
1
290
1
176
1
290
1
176
1
290
0
176
1
290
0
176
1
290
0
176
1
290
0
176
1
290
0
176
1
290
0
176
1
 90
50
176
1
 40
0.0
176
1
 40
1.0
176
1
 90
0
176
1
 62
18
420
0
176
1
 90
50
176
1
 90
3
176
1
 62
5
420
255
176
1
290
0
176
1
 90
50
176
1
 90
50
176
1
 90
50
176
1
290
0
176
1
 90
50
176
1
 62
256
176
0
 40
1.0
176
0
 90
2
176
1
  1
strokes_ogs.tif
176
1
290
0
176
1
 40
1.0
176
1
 40
1.0
176
1
  0
DICTIONARYVAR
  5
C0
330
2D
100
DictionaryVariables
280
0
  1
1.4.4 @ 2026-07-30T11:28:12.827596+00:00
  0
ENDSEC
  0
EOF
